<svg width="1018" height="230" viewBox="0 0 1018 230" fill="none" xmlns="http://www.w3.org/2000/svg">
<g clip-path="url(#clip0_115_78)">
<path d="M123.408 228.775C152.897 228.775 176.802 177.735 176.802 114.774C176.802 51.8137 152.897 0.773926 123.408 0.773926C93.9194 0.773926 70.0142 51.8137 70.0142 114.774C70.0142 177.735 93.9194 228.775 123.408 228.775Z" fill="black"/>
<path d="M156.25 0.773926C185.765 0.773926 209.643 51.822 209.643 114.774C209.643 177.727 185.73 228.775 156.25 228.775" fill="black"/>
<path d="M202.676 24.4072C226.064 24.4072 245.006 64.8816 245.006 114.774C245.006 164.667 226.064 205.141 202.676 205.141" fill="black"/>
<path d="M90.6713 228.775C61.1558 228.775 37.2773 177.727 37.2773 114.774C37.2773 51.822 61.1558 0.773926 90.6713 0.773926" fill="black"/>
<path d="M42.8793 209.553C19.491 209.553 0.549316 169.079 0.549316 119.186C0.549316 69.2936 19.491 28.7842 42.8793 28.7842" fill="black"/>
<path d="M881.041 67.7536C888.464 101.821 892.875 123.213 892.875 146.041C892.875 201.326 856.147 228.741 829.503 228.741C821.485 228.741 814.868 226.22 809.686 221.213C804.469 216.206 801.878 208.679 801.878 198.665V139.774H786.858C786.858 151.398 786.858 162.917 784.757 172.931C782.656 182.944 778.28 191.628 773.763 200.346C769.247 209.064 762.839 215.961 754.541 221.073C746.243 226.185 736.475 228.741 725.236 228.741C712.211 228.741 701.603 225.239 693.375 218.237C685.147 211.234 681.05 201.991 681.05 190.577C681.05 161.517 707.31 144.186 759.793 138.584C737.56 137.393 720.964 134.067 710.041 128.675C699.117 123.248 693.655 114.67 693.655 102.836C693.655 88.8311 699.607 77.7321 711.546 69.6443C723.45 61.5214 739.661 57.46 760.073 57.46C782.726 57.46 800.338 63.167 812.977 74.581C825.617 85.9951 831.919 103.326 831.919 126.574V189.667C831.919 216.942 847.324 221.668 861.854 208.784C875.369 196.809 872.813 185.886 873.514 173.911C873.689 171.075 877.575 158.751 877.575 158.751C880.271 154.865 885.628 183.12 887.343 174.401C889.059 165.683 889.899 155.11 889.899 142.68C889.899 120.447 885.453 100.14 878.065 67.6836H881.076L881.041 67.7536ZM801.878 136.833V129.621C801.878 98.5645 784.652 83.054 750.2 83.054C737.175 83.054 726.776 85.2598 718.934 89.6714C711.126 94.0829 707.205 100.385 707.205 108.613C707.205 118.837 713.157 126.084 725.096 130.391C737 134.697 756.607 136.833 783.847 136.833H801.878V136.833ZM735.775 203.252C751.6 203.252 763.575 197.58 771.697 186.271C779.82 174.962 783.882 159.486 783.882 139.844C759.023 139.844 740.466 143.31 728.142 150.208C715.818 157.105 709.655 166.769 709.655 179.198C709.655 187.006 712.001 192.958 716.728 197.089C721.42 201.186 727.792 203.252 735.81 203.252H735.775Z" fill="black"/>
<path d="M312.965 0.773926H340.695L413.486 194.568H414.116L486.277 0.773926H513.691L428.611 222.928H398.36L312.965 0.773926Z" fill="black"/>
<path d="M546.919 218.028C533.579 210.57 523.145 200.137 515.547 186.657C507.985 173.212 504.203 158.192 504.203 141.596C504.203 125 507.67 111.24 514.602 98.4255C521.535 85.6109 531.163 75.5624 543.417 68.3148C555.707 61.0672 569.747 57.4609 585.502 57.4609C601.258 57.4609 614.317 61.0322 625.977 68.1747C637.636 75.3173 646.704 85.3658 653.251 98.2504C659.764 111.17 663.125 125.735 663.335 141.911V146.463C663.335 148.038 663.23 149.684 663.02 151.329H528.782C530.042 162.463 533.544 172.232 539.321 180.635C545.098 189.038 552.556 195.62 561.694 200.312C570.832 205.038 581.091 207.419 592.4 207.419C604.584 207.419 615.648 204.583 625.661 198.911C635.64 193.239 642.818 185.992 647.264 177.168L667.746 185.676C664.385 194.289 658.958 201.852 651.501 208.364C644.043 214.877 635.15 219.989 624.891 223.665C614.598 227.341 603.674 229.197 592.12 229.197C575.314 229.197 560.223 225.451 546.883 217.993L546.919 218.028ZM638.161 130.287C637.11 119.573 634.239 110.4 629.478 102.732C624.751 95.0643 618.624 89.2522 611.026 85.2258C603.464 81.2344 594.85 79.2387 585.187 79.2387C575.524 79.2387 566.701 81.4094 558.718 85.6809C550.735 89.9875 544.223 96.0446 539.181 103.782C534.139 111.555 530.778 120.378 529.097 130.252H638.126L638.161 130.287Z" fill="black"/>
<path d="M990.351 65.0573C999.174 70.0991 1005.9 77.3117 1010.52 86.66C1015.14 96.0083 1017.45 107.212 1017.45 120.202V222.928H993.502V122.408C993.502 108.963 989.825 98.2491 982.473 90.2663C975.12 82.2834 965.037 78.292 952.222 78.292C941.718 78.292 932.265 80.6028 923.862 85.2245C915.459 89.8461 908.947 96.3584 904.325 104.761C899.703 113.164 897.393 122.513 897.393 132.806V222.928H873.444V63.7969H895.187L897.393 87.4302H897.708C904.64 77.5567 913.148 70.0991 923.232 65.0573C933.315 60.0155 945.185 57.4946 958.839 57.4946C971.024 57.4946 981.527 60.0155 990.351 65.0573V65.0573Z" fill="black"/>
</g>
<defs>
<clipPath id="clip0_115_78">
<rect width="1016.9" height="228.456" fill="white" transform="translate(0.549561 0.771973)"/>
</clipPath>
</defs>
</svg>
