<svg width="120" height="120" viewBox="0 0 120 120" fill="none" xmlns="http://www.w3.org/2000/svg">
<circle cx="60" cy="60" r="60" fill="#BA7C69"/>
<path d="M51.8125 74.375H68.1875C68.7292 74.375 69.1771 74.1979 69.5312 73.8438C69.8854 73.4896 70.0625 73.0417 70.0625 72.5C70.0625 71.9583 69.8854 71.5104 69.5312 71.1562C69.1771 70.8021 68.7292 70.625 68.1875 70.625H51.8125C51.2708 70.625 50.8229 70.8021 50.4688 71.1562C50.1146 71.5104 49.9375 71.9583 49.9375 72.5C49.9375 73.0417 50.1146 73.4896 50.4688 73.8438C50.8229 74.1979 51.2708 74.375 51.8125 74.375ZM51.8125 63.75H68.1875C68.7292 63.75 69.1771 63.5729 69.5312 63.2188C69.8854 62.8646 70.0625 62.4167 70.0625 61.875C70.0625 61.3333 69.8854 60.8854 69.5312 60.5312C69.1771 60.1771 68.7292 60 68.1875 60H51.8125C51.2708 60 50.8229 60.1771 50.4688 60.5312C50.1146 60.8854 49.9375 61.3333 49.9375 61.875C49.9375 62.4167 50.1146 62.8646 50.4688 63.2188C50.8229 63.5729 51.2708 63.75 51.8125 63.75ZM43.75 85C42.75 85 41.875 84.625 41.125 83.875C40.375 83.125 40 82.25 40 81.25V38.75C40 37.75 40.375 36.875 41.125 36.125C41.875 35.375 42.75 35 43.75 35H64.75C65.25 35 65.7396 35.1042 66.2188 35.3125C66.6979 35.5208 67.1042 35.7917 67.4375 36.125L78.875 47.5625C79.2083 47.8958 79.4792 48.3021 79.6875 48.7812C79.8958 49.2604 80 49.75 80 50.25V81.25C80 82.25 79.625 83.125 78.875 83.875C78.125 84.625 77.25 85 76.25 85H43.75ZM64.4375 48.5V38.75H43.75V81.25H76.25V50.375H66.3125C65.7708 50.375 65.3229 50.1979 64.9688 49.8438C64.6146 49.4896 64.4375 49.0417 64.4375 48.5Z" fill="#F5D8B9"/>
</svg>
