<svg width="120" height="120" viewBox="0 0 120 120" fill="none" xmlns="http://www.w3.org/2000/svg">
<circle cx="60" cy="60" r="60" fill="#BA7C69"/>
<path d="M68.5 59.25C69.1375 59.25 69.6719 59.0344 70.1031 58.6031C70.5344 58.1719 70.75 57.6375 70.75 57C70.75 56.3625 70.5344 55.8281 70.1031 55.3969C69.6719 54.9656 69.1375 54.75 68.5 54.75C67.8625 54.75 67.3281 54.9656 66.8969 55.3969C66.4656 55.8281 66.25 56.3625 66.25 57C66.25 57.6375 66.4656 58.1719 66.8969 58.6031C67.3281 59.0344 67.8625 59.25 68.5 59.25ZM52.1875 53.625H60.0625C60.55 53.625 60.9531 53.4656 61.2719 53.1469C61.5906 52.8281 61.75 52.425 61.75 51.9375C61.75 51.45 61.5906 51.0469 61.2719 50.7281C60.9531 50.4094 60.55 50.25 60.0625 50.25H52.1875C51.7 50.25 51.2969 50.4094 50.9781 50.7281C50.6594 51.0469 50.5 51.45 50.5 51.9375C50.5 52.425 50.6594 52.8281 50.9781 53.1469C51.2969 53.4656 51.7 53.625 52.1875 53.625ZM45.4375 81.75C44.65 81.75 43.9094 81.4875 43.2156 80.9625C42.5219 80.4375 42.0625 79.8 41.8375 79.05C40.9 75.825 40.1219 73.0406 39.5031 70.6969C38.8844 68.3531 38.3875 66.3 38.0125 64.5375C37.6375 62.775 37.375 61.2094 37.225 59.8406C37.075 58.4719 37 57.15 37 55.875C37 52.425 38.2 49.5 40.6 47.1C43 44.7 45.925 43.5 49.375 43.5H60.625C61.6375 42.15 62.9219 41.0625 64.4781 40.2375C66.0344 39.4125 67.75 39 69.625 39C70.5625 39 71.3594 39.3281 72.0156 39.9844C72.6719 40.6406 73 41.4375 73 42.375C73 42.6 72.9719 42.825 72.9156 43.05C72.8594 43.275 72.7938 43.4812 72.7188 43.6687C72.5687 44.0812 72.4281 44.4938 72.2969 44.9062C72.1656 45.3187 72.0625 45.7687 71.9875 46.2562L77.1063 51.375H80.3125C80.8 51.375 81.2031 51.5344 81.5219 51.8531C81.8406 52.1719 82 52.575 82 53.0625V65.8313C82 66.2063 81.8969 66.5438 81.6906 66.8438C81.4844 67.1437 81.1938 67.35 80.8188 67.4625L75.6437 69.15L72.6063 79.3312C72.3813 80.0812 71.9688 80.6719 71.3687 81.1031C70.7687 81.5344 70.0938 81.75 69.3438 81.75H62.875C61.9375 81.75 61.1406 81.4219 60.4844 80.7656C59.8281 80.1094 59.5 79.3125 59.5 78.375V77.25H55V78.375C55 79.3125 54.6719 80.1094 54.0156 80.7656C53.3594 81.4219 52.5625 81.75 51.625 81.75H45.4375ZM45.1562 78.375H51.625V73.875H62.875V78.375H69.3438L72.8875 66.5625L78.625 64.5938V54.75H75.7L68.5 47.55C68.5375 46.9125 68.6406 46.1344 68.8094 45.2156C68.9781 44.2969 69.2125 43.275 69.5125 42.15C67.9 42.5625 66.475 43.1812 65.2375 44.0062C64 44.8312 63.1 45.7875 62.5375 46.875H49.375C46.9 46.875 44.7813 47.7563 43.0188 49.5188C41.2563 51.2813 40.375 53.4 40.375 55.875C40.375 57.45 40.7875 60.1969 41.6125 64.1156C42.4375 68.0344 43.6188 72.7875 45.1562 78.375Z" fill="#F5D8B9"/>
</svg>
