<svg width="120" height="120" viewBox="0 0 120 120" fill="none" xmlns="http://www.w3.org/2000/svg">
<circle cx="60" cy="60" r="60" fill="#BA7C69"/>
<path d="M63.8766 81.9339C63.2032 82.6072 62.3897 82.9439 61.4358 82.9439C60.4819 82.9439 59.6683 82.6072 58.995 81.9339L37.9539 60.8928C37.5798 60.5187 37.3273 60.1259 37.1964 59.7145C37.0655 59.303 37 58.8728 37 58.4239V41.3666C37 40.394 37.318 39.5898 37.9539 38.9539C38.5898 38.318 39.394 38 40.3666 38H57.4239C57.8728 38 58.3217 38.0655 58.7706 38.1964C59.2195 38.3273 59.6309 38.5798 60.005 38.9539L80.9339 59.8828C81.6446 60.5935 82 61.4258 82 62.3797C82 63.3335 81.6446 64.1658 80.9339 64.8766L63.8766 81.9339ZM61.5761 79.6334L78.6334 62.5761L57.4239 41.3666H40.3666V58.4239L61.5761 79.6334ZM46.2581 50.1197C47.0436 50.1197 47.7263 49.8298 48.3061 49.25C48.8859 48.6702 49.1758 47.9875 49.1758 47.202C49.1758 46.4165 48.8859 45.7338 48.3061 45.154C47.7263 44.5742 47.0436 44.2843 46.2581 44.2843C45.4726 44.2843 44.7899 44.5742 44.2101 45.154C43.6303 45.7338 43.3404 46.4165 43.3404 47.202C43.3404 47.9875 43.6303 48.6702 44.2101 49.25C44.7899 49.8298 45.4726 50.1197 46.2581 50.1197Z" fill="#F5D8B9"/>
</svg>
