<svg width="711" height="725" viewBox="0 0 711 725" fill="none" xmlns="http://www.w3.org/2000/svg">
<path d="M103.672 616.52C111.783 618.922 119.293 624.928 126.703 631.435C134.514 638.241 135.916 641.745 145.83 648.952C159.648 658.961 171.164 662.365 173.868 663.165C181.979 665.468 188.788 666.068 193.394 666.469C196.298 666.669 199.002 666.769 201.405 666.869C206.813 666.969 210.718 666.569 211.82 666.569C240.559 664.467 283.417 661.364 310.254 675.377C312.557 676.578 317.964 679.682 326.376 683.585C334.987 687.589 343.699 691.593 348.506 692.794C384.855 701.403 395.169 687.189 439.63 695.797C461.159 700.001 477.682 705.807 477.682 705.807C491 710.512 494.204 713.014 505.72 716.818C509.926 718.219 527.35 723.825 546.776 724.826C571.009 726.127 589.735 719.921 607.859 713.815C629.589 706.508 641.105 699.201 662.934 695.797C673.349 694.196 683.963 693.795 683.963 693.795C695.479 693.395 704.892 694.096 711 694.796V218.132C680.058 217.431 654.122 219.633 634.896 222.136C613.467 224.938 594.141 227.541 569.807 236.149C552.884 242.155 540.468 248.561 529.753 254.167C507.823 265.578 503.417 270.583 474.678 288.2C446.439 305.517 432.42 314.125 417.6 319.23C388.961 329.04 363.426 329.24 357.518 329.24C336.289 329.14 329.48 325.236 303.444 326.237C291.929 326.638 281.114 327.038 267.395 330.241C256.681 332.744 223.736 340.851 198.301 367.277C189.689 376.286 188.388 380.59 177.272 390.3C161.851 403.713 148.333 409.118 145.229 410.319C135.816 413.923 127.605 415.424 122.197 416.325C111.483 418.127 103.672 418.227 100.167 418.327C77.1359 419.128 56.1073 430.539 51.1004 433.342C27.5684 446.154 -1.07068 477.585 0.0308222 518.424C0.932051 551.557 21.0595 576.581 36.08 588.493C51.501 600.705 66.1209 605.509 66.1209 605.509L69.125 606.41C80.7408 609.813 92.2565 613.117 103.672 616.52Z" fill="#201A1A"/>
<mask id="mask0_647_4028" style="mask-type:alpha" maskUnits="userSpaceOnUse" x="0" y="0" width="711" height="725">
<path d="M126.9 631.5C119.5 625 112 619 103.9 616.6C92.4999 613.2 80.9999 609.9 69.3999 606.5L66.3999 605.6C66.3999 605.6 51.7999 600.8 36.3999 588.6C21.3999 576.7 1.29992 551.7 0.399921 518.6C-0.700079 477.8 27.8999 446.4 51.3999 433.6C56.3999 430.8 88.9999 327.8 112 327C123.1 317.3 290.9 274 299.5 265C325.5 264 236.4 -39.4995 600.9 5.50045C600.9 5.50045 681.8 228.4 710.4 218.6V694.8C704.3 694.1 694.9 693.4 683.4 693.8C683.4 693.8 672.8 694.2 662.4 695.8C640.6 699.2 629.1 706.5 607.4 713.8C589.3 719.9 570.6 726.1 546.4 724.8C527 723.8 509.6 718.2 505.4 716.8C493.9 713 490.7 710.5 477.4 705.8C477.4 705.8 460.9 700 439.4 695.8C395 687.2 384.7 701.4 348.4 692.8C343.6 691.6 334.9 687.6 326.3 683.6C317.9 679.7 312.5 676.6 310.2 675.4C283.4 661.4 240.6 664.5 211.9 666.6C210.8 666.6 206.9 667 201.5 666.9C199.1 666.8 196.4 666.7 193.5 666.5C188.9 666.1 182.1 665.5 174 663.2L173.99 663.197C171.272 662.391 159.783 658.987 146 649C136.1 641.8 134.7 638.3 126.9 631.5Z" fill="#F5D8B9"/>
</mask>
<g mask="url(#mask0_647_4028)">
<path d="M271.072 726.003H537.792L512.89 652.989L308.516 663.499L271.072 726.003Z" fill="#875849"/>
<path d="M320.69 665.158L476.553 659.442L531.889 349.685L481.902 328.113C481.902 328.113 461.243 339.728 422.693 339.913C385.064 340.097 385.617 327.375 385.617 327.375L352.6 362.96C352.6 362.96 311.836 478.75 311.283 481.147C310.545 483.36 320.69 665.158 320.69 665.158Z" fill="#FFE8CF"/>
<path d="M500.901 335.857C500.901 335.857 577.634 351.713 578.372 364.435C579.109 377.158 545.539 456.441 544.801 458.469C544.063 460.497 514.735 573.706 514.735 573.706L559.004 725.819H421.033C421.033 725.819 430.809 582.187 442.06 515.995C453.128 449.619 455.71 427.493 459.952 401.127C461.612 390.617 470.282 354.479 475.631 332.353C478.213 322.028 476.369 313.362 476.369 313.362L483.009 315.944L500.901 335.857Z" fill="#875849"/>
<path d="M260.742 530.192C260.004 531.299 245.986 582.187 243.772 596.938C241.743 609.476 238.792 629.757 252.073 648.564C265.353 667.371 279.003 665.158 292.284 660.364C305.564 655.57 319.952 627.914 322.534 612.057C325.116 596.2 310.176 526.505 310.176 526.505L260.742 530.192Z" fill="#875849"/>
<path d="M385.802 317.234L368.647 341.388C368.647 341.388 311.651 348.763 298.555 358.351C285.459 367.939 258.897 540.333 258.897 540.333L311.836 569.834L270.887 726.188H322.165C322.165 726.188 334.892 660.364 333.786 612.979C332.679 565.593 340.795 504.195 355.92 458.653C371.045 413.296 385.433 334.566 385.433 334.566L385.802 317.234Z" fill="#875849"/>
<g opacity="0.3">
<path d="M540.927 668.476L449.069 617.403C452.943 638.423 465.301 658.52 483.378 670.136C501.454 681.567 524.326 685.255 544.985 679.908C543.694 676.036 542.218 672.348 540.927 668.476Z" fill="#64392C"/>
</g>
<path d="M268.858 571.309C268.858 571.493 266.645 571.862 263.509 573.152C260.189 574.443 255.947 577.209 252.626 581.449C249.306 585.69 247.646 590.484 247.093 593.987C246.539 597.49 246.724 599.703 246.539 599.703C246.539 599.703 246.355 599.15 246.355 598.228C246.355 597.306 246.355 595.831 246.539 593.987C246.908 590.484 248.568 585.506 252.073 581.081C255.578 576.656 260.005 574.074 263.509 572.784C265.169 572.231 266.645 571.862 267.567 571.677C268.305 571.309 268.858 571.309 268.858 571.309Z" fill="#64392C"/>
<path d="M279.557 642.848C279.557 642.848 294.129 638.238 299.293 632.338C305.38 625.516 308.701 615.375 309.07 611.872C309.807 603.022 312.943 556.927 312.943 556.927L274.577 554.346L250.967 599.519C250.967 599.519 244.511 616.113 257.607 633.813C266.092 645.245 279.557 642.848 279.557 642.848Z" fill="#F8B4A0"/>
<path d="M316.447 617.404C316.263 617.404 316.632 615.376 317 612.057C317.369 608.738 317.369 604.313 316.816 599.335C316.263 594.356 314.971 589.931 313.865 586.981C312.758 583.847 311.836 582.003 312.02 582.003C312.02 582.003 312.389 582.372 312.758 583.294C313.127 584.031 313.865 585.322 314.418 586.797C315.709 589.931 317 594.356 317.738 599.335C318.292 604.313 318.107 609.107 317.738 612.241C317.554 613.901 317.185 615.191 317 616.113C316.632 617.035 316.447 617.404 316.447 617.404Z" fill="#64392C"/>
<path d="M314.972 618.325C314.972 618.325 314.972 619.063 314.972 620.538C314.972 621.275 314.972 622.197 314.787 623.119C314.603 624.041 314.603 625.332 314.234 626.438C313.681 629.019 312.943 631.785 311.652 635.104C310.36 638.238 308.7 641.557 306.671 644.876C304.458 648.195 302.06 650.96 299.662 653.357C297.264 655.754 294.866 657.598 292.837 659.073C291.731 659.811 290.808 660.364 289.886 660.917C288.964 661.47 288.226 661.839 287.673 662.208C286.381 662.761 285.644 663.129 285.644 663.129C285.644 662.945 288.41 661.654 292.468 658.704C294.497 657.229 296.711 655.201 299.109 652.989C301.322 650.592 303.72 647.826 305.933 644.507C307.962 641.373 309.623 638.054 310.914 634.919C312.205 631.785 313.127 629.019 313.496 626.438C314.787 621.46 314.787 618.325 314.972 618.325Z" fill="#64392C"/>
<path d="M140.479 320.922C138.634 320.922 129.227 323.319 124.247 330.326L210.018 452.016L317.185 439.663L315.525 330.141C315.525 330.141 308.331 319.632 301.138 320.738C298.371 321.291 207.804 335.304 199.688 357.614C199.688 357.614 200.61 346.367 193.048 340.651C185.485 334.935 140.479 320.922 140.479 320.922Z" fill="#FFE8CF"/>
<path d="M141.769 321.291C142.692 321.475 143.798 321.844 145.458 322.397C148.594 323.319 153.39 324.978 159.661 327.006C165.748 329.034 173.311 331.616 181.98 335.119C184.194 336.041 186.407 336.963 188.621 337.885C190.834 338.991 193.232 340.097 195.076 341.941C198.95 345.813 200.426 351.713 200.241 357.613L199.688 357.429C201.348 353.372 204.852 350.238 208.542 347.841C212.415 345.26 216.473 343.232 220.9 341.203C229.754 337.332 239.53 334.197 250.044 331.247C260.373 328.481 271.44 325.9 283.061 323.503C288.779 322.397 294.681 321.291 300.768 320.369C302.244 320 304.088 320.184 305.564 320.737C307.04 321.291 308.515 322.028 309.622 322.95C312.204 324.794 314.233 327.191 316.078 329.772V329.956V330.141C316.447 358.351 317 389.142 317.554 421.04C317.738 427.309 317.738 433.393 317.923 439.478V439.846H317.554C279.372 444.272 243.034 448.328 210.386 452.015H210.202L210.017 451.831C170.36 395.411 139.556 351.529 124.431 329.956V329.772V329.588C126.275 327.006 128.489 325.162 130.518 323.872C132.547 322.581 134.391 321.844 135.867 321.291C137.342 320.737 138.634 320.553 139.371 320.369C140.109 320.737 140.478 320.922 140.478 320.922C140.478 320.922 140.109 320.922 139.371 321.106C138.634 321.29 137.342 321.659 135.867 322.212C134.391 322.766 132.547 323.687 130.518 324.794C128.489 326.084 126.275 327.928 124.431 330.509V330.325C139.556 351.713 170.729 395.595 210.386 451.831L210.017 451.647C242.665 447.959 278.818 443.718 317.185 439.293L316.816 439.846C316.631 433.762 316.631 427.493 316.447 421.408C315.894 389.511 315.525 358.72 314.971 330.509V330.694C313.127 328.297 311.098 325.9 308.7 324.056C307.409 323.134 306.117 322.397 304.826 321.844C303.351 321.291 302.06 321.29 300.584 321.475C294.497 322.397 288.779 323.503 282.876 324.609C271.44 326.822 260.373 329.403 250.044 332.169C239.714 334.935 229.938 338.069 221.084 341.941C216.657 343.785 212.415 345.997 208.726 348.394C205.037 350.976 201.717 353.926 200.057 357.798L199.319 359.457V357.613C199.503 351.897 198.028 345.997 194.523 342.31C192.679 340.466 190.281 339.36 188.252 338.253C186.038 337.147 183.825 336.225 181.611 335.488C172.942 331.985 165.564 329.403 159.477 327.375C153.39 325.347 148.594 323.687 145.458 322.581C143.798 322.028 142.692 321.659 141.769 321.291Z" fill="#201A1A"/>
<path d="M193.048 468.978L112.626 332.537C111.888 331.246 112.073 329.587 112.995 328.481C113.917 327.374 115.577 327.006 116.869 327.559L180.136 352.819C181.427 353.372 182.35 354.109 183.272 355.031C185.116 357.06 185.854 359.825 185.301 362.591L184.379 366.832L206.513 372.547L207.066 371.257C208.911 366.647 212.6 363.144 217.396 361.669L319.399 329.218C323.826 327.743 328.437 329.771 330.65 333.828L402.956 473.403L400.558 480.041L285.459 507.329H265.169L193.048 468.978Z" fill="#A83F3F"/>
<path d="M193.048 468.978C193.048 468.978 193.417 469.162 194.339 469.531C195.261 469.9 196.368 470.637 198.028 471.375C201.348 473.034 205.96 475.616 212.231 478.75C224.589 485.203 242.666 494.791 265.354 506.776H265.169C271.441 506.776 278.265 506.776 285.459 506.776C317.37 499.216 356.658 489.813 400.558 479.303L400.189 479.488C400.927 477.459 401.665 475.247 402.587 472.85V473.219C390.782 450.54 378.239 426.386 365.143 400.942C358.503 388.22 351.862 375.313 345.038 362.222C341.717 355.585 338.213 348.947 334.708 342.309C333.786 340.65 333.048 338.991 332.126 337.331L330.835 334.75C330.466 333.828 330.097 333.09 329.543 332.353C327.33 329.403 323.272 328.112 319.952 329.218C299.478 335.672 279.372 342.125 259.636 348.394C249.86 351.528 240.083 354.663 230.676 357.613C225.881 359.088 221.085 360.563 216.658 362.222C212.231 364.066 208.726 367.938 207.435 372.363L207.251 372.732L206.882 372.548C199.319 370.704 191.941 368.676 184.747 366.832L184.378 366.647L184.563 366.279L185.301 362.96C185.67 361.854 185.67 360.747 185.67 359.641C185.485 357.428 184.378 355.4 182.718 354.11C181.796 353.372 180.874 353.003 179.952 352.635L176.816 351.344C174.787 350.422 172.758 349.685 170.544 348.947C162.244 345.628 154.313 342.494 146.381 339.359C138.45 336.225 130.887 333.09 123.324 330.14C121.48 329.403 119.635 328.665 117.791 327.928C116.131 327.006 113.917 327.743 113.364 329.403C112.995 330.14 112.995 331.062 113.364 331.984L114.839 334.381C115.762 336.04 116.868 337.7 117.791 339.359C133.285 365.726 146.75 388.773 158.002 407.948C169.253 427.124 178.107 442.243 184.194 452.753C187.145 457.915 189.543 461.972 191.203 464.737C191.941 466.028 192.494 467.134 193.048 467.872C192.863 468.609 193.048 468.978 193.048 468.978C193.048 468.978 192.863 468.609 192.494 468.056C192.126 467.319 191.388 466.397 190.65 465.106C188.99 462.34 186.592 458.468 183.641 453.306C177.554 442.98 168.515 427.677 157.264 408.686C146.012 389.51 132.363 366.463 116.868 340.097C115.946 338.437 114.839 336.778 113.917 335.119C113.364 334.197 112.995 333.459 112.442 332.537C111.888 331.615 111.888 330.325 112.257 329.403C112.626 328.481 113.548 327.559 114.655 327.19C115.762 326.822 116.868 327.006 117.791 327.375C119.635 328.112 121.48 328.85 123.324 329.587C130.887 332.537 138.45 335.672 146.381 338.806C154.313 341.941 162.244 345.075 170.544 348.394C172.573 349.131 174.602 350.053 176.816 350.791L179.952 352.081C181.058 352.45 182.165 353.003 183.087 353.741C184.932 355.216 186.223 357.428 186.407 359.825C186.592 360.932 186.223 362.222 186.039 363.329L185.301 366.647L184.932 366.094C192.126 367.938 199.504 369.782 207.066 371.81L206.513 372.179C207.989 367.569 211.678 363.329 216.289 361.485C221.085 359.825 225.696 358.535 230.492 356.875C240.083 353.925 249.675 350.791 259.451 347.656C279.003 341.387 299.109 334.934 319.767 328.481C323.641 327.19 328.068 328.85 330.466 331.984C331.019 332.722 331.572 333.644 331.941 334.565L333.233 337.147C334.155 338.806 334.893 340.466 335.815 342.125C339.32 348.763 342.64 355.4 346.144 362.038C352.969 375.129 359.609 388.22 366.25 400.758C379.346 426.018 391.889 450.356 403.694 473.034V473.219V473.403C402.956 475.616 402.034 478.013 401.296 480.041V480.225H401.112C357.027 490.55 317.923 499.769 285.828 507.329C278.634 507.329 271.994 507.329 265.538 507.329C242.85 495.344 224.774 485.756 212.415 479.119C206.328 475.8 201.533 473.219 198.397 471.559C196.737 470.637 195.63 470.084 194.708 469.531C193.417 469.162 193.048 468.978 193.048 468.978Z" fill="#201A1A"/>
<g opacity="0.3">
<path d="M249.675 490.919L197.106 465.659L124.247 345.997L188.621 370.888L187.145 374.392L133.1 353.372L199.688 462.894L251.335 487.6L249.675 490.919Z" fill="#201A1A"/>
</g>
<g opacity="0.3">
<path d="M292.284 498.295L226.065 378.817L323.641 347.473L387.278 470.638L292.284 498.295ZM231.415 381.03L294.129 494.054L381.929 468.426L321.797 352.082L231.415 381.03Z" fill="#201A1A"/>
</g>
<path d="M280.479 505.67C280.294 505.854 263.693 476.169 243.403 439.293C223.113 402.602 206.882 372.548 207.066 372.548C207.25 372.363 223.851 402.048 244.141 438.924C264.431 475.616 280.663 505.67 280.479 505.67Z" fill="#201A1A"/>
<path d="M184.563 366.647C184.563 366.647 184.932 367.016 185.485 367.938C186.039 368.86 186.776 370.335 187.699 371.994C189.728 375.498 192.494 380.476 195.815 386.745C202.639 399.283 211.862 416.614 222.192 435.79C232.336 454.965 241.559 472.297 248.199 484.835C251.52 491.104 254.286 496.082 256.131 499.769C257.053 501.429 257.791 502.904 258.344 503.826C258.898 504.748 259.082 505.301 259.082 505.301C259.082 505.301 258.713 504.932 258.16 504.01C257.607 503.088 256.869 501.613 255.947 499.954C253.918 496.451 251.151 491.472 247.831 485.203C241.006 472.666 231.783 455.334 221.454 436.158C211.309 416.983 202.086 399.651 195.446 387.114C192.126 380.845 189.359 375.866 187.514 372.179C186.592 370.519 185.854 369.044 185.301 368.123C184.747 367.201 184.563 366.647 184.563 366.647Z" fill="#201A1A"/>
<path d="M197.106 368.861C196.922 368.861 197.291 366.28 197.844 363.329C198.582 360.379 199.32 357.982 199.504 357.982C199.688 357.982 199.32 360.564 198.766 363.514C198.028 366.464 197.291 368.861 197.106 368.861Z" fill="#201A1A"/>
<g opacity="0.3">
<path d="M209.28 405.736L248.384 478.197L262.034 480.226L223.114 408.318L209.28 405.736Z" fill="#201A1A"/>
</g>
<g opacity="0.3">
<path d="M195.446 386.376L217.027 390.801L221.823 398.545L199.688 394.304L195.815 387.482" fill="#201A1A"/>
</g>
<g opacity="0.3">
<path d="M272.732 386.376L268.858 377.526L293.206 368.86L297.264 377.526L272.732 386.376Z" fill="#201A1A"/>
</g>
<g opacity="0.3">
<path d="M271.072 431.181L257.606 405.737L326.223 380.477L338.397 405.737L271.072 431.181Z" fill="#201A1A"/>
</g>
<path d="M491.862 24.9927C497.212 20.0145 504.959 17.6175 512.152 18.9082C515.104 19.4613 518.239 20.3832 520.822 19.0926C522.666 18.1707 523.773 16.1425 525.249 14.4831C529.676 9.68923 538.345 9.87361 542.587 14.8519C543.694 16.1425 544.432 17.6175 545.907 18.3551C551.441 21.6739 558.45 11.1643 563.984 14.4831C561.402 15.5894 558.819 16.88 557.344 19.277C555.868 21.6739 555.683 24.9927 557.712 26.8365C562.877 31.8148 572.284 21.6739 578.002 25.9146C581.138 28.1272 581.323 33.6585 585.012 34.7648C586.487 35.1336 587.963 34.7648 589.438 34.5804C594.419 34.2117 599.215 38.6368 599.583 43.615C599.768 47.8558 597.37 53.0184 600.506 55.9684C602.35 57.8122 605.486 57.6279 608.068 57.4435C607.884 61.3154 606.593 65.1874 604.748 68.6906C611.573 72.9313 613.602 83.2566 608.991 89.8942C612.311 92.6599 615.631 95.61 617.475 99.482C619.504 103.354 619.689 108.332 616.922 111.651C616.369 112.389 615.631 113.126 615.078 114.048C614.709 114.97 614.709 116.076 614.893 117.182C615.446 121.239 617.107 125.111 616.738 129.167C616.369 133.223 613.233 137.648 609.175 137.095C608.253 136.911 607.146 136.542 606.408 137.095C605.855 137.464 605.486 138.202 605.301 138.939C604.564 141.889 605.117 144.839 605.486 147.789C605.67 150.739 605.67 153.874 603.826 156.271C601.981 158.483 597.923 159.221 596.263 156.824C597.186 161.433 598.108 166.043 599.03 170.652C599.583 173.418 599.952 176.737 597.923 178.581C595.157 180.978 590.73 178.765 588.885 175.631C587.041 172.496 586.672 168.624 584.827 165.49C584.089 164.199 582.983 163.093 582.614 161.618C582.245 160.512 582.06 159.221 581.323 158.483C579.478 156.824 576.711 159.221 576.711 161.618C576.896 164.015 578.556 165.859 580.031 167.702C581.507 169.546 582.429 172.312 581.138 174.34C580.585 175.262 579.478 175.815 578.74 176.921C576.711 180.24 581.507 183.928 581.876 187.8C582.245 190.75 580.031 193.147 577.818 195.175C575.236 197.572 570.255 199.416 568.78 196.097C568.226 194.99 568.595 193.7 568.226 192.409C567.857 190.934 566.566 190.012 565.644 189.09C563.062 186.509 561.217 183.19 560.664 179.687C563.431 183.559 566.382 188.537 564.168 192.778C563.246 194.437 561.402 195.728 559.926 197.019C556.975 199.784 555.13 203.288 552.363 206.053C549.596 208.819 544.985 210.478 541.665 208.45C542.587 212.322 540.743 216.747 537.238 218.591C533.733 220.435 528.938 219.513 526.355 216.563C525.618 215.825 525.064 214.719 524.142 214.35C523.035 213.797 521.928 214.166 520.637 214.35C513.628 215.272 506.25 211.953 502.561 206.053C503.668 205.684 504.959 205.316 506.065 204.947C499.241 203.656 492.047 202.366 486.513 198.125C480.98 193.884 477.66 185.956 480.98 179.871C482.455 177.29 485.038 174.524 484.115 171.759C483.378 169.73 481.349 168.809 479.32 168.071C471.204 164.752 463.272 161.433 455.156 158.299C451.283 156.64 447.225 154.98 444.642 151.477C442.244 148.158 442.244 142.442 445.749 140.23C444.089 136.358 441.138 133.039 437.633 130.642C433.575 128.061 428.964 126.586 424.906 124.189C420.848 121.792 417.159 117.367 417.712 112.757C418.265 107.963 424.906 104.645 428.042 108.332C427.673 101.141 414.945 100.035 414.207 92.8443C413.654 86.9442 421.217 84.3629 425.09 80.1221C424.352 78.094 422.508 76.6189 421.77 74.5908C420.294 70.35 424.721 66.4781 428.964 64.6343C433.206 62.9749 438.186 61.1311 439.478 56.8903C440.769 52.4652 437.08 47.1182 439.662 43.2463C441.138 41.0337 444.273 40.4806 446.487 41.9556C450.176 33.8429 465.486 40.8493 470.281 33.4742C470.65 32.921 471.019 32.1835 470.835 31.446C470.835 30.8929 470.466 30.3397 470.097 29.7866C468.437 27.3896 465.67 26.099 463.457 24.2552C461.243 22.4114 459.399 19.277 460.69 16.6956C461.797 14.1143 466.961 14.2987 466.777 17.2488C469.912 14.8519 475.262 16.3269 476.368 20.1989C478.397 17.8019 482.455 18.1707 485.038 19.8301C487.62 21.4895 489.28 24.4396 490.756 27.2053" fill="#201A1A"/>
<path d="M526.54 118.104C524.326 106.119 515.841 96.3471 506.25 88.7875C502.192 85.6531 497.949 82.703 492.969 81.7811C487.989 80.8592 482.271 82.5186 479.504 86.7594L480.057 95.2408C478.582 108.7 488.727 120.316 493.338 133.039C495.367 138.57 497.027 145.208 502.376 147.605C505.143 148.895 508.463 148.711 511.414 147.789C522.851 144.101 528.753 130.088 526.54 118.104Z" fill="#FFE8CF"/>
<path d="M526.171 180.609C534.102 170.652 532.995 154.795 524.142 145.945C529.122 139.676 527.462 130.089 522.482 124.004C517.501 117.735 510.123 114.232 502.93 110.729C499.056 92.4752 478.766 79.3843 460.69 83.625C451.467 69.6122 431.177 67.2153 415.13 71.8247C411.256 72.931 407.198 74.4061 403.14 74.4061C400.189 74.4061 397.238 73.4842 394.286 73.1154C377.87 70.7185 361.454 82.15 354.998 97.2691C353.891 99.666 353.153 102.247 351.493 104.275C349.28 107.041 346.144 108.516 343.377 110.729C337.29 115.338 333.601 122.529 333.048 130.089C332.679 136.542 334.708 143.18 331.941 149.08C330.65 152.03 328.068 154.242 326.961 157.377C323.825 166.043 333.417 175.077 331.572 184.296C331.203 186.14 330.281 187.799 329.728 189.643C328.621 193.331 328.99 197.387 330.65 200.89C331.941 203.656 333.97 206.053 334.154 209.003C334.339 211.216 333.232 213.428 332.679 215.641C331.572 220.988 343.008 242.007 347.62 245.141L487.804 247.907C498.503 245.879 507.172 236.291 508.279 225.597C508.463 223.753 508.463 221.91 509.57 220.434C510.492 219.328 512.152 218.775 513.443 218.038C522.482 213.244 523.773 200.89 522.851 190.749C522.666 189.274 522.666 187.799 523.035 186.509C523.404 183.743 524.88 182.268 526.171 180.609Z" fill="#201A1A"/>
<path d="M486.329 180.425C487.067 155.718 471.757 126.955 447.225 114.601C431.731 106.857 419.741 106.673 411.441 105.567C393.18 103.17 378.239 112.204 378.239 112.204C370.492 113.864 341.902 139.493 340.242 167.703C338.213 198.863 337.106 237.029 340.795 260.445C348.173 307.278 384.142 313.178 384.142 313.178L382.482 350.238L408.674 398.73L476 330.141L486.329 180.425Z" fill="#F8B4A0"/>
<path d="M410.887 253.255C410.703 250.858 409.411 248.645 407.751 246.986C404.431 243.852 399.451 243.298 395.577 245.695C391.704 248.092 389.306 253.255 389.675 258.049C391.52 260.999 394.655 263.027 398.16 263.58C398.713 263.58 399.267 263.765 399.82 263.765C402.402 263.765 405.169 263.027 407.383 261.183C409.78 259.339 411.072 256.205 410.887 253.255Z" fill="#BA7C69"/>
<path d="M350.756 209.373C350.571 212.507 353.154 215.273 356.474 215.457C359.794 215.641 362.561 213.245 362.745 210.11C362.93 206.976 360.347 204.21 357.027 204.026C353.523 203.841 350.756 206.238 350.756 209.373Z" fill="#64392C"/>
<path d="M350.755 185.587C351.493 186.325 356.105 183.006 362.56 183.006C369.016 183.006 373.812 186.325 374.55 185.403C374.919 185.034 374.181 183.559 372.152 182.084C370.123 180.609 366.618 179.134 362.56 179.134C358.502 179.134 355.182 180.609 353.153 182.084C351.124 183.743 350.387 185.218 350.755 185.587Z" fill="#64392C"/>
<path d="M388.568 236.476C388.568 236.108 384.51 235.37 378.054 234.633C376.394 234.448 374.919 234.079 374.55 232.973C374.181 231.867 374.919 230.023 375.657 227.995C377.132 223.938 378.792 219.882 380.452 215.457C387.277 197.572 392.073 182.822 391.335 182.638C390.597 182.453 384.51 196.65 377.686 214.535C376.025 218.96 374.55 223.201 373.074 227.257C372.521 229.101 371.414 231.314 372.152 233.711C372.521 235.001 373.812 235.923 374.919 236.108C376.025 236.476 376.948 236.476 377.686 236.476C384.51 236.845 388.568 236.845 388.568 236.476Z" fill="#64392C"/>
<path d="M384.142 312.993C384.142 312.993 415.683 315.022 446.856 296.215C446.856 296.215 430.255 329.956 383.404 325.531L384.142 312.993Z" fill="#BA7C69"/>
<path d="M407.752 241.086C406.645 241.086 406.645 248.092 400.743 253.071C394.84 258.049 387.278 257.311 387.278 258.233C387.093 258.602 388.938 259.524 392.074 259.708C395.209 259.893 399.636 258.786 403.325 255.836C407.014 252.702 408.49 248.645 408.859 245.88C408.859 242.745 408.121 240.902 407.752 241.086Z" fill="#64392C"/>
<path d="M353.337 161.249C354.444 162.908 359.424 161.802 365.143 162.171C370.861 162.54 375.656 164.199 376.948 162.724C377.501 161.987 376.948 160.511 374.919 158.852C372.89 157.193 369.569 155.902 365.511 155.533C361.453 155.349 357.949 156.271 355.735 157.561C353.706 159.036 352.969 160.511 353.337 161.249Z" fill="#64392C"/>
<path d="M420.295 212.138C420.295 215.272 417.528 217.853 414.208 218.038C410.888 218.038 408.305 215.641 408.305 212.322C408.305 209.188 411.072 206.606 414.392 206.422C417.528 206.422 420.295 209.003 420.295 212.138Z" fill="#64392C"/>
<path d="M439.293 187.984C438.555 188.722 434.128 185.219 427.673 185.034C421.217 184.666 416.421 187.8 415.683 187.062C415.314 186.694 416.236 185.403 418.265 183.928C420.294 182.453 423.799 181.162 427.857 181.347C431.915 181.531 435.235 183.191 437.08 184.666C439.109 186.325 439.662 187.616 439.293 187.984Z" fill="#64392C"/>
<path d="M441.138 166.412C439.846 167.887 434.866 166.043 428.964 165.859C423.061 165.305 417.896 166.412 416.79 164.937C416.236 164.199 417.159 162.724 419.372 161.433C421.585 160.143 425.275 159.221 429.333 159.405C433.391 159.59 436.895 161.065 438.924 162.724C440.953 164.199 441.691 165.674 441.138 166.412Z" fill="#64392C"/>
<path d="M478.582 224.676C478.582 221.173 482.64 212.876 486.144 212.507C495.367 211.032 511.968 211.77 512.152 235.186C512.337 267.083 480.242 260.814 480.242 259.893C480.057 259.155 478.582 236.845 478.582 224.676Z" fill="#F8B4A0"/>
<path d="M488.727 248.092C488.911 247.907 489.28 248.461 490.202 248.829C491.124 249.198 492.785 249.567 494.445 248.829C497.765 247.539 500.532 242.192 500.716 236.476C500.716 233.526 500.163 230.76 499.056 228.548C498.134 226.151 496.474 224.676 494.814 224.307C493.153 223.938 491.862 225.044 491.493 225.782C491.124 226.704 491.309 227.257 491.124 227.441C491.124 227.441 490.387 226.888 490.756 225.598C490.94 225.044 491.309 224.122 492.047 223.569C492.785 223.016 493.891 222.647 495.182 222.647C497.58 222.832 499.794 225.044 501.085 227.626C502.376 230.207 503.114 233.157 503.114 236.476C502.929 242.929 499.794 249.014 495.182 250.304C492.969 250.857 491.124 250.304 490.018 249.567C488.727 248.829 488.727 248.092 488.727 248.092Z" fill="#64392C"/>
<path d="M332.863 168.071C339.319 164.015 343.377 158.483 343.008 150.924C347.251 152.214 351.678 146.683 354.075 142.995C356.658 139.308 359.609 137.464 359.425 133.039C359.425 132.117 359.24 131.195 359.793 130.457C360.531 129.167 362.007 128.798 363.298 128.429C370.123 126.217 375.657 120.501 377.317 113.495C384.141 116.445 391.704 117.735 399.267 117.182C402.587 121.976 408.489 124.926 414.207 124.557C420.11 124.373 425.643 120.87 428.41 115.892C430.255 119.948 434.497 122.529 438.74 123.635C442.982 124.742 447.593 124.557 452.02 124.373C450.176 133.039 455.709 142.442 464.01 145.023C465.117 145.392 466.408 145.761 466.961 146.867C467.514 147.974 466.961 149.264 466.408 150.37C463.641 157.746 468.437 166.965 475.999 168.808C470.835 172.865 471.388 182.268 476.922 185.587C478.028 186.324 479.688 187.062 479.504 188.537C479.504 189.09 479.135 189.459 478.766 189.828C476.368 192.962 473.97 196.465 473.786 200.337C473.417 204.209 476.184 208.634 480.057 208.819C478.028 210.662 475.999 213.059 475.999 215.825C475.999 218.591 478.766 221.356 481.348 220.435C482.455 220.066 498.318 216.931 499.056 216.009C508.094 203.656 496.658 190.196 495.92 174.893C494.998 159.774 489.649 145.023 482.086 131.748C478.951 126.217 475.261 120.87 470.835 116.445C465.67 111.282 459.398 107.41 453.312 103.538C445.196 98.5598 436.895 93.5816 427.672 91.369C410.518 87.3127 392.442 93.5816 376.394 100.957C370.307 103.722 364.22 106.857 359.056 111.098C352.969 116.26 348.357 123.082 344.484 130.273C338.766 140.414 333.97 151.292 332.863 162.908" fill="#201A1A"/>
<path d="M326.592 156.824C326.592 156.824 326.961 155.533 328.252 153.321C328.99 152.215 329.912 151.108 330.834 149.449C331.756 147.79 332.494 145.761 332.679 143.549C332.863 141.152 332.679 138.571 332.494 135.621C332.31 132.67 332.125 129.536 332.679 126.217C333.232 122.898 334.708 119.395 336.921 116.076C338.028 114.417 339.319 112.942 340.795 111.651C342.27 110.176 344.115 109.07 345.775 107.964C347.62 106.857 349.28 105.567 350.571 103.723C351.862 102.063 352.784 99.8509 353.522 97.6384C355.367 93.2133 357.949 88.9725 361.269 85.285C364.589 81.5974 368.832 78.0942 373.627 75.6972C376.025 74.4066 378.608 73.4847 381.375 72.7472C384.141 72.194 386.908 71.6409 389.859 71.8253C391.335 71.8253 392.811 72.0097 394.102 72.194C395.577 72.3784 396.869 72.7472 398.344 72.9315C401.111 73.4847 404.062 73.6691 406.829 72.9315C409.78 72.3784 412.547 71.2721 415.498 70.5346C418.45 69.7971 421.401 69.244 424.537 68.8752C427.672 68.5064 430.808 68.5064 433.944 68.8752C437.08 69.0596 440.215 69.7971 443.351 70.5346C449.438 72.3784 455.34 75.8816 459.398 81.2286C459.767 81.7818 460.136 82.3349 460.505 82.888C470.097 80.6755 480.242 83.2568 487.989 88.4194C495.736 93.582 501.638 101.51 503.298 110.361L503.114 109.992C506.987 111.836 510.861 113.679 514.366 115.892C517.87 118.104 521.006 120.87 523.404 124.005C525.802 127.323 527.277 131.195 527.462 135.067C527.831 138.939 526.724 142.996 524.326 145.946V145.393C528.937 150.002 531.151 156.087 531.704 161.802C532.258 167.518 530.966 173.234 528.384 177.659C527.831 178.765 526.908 179.872 526.171 180.793C525.433 181.715 524.511 182.637 523.957 183.559C523.404 184.481 522.85 185.587 522.85 186.694C522.666 187.8 522.85 188.906 522.85 190.012C523.219 194.438 523.035 198.494 522.482 202.181C521.928 205.869 520.821 209.003 519.346 211.4C517.87 213.797 516.026 215.457 514.366 216.563C512.706 217.669 511.23 218.038 510.492 218.591C509.57 219.144 509.385 219.513 509.385 219.513C509.385 219.513 509.57 218.96 510.492 218.407C511.23 217.854 512.706 217.301 514.366 216.194C516.026 215.088 517.686 213.429 519.161 211.032C520.637 208.635 521.559 205.5 522.113 201.997C522.666 198.494 522.666 194.438 522.297 190.012C522.297 188.906 522.113 187.8 522.113 186.509C522.113 185.403 522.666 184.112 523.404 183.19C524.142 182.084 524.879 181.162 525.617 180.24C526.355 179.318 527.093 178.212 527.646 177.106C530.229 172.681 531.335 167.334 530.782 161.618C530.229 156.087 528.015 150.186 523.588 145.761L523.404 145.577L523.588 145.208C525.802 142.443 526.724 138.755 526.355 135.067C525.986 131.38 524.695 127.692 522.297 124.558C519.899 121.423 516.763 118.842 513.443 116.629C509.939 114.417 506.25 112.573 502.376 110.729L502.192 110.545V110.361C500.347 101.879 494.814 94.1352 487.251 89.1569C479.688 84.1787 469.912 81.5974 460.505 83.6256H460.136L459.952 83.4412C459.583 82.888 459.214 82.5193 458.845 81.9661C454.972 76.8035 449.253 73.4847 443.351 71.6409C440.4 70.719 437.264 70.1659 434.128 69.9815C430.993 69.7971 428.041 69.7971 424.906 69.9815C421.954 70.3502 418.819 70.719 416.052 71.4565C413.101 72.194 410.334 73.1159 407.382 73.8534C405.907 74.2222 404.431 74.4066 402.956 74.2222C401.48 74.2222 400.004 74.0378 398.529 73.6691C397.053 73.4847 395.762 73.1159 394.286 72.9315C392.811 72.7472 391.519 72.5628 390.044 72.5628C387.277 72.3784 384.51 72.9316 381.928 73.4847C379.346 74.2222 376.763 74.9597 374.365 76.2504C369.569 78.6473 365.512 81.7818 362.191 85.4693C358.871 89.1569 356.289 93.2133 354.444 97.6384C353.522 99.8509 352.784 101.879 351.309 103.723C349.833 105.567 347.988 106.857 346.328 107.964C344.484 109.07 342.824 110.361 341.348 111.651C339.872 112.942 338.581 114.417 337.475 116.076C335.261 119.211 333.97 122.53 333.232 125.848C332.494 129.167 332.679 132.302 332.863 135.252C333.048 138.202 333.232 140.783 332.863 143.18C332.679 145.577 331.941 147.605 331.019 149.265C330.096 150.924 329.174 152.03 328.436 153.137C327.699 154.243 327.33 154.98 326.961 155.533C326.776 156.455 326.776 156.824 326.592 156.824Z" fill="#F8B4A0"/>
<path d="M445.564 76.4343C445.564 76.4343 444.642 75.8812 443.166 75.1437C441.691 74.4061 439.293 73.4842 436.157 73.1155C433.206 72.7467 429.332 72.9311 425.643 74.5905C421.954 76.2499 418.449 79.2 416.051 83.2563C415.314 84.3626 414.76 85.6533 414.391 86.9439C414.022 88.2346 414.022 89.3409 414.576 90.2628L415.314 91.369L414.022 91.0003C410.518 90.0784 406.829 90.6315 404.062 92.1066C401.295 93.5816 399.635 95.9785 398.713 98.0067C397.791 100.035 397.422 102.063 397.422 103.354C397.422 104.644 397.422 105.382 397.422 105.382C397.422 105.382 397.422 105.197 397.237 104.829C397.237 104.46 397.053 103.907 397.053 103.354C397.053 102.063 397.237 100.035 398.159 97.8223C399.082 95.6098 400.926 93.0284 403.693 91.369C406.46 89.7096 410.333 88.9721 414.207 90.0784L413.654 90.8159C412.731 89.5252 412.916 88.0502 413.285 86.5752C413.654 85.2845 414.207 83.9939 414.945 82.7032C417.343 78.4625 421.216 75.328 425.09 73.6686C428.963 72.0092 432.837 71.8248 435.972 72.378C439.108 72.7467 441.506 73.853 442.982 74.7749C443.719 75.1436 444.273 75.5124 444.642 75.8812C445.38 76.2499 445.564 76.4343 445.564 76.4343Z" fill="#F8B4A0"/>
<path d="M497.396 113.126C497.396 113.126 497.027 113.68 496.289 114.233C495.551 114.97 494.26 115.892 492.6 116.814C490.94 117.736 488.727 118.658 486.144 118.658C483.562 118.842 480.611 118.289 478.213 116.261L478.951 116.076C478.582 116.445 478.397 116.998 478.028 117.367C477.659 117.736 477.29 118.289 476.922 118.658C474.524 121.055 471.757 122.714 468.99 123.636C466.223 124.558 463.641 124.742 461.427 124.558C459.214 124.374 457.554 123.82 456.447 123.452C455.34 122.899 454.787 122.53 454.787 122.53C454.787 122.345 457.185 123.636 461.612 123.82C463.641 123.82 466.223 123.636 468.99 122.714C471.572 121.792 474.339 120.317 476.553 117.92C476.922 117.551 477.29 117.183 477.659 116.814C478.028 116.445 478.213 115.892 478.582 115.523L478.951 115.155L479.319 115.523C481.533 117.367 484.3 117.92 486.513 117.736C488.911 117.736 490.94 116.814 492.6 116.076C495.551 114.601 497.211 112.942 497.396 113.126Z" fill="#F8B4A0"/>
<path d="M514.181 142.811C514.181 142.811 514.181 142.996 514.181 143.364C513.997 143.733 513.812 144.286 513.443 144.839C512.706 146.13 510.861 147.605 508.279 148.158C505.696 148.896 502.376 148.343 499.241 147.236C497.58 146.683 495.92 146.13 494.26 145.208C492.6 144.471 490.756 143.18 489.833 141.152C489.833 140.967 489.649 140.783 489.649 140.599L490.387 140.783C487.251 143.18 484.115 145.208 480.98 146.499C477.844 147.789 474.524 147.974 471.941 147.421C469.359 146.868 467.514 145.761 466.408 144.839C465.854 144.286 465.486 143.917 465.301 143.733C465.117 143.364 464.932 143.18 464.932 143.18C464.932 143.18 465.486 143.733 466.592 144.471C467.699 145.208 469.543 146.314 471.941 146.683C474.339 147.052 477.475 146.868 480.426 145.577C483.562 144.471 486.513 142.442 489.649 140.046L490.202 139.677L490.387 140.23C490.387 140.414 490.571 140.599 490.571 140.599C491.309 142.258 492.969 143.364 494.445 144.102C496.105 144.839 497.765 145.577 499.425 146.13C502.561 147.236 505.696 147.789 508.094 147.236C510.492 146.683 512.337 145.393 513.075 144.286C513.997 143.549 513.997 142.811 514.181 142.811Z" fill="#F8B4A0"/>
<path d="M548.674 28.8651C548.674 28.8651 548.121 28.8652 547.198 29.0495C546.276 29.2339 544.8 29.9714 543.694 31.2621C542.402 32.5527 541.48 34.7653 541.296 37.3466C541.111 39.9279 541.665 42.878 542.402 46.0124L542.587 46.5656H542.034C538.529 46.3812 534.471 47.4875 530.966 49.8844C527.462 52.2813 524.879 56.3377 524.879 61.1315C524.695 65.3723 526.539 69.4286 529.491 71.8255L530.597 72.7474H529.306C524.326 72.7474 519.899 74.96 517.132 78.0944C514.365 81.2289 513.259 84.9165 513.074 87.8665C512.89 91.001 513.628 93.3979 514.181 94.873C514.734 96.5324 515.288 97.2699 515.288 97.2699C515.288 97.2699 515.103 97.0855 514.919 96.7167C514.734 96.348 514.366 95.7948 513.997 95.0573C513.259 93.5823 512.521 91.001 512.705 87.8665C512.89 84.7321 513.812 80.8601 516.763 77.5413C519.715 74.4068 524.326 71.8255 529.491 71.8255L529.122 72.5631C525.802 69.9817 523.957 65.5566 524.142 61.1315C524.142 58.7346 524.879 56.3377 525.986 54.3095C527.093 52.2813 528.753 50.6219 530.597 49.3313C534.286 46.7499 538.529 45.828 542.218 45.828L541.849 46.3812C541.111 43.2467 540.558 40.1123 540.742 37.3466C540.927 34.5809 542.034 32.3684 543.509 31.0777C544.8 29.6027 546.276 29.0495 547.383 28.8651C547.936 28.8651 548.305 28.6808 548.489 28.8651C548.489 28.8651 548.674 28.8651 548.674 28.8651Z" fill="#F8B4A0"/>
<path d="M605.486 98.1912C605.486 98.1912 605.301 98.3756 604.932 98.5599C604.563 98.7443 604.01 99.1131 603.272 99.2975C601.796 99.8506 599.583 100.588 596.816 100.772C594.049 100.957 590.545 100.772 586.856 99.4818C583.167 98.3756 579.293 95.9786 576.157 92.4754H576.895C574.128 97.0849 568.964 101.51 562.508 102.248C555.683 103.169 549.043 99.2975 546.645 93.7661H547.383C546.645 95.9786 545.169 97.8224 543.509 99.1131C541.849 100.404 540.004 101.51 538.344 102.063C534.655 103.354 531.335 103.354 528.568 102.985C525.802 102.801 523.773 102.248 522.297 101.879C520.821 101.51 520.083 101.326 520.083 101.326C520.083 101.326 520.821 101.326 522.297 101.694C523.773 101.879 525.802 102.248 528.568 102.432C531.151 102.616 534.655 102.432 537.975 101.326C541.296 100.035 544.985 97.4537 546.46 93.3973L546.829 92.291L547.198 93.3973C549.412 98.5599 555.683 102.063 562.139 101.326C568.226 100.588 573.206 96.5318 575.973 91.9223L576.342 91.3691L576.711 91.9223C579.662 95.4255 583.351 97.638 587.04 98.9287C590.545 100.219 594.049 100.404 596.816 100.404C602.534 99.8506 605.486 98.0068 605.486 98.1912Z" fill="#F8B4A0"/>
<path d="M571.915 144.839C571.915 144.839 571.915 145.023 571.546 145.392C571.178 145.761 570.624 146.13 569.702 146.13C568.042 146.314 565.459 146.13 562.693 145.023C559.926 143.917 556.79 141.704 554.577 138.201C552.363 134.698 551.257 130.089 552.179 125.479V125.295L552.917 125.848C548.674 127.876 544.063 128.245 540.189 127.507C536.131 126.77 532.996 125.11 530.413 123.266C528.015 121.423 526.355 119.579 525.249 118.288C524.142 116.998 523.773 116.076 523.773 116.076C523.957 115.891 525.802 119.21 530.782 122.713C533.18 124.373 536.316 126.032 540.189 126.585C544.063 127.138 548.49 126.77 552.363 124.926L553.286 124.557L553.101 125.479V125.663C552.179 130.089 553.286 134.514 555.315 137.648C557.343 140.967 560.295 143.179 562.877 144.286C565.644 145.392 568.042 145.761 569.702 145.761C571.362 145.761 571.915 144.654 571.915 144.839Z" fill="#F8B4A0"/>
<path d="M478.766 29.9706C478.95 29.9706 476.921 33.6582 477.29 39.7427C477.475 42.8771 478.213 46.3803 480.426 49.8835C482.455 53.3867 485.96 56.5212 490.202 58.365C492.6 59.4713 495.182 60.0244 497.58 60.2088H498.134L497.949 60.7619C496.842 64.2651 496.474 67.9527 496.842 71.0872C497.027 74.2216 497.765 76.9873 498.687 79.1999C499.056 80.3061 499.609 81.228 499.978 81.9655C500.347 82.7031 501.085 83.2562 501.638 83.2562C502.192 83.2562 502.745 83.0718 502.929 82.8874C503.114 82.7031 503.114 82.5187 503.298 82.5187C503.298 82.5187 503.298 82.7031 503.114 83.0718C502.929 83.4406 502.376 83.625 501.638 83.625C500.9 83.625 500.163 83.0718 499.609 82.3343C499.056 81.5968 498.687 80.4905 498.134 79.3842C497.211 77.1717 496.474 74.406 496.105 71.0872C495.736 67.7683 496.105 64.0807 497.211 60.3932L497.58 60.9463C494.998 60.7619 492.416 60.2088 490.018 58.9181C485.591 56.89 482.086 53.5711 479.873 49.8835C477.659 46.196 476.921 42.5084 476.921 39.3739C476.737 36.2395 477.475 33.6582 478.028 31.9987C478.397 31.2612 478.582 30.5237 478.766 30.1549C478.582 30.1549 478.766 29.7862 478.766 29.9706Z" fill="#F8B4A0"/>
<path d="M500.716 213.613V208.45L449.438 192.04C431.177 184.297 405.169 188.722 389.86 198.125L376.579 198.494L376.763 198.309C361.638 186.325 335.999 183.928 316.078 192.594L316.631 194.806C316.631 194.991 316.816 195.175 316.816 195.728L317.185 197.572C319.767 209.372 323.087 221.726 326.223 225.044C328.437 227.257 335.446 228.548 341.348 229.101C343.562 229.285 345.591 229.469 347.066 229.654C348.911 229.838 364.405 230.76 366.987 228.363C369.939 225.782 374.734 206.791 376.21 201.075L389.86 200.706C391.52 205.316 394.286 225.598 400.742 229.838C407.567 234.079 435.973 232.788 439.109 227.994C441.322 224.676 449.438 204.578 451.283 198.309L451.652 197.756L500.716 213.613ZM365.512 226.519C362.56 228.732 331.572 227.257 328.068 223.385C324.932 220.066 321.058 203.288 319.767 197.019C319.767 196.834 319.767 196.834 319.767 196.834C337.475 190.012 360.531 192.225 373.812 202.366C371.045 212.322 367.172 225.044 365.512 226.519ZM437.264 226.519C435.235 229.469 408.858 231.866 402.034 227.626C397.422 224.676 394.84 210.478 392.811 202.181C407.752 193.331 433.206 189.459 449.438 197.572C446.118 208.819 438.924 224.122 437.264 226.519Z" fill="#201A1A"/>
<g opacity="0.3">
<path d="M395.577 204.025C395.577 204.025 398.344 223.938 404.062 225.044C409.78 225.966 416.605 195.728 416.605 195.728C416.605 195.728 399.266 199.046 395.577 204.025Z" fill="#FFE8CF"/>
</g>
<g opacity="0.3">
<path d="M321.796 197.571C321.796 197.571 324.563 220.25 330.281 221.172C335.999 222.094 347.619 194.437 347.619 194.437C347.619 194.437 325.485 192.777 321.796 197.571Z" fill="#FFE8CF"/>
</g>
<path d="M499.241 567.621C493.154 561.168 473.786 545.127 468.068 542.915C462.35 540.702 444.643 582.372 443.352 593.435C442.245 604.313 448.332 618.695 456.079 628.282C467.146 641.926 493.707 658.889 503.668 663.499C513.813 668.293 542.403 684.518 559.742 647.642C577.08 610.766 574.867 611.135 579.663 595.832C587.225 572.231 593.497 525.952 597.186 497.742C600.322 473.772 601.613 442.797 600.322 419.934C599.03 397.071 592.759 376.604 577.265 362.407C564.353 350.607 521.191 454.781 521.191 455.703C521.191 456.625 501.27 567.437 501.27 567.437" fill="#875849"/>
<path d="M356.843 433.209C356.843 433.209 352.785 426.202 367.726 423.99C382.666 421.777 393.365 424.358 396.869 425.649C400.374 427.124 419.004 444.824 420.479 448.143C424.537 457.362 431.362 485.204 431.362 485.204L440.585 498.294L418.819 537.199C418.819 537.199 415.499 533.327 412.363 530.745C409.043 527.98 399.452 524.845 397.423 516.548C395.394 508.435 389.491 497.557 389.491 497.557C389.491 497.557 353.154 489.629 349.834 487.969C346.513 486.31 346.882 481.516 346.882 481.516C346.882 481.516 337.475 480.41 335.631 479.488C333.602 478.75 328.99 472.113 336.737 468.609C344.484 465.106 370.123 463.262 373.628 463.262C377.133 463.262 393.734 465.475 393.734 465.475C393.734 465.475 371.784 460.497 365.143 459.944C358.503 459.39 343.193 459.759 340.795 459.206C337.844 458.469 335.815 451.278 341.349 448.696C348.173 445.562 359.241 444.64 361.823 444.456C371.599 444.087 394.84 447.775 394.84 447.775L386.355 438.371C386.355 438.371 373.075 435.974 365.697 436.159C360.716 436.159 356.843 433.209 356.843 433.209Z" fill="#F8B4A0"/>
<path d="M408.675 526.32L469.545 617.588C469.545 617.588 495.368 586.059 497.213 563.196L498.319 551.949L430.071 485.572L408.675 526.32Z" fill="#F8B4A0"/>
<path d="M391.336 481.7C391.336 481.885 388.753 481.516 384.695 480.963C380.637 480.41 374.919 480.041 368.648 479.856C362.376 479.856 356.658 480.041 352.6 480.41C348.542 480.778 345.96 481.147 345.96 480.963C345.96 480.963 346.513 480.778 347.62 480.594C348.727 480.41 350.387 480.041 352.416 479.856C356.474 479.303 362.192 478.935 368.463 478.935C374.735 479.119 380.453 479.672 384.511 480.225C386.54 480.594 388.2 480.778 389.307 481.147C390.598 481.516 391.336 481.7 391.336 481.7Z" fill="#875849"/>
<path d="M537.423 560.246C537.423 560.246 536.501 559.693 535.21 558.771C533.734 557.665 531.705 556.189 529.307 554.53C524.327 550.842 517.502 545.864 510.124 540.148C506.435 537.383 502.746 534.802 499.057 532.958C497.212 532.036 495.368 531.483 493.708 531.114C492.047 530.745 490.387 530.376 488.912 530.376C485.96 530.192 483.563 531.114 482.087 532.036C480.611 532.958 480.058 533.695 479.874 533.695C479.874 533.695 480.058 533.511 480.242 533.142C480.611 532.773 480.98 532.405 481.718 531.851C483.009 530.745 485.592 529.823 488.727 529.823C490.203 529.823 492.047 530.192 493.708 530.561C495.552 530.93 497.397 531.483 499.241 532.405C502.93 534.064 506.619 536.645 510.493 539.595C518.055 545.311 524.696 550.289 529.676 554.161C532.074 556.005 533.918 557.48 535.394 558.586C536.87 559.508 537.423 560.246 537.423 560.246Z" fill="#64392C"/>
<path d="M566.936 560.431C566.751 560.615 564.722 558.034 560.664 554.715C558.635 553.056 556.237 551.027 553.286 549.184C550.335 547.34 547.015 545.496 543.51 543.837C539.821 542.177 536.316 540.887 532.996 539.965C529.676 539.043 526.54 538.49 523.958 538.121C518.793 537.383 515.473 537.383 515.473 537.199C515.473 537.199 516.211 537.015 517.687 537.015C518.424 537.015 519.347 537.015 520.453 537.015C521.56 537.015 522.667 537.199 523.958 537.383C526.54 537.568 529.676 538.305 533.181 539.043C536.501 539.965 540.19 541.255 543.879 542.915C547.568 544.574 550.888 546.602 553.84 548.446C556.791 550.474 559.189 552.318 561.033 554.162C561.955 555.084 562.878 555.821 563.616 556.743C564.353 557.481 564.907 558.218 565.46 558.771C566.382 559.693 566.936 560.431 566.936 560.431Z" fill="#64392C"/>
<path d="M556.606 363.145C556.606 363.145 555.869 363.882 554.393 365.357C553.655 366.095 552.733 366.832 551.811 367.938C550.888 369.045 549.782 369.967 548.675 371.442C547.568 372.732 546.277 374.207 544.986 375.867C543.695 377.526 542.403 379.186 541.112 381.214C538.53 385.086 535.948 389.511 533.734 394.305C531.521 399.098 529.861 403.892 528.569 408.317C528.016 410.53 527.463 412.743 527.094 414.586C526.725 416.615 526.356 418.458 526.172 420.118C525.803 421.777 525.803 423.437 525.618 424.727C525.434 426.018 525.434 427.309 525.249 428.23C525.065 430.259 525.065 431.18 524.88 431.18C524.88 431.18 524.696 430.074 524.88 428.046C524.88 427.124 524.88 425.834 525.065 424.543C525.249 423.068 525.249 421.593 525.434 419.749C525.618 418.09 525.987 416.061 526.356 414.033C526.725 412.005 527.278 409.793 527.832 407.58C529.123 403.155 530.783 398.177 532.996 393.383C535.21 388.589 537.792 384.164 540.559 380.292C541.85 378.448 543.141 376.604 544.432 374.945C545.724 373.285 547.015 371.81 548.121 370.52C549.228 369.229 550.519 368.123 551.442 367.201C552.364 366.279 553.286 365.357 554.024 364.804C555.684 363.882 556.606 363.145 556.606 363.145Z" fill="#64392C"/>
<path d="M499.241 567.621C493.154 561.168 473.786 545.127 468.068 542.915C462.35 540.702 444.643 582.372 443.352 593.435C442.245 604.313 448.332 618.695 456.079 628.282C467.146 641.926 493.707 658.889 503.668 663.499C513.813 668.293 542.403 684.518 559.742 647.642C577.08 610.766 574.867 611.135 579.663 595.832C587.225 572.231 593.497 525.952 597.186 497.742C600.322 473.772 601.613 442.797 600.322 419.934C599.03 397.071 592.759 376.604 577.265 362.407C564.353 350.607 521.191 454.781 521.191 455.703C521.191 456.625 501.27 567.437 501.27 567.437" fill="#875849"/>
<path d="M356.843 433.209C356.843 433.209 352.785 426.202 367.726 423.99C382.666 421.777 393.365 424.358 396.869 425.649C400.374 427.124 419.004 444.824 420.479 448.143C424.537 457.362 431.362 485.204 431.362 485.204L440.585 498.294L418.819 537.199C418.819 537.199 415.499 533.327 412.363 530.745C409.043 527.98 399.452 524.845 397.423 516.548C395.394 508.435 389.491 497.557 389.491 497.557C389.491 497.557 353.154 489.629 349.834 487.969C346.513 486.31 346.882 481.516 346.882 481.516C346.882 481.516 337.475 480.41 335.631 479.488C333.602 478.75 328.99 472.113 336.737 468.609C344.484 465.106 370.123 463.262 373.628 463.262C377.133 463.262 393.734 465.475 393.734 465.475C393.734 465.475 371.784 460.497 365.143 459.944C358.503 459.39 343.193 459.759 340.795 459.206C337.844 458.469 335.815 451.278 341.349 448.696C348.173 445.562 359.241 444.64 361.823 444.456C371.599 444.087 394.84 447.775 394.84 447.775L386.355 438.371C386.355 438.371 373.075 435.974 365.697 436.159C360.716 436.159 356.843 433.209 356.843 433.209Z" fill="#F8B4A0"/>
<path d="M408.674 526.32L469.544 617.588C469.544 617.588 495.368 586.059 497.212 563.196L498.319 551.949L430.071 485.572L408.674 526.32Z" fill="#F8B4A0"/>
<path d="M391.335 481.7C391.335 481.885 388.753 481.516 384.695 480.963C380.637 480.41 374.919 480.041 368.647 479.856C362.376 479.856 356.658 480.041 352.6 480.41C348.542 480.778 345.959 481.147 345.959 480.963C345.959 480.963 346.513 480.778 347.62 480.594C348.726 480.41 350.386 480.041 352.415 479.856C356.473 479.303 362.191 478.935 368.463 478.935C374.734 479.119 380.452 479.672 384.51 480.225C386.539 480.594 388.199 480.778 389.306 481.147C390.597 481.516 391.335 481.7 391.335 481.7Z" fill="#875849"/>
<path d="M537.423 560.246C537.423 560.246 536.5 559.693 535.209 558.771C533.734 557.665 531.705 556.189 529.307 554.53C524.326 550.842 517.502 545.864 510.123 540.148C506.434 537.383 502.745 534.802 499.056 532.958C497.212 532.036 495.367 531.483 493.707 531.114C492.047 530.745 490.387 530.376 488.911 530.376C485.96 530.192 483.562 531.114 482.086 532.036C480.611 532.958 480.058 533.695 479.873 533.695C479.873 533.695 480.057 533.511 480.242 533.142C480.611 532.773 480.98 532.405 481.718 531.851C483.009 530.745 485.591 529.823 488.727 529.823C490.202 529.823 492.047 530.192 493.707 530.561C495.552 530.93 497.396 531.483 499.241 532.405C502.93 534.064 506.619 536.645 510.492 539.595C518.055 545.311 524.695 550.289 529.676 554.161C532.073 556.005 533.918 557.48 535.394 558.586C536.869 559.508 537.423 560.246 537.423 560.246Z" fill="#64392C"/>
<path d="M521.744 455.703C521.744 455.703 521.744 456.256 521.56 457.178C521.375 458.284 521.375 459.575 521.006 461.419C520.637 465.106 519.9 470.453 519.162 476.907C517.502 490.182 515.104 508.251 512.521 528.164C511.968 532.221 511.415 536.093 511.046 539.964L510.492 539.411C528.016 539.411 543.325 543.836 552.917 549.183C557.713 551.765 561.217 554.53 563.431 556.743C564.537 557.665 565.275 558.771 565.829 559.324C566.382 559.877 566.566 560.246 566.566 560.246C566.566 560.246 565.46 559.14 563.246 557.112C561.033 555.084 557.528 552.502 552.732 549.921C543.141 544.758 528.016 540.518 510.677 540.518H510.124V539.964C510.677 536.093 511.046 532.221 511.599 528.164C514.182 508.251 516.764 489.998 518.424 476.907C519.346 470.453 520.084 465.106 520.637 461.419C520.822 459.575 521.191 458.284 521.191 457.178C521.56 456.256 521.744 455.703 521.744 455.703Z" fill="#64392C"/>
<path d="M556.606 363.145C556.606 363.145 555.868 363.882 554.392 365.357C553.655 366.095 552.732 366.832 551.81 367.938C550.888 369.045 549.781 369.967 548.674 371.442C547.568 372.732 546.276 374.207 544.985 375.867C543.694 377.526 542.403 379.186 541.112 381.214C538.529 385.086 535.947 389.511 533.734 394.305C531.52 399.098 529.86 403.892 528.569 408.317C528.016 410.53 527.462 412.743 527.093 414.586C526.724 416.615 526.355 418.458 526.171 420.118C525.802 421.777 525.802 423.437 525.618 424.727C525.433 426.018 525.433 427.309 525.249 428.23C525.064 430.259 525.064 431.18 524.88 431.18C524.88 431.18 524.695 430.074 524.88 428.046C524.88 427.124 524.88 425.834 525.064 424.543C525.249 423.068 525.249 421.593 525.433 419.749C525.618 418.09 525.987 416.061 526.355 414.033C526.724 412.005 527.278 409.793 527.831 407.58C529.122 403.155 530.782 398.177 532.996 393.383C535.209 388.589 537.792 384.164 540.558 380.292C541.85 378.448 543.141 376.604 544.432 374.945C545.723 373.285 547.014 371.81 548.121 370.52C549.228 369.229 550.519 368.123 551.441 367.201C552.363 366.279 553.286 365.357 554.024 364.804C555.684 363.882 556.606 363.145 556.606 363.145Z" fill="#64392C"/>
<path d="M236.025 502.535C236.025 502.535 220.347 464 223.483 450.909C223.851 449.25 225.327 448.144 226.987 448.144C228.278 448.144 229.569 448.881 230.123 449.987L250.413 489.076C250.413 489.076 253.18 481.885 258.898 479.488C264.8 476.907 277.712 473.588 277.712 473.588L295.973 475.8C299.109 476.169 300.584 480.041 298.371 482.254C296.342 484.282 293.022 486.31 287.303 486.679C274.023 487.785 270.518 490.92 270.518 490.92L263.878 502.351C263.878 502.351 277.896 492.763 282.323 492.395C285.828 492.026 304.827 491.657 313.127 491.473C316.263 491.473 319.214 493.317 320.136 496.267C321.058 498.848 320.321 501.798 314.418 503.273C314.418 503.273 320.874 506.592 312.02 511.017C303.904 515.073 295.419 517.655 295.419 517.655L282.877 526.136L261.849 540.886L237.132 523.923C237.132 523.923 228.278 514.52 233.812 506.776C235.288 505.67 236.025 502.535 236.025 502.535Z" fill="#F8B4A0"/>
<path d="M297.264 515.258C297.264 515.258 309.069 525.214 311.651 531.483C314.234 537.752 316.447 544.206 312.389 559.14C308.331 574.259 274.576 559.14 274.576 559.14C273.654 552.871 266.091 545.496 257.606 537.937L289.148 514.521L297.264 515.258Z" fill="#F8B4A0"/>
<path d="M253.733 483.728C253.918 483.728 252.995 485.019 251.889 486.863C250.598 488.707 249.122 491.288 247.277 494.238C243.773 500.138 240.821 504.748 240.453 504.563C240.268 504.563 241.006 503.273 242.113 501.244C243.219 499.216 244.695 496.635 246.54 493.685C249.86 487.785 253.549 483.544 253.733 483.728Z" fill="#875849"/>
<path d="M315.156 503.273C315.156 503.273 314.418 503.458 313.312 503.642C312.02 503.826 310.36 503.826 308.147 504.011C303.904 504.38 297.817 504.748 291.177 505.117C284.352 505.117 279.741 509.542 276.421 512.123C273.101 514.889 271.072 516.733 270.887 516.549C270.887 516.549 271.256 515.995 272.178 515.074C273.101 514.152 274.392 513.045 275.867 511.57C277.528 510.095 279.557 508.436 281.954 506.776C283.246 506.039 284.537 505.301 286.197 504.748C287.672 504.38 289.333 504.011 290.993 504.011C297.633 503.642 303.536 503.458 307.962 503.273C310.176 503.273 311.836 503.089 313.127 503.089C314.418 503.089 315.156 503.089 315.156 503.273Z" fill="#875849"/>
<path d="M264.8 502.535C264.985 502.72 263.878 503.826 262.771 505.301C261.664 506.776 260.927 508.251 260.742 508.067C260.558 508.067 260.927 506.407 262.033 504.748C263.14 503.089 264.616 502.351 264.8 502.535Z" fill="#875849"/>
<path d="M311.283 512.123C311.283 512.307 310.176 512.861 308.147 513.598C306.118 514.336 303.351 515.442 300.215 516.548C293.944 518.761 289.148 520.973 288.964 520.789C288.779 520.605 293.575 517.839 299.846 515.626C302.982 514.52 305.933 513.598 307.962 513.045C309.807 512.492 311.098 512.123 311.283 512.123Z" fill="#875849"/>
</g>
</svg>
