<svg width="300" height="300" viewBox="0 0 300 300" fill="none" xmlns="http://www.w3.org/2000/svg">
<circle cx="149.999" cy="150" r="150" fill="#F5D8B9"/>
<path d="M53.9268 254.664C53.9268 254.664 69.6379 267.88 72.2256 267.695C74.8133 267.51 77.4934 267.972 77.4934 267.972L60.6733 252.354L53.9268 254.664Z" fill="#BA7C69"/>
<path d="M233.679 274.997L73.6105 268.066C71.5773 267.973 70.0062 266.217 70.0986 264.184C72.7787 176.017 77.2148 71.4921 79.7101 40.532C79.8949 38.4988 81.5585 37.0201 83.5917 37.1125L243.752 44.0439C245.786 44.1363 247.357 45.8922 247.264 47.9254L237.56 271.393C237.468 273.518 235.712 275.089 233.679 274.997Z" fill="#BA7C69"/>
<path d="M231.554 271.485L71.7632 265.755L59.1943 256.051L66.7726 27.1309L232.294 38.4059L240.426 47.6477L231.554 271.485Z" fill="#F5D8B9"/>
<path d="M231.554 271.484L216.675 258.176L229.613 36.0947L240.426 47.647L231.554 271.484Z" fill="#F5D8B9"/>
<path d="M218.801 262.981L56.607 255.957C54.5738 255.865 52.9103 254.109 53.0027 252.076C55.6828 163.909 60.0265 59.3837 62.6142 28.4236C62.799 26.3904 64.4626 24.9117 66.4958 25.0041L228.782 32.0279C230.815 32.1203 232.479 33.8763 232.386 35.9095L222.683 259.377C222.59 261.502 220.834 263.073 218.801 262.981Z" fill="#BA7C69"/>
<path d="M66.9591 256.419C66.8667 256.419 68.8999 205.22 71.6724 142.006C74.445 78.7915 76.7554 27.5918 76.8478 27.5918C76.9403 27.5918 74.9071 78.7915 72.1345 142.006C69.362 205.22 67.0515 256.419 66.9591 256.419Z" fill="#64392C"/>
<g opacity="0.3">
<path d="M208.451 250.506L77.8643 244.868L86.9212 37.0195L217.508 42.5646L208.451 250.506ZM81.7458 241.264L204.939 246.624L213.627 46.1689L90.4331 40.8087L81.7458 241.264Z" fill="#64392C"/>
</g>
<g opacity="0.3">
<path d="M159.817 51.9929L147.075 51.4395L146.742 59.1033L159.485 59.6567L159.817 51.9929Z" fill="#64392C"/>
</g>
<g opacity="0.3">
<path d="M198.434 88.4679L102.683 84.3096L101.199 118.474L196.95 122.632L198.434 88.4679Z" fill="#64392C"/>
</g>
<g opacity="0.3">
<path d="M69.9545 67.0891L60.167 66.6641L59.8983 72.8505L69.6858 73.2756L69.9545 67.0891Z" fill="#64392C"/>
</g>
<g opacity="0.3">
<path d="M68.892 90.3294L59.1045 89.9043L54.4889 196.182L64.2764 196.607L68.892 90.3294Z" fill="#64392C"/>
</g>
<path d="M236.36 43.7646C236.36 43.7646 236.36 44.1343 236.36 44.7812C236.36 45.4282 236.268 46.4448 236.268 47.7386C236.175 50.3263 235.99 54.1155 235.806 59.0137C235.436 68.81 234.789 82.8576 234.05 100.325C232.571 135.259 230.445 183.409 228.227 236.641C227.765 247.547 227.303 258.267 226.841 268.526V268.803H226.564C180.909 266.77 140.615 265.014 111.873 263.72C97.4556 263.073 85.9033 262.519 77.9553 262.149C73.9813 261.964 70.9315 261.779 68.8059 261.687C67.7893 261.594 66.9576 261.594 66.4031 261.594C65.8485 261.594 65.5713 261.502 65.5713 261.502C65.5713 261.502 65.8485 261.502 66.4031 261.502C66.9576 261.502 67.6969 261.502 68.8059 261.594C70.9315 261.687 73.9813 261.779 77.9553 261.964C85.9033 262.334 97.4556 262.796 111.873 263.35C140.707 264.552 180.909 266.308 226.564 268.249L226.287 268.433C226.749 258.175 227.211 247.454 227.673 236.549C229.983 183.316 232.109 135.166 233.68 100.232C234.512 82.7651 235.066 68.7176 235.528 58.9212C235.806 54.0231 235.898 50.2339 236.083 47.6462C236.175 46.3524 236.175 45.4282 236.268 44.6888C236.36 44.0419 236.36 43.7646 236.36 43.7646Z" fill="#64392C"/>
</svg>
