<svg width="121" height="121" viewBox="0 0 121 121" fill="none" xmlns="http://www.w3.org/2000/svg">
<circle cx="60.9429" cy="60.2344" r="60" fill="#181818"/>
<path d="M52.8491 88.8594V81.8281H42.6929V77.1406H49.7241V44.3281H42.6929V39.6406H52.8491V32.6094H57.5366V39.6406H66.1304V32.6094H70.8179V39.875C73.6304 40.4479 75.896 41.8281 77.6147 44.0156C79.3335 46.2031 80.1929 48.651 80.1929 51.3594C80.1929 52.8177 79.9064 54.263 79.3335 55.6953C78.7606 57.1276 77.9272 58.4167 76.8335 59.5625C78.8647 60.6042 80.4533 62.0755 81.5991 63.9766C82.745 65.8776 83.3179 67.9219 83.3179 70.1094C83.3179 73.3385 82.1851 76.099 79.9194 78.3906C77.6538 80.6823 74.8804 81.8281 71.5991 81.8281H70.8179V88.8594H66.1304V81.8281H57.5366V88.8594H52.8491ZM54.4116 58.3906H68.4741C70.4533 58.3906 72.12 57.7005 73.4741 56.3203C74.8283 54.9401 75.5054 53.2865 75.5054 51.3594C75.5054 49.3802 74.8283 47.7135 73.4741 46.3594C72.12 45.0052 70.4533 44.3281 68.4741 44.3281H54.4116V58.3906ZM54.4116 77.1406H71.5991C73.5783 77.1406 75.245 76.4505 76.5991 75.0703C77.9533 73.6901 78.6304 72.0365 78.6304 70.1094C78.6304 68.1302 77.9533 66.4635 76.5991 65.1094C75.245 63.7552 73.5783 63.0781 71.5991 63.0781H54.4116V77.1406Z" fill="#FFE8CF"/>
</svg>
