<svg width="121" height="121" viewBox="0 0 121 121" fill="none" xmlns="http://www.w3.org/2000/svg">
<circle cx="60.313" cy="60.2344" r="60" fill="#181818"/>
<path d="M60.813 72.4531C64.5109 72.4531 67.6489 71.1641 70.2271 68.5859C72.8052 66.0078 74.0942 62.8698 74.0942 59.1719C74.0942 55.474 72.8052 52.3359 70.2271 49.7578C67.6489 47.1797 64.5109 45.8906 60.813 45.8906C57.1151 45.8906 53.9771 47.1797 51.3989 49.7578C48.8208 52.3359 47.5317 55.474 47.5317 59.1719C47.5317 62.8698 48.8208 66.0078 51.3989 68.5859C53.9771 71.1641 57.1151 72.4531 60.813 72.4531ZM60.813 67.9219C58.3651 67.9219 56.2948 67.0755 54.6021 65.3828C52.9093 63.6901 52.063 61.6198 52.063 59.1719C52.063 56.724 52.9093 54.6536 54.6021 52.9609C56.2948 51.2682 58.3651 50.4219 60.813 50.4219C63.2609 50.4219 65.3312 51.2682 67.0239 52.9609C68.7166 54.6536 69.563 56.724 69.563 59.1719C69.563 61.6198 68.7166 63.6901 67.0239 65.3828C65.3312 67.0755 63.2609 67.9219 60.813 67.9219ZM60.813 82.6094C53.2088 82.6094 46.3338 80.4479 40.188 76.125C34.0422 71.8021 29.4588 66.151 26.438 59.1719C29.4588 52.1927 34.0422 46.5417 40.188 42.2187C46.3338 37.8958 53.2088 35.7344 60.813 35.7344C68.4172 35.7344 75.2922 37.8958 81.438 42.2187C87.5838 46.5417 92.1672 52.1927 95.188 59.1719C92.1672 66.151 87.5838 71.8021 81.438 76.125C75.2922 80.4479 68.4172 82.6094 60.813 82.6094ZM60.813 77.9219C67.1151 77.9219 72.9093 76.2161 78.1958 72.8047C83.4823 69.3932 87.5057 64.849 90.2661 59.1719C87.5057 53.4948 83.4823 48.9505 78.1958 45.5391C72.9093 42.1276 67.1151 40.4219 60.813 40.4219C54.5109 40.4219 48.7166 42.1276 43.4302 45.5391C38.1437 48.9505 34.0942 53.4948 31.2817 59.1719C34.0942 64.849 38.1437 69.3932 43.4302 72.8047C48.7166 76.2161 54.5109 77.9219 60.813 77.9219Z" fill="#FFE8CF"/>
</svg>
