<svg width="100" height="101" viewBox="0 0 100 101" fill="none" xmlns="http://www.w3.org/2000/svg">
<circle cx="50" cy="50.7246" r="50" fill="#181818"/>
<path d="M68.0723 77.1836C67.8119 77.1836 67.5731 77.1402 67.3561 77.0534C67.1391 76.9666 66.9221 76.8147 66.7051 76.5977L50.9499 60.8424C50.7329 60.6254 50.5809 60.4084 50.4941 60.1914C50.4073 59.9744 50.3639 59.7357 50.3639 59.4753C50.3639 59.2148 50.4073 58.9761 50.4941 58.7591C50.5809 58.5421 50.7329 58.3251 50.9499 58.1081L56.4837 52.5742C56.7007 52.3572 56.9178 52.2053 57.1348 52.1185C57.3518 52.0317 57.5905 51.9883 57.8509 51.9883C58.1113 51.9883 58.35 52.0317 58.5671 52.1185C58.7841 52.2053 59.0011 52.3572 59.2181 52.5742L74.9733 68.3294C75.1903 68.5464 75.3422 68.7635 75.429 68.9805C75.5158 69.1975 75.5592 69.4362 75.5592 69.6966C75.5592 69.957 75.5158 70.1957 75.429 70.4128C75.3422 70.6298 75.1903 70.8468 74.9733 71.0638L69.4395 76.5977C69.2224 76.8147 69.0054 76.9666 68.7884 77.0534C68.5714 77.1402 68.3327 77.1836 68.0723 77.1836ZM68.0723 72.4961L70.8717 69.6966L57.8509 56.6758L55.0514 59.4753L68.0723 72.4961ZM31.028 77.1836C30.7676 77.1836 30.518 77.1402 30.2793 77.0534C30.0406 76.9666 29.8127 76.8147 29.5957 76.5977L24.127 71.1289C23.9099 70.9119 23.758 70.684 23.6712 70.4453C23.5844 70.2066 23.541 69.957 23.541 69.6966C23.541 69.4362 23.5844 69.1975 23.6712 68.9805C23.758 68.7635 23.9099 68.5464 24.127 68.3294L38.7754 53.681H44.3092L46.7832 51.207L35.39 39.8138H31.679L23.541 31.6758L29.9863 25.2305L38.1243 33.3685V37.0794L49.5176 48.4727L57.9811 40.0091L53.6191 35.6471L57.265 32.0013H49.9082L48.7363 30.8294L57.0697 22.4961L58.2415 23.668V31.0247L61.8874 27.3789L72.89 38.3815C73.541 39.0326 74.051 39.7812 74.4199 40.6276C74.7888 41.474 74.9733 42.3746 74.9733 43.3294C74.9733 44.1975 74.8322 45.033 74.5501 45.8359C74.268 46.6389 73.8665 47.3659 73.3457 48.0169L67.8119 42.4831L64.166 46.1289L60.7806 42.7435L47.0436 56.4805V61.9492L32.3952 76.5977C32.1782 76.8147 31.9612 76.9666 31.7441 77.0534C31.5271 77.1402 31.2884 77.1836 31.028 77.1836ZM31.028 72.4961L44.0488 59.4753V56.6758H41.2493L28.2285 69.6966L31.028 72.4961ZM31.028 72.4961L28.2285 69.6966L29.6608 71.0638L31.028 72.4961Z" fill="#FFE8CF"/>
</svg>
