<svg width="406" height="300" viewBox="0 0 406 300" fill="none" xmlns="http://www.w3.org/2000/svg">
<circle cx="203" cy="150" r="150" fill="#201A1A"/>
<path d="M178.865 283.67H64.2145C47.056 283.67 33.1904 269.818 33.1904 252.676V251.464C33.1904 234.322 47.056 220.47 64.2145 220.47H178.865V283.67Z" fill="#BA7C69"/>
<path d="M402.447 230.858H147.234V220.383H402.447C404.44 220.383 406 221.941 406 223.932V227.309C406 229.3 404.44 230.858 402.447 230.858Z" fill="#BA7C69"/>
<path d="M402.447 283.67H147.234V273.194H402.447C404.44 273.194 406 274.753 406 276.744V280.12C406 282.025 404.44 283.67 402.447 283.67Z" fill="#BA7C69"/>
<path d="M398.287 273.107H176.178C164.479 273.107 155.033 263.671 155.033 251.983C155.033 240.295 164.479 230.858 176.178 230.858H398.287C392.307 244.97 392.307 259.082 398.287 273.107Z" fill="#FFE8CF"/>
<g opacity="0.4">
<path d="M154.947 283.67H64.4743C47.1424 283.67 33.1035 269.644 33.1035 252.329C33.1035 234.668 47.4023 220.383 65.0809 220.383H157.373C134.495 234.235 136.142 267.48 154.947 283.67Z" fill="#201A1A"/>
</g>
<path d="M143.855 279.254C143.855 279.428 122.537 279.514 96.1921 279.514C69.8475 279.514 48.5293 279.341 48.5293 279.254C48.5293 279.081 69.8475 278.995 96.1921 278.995C122.45 278.908 143.855 279.081 143.855 279.254Z" fill="#201A1A"/>
<path d="M143.855 225.664C143.855 225.837 122.537 225.923 96.1921 225.923C69.8475 225.923 48.5293 225.75 48.5293 225.664C48.5293 225.49 69.8475 225.404 96.1921 225.404C122.45 225.317 143.855 225.49 143.855 225.664Z" fill="#201A1A"/>
<path d="M199.49 220.383H90.2125C79.2934 220.383 70.4541 211.552 70.4541 200.644C70.4541 189.735 79.2934 180.904 90.2125 180.904H199.49V220.383Z" fill="#A83F3F"/>
<path d="M396.727 190.168H171.586V180.817H396.814C399.067 180.817 400.887 182.635 400.887 184.886V186.099C400.8 188.349 398.981 190.168 396.727 190.168Z" fill="#A83F3F"/>
<path d="M396.727 220.382H171.586V211.032H396.814C399.067 211.032 400.887 212.85 400.887 215.101V216.313C400.8 218.564 398.981 220.382 396.727 220.382Z" fill="#A83F3F"/>
<path d="M393.955 211.032H188.832C183.025 211.032 178.346 206.357 178.346 200.557C178.346 194.756 183.025 190.081 188.832 190.081H393.955C388.668 197.18 388.668 204.106 393.955 211.032Z" fill="#FFE8CF"/>
<g opacity="0.3">
<path d="M178.432 220.383H90.0392C79.2067 220.383 70.4541 211.639 70.4541 200.817C70.4541 189.822 79.38 180.904 90.3858 180.904H180.512C160.233 189.562 161.707 210.254 178.432 220.383Z" fill="#201A1A"/>
</g>
<path d="M168.553 216.487C168.553 216.66 149.661 216.833 126.35 216.833C103.038 216.833 84.1465 216.66 84.1465 216.487C84.1465 216.314 103.038 216.141 126.35 216.141C149.574 216.141 168.553 216.314 168.553 216.487Z" fill="#201A1A"/>
<path d="M168.553 185.493C168.553 185.666 149.661 185.839 126.35 185.839C103.038 185.839 84.1465 185.666 84.1465 185.493C84.1465 185.32 103.038 185.146 126.35 185.146C149.574 185.233 168.553 185.32 168.553 185.493Z" fill="#201A1A"/>
<path d="M398.114 180.904C398.114 181.077 328.787 181.25 243.167 181.25C157.547 181.25 88.2197 181.077 88.2197 180.904C88.2197 180.731 157.547 180.558 243.167 180.558C328.7 180.558 398.114 180.731 398.114 180.904Z" fill="#201A1A"/>
<path d="M339.358 180.125L337.799 200.47C337.799 200.47 356.864 208.868 356.95 212.677L319.427 211.032L320.553 179.259L339.358 180.125Z" fill="#201A1A"/>
<path d="M326.273 198.305C325.579 198.478 324.973 199.344 325.146 200.123C325.319 200.902 326.099 201.508 326.793 201.335C327.573 201.162 328.179 200.21 328.006 199.431C327.746 198.651 326.793 198.045 326.099 198.392" fill="#FFE8CF"/>
<path d="M319.427 211.118L319.687 207.915L355.564 210.685C355.564 210.685 357.21 211.551 356.95 212.763L319.427 211.118Z" fill="#FFE8CF"/>
<path d="M338.405 200.296C338.405 200.47 337.452 200.556 336.585 201.162C335.632 201.682 335.112 202.547 334.939 202.461C334.765 202.374 335.112 201.249 336.239 200.556C337.365 199.863 338.492 200.123 338.405 200.296Z" fill="#FFE8CF"/>
<path d="M342.305 202.201C342.305 202.374 341.525 202.721 340.919 203.5C340.225 204.279 340.052 205.145 339.879 205.145C339.705 205.145 339.619 204.019 340.485 203.067C341.179 202.028 342.305 202.028 342.305 202.201Z" fill="#FFE8CF"/>
<path d="M344.298 207.223C344.125 207.223 343.952 206.27 344.472 205.231C344.992 204.192 345.858 203.846 345.945 203.933C346.032 204.106 345.425 204.625 345.078 205.491C344.558 206.443 344.472 207.223 344.298 207.223Z" fill="#FFE8CF"/>
<path d="M338.318 195.622C338.231 195.795 337.365 195.535 336.325 195.535C335.285 195.535 334.505 195.882 334.332 195.709C334.245 195.535 335.025 194.843 336.238 194.843C337.538 194.843 338.405 195.449 338.318 195.622Z" fill="#FFE8CF"/>
<path d="M333.639 112.942C344.904 111.038 357.643 122.033 355.65 136.318C353.917 148.871 342.738 194.497 342.738 194.497L324.626 185.753L329.739 129.046L333.639 112.942Z" fill="#201A1A" stroke="#875849" stroke-width="0.5"/>
<path d="M286.062 179.26L321.766 158.049L322.46 147.833L286.062 179.26Z" fill="#201A1A" stroke="#875849" stroke-width="0.5"/>
<path d="M283.983 180.904C293.602 176.748 321.16 150.689 321.16 150.689L318.127 195.708M333.466 114.067C323.673 114.933 246.979 144.109 246.459 146.014L244.553 152.853C241.693 163.242 243.513 172.333 250.186 180.731" stroke="#875849" stroke-width="0.5" stroke-linecap="round"/>
<path d="M283.983 180.904C293.602 176.748 321.16 150.689 321.16 150.689L318.127 195.709L342.478 197.613C342.478 197.613 345.945 148.438 347.851 136.837C349.671 125.236 343.171 113.202 333.466 114.068C323.673 114.933 246.979 144.109 246.459 146.014L244.553 152.854C241.693 163.243 243.513 172.333 250.186 180.731" fill="#201A1A"/>
<path d="M333.466 113.722C333.466 113.722 333.552 113.722 333.726 113.722C333.899 113.722 334.072 113.722 334.419 113.722C335.026 113.722 335.892 113.808 336.932 114.155C339.012 114.761 341.872 116.492 344.385 119.522C345.598 121.081 346.725 122.899 347.505 125.15C348.198 127.314 348.631 129.825 348.718 132.422C348.805 135.019 348.458 137.703 348.198 140.474C347.938 143.244 347.678 146.188 347.331 149.131C346.118 160.992 344.992 171.641 344.212 179.433C343.865 183.329 343.518 186.445 343.345 188.61C343.258 189.649 343.172 190.514 343.085 191.121C343.085 191.38 342.998 191.64 342.998 191.727C342.998 191.553 342.998 191.38 342.998 191.034C342.998 190.428 343.085 189.562 343.172 188.523C343.345 186.359 343.605 183.242 343.952 179.346C344.645 171.554 345.771 160.819 346.985 149.045C347.245 146.101 347.591 143.157 347.851 140.387C348.111 137.617 348.458 134.933 348.371 132.336C348.285 129.738 347.938 127.314 347.245 125.236C346.551 123.072 345.511 121.254 344.298 119.695C341.872 116.665 339.099 114.934 337.106 114.241C334.679 113.549 333.466 113.808 333.466 113.722Z" fill="#875849"/>
<path d="M328.959 139.521C329.046 139.608 326.706 141.772 324.366 145.062C322.113 148.266 320.813 151.296 320.726 151.209C320.64 151.209 320.9 150.43 321.506 149.218C322.026 148.006 322.893 146.448 324.106 144.803C325.233 143.158 326.446 141.859 327.399 140.907C328.266 140.041 328.959 139.521 328.959 139.521Z" fill="#875849"/>
<path d="M333.898 44.5474C335.631 45.4132 337.971 44.7206 339.011 43.0756C340.051 41.4307 339.618 39.0066 338.058 37.7945C339.618 37.0153 340.571 35.1972 340.311 33.4657C340.051 31.7342 338.664 30.2624 336.931 30.0027C337.451 28.3577 337.018 26.4531 335.891 25.241C334.765 23.9424 332.945 23.3363 331.212 23.6826C329.999 21.5182 327.139 20.4793 324.799 21.2585C323.326 20.3927 321.333 20.6525 320.119 21.778C318.906 22.9034 318.559 24.8947 319.253 26.4531" fill="#64392C"/>
<path d="M322.633 24.7205L323.499 24.9802C331.819 27.9238 336.498 36.6679 334.245 45.2389C332.165 53.1173 329.739 61.8615 328.266 66.0172C325.146 74.5016 316.133 72.8566 316.133 72.8566L313.274 83.3323L292.735 75.3674L304.001 37.4471C306.254 28.3566 313.534 22.1232 322.633 24.7205Z" fill="#F8B4A0"/>
<path d="M316.22 72.8567C316.22 72.8567 310.674 71.2983 306.168 65.6709C306.168 65.6709 306.688 73.1164 315.441 75.3674L316.22 72.8567Z" fill="#BA7C69"/>
<path d="M328.179 53.2042C328.006 53.8968 327.226 54.2431 326.533 53.9834C325.84 53.8102 325.493 53.1176 325.666 52.425C325.84 51.7324 326.62 51.3861 327.313 51.6458C328.006 51.9055 328.439 52.5116 328.179 53.2042Z" fill="#64392C"/>
<path d="M330.952 48.7886C330.779 48.8752 330.086 47.9229 328.786 47.4034C327.486 46.9705 326.273 47.2303 326.186 47.0571C326.1 46.9705 326.359 46.7108 326.966 46.5377C327.486 46.3645 328.266 46.3645 329.133 46.6242C329.913 46.884 330.519 47.49 330.779 47.9229C330.952 48.4423 331.039 48.7021 330.952 48.7886Z" fill="#64392C"/>
<path d="M317.26 50.001C317.087 50.6937 316.307 51.04 315.614 50.7802C314.921 50.6071 314.574 49.9145 314.747 49.2219C314.921 48.5293 315.701 48.183 316.394 48.4427C317.087 48.6158 317.52 49.3084 317.26 50.001Z" fill="#64392C"/>
<path d="M317.953 44.4605C317.78 44.5471 317.087 43.5948 315.7 43.0753C314.4 42.6424 313.187 42.9022 313.1 42.729C313.014 42.6424 313.274 42.3827 313.88 42.2095C314.4 42.0364 315.18 42.0364 316.047 42.2961C316.827 42.5558 317.433 43.1619 317.693 43.5948C317.953 44.1142 318.04 44.4605 317.953 44.4605Z" fill="#64392C"/>
<path d="M319.253 55.888C319.253 55.8014 320.12 55.9746 321.506 56.2343C321.853 56.3209 322.199 56.3209 322.373 56.1477C322.546 55.9746 322.546 55.5417 322.459 55.1088C322.459 54.1565 322.373 53.2042 322.373 52.1653C322.286 48.0096 322.286 44.7197 322.459 44.7197C322.633 44.7197 322.806 48.0962 322.979 52.1653C322.979 53.2042 322.979 54.1565 323.066 55.1088C323.066 55.5417 323.153 56.0612 322.806 56.494C322.633 56.7538 322.286 56.8403 322.113 56.7538C321.853 56.7538 321.679 56.6672 321.506 56.6672C320.033 56.2343 319.253 55.9746 319.253 55.888Z" fill="#64392C"/>
<path d="M320.813 39.8716C320.553 40.1313 319.513 39.3521 318.126 38.8327C316.74 38.3132 315.526 38.1401 315.526 37.7072C315.526 37.534 315.873 37.2743 316.48 37.1877C317.086 37.1012 317.866 37.1877 318.733 37.4475C319.513 37.7938 320.206 38.3132 320.553 38.7461C320.899 39.3521 320.986 39.6984 320.813 39.8716Z" fill="#64392C"/>
<path d="M332.859 43.4211C332.512 43.5943 331.473 42.9016 330.173 42.4688C328.873 41.9493 327.66 41.8627 327.573 41.4299C327.486 41.2567 327.833 40.997 328.353 40.9104C328.959 40.8238 329.826 40.8238 330.693 41.1701C331.559 41.5164 332.252 42.0359 332.599 42.5553C333.032 42.9016 333.032 43.248 332.859 43.4211Z" fill="#64392C"/>
<path d="M334.765 40.9972C334.765 40.9972 334.418 34.8503 332.252 32.6859C329.652 30.0886 327.139 33.0322 324.453 31.1275C321.766 29.2229 319.253 26.7122 315.44 28.0108C311.194 29.396 312.147 31.647 310.587 35.3697C304.348 50.4339 300.015 53.8104 301.748 46.2783C301.921 45.4125 299.928 44.0273 300.795 40.5643C301.921 36.0624 303.568 30.6946 305.647 28.0108C307.381 25.6732 309.46 24.4612 312.84 23.3357C318.126 21.6908 323.933 23.5954 327.746 25.4135C331.559 27.3182 337.538 34.4174 334.765 40.9972Z" fill="#64392C"/>
<path d="M302.354 46.365C302.788 45.0664 302.008 43.5946 300.621 43.2483C298.975 42.8154 296.895 43.1617 295.855 46.4516C293.949 52.3387 300.275 53.0314 300.361 52.8582C300.448 52.685 301.661 48.7891 302.354 46.365Z" fill="#F8B4A0"/>
<path d="M299.841 50.1744C299.841 50.1744 299.755 50.1744 299.495 50.2609C299.321 50.2609 298.975 50.2609 298.715 50.0012C298.195 49.5683 297.935 48.4429 298.281 47.3174C298.455 46.7979 298.715 46.2785 299.061 45.9322C299.408 45.5858 299.755 45.3261 300.101 45.4127C300.448 45.4127 300.621 45.6724 300.621 45.8456C300.621 46.0187 300.535 46.1053 300.621 46.1919C300.621 46.1919 300.795 46.1053 300.795 45.8456C300.795 45.759 300.795 45.5858 300.708 45.4127C300.621 45.2395 300.448 45.153 300.188 45.0664C299.755 44.9798 299.148 45.2395 298.801 45.6724C298.455 46.1053 298.108 46.6248 297.935 47.2308C297.588 48.4429 297.848 49.7415 298.628 50.2609C298.975 50.5207 299.408 50.5207 299.581 50.4341C299.755 50.3475 299.841 50.1744 299.841 50.1744Z" fill="#875849"/>
<path d="M306.514 35.0238C307.121 35.803 307.727 36.5822 308.594 37.0151C309.461 37.4479 310.674 37.2748 311.194 36.409C311.367 36.0627 311.454 35.5433 311.887 35.2835C312.32 35.0238 312.927 35.3701 313.36 35.5433C315.007 36.3224 317.607 35.1104 318.647 33.6386C318.82 34.4178 319.773 34.9372 320.553 34.7641C321.333 34.5909 321.68 34.4178 322.373 33.9849C323.066 33.552 324.019 33.2923 324.713 33.7252C325.146 33.8983 325.406 34.3312 325.926 34.4178C326.706 34.5909 327.399 33.8117 327.832 33.1191C328.179 32.4265 328.612 31.5608 329.392 31.3876C330.172 31.2145 330.866 31.7339 331.472 32.0802C332.165 32.4265 333.119 32.5997 333.552 31.9937C333.812 31.6474 333.725 31.2145 333.639 30.8682C333.205 29.1367 331.472 27.7514 329.652 27.838C329.739 25.6736 328.439 23.5958 326.533 22.6435C324.626 21.6911 322.113 22.124 320.553 23.5092C319.686 21.9509 318.04 20.8254 316.307 20.6522C314.574 20.4791 312.754 21.1717 311.541 22.4703C310.241 21.6045 308.421 21.6045 307.121 22.3837C305.821 23.2495 305.041 24.8944 305.388 26.4528C304.088 26.7125 302.875 27.4051 302.441 28.6172C302.008 29.8293 302.788 31.4742 304.001 31.5608C303.221 32.34 303.135 33.7252 303.828 34.5909C304.521 35.4567 305.994 35.5433 306.861 34.9372" fill="#64392C"/>
<path d="M329.479 29.7432C329.479 29.7432 329.479 29.7432 329.479 29.8297C329.479 29.9163 329.393 30.0029 329.306 30.0895C329.133 30.3492 328.873 30.6955 328.526 31.0418C328.093 31.3881 327.486 31.7344 326.706 31.9941C325.926 32.1673 324.973 32.2539 324.107 31.821L324.28 31.7344C324.28 32.3404 324.02 32.8599 323.587 33.2928C323.153 33.7257 322.633 34.072 322.113 34.4183C321.853 34.5914 321.593 34.7646 321.247 34.8511C320.9 34.9377 320.553 34.9377 320.207 34.8511C319.514 34.678 318.82 34.2451 318.56 33.5525H318.82C318.3 34.678 317.174 35.6303 315.874 35.9766C315.181 36.1498 314.401 36.1498 313.707 35.8901C313.014 35.6303 312.494 35.1974 311.974 34.8511H312.148C311.541 35.4572 310.848 35.8901 310.154 36.1498C309.374 36.4095 308.594 36.4095 307.901 35.9766C306.601 35.1974 306.081 33.7257 306.341 32.6002L306.428 32.6867C305.648 32.8599 304.868 32.6002 304.348 32.2539C303.828 31.9076 303.395 31.4747 303.135 31.1284C302.875 30.7821 302.788 30.4358 302.702 30.176C302.702 29.9163 302.615 29.8297 302.702 29.8297C302.702 29.8297 302.702 30.3492 303.222 31.0418C303.482 31.3881 303.828 31.821 304.348 32.0807C304.868 32.3404 305.561 32.6002 306.341 32.427H306.515V32.6002C306.341 33.6391 306.861 35.0243 308.075 35.7169C308.681 36.0632 309.374 36.0632 310.068 35.8035C310.761 35.5437 311.454 35.1109 311.974 34.5048L312.061 34.4183L312.148 34.5048C312.667 34.9377 313.187 35.284 313.794 35.5437C314.401 35.8035 315.094 35.8035 315.787 35.5437C317 35.1974 318.04 34.3317 318.56 33.2928L318.734 33.033L318.82 33.2928C319.08 33.8988 319.687 34.3317 320.294 34.5048C320.64 34.5914 320.9 34.5914 321.247 34.5048C321.507 34.4183 321.767 34.2451 322.113 34.072C322.633 33.7257 323.153 33.4659 323.587 33.033C324.02 32.6002 324.193 32.1673 324.193 31.6478V31.4747L324.366 31.5613C325.233 31.9076 326.186 31.9076 326.88 31.7344C327.66 31.5613 328.18 31.215 328.613 30.8686C329.219 30.3492 329.393 29.7432 329.479 29.7432Z" fill="#875849"/>
<path d="M317.693 60.304C317.693 60.0442 316.133 59.9577 315.18 58.4859C314.227 57.1007 314.487 55.4557 314.313 55.3691C314.227 55.3691 313.967 55.7154 313.88 56.4081C313.793 57.1007 313.88 58.1396 314.487 59.0053C315.093 59.8711 315.96 60.304 316.566 60.3905C317.346 60.5637 317.693 60.3905 317.693 60.304Z" fill="#64392C"/>
<path d="M295.682 66.0176C295.682 66.0176 280.95 65.2384 274.364 73.2899C268.558 80.3892 243.253 143.07 243.253 153.286C243.253 163.502 266.044 154.585 274.884 149.996C283.723 145.321 308.421 123.071 308.421 123.071C308.421 123.071 308.854 120.387 309.287 118.05C309.721 115.712 313.88 99.6956 314.4 93.9816C314.747 89.5662 314.054 80.0428 314.054 80.0428C305.041 78.3979 295.682 66.0176 295.682 66.0176Z" fill="#875849"/>
<path d="M376.969 99.1761L376.882 98.6566L376.189 98.8298L367.09 81.2549L325.493 99.1761L338.579 116.058L376.969 99.1761Z" fill="#A83F3F"/>
<g opacity="0.3">
<path d="M354.697 105.583L348.197 93.9819L361.543 88.0947L368.476 100.042L354.697 105.583Z" fill="#201A1A"/>
</g>
<path d="M315.7 110.864L323.24 106.968C323.24 106.968 327.659 96.7518 330.432 95.0203C333.205 93.2022 337.625 93.9814 337.625 93.9814L333.639 96.925C333.639 96.925 330.952 100.561 333.552 101.081C336.152 101.687 349.411 95.1069 351.317 95.28C353.224 95.4532 351.231 98.8297 351.231 98.8297C351.231 98.8297 353.744 99.5223 351.491 102.639C351.491 102.639 351.837 105.063 349.844 106.448C344.818 110.085 334.679 113.98 333.552 114.586C332.079 115.452 319.947 121.945 319.947 121.945L315.7 110.864Z" fill="#F8B4A0"/>
<path d="M351.144 98.8293C351.144 98.9159 350.624 99.2622 349.757 99.8682C348.891 100.474 347.677 101.253 346.204 102.033C344.818 102.812 343.431 103.418 342.478 103.851C341.525 104.284 340.831 104.457 340.831 104.37C340.745 104.284 343.171 103.245 345.944 101.686C348.804 100.041 351.057 98.7427 351.144 98.8293Z" fill="#875849"/>
<path d="M351.838 102.12C351.924 102.206 350.104 103.938 347.418 105.583C344.732 107.228 342.392 108.007 342.305 107.834C342.218 107.747 344.558 106.708 347.158 105.15C349.758 103.591 351.751 102.033 351.838 102.12Z" fill="#875849"/>
<path d="M367.696 82.3804L369.083 81.7744L373.676 90.3454L374.542 90.1723L375.236 90.7783L376.882 98.6567L376.189 98.8299L367.696 82.3804Z" fill="#BA7C69"/>
<path d="M376.708 98.31C376.622 98.3966 374.802 94.7604 372.722 90.2584C370.642 85.7565 368.996 82.0337 369.082 82.0337C369.169 81.9472 370.989 85.5834 373.069 90.0853C375.235 94.5872 376.795 98.31 376.708 98.31Z" fill="#201A1A"/>
<path d="M319.773 108.699L298.282 116.318C298.282 116.318 298.368 87.5748 296.722 77.0126C294.902 65.9309 272.544 64.9785 272.111 83.5058C272.111 85.3238 270.897 117.011 274.97 129.304C279.13 141.598 285.196 143.676 294.035 140.819C302.875 138.049 327.399 120.56 327.399 120.56L319.773 108.699Z" fill="#875849"/>
<path d="M319.773 108.699C319.773 108.699 319.946 108.959 320.293 109.479C320.64 109.998 321.16 110.777 321.766 111.73C323.066 113.721 324.973 116.751 327.486 120.647L327.572 120.733L327.486 120.82C323.673 123.504 318.906 126.794 313.274 130.517C310.414 132.335 307.381 134.239 304.088 136.231C302.441 137.183 300.708 138.135 298.888 139.088C298.022 139.607 297.068 139.953 296.115 140.386C295.162 140.733 294.208 141.165 293.169 141.425C291.175 142.031 288.922 142.377 286.756 142.204C284.503 142.031 282.336 141.079 280.603 139.52C278.87 137.962 277.57 135.971 276.53 133.806C275.49 131.642 274.71 129.391 274.103 127.054C272.977 122.292 272.544 117.27 272.197 112.249C271.85 107.141 271.764 101.947 271.764 96.6654C271.764 92.0769 271.85 87.5749 272.024 83.1596C272.11 80.9086 272.544 78.7442 273.497 76.6664C274.363 74.6751 275.837 72.9436 277.57 71.5584C281.123 68.9611 285.716 68.4417 289.616 69.5672C291.609 70.1732 293.429 71.2121 294.815 72.6839C295.508 73.4631 296.028 74.2423 296.462 75.1946C296.808 76.1469 297.068 77.0993 297.155 78.0516C297.675 81.8609 297.848 85.4971 298.022 89.0467C298.195 92.5963 298.281 95.9728 298.368 99.1761C298.541 105.669 298.541 111.47 298.541 116.491L298.368 116.405C305.214 113.981 310.587 112.162 314.314 110.864C316.133 110.258 317.52 109.738 318.473 109.392C318.906 109.219 319.253 109.132 319.513 109.046C319.6 108.786 319.773 108.699 319.773 108.699C319.773 108.699 319.686 108.786 319.426 108.873C319.166 108.959 318.82 109.132 318.3 109.305C317.347 109.652 315.96 110.171 314.14 110.864C310.5 112.162 305.128 114.067 298.368 116.578L298.195 116.664V116.491C298.195 111.47 298.108 105.669 297.935 99.1761C297.848 95.9728 297.762 92.5963 297.588 89.0467C297.415 85.4971 297.155 81.8609 296.635 78.0516C296.548 77.0993 296.288 76.2335 295.942 75.2812C295.508 74.4154 295.075 73.6362 294.382 72.857C293.082 71.4718 291.262 70.4329 289.356 69.9135C285.543 68.788 281.036 69.394 277.657 71.8181C276.01 73.1168 274.623 74.7617 273.757 76.753C272.89 78.7442 272.457 80.9086 272.37 83.073C272.197 87.4884 272.11 91.9903 272.11 96.5788C272.11 101.86 272.284 107.055 272.544 112.162C272.89 117.27 273.324 122.205 274.45 126.967C275.057 129.305 275.837 131.555 276.877 133.633C277.916 135.711 279.13 137.702 280.776 139.174C282.423 140.646 284.503 141.598 286.669 141.771C288.836 141.945 291.002 141.598 292.995 140.992C294.035 140.733 294.988 140.3 295.942 139.953C296.895 139.52 297.848 139.088 298.715 138.655C300.535 137.789 302.181 136.837 303.828 135.798C307.121 133.893 310.154 131.988 313.014 130.17C318.646 126.534 323.499 123.244 327.312 120.56V120.733C324.886 116.838 322.979 113.894 321.68 111.816C321.073 110.777 320.553 109.998 320.206 109.479C319.86 108.959 319.773 108.699 319.773 108.699Z" fill="#201A1A"/>
<path d="M292.129 127.227C292.042 127.227 292.216 126.534 292.649 125.408C292.996 124.37 293.689 122.898 294.469 121.339C295.335 119.781 296.202 118.482 296.982 117.617C297.762 116.751 298.282 116.231 298.282 116.318C298.369 116.405 296.549 118.569 294.902 121.599C293.169 124.629 292.216 127.313 292.129 127.227Z" fill="#201A1A"/>
<path d="M77.3869 59.8715C78.0801 58.5728 79.38 57.7071 80.8532 57.5339C81.4599 57.4473 82.0665 57.4473 82.4998 57.0145C82.7597 56.7547 82.8464 56.2353 83.0197 55.889C83.5397 54.7635 85.1862 54.244 86.3128 54.9366C86.5728 55.1098 86.8328 55.3695 87.0927 55.3695C88.306 55.6293 88.9992 53.2917 90.2125 53.5514C89.7792 53.8977 89.4325 54.3306 89.2592 54.8501C89.0859 55.3695 89.2592 55.9756 89.7792 56.2353C90.9924 56.8413 92.2056 54.4172 93.5055 54.8501C94.1988 55.1098 94.5454 56.1487 95.3254 56.0621C95.5854 56.0621 95.8453 55.889 96.192 55.8024C97.1452 55.4561 98.2718 55.9756 98.6185 56.9279C98.8784 57.7071 98.7918 58.8326 99.485 59.1789C99.9183 59.4386 100.525 59.1789 100.958 59.0057C101.132 59.7849 101.132 60.5641 100.958 61.2567C102.518 61.6896 103.471 63.4211 102.951 64.9795C103.731 65.3258 104.511 65.6721 105.118 66.2781C105.725 66.8841 106.071 67.8365 105.725 68.6156C105.638 68.7888 105.551 68.9619 105.551 69.1351C105.551 69.3082 105.638 69.568 105.725 69.7411C106.071 70.4337 106.591 71.1263 106.764 71.9055C106.938 72.6847 106.591 73.7236 105.811 73.8102C105.638 73.8102 105.378 73.8102 105.291 73.9833C105.205 74.0699 105.205 74.2431 105.205 74.4162C105.205 75.0223 105.551 75.5417 105.725 76.0612C105.985 76.5806 106.071 77.1867 105.898 77.7061C105.725 78.2256 104.945 78.5719 104.511 78.2256C104.945 79.0047 105.378 79.8705 105.811 80.6497C106.071 81.1691 106.331 81.6886 106.071 82.208C105.725 82.8141 104.685 82.6409 104.165 82.208C103.645 81.6886 103.385 80.996 102.778 80.5631C102.518 80.39 102.258 80.2168 102.085 79.9571C101.912 79.7839 101.825 79.5242 101.652 79.4376C101.218 79.2645 100.785 79.8705 100.958 80.3034C101.132 80.7363 101.565 80.996 101.912 81.2557C102.258 81.5154 102.605 81.9483 102.518 82.3812C102.431 82.5544 102.258 82.7275 102.258 82.9872C102.085 83.7664 103.211 84.1127 103.471 84.8053C103.731 85.3248 103.471 85.9308 103.125 86.4503C102.778 87.0563 101.912 87.6623 101.478 87.1429C101.305 86.9697 101.305 86.71 101.132 86.5368C100.958 86.2771 100.698 86.1905 100.438 86.0174C99.8317 85.6711 99.3117 85.1516 98.9651 84.5456C99.745 85.0651 100.525 85.8442 100.352 86.7966C100.265 87.1429 100.005 87.4892 99.8317 87.8355C99.485 88.5281 99.3117 89.3073 98.9651 89.9999C98.6184 90.6925 97.8385 91.2985 97.1452 91.0388C97.5785 91.7314 97.4919 92.5972 96.8853 93.2032C96.3653 93.7226 95.412 93.8958 94.7188 93.4629C94.5455 93.3763 94.3721 93.2032 94.1988 93.2032C93.9388 93.2032 93.7655 93.2898 93.5055 93.3763C92.2923 93.9824 90.7324 93.7226 89.6059 92.8569C89.7792 92.6837 90.0392 92.5972 90.2125 92.424C88.8259 92.5972 87.4394 92.7703 86.1395 92.3374C84.8396 91.9046 83.7997 90.6059 84.0596 89.2207C84.1463 88.6147 84.4929 88.0086 84.1463 87.4892C83.8863 87.1429 83.453 87.1429 83.0197 87.0563C81.2865 86.8832 79.64 86.7966 77.9068 86.6234C77.0402 86.5368 76.1736 86.4503 75.567 86.0174C74.8737 85.4979 74.6138 84.459 75.1337 83.853C74.6138 83.247 73.8338 82.7275 73.0539 82.5544C72.1873 82.2946 71.234 82.2946 70.2808 82.1215C69.4142 81.8617 68.4609 81.3423 68.2876 80.39C68.1143 79.4376 69.1542 78.4853 69.9341 78.9182C69.4142 77.6195 66.9877 78.139 66.4678 76.8403C66.0345 75.8014 67.2477 74.8491 67.7676 73.8102C67.5077 73.4639 67.0744 73.2907 66.8144 73.031C66.2944 72.3384 66.9011 71.2995 67.5943 70.78C68.2876 70.174 69.1542 69.568 69.0675 68.7022C69.0675 67.8365 68.0276 67.0573 68.2876 66.1915C68.4609 65.6721 68.9809 65.4123 69.5008 65.5855C69.6742 63.854 72.9672 64.2868 73.4872 62.5553C73.4872 62.3822 73.5738 62.2956 73.4872 62.1224C73.4005 62.0359 73.3139 61.9493 73.2272 61.8627C72.7939 61.5164 72.1873 61.4298 71.6673 61.1701C71.1474 60.9104 70.6274 60.4775 70.7141 59.958C70.8007 59.4386 71.754 59.1789 71.8407 59.6983C72.2739 59.0923 73.4005 59.0057 73.8338 59.6983C74.0938 59.1789 74.8737 58.9191 75.3937 59.0923C76.0003 59.2654 76.4336 59.6983 76.8669 60.1312" fill="#64392C"/>
<path d="M89.2597 75.282C88.1331 73.2042 85.9666 71.819 83.8002 70.9532C82.8469 70.6069 81.8937 70.2606 80.8537 70.4338C79.9005 70.5203 78.8606 71.2129 78.6006 72.1653L79.2072 73.7236C79.7272 76.3209 82.327 77.8793 83.8868 79.9571C84.5801 80.9094 85.2734 82.0349 86.3999 82.1215C87.0066 82.2081 87.6132 81.9483 88.1331 81.602C90.1263 80.3034 90.3863 77.3598 89.2597 75.282Z" fill="#FFE8CF"/>
<path d="M92.8993 86.8829C93.7659 84.5454 92.6393 81.6884 90.4728 80.4763C91.0794 79.0045 90.2128 77.3596 88.9129 76.4938C87.613 75.6281 86.0532 75.3683 84.4933 75.1952C82.6734 71.9919 78.1671 70.7798 74.9607 72.5979C72.3609 70.5201 68.4613 71.2993 65.7748 73.0308C65.0815 73.4637 64.4749 73.9831 63.695 74.1563C63.0884 74.3294 62.5684 74.3294 61.9618 74.416C58.7554 74.9354 56.3289 78.0522 56.069 81.2555C55.9823 81.7749 55.9823 82.2944 55.809 82.8139C55.549 83.4199 55.029 83.9393 54.6824 84.4588C53.8158 85.6709 53.5558 87.2292 53.9025 88.6144C54.2491 89.8265 54.9424 90.952 54.7691 92.2506C54.6824 92.8567 54.3358 93.4627 54.3358 94.0687C54.2491 95.8868 56.5889 97.0123 56.7622 98.8304C56.7622 99.1767 56.7622 99.6096 56.7622 99.9559C56.7622 100.735 57.1089 101.428 57.6288 102.034C58.0621 102.467 58.5821 102.813 58.7554 103.332C58.9287 103.765 58.8421 104.198 58.8421 104.631C58.9287 105.67 62.3084 108.96 63.3484 109.219L89.6929 101.514C91.5994 100.475 92.6393 98.2244 92.206 96.1465C92.1193 95.8002 92.0327 95.4539 92.1193 95.1076C92.206 94.8479 92.466 94.6748 92.7259 94.415C94.1125 93.0298 93.6792 90.6057 92.8993 88.7876C92.8126 88.5279 92.6393 88.2681 92.6393 88.0084C92.5526 87.6621 92.7259 87.3158 92.8993 86.8829Z" fill="#64392C"/>
<path d="M85.3603 89.2208C84.0605 84.5457 79.4675 80.1303 74.1813 79.2645C70.8015 78.7451 68.5484 79.3511 66.9885 79.6974C63.4355 80.3035 61.1823 82.9007 61.1823 82.9007C59.7958 83.6799 55.9828 90.1731 57.2827 95.4542C58.7559 101.428 60.749 108.614 62.8289 112.683C66.9885 120.994 74.0079 119.955 74.0079 119.955L75.7411 126.622L78.8609 154.759L98.4459 119.349L93.6797 118.743L85.3603 89.2208Z" fill="#F8B4A0"/>
<path d="M74.874 107.401C74.7007 106.968 74.3541 106.622 74.0074 106.449C73.2275 106.103 72.3609 106.276 71.841 106.882C71.321 107.488 71.4077 108.267 71.7543 109.133C72.2743 109.566 72.6209 109.999 73.3142 109.912C73.4008 109.912 73.4875 109.912 73.5741 109.825C74.0074 109.652 74.4407 109.393 74.7874 108.96C75.0474 108.527 75.134 107.921 74.874 107.401Z" fill="#875849"/>
<path d="M62.6555 102.467C62.8288 103.073 63.4354 103.419 64.1287 103.246C64.7353 103.073 65.1686 102.467 64.9953 101.861C64.822 101.255 64.2154 100.909 63.5221 101.082C62.8288 101.255 62.4822 101.861 62.6555 102.467Z" fill="#64392C"/>
<path d="M60.4022 98.1379C60.5755 98.2245 61.2688 97.3587 62.482 96.9259C63.6952 96.493 64.7351 96.8393 64.8218 96.6661C64.9085 96.5796 64.6485 96.3198 64.1285 96.2333C63.6952 96.0601 62.9153 95.9735 62.1354 96.2333C61.3554 96.493 60.8355 96.9259 60.5755 97.3587C60.4022 97.7916 60.3155 98.0513 60.4022 98.1379Z" fill="#64392C"/>
<path d="M70.4543 105.411C70.4543 105.324 69.6743 105.411 68.3744 105.67C68.0278 105.757 67.7678 105.757 67.5945 105.584C67.4212 105.411 67.5079 104.978 67.5079 104.631C67.5945 103.766 67.5945 102.9 67.6812 102.034C67.8545 98.3114 67.9411 95.2812 67.7678 95.2812C67.5945 95.2812 67.3345 98.3114 67.0746 102.034C66.9879 102.986 66.9879 103.852 66.9012 104.631C66.9012 104.978 66.8146 105.497 67.1612 105.93C67.3345 106.103 67.5945 106.19 67.7678 106.19C68.0278 106.19 68.2011 106.103 68.2878 106.103C69.761 105.757 70.4543 105.497 70.4543 105.411Z" fill="#64392C"/>
<path d="M74.0947 119.955C74.0947 119.955 80.1609 118.483 84.8405 113.115C84.8405 113.115 83.6273 120.214 74.6147 122.206L74.0947 119.955Z" fill="#BA7C69"/>
<path d="M59.362 94.0687C59.622 94.3285 60.4886 93.809 61.6152 93.5493C62.7418 93.2895 63.695 93.2895 63.8683 92.9432C63.955 92.7701 63.695 92.5104 63.2617 92.3372C62.8284 92.1641 62.0485 92.0775 61.3552 92.2506C60.5753 92.4238 59.9687 92.8567 59.622 93.203C59.2754 93.6358 59.1887 93.9821 59.362 94.0687Z" fill="#64392C"/>
<path d="M75.4804 98.9171C75.6537 99.5232 75.3071 100.129 74.7004 100.389C74.0938 100.562 73.4006 100.302 73.2272 99.6963C73.0539 99.0903 73.4006 98.4843 74.0072 98.2245C74.7004 98.0514 75.3071 98.3111 75.4804 98.9171Z" fill="#64392C"/>
<path d="M77.1269 93.3759C77.0403 93.549 76.0004 93.2027 74.7871 93.4624C73.5739 93.8087 72.8806 94.6745 72.7073 94.5013C72.6206 94.4148 72.7073 94.155 72.9673 93.7222C73.3139 93.3759 73.8339 92.8564 74.6138 92.6833C75.3937 92.5101 76.087 92.5967 76.5203 92.7698C76.9536 93.1161 77.1269 93.2893 77.1269 93.3759Z" fill="#64392C"/>
<path d="M77.1269 89.3938C76.9536 89.7401 75.9137 89.7401 74.7871 89.9998C73.6605 90.2595 72.7939 90.779 72.5339 90.5193C72.3606 90.4327 72.4473 90.0864 72.7939 89.7401C73.1405 89.3938 73.7472 88.9609 74.5271 88.7877C75.307 88.6146 76.087 88.7012 76.5203 88.8743C77.0402 88.9609 77.2135 89.2206 77.1269 89.3938Z" fill="#64392C"/>
<path d="M86.5732 97.965C86.3999 97.2724 86.6599 95.5409 87.2665 95.2812C88.913 94.502 92.0328 93.6362 93.4193 97.965C95.3258 103.939 88.9997 104.631 88.913 104.458C88.8264 104.285 87.2665 100.216 86.5732 97.965Z" fill="#F8B4A0"/>
<path d="M89.8663 101.687C89.8663 101.687 89.953 101.687 90.213 101.774C90.3863 101.774 90.7329 101.774 90.9929 101.514C91.5129 101.081 91.7729 99.9559 91.4262 98.8304C91.2529 98.3109 90.9929 97.7915 90.6463 97.4452C90.2996 97.0989 89.953 96.8392 89.6064 96.9257C89.2597 96.9257 89.0864 97.1855 89.0864 97.4452C89.0864 97.6183 89.1731 97.7049 89.0864 97.7915C89.0864 97.7915 88.9131 97.7049 88.9131 97.4452C88.9131 97.3586 88.9131 97.1855 88.9997 97.0123C89.0864 96.8392 89.2597 96.7526 89.5197 96.666C89.953 96.5794 90.5596 96.8392 90.9063 97.272C91.2529 97.7049 91.5995 98.2244 91.7729 98.8304C92.1195 100.042 91.8595 101.341 91.0796 101.861C90.7329 102.12 90.2996 102.12 90.0397 102.034C89.8663 101.861 89.8663 101.687 89.8663 101.687Z" fill="#875849"/>
<path d="M56.0688 95.8867C57.0221 94.7612 57.4554 93.4626 56.9354 92.0774C57.802 92.0774 58.322 90.7787 58.5819 89.913C58.8419 89.0472 59.2752 88.5278 59.0152 87.7486C58.9286 87.5754 58.9286 87.4023 58.9286 87.2291C59.0152 86.9694 59.2752 86.7963 59.4485 86.6231C60.5751 85.8439 61.2684 84.4587 61.1817 82.9869C62.6549 83.1601 64.1281 82.9003 65.5147 82.3809C66.3813 83.0735 67.6812 83.2466 68.7211 82.9003C69.761 82.554 70.6276 81.5151 70.8876 80.4762C71.4942 81.0822 72.4475 81.342 73.3141 81.2554C74.1807 81.1688 75.0473 80.9091 75.8272 80.6494C76.0005 82.3809 77.5604 83.8527 79.2936 83.8527C79.5535 83.8527 79.8135 83.8527 79.9868 84.0258C80.1602 84.199 80.1602 84.4587 80.0735 84.7184C79.9868 86.2768 81.4601 87.662 82.9333 87.5754C82.1533 88.6143 82.8466 90.3459 84.0598 90.6922C84.3198 90.7787 84.6665 90.8653 84.6665 91.125C84.6665 91.2116 84.6665 91.2982 84.5798 91.3848C84.3198 92.0774 84.0598 92.8566 84.2332 93.6357C84.4065 94.4149 85.1864 95.021 85.8797 94.8478C85.6197 95.2807 85.3597 95.8867 85.5331 96.4062C85.7064 96.9256 86.3997 97.2719 86.8329 96.9256C87.0063 96.7525 89.7794 95.2807 89.866 95.021C90.8193 92.164 87.9595 90.3459 86.8329 87.5754C85.793 84.805 83.8865 82.3809 81.72 80.3031C80.7668 79.4373 79.8135 78.6581 78.687 78.0521C77.3871 77.3595 76.0005 77.0132 74.614 76.6669C72.7941 76.234 70.9742 75.7145 69.0677 75.8877C65.6014 76.1474 62.6549 78.3118 60.0552 80.6494C59.1019 81.5151 58.1486 82.4675 57.4554 83.5929C56.5888 84.8916 56.1555 86.4499 55.8088 88.0083C55.3755 90.2593 55.1156 92.5968 55.5488 94.7612" fill="#64392C"/>
<path d="M54.2492 94.1555C54.2492 94.1555 54.2492 93.8958 54.3359 93.3763C54.4225 93.1166 54.5092 92.8569 54.5959 92.5106C54.6825 92.1643 54.6825 91.7314 54.5959 91.2985C54.5092 90.8656 54.3359 90.3462 54.0759 89.8267C53.9026 89.3072 53.6426 88.7012 53.5559 88.0086C53.4693 87.316 53.5559 86.6234 53.7293 85.8442C53.8159 85.4979 53.9892 85.1516 54.1626 84.8053C54.3359 84.459 54.5959 84.1127 54.8558 83.853C55.1158 83.5067 55.3758 83.1604 55.5491 82.8141C55.7224 82.3812 55.7224 81.9483 55.7224 81.5154C55.8091 80.5631 56.0691 79.6973 56.4157 78.745C56.849 77.8792 57.369 77.0135 58.1489 76.2343C58.4955 75.888 58.9288 75.5417 59.4488 75.282C59.8821 75.0222 60.4021 74.7625 60.922 74.5894C61.182 74.5028 61.442 74.4162 61.7886 74.4162C62.0486 74.4162 62.3086 74.3296 62.6552 74.3296C63.1752 74.243 63.7818 74.1565 64.2151 73.8102C64.735 73.5504 65.1683 73.2041 65.6883 72.8578C66.2082 72.5115 66.7282 72.2518 67.2482 71.9921C67.7681 71.7323 68.3747 71.5592 68.9813 71.4726C69.588 71.2995 70.1946 71.2995 70.8012 71.2129C72.0144 71.2129 73.401 71.4726 74.4409 72.2518C74.5276 72.3384 74.6142 72.425 74.7875 72.5115H74.7009C76.3474 71.5592 78.4272 71.4726 80.1604 71.9055C81.8936 72.425 83.4535 73.5504 84.3201 75.1088L84.2334 75.0222C85.1 75.1088 85.88 75.282 86.6599 75.4551C87.4398 75.6283 88.2198 75.9746 88.8264 76.4074C89.433 76.8403 89.953 77.5329 90.2129 78.2255C90.4729 78.9181 90.5596 79.6973 90.2996 80.3899V80.3034C91.4262 80.9094 92.2061 81.8617 92.6394 82.9006C93.0727 83.9395 93.1594 85.065 92.986 86.0174C92.8994 86.2771 92.8127 86.5368 92.8127 86.71C92.7261 86.9697 92.6394 87.1428 92.5527 87.4026C92.4661 87.6623 92.4661 87.8355 92.5527 88.0952C92.6394 88.2683 92.7261 88.5281 92.7261 88.7012C93.0727 89.4804 93.246 90.2596 93.3327 90.9522C93.4193 91.6448 93.4193 92.3374 93.246 92.8569C93.0727 93.3763 92.8994 93.8092 92.6394 94.1555C92.3794 94.4152 92.1194 94.5884 92.0328 94.7615C91.9461 94.9347 91.8595 95.0213 91.8595 95.0213C91.8595 95.0213 91.8595 94.9347 92.0328 94.7615C92.1194 94.5884 92.3794 94.4152 92.6394 94.1555C92.8994 93.8958 93.0727 93.4629 93.246 92.9434C93.4193 92.424 93.4193 91.7314 93.246 91.0388C93.1594 90.3462 92.8994 89.567 92.5527 88.7878C92.4661 88.6146 92.3794 88.3549 92.2928 88.1818C92.2061 87.922 92.2928 87.7489 92.2928 87.4892C92.3794 87.2294 92.4661 87.0563 92.5527 86.7965C92.6394 86.5368 92.7261 86.3637 92.7261 86.1039C92.8994 85.1516 92.8127 84.0261 92.3794 82.9872C91.9461 81.9483 91.1662 80.996 90.1263 80.4765H90.0396V80.3899C90.2996 79.7839 90.2129 79.0047 89.953 78.3121C89.693 77.6195 89.173 77.0135 88.5664 76.5806C87.9598 76.1477 87.1799 75.8014 86.3999 75.6283C85.62 75.4551 84.84 75.282 83.9735 75.1954H83.8868C83.0202 73.7236 81.547 72.5981 79.8138 72.0786C78.0806 71.5592 76.0874 71.6458 74.5276 72.5981H74.4409H74.3542C74.2676 72.5115 74.1809 72.425 74.0943 72.3384C73.0543 71.6458 71.8411 71.2995 70.5412 71.2995C69.9346 71.2995 69.328 71.386 68.7214 71.5592C68.1148 71.7323 67.5948 71.9055 66.9882 72.0786C66.4682 72.3384 65.9483 72.5981 65.4283 72.8578C64.9083 73.1176 64.4751 73.5504 63.9551 73.8102C63.6951 73.9833 63.4351 74.0699 63.1752 74.1565C62.9152 74.243 62.5685 74.3296 62.3086 74.3296C62.0486 74.3296 61.7886 74.4162 61.442 74.4162C61.182 74.5028 60.922 74.5028 60.662 74.5894C60.1421 74.7625 59.6221 74.9357 59.1888 75.1954C58.7555 75.4551 58.3222 75.8014 57.9756 76.1477C57.1957 76.8403 56.6757 77.7061 56.2424 78.5718C55.8091 79.4376 55.6358 80.3899 55.5491 81.2557C55.5491 81.6886 55.4625 82.208 55.2891 82.5543C55.1158 82.9872 54.8558 83.3335 54.5959 83.6798C54.3359 84.0261 54.0759 84.2858 53.9026 84.6322C53.7293 84.9785 53.5559 85.3248 53.4693 85.6711C53.2093 86.3637 53.2093 87.0563 53.296 87.7489C53.3826 88.4415 53.5559 88.9609 53.8159 89.4804C53.9892 89.9999 54.1626 90.5193 54.2492 90.9522C54.3359 91.3851 54.3359 91.8179 54.2492 92.1643C54.1626 92.5106 54.0759 92.7703 53.9892 93.03C53.9026 93.2897 53.9026 93.4629 53.8159 93.5495C54.2492 94.0689 54.2492 94.1555 54.2492 94.1555Z" fill="#875849"/>
<path d="M71.7547 72.1651C71.7547 72.1651 71.5814 72.1651 71.2347 72.0785C70.8881 71.9919 70.3682 71.9919 69.8482 72.0785C69.2416 72.1651 68.5483 72.4248 67.9417 72.9442C67.3351 73.4637 66.8151 74.2429 66.6418 75.1086C66.5551 75.3684 66.5551 75.6281 66.5551 75.8878C66.5551 76.1475 66.6418 76.4073 66.8151 76.4938L66.9884 76.667H66.7285C66.0352 76.667 65.3419 77.0133 64.9086 77.4462C64.4753 77.8791 64.302 78.3985 64.2153 78.8314C64.1287 79.2643 64.2153 79.6106 64.302 79.8703C64.3886 80.13 64.3887 80.2166 64.3887 80.2166C64.3887 80.2166 64.3886 80.2166 64.302 80.13C64.302 80.0435 64.2153 79.9569 64.2153 79.8703C64.1287 79.6106 64.042 79.2643 64.1287 78.7448C64.1287 78.3119 64.3887 77.7059 64.8219 77.1865C65.2552 76.7536 65.9485 76.3207 66.7285 76.3207L66.6418 76.4938C66.3818 76.3207 66.2952 75.9744 66.2952 75.7147C66.2952 75.4549 66.2952 75.1952 66.3818 74.9355C66.5551 73.9832 67.0751 73.204 67.7684 72.6845C68.375 72.1651 69.1549 71.9053 69.7615 71.8188C70.3682 71.7322 70.8881 71.8188 71.2347 71.8188C71.4081 71.8188 71.4947 71.9053 71.5814 71.9053C71.668 72.1651 71.7547 72.1651 71.7547 72.1651Z" fill="#875849"/>
<path d="M83.5404 75.9746C83.5404 75.9746 83.5404 76.0612 83.367 76.2343C83.2804 76.4075 83.1071 76.6672 82.8471 76.9269C82.5871 77.1867 82.2405 77.4464 81.8072 77.6196C81.3739 77.7927 80.7673 77.8793 80.1606 77.6196L80.2473 77.533C80.2473 77.6196 80.1606 77.7061 80.1606 77.7927C80.1606 77.8793 80.074 77.9659 79.9873 78.0524C79.7273 78.6585 79.294 79.0913 78.7741 79.4376C78.3408 79.7839 77.8208 79.9571 77.3875 80.0437C76.9542 80.1302 76.6076 80.1303 76.3476 80.1303C76.0876 80.1303 76.001 80.0437 76.001 80.0437C76.001 80.0437 76.5209 80.1303 77.3009 79.8705C77.7342 79.7839 78.1675 79.5242 78.6008 79.2645C79.0341 78.9182 79.4674 78.4853 79.7273 77.9659C79.7273 77.8793 79.814 77.7927 79.814 77.7061C79.814 77.6196 79.9007 77.533 79.9007 77.4464V77.3598H79.9873C80.5073 77.533 81.0272 77.533 81.4605 77.3598C81.8938 77.1867 82.2405 76.9269 82.5004 76.6672C83.2804 76.4075 83.5404 75.9746 83.5404 75.9746Z" fill="#875849"/>
<path d="M88.3929 80.5635C88.3929 80.5635 88.3929 80.5635 88.3929 80.6501C88.3929 80.7366 88.3929 80.8232 88.3929 80.9964C88.3063 81.2561 88.0463 81.689 87.613 81.9487C87.1797 82.2084 86.4864 82.295 85.8798 82.295C85.5332 82.295 85.1865 82.295 84.8399 82.2084C84.4933 82.1218 84.06 82.0353 83.8 81.689L83.7133 81.6024H83.8866C83.4534 82.2084 83.02 82.8144 82.4134 83.2473C81.8935 83.6802 81.2869 83.8534 80.7669 83.9399C80.2469 84.0265 79.8136 83.9399 79.5537 83.7668C79.3804 83.6802 79.2937 83.6802 79.2937 83.5936C79.207 83.5936 79.207 83.5071 79.207 83.5071C79.207 83.5071 79.3804 83.5936 79.6403 83.6802C79.9003 83.7668 80.3336 83.8534 80.7669 83.7668C81.2869 83.6802 81.8068 83.5071 82.3268 83.0742C82.8467 82.6413 83.28 82.1218 83.7133 81.5158L83.8 81.4292L83.8866 81.5158C83.8866 81.5158 83.8866 81.6024 83.9733 81.6024C84.2333 81.8621 84.5799 81.9487 84.9266 82.0353C85.2732 82.1218 85.6198 82.1218 85.9665 82.1218C86.6597 82.1218 87.2664 82.1218 87.6997 81.8621C88.133 81.6024 88.3929 81.2561 88.4796 80.9964C88.3929 80.7366 88.3929 80.5635 88.3929 80.5635Z" fill="#875849"/>
<path d="M88.1332 57.2744C88.1332 57.2744 88.0466 57.2744 87.8732 57.4476C87.6999 57.5341 87.5266 57.7073 87.3533 58.0536C87.18 58.3999 87.0933 58.8328 87.2666 59.3522C87.3533 59.8717 87.6999 60.3911 87.9599 60.9106L88.0466 60.9972H87.9599C87.2666 61.1703 86.5733 61.6032 86.0534 62.2958C85.5334 62.9884 85.2734 63.8542 85.5334 64.7199C85.7934 65.4991 86.3134 66.1917 87.0066 66.4515L87.2666 66.538L87.0066 66.6246C86.0534 66.8843 85.3601 67.5769 85.0135 68.3561C84.6668 69.0487 84.6668 69.8279 84.8402 70.4339C85.0135 71.04 85.2734 71.4729 85.4468 71.646C85.6201 71.9057 85.7934 71.9923 85.7934 71.9923C85.7934 71.9923 85.7934 71.9923 85.7067 71.9057C85.6201 71.8192 85.5334 71.7326 85.4468 71.646C85.1868 71.3863 84.9268 70.9534 84.7535 70.3474C84.5802 69.7413 84.5802 68.9622 84.9268 68.183C85.2734 67.4038 85.9667 66.7112 87.0066 66.3649V66.538C86.2267 66.2783 85.6201 65.5857 85.3601 64.7199C85.1868 64.2871 85.1868 63.7676 85.2735 63.3347C85.3601 62.9018 85.6201 62.469 85.8801 62.1227C86.4 61.4301 87.18 60.9972 87.8732 60.824L87.7866 60.9106C87.4399 60.3911 87.18 59.7851 87.0933 59.2657C87.0066 58.7462 87.0933 58.2267 87.2666 57.8804C87.4399 57.5341 87.6999 57.361 87.8732 57.2744C87.9599 57.361 88.0466 57.2744 88.1332 57.2744Z" fill="#875849"/>
<path d="M102.865 66.8838C102.865 66.8838 102.865 66.8838 102.779 66.9704C102.692 67.0569 102.605 67.1435 102.519 67.2301C102.259 67.4032 101.912 67.663 101.392 67.8361C100.872 68.0093 100.179 68.1824 99.4856 68.1824C98.7057 68.1824 97.8391 68.0093 97.0591 67.4898L97.2324 67.4032C96.9725 68.4422 96.2792 69.5676 95.1526 70.0871C93.9394 70.6066 92.4662 70.3468 91.6862 69.3945L91.8596 69.3079C91.8596 69.7408 91.6862 70.1737 91.4263 70.52C91.1663 70.8663 90.9063 71.126 90.6463 71.3857C90.0397 71.8186 89.4331 71.9918 88.9131 72.1649C88.3932 72.2515 87.9599 72.3381 87.6999 72.3381C87.4399 72.3381 87.2666 72.3381 87.2666 72.3381C87.2666 72.3381 87.4399 72.3381 87.6999 72.2515C87.9599 72.2515 88.3932 72.1649 88.9131 71.9918C89.4331 71.8186 90.0397 71.6455 90.6463 71.2126C91.1663 70.7797 91.7729 70.0871 91.7729 69.2213V68.9616L91.9462 69.1348C92.6395 70.0005 94.0261 70.2602 95.2393 69.7408C96.3659 69.2213 96.9725 68.1824 97.2324 67.2301V67.1435L97.3191 67.2301C98.0991 67.663 98.879 67.9227 99.6589 67.9227C100.439 67.9227 101.045 67.8361 101.565 67.5764C102.432 67.3167 102.865 66.8838 102.865 66.8838Z" fill="#875849"/>
<path d="M100.092 77.3596C100.092 77.3596 100.092 77.4462 100.092 77.5328C100.092 77.6194 99.9187 77.7059 99.832 77.7925C99.4854 77.9657 99.0521 78.0522 98.4455 77.9657C97.8388 77.8791 97.1456 77.7059 96.539 77.1865C95.9323 76.667 95.499 75.8878 95.3257 74.9355L95.499 75.0221C94.8058 75.6281 94.0258 75.9744 93.2459 76.061C92.466 76.1476 91.7727 76.061 91.1661 75.8013C90.6461 75.6281 90.2128 75.3684 89.9528 75.1952C89.6929 75.0221 89.5195 74.8489 89.5195 74.8489C89.5195 74.8489 90.1261 75.2818 91.1661 75.7147C91.686 75.8878 92.3793 75.9744 93.1592 75.8878C93.9392 75.8013 94.7191 75.455 95.3257 74.8489L95.499 74.6758V74.8489C95.5857 75.7147 96.019 76.4939 96.6256 77.0133C97.2322 77.5328 97.8388 77.7059 98.4455 77.7925C99.0521 77.8791 99.4854 77.7925 99.832 77.7059C100.005 77.6194 100.092 77.3596 100.092 77.3596Z" fill="#875849"/>
<path d="M75.2212 61.5166C75.3078 61.5166 75.1345 62.2958 75.4811 63.4213C75.6545 63.9407 76.0878 64.6333 76.6944 65.1528C77.301 65.6722 78.0809 66.1051 79.0342 66.1917C79.5541 66.2783 80.0741 66.1917 80.5074 66.1051H80.5941V66.1917C80.5941 66.8843 80.7674 67.5769 80.9407 68.1829C81.2007 68.789 81.4607 69.2219 81.7206 69.5682C81.894 69.7413 81.9806 69.9145 82.1539 70.001C82.3273 70.0876 82.4139 70.1742 82.5872 70.1742C82.6739 70.1742 82.7606 70.0876 82.8472 70.001C82.8472 70.0876 82.7606 70.1742 82.5872 70.1742C82.4139 70.2608 82.2406 70.1742 82.1539 70.001C81.9806 69.9145 81.894 69.7413 81.7206 69.5682C81.374 69.2219 81.114 68.7024 80.854 68.1829C80.5941 67.5769 80.4207 66.8843 80.4207 66.1051L80.5074 66.1917C79.9874 66.2783 79.4675 66.3649 78.9475 66.2783C77.9943 66.1917 77.1277 65.7588 76.5211 65.2394C75.9145 64.7199 75.5678 64.0273 75.3078 63.4213C75.1345 62.8152 75.0479 62.2958 75.0479 61.9495C75.0479 61.7763 75.0479 61.6032 75.0479 61.5166C75.1345 61.6032 75.2212 61.5166 75.2212 61.5166Z" fill="#875849"/>
<path d="M74.3546 105.67C74.1813 105.67 74.2679 106.882 73.3147 107.834C72.3614 108.787 71.0615 108.787 71.0615 108.96C71.0615 109.046 71.4082 109.133 71.9281 109.133C72.4481 109.133 73.228 108.873 73.748 108.267C74.3546 107.661 74.5279 106.969 74.5279 106.449C74.6146 106.016 74.4412 105.67 74.3546 105.67Z" fill="#64392C"/>
<path d="M123.403 167.571C122.883 163.589 119.503 135.192 119.503 135.192C119.503 135.192 119.243 127.573 112.917 123.071C106.591 118.57 94.7186 118.05 94.112 118.483C92.8988 119.522 85.2727 144.196 82.7596 144.196C80.3331 144.196 75.6535 126.275 75.6535 126.275L74.6136 122.119L66.2076 125.496C66.2076 125.496 62.048 128.266 59.7948 135.538C58.4083 140.04 53.2953 168.177 53.2953 168.177L40.4697 167.225V178.567L66.2076 184.627C66.2076 184.627 69.2407 182.463 70.8006 178.22C71.1472 177.181 71.0605 173.372 70.7139 168.351C71.4072 169.043 71.8405 169.39 71.8405 169.39L77.56 185.666C102.605 191.726 129.122 199.345 140.821 191.466C139.262 180.991 123.75 170.255 123.403 167.571Z" fill="#875849"/>
<path d="M66.3812 139.521C66.3812 139.521 66.6412 139.953 66.9878 140.819C67.3344 141.598 67.8544 142.81 68.3744 144.196V144.282L68.2877 144.369C67.6811 145.494 67.1611 146.793 66.7278 148.265C66.0345 150.689 65.9479 153.026 65.9479 154.671C66.0345 156.316 66.2079 157.355 66.1212 157.355C66.1212 157.355 66.0345 157.095 65.8612 156.663C65.7746 156.23 65.6012 155.537 65.6012 154.671C65.4279 153.026 65.5146 150.602 66.2079 148.092C66.6412 146.62 67.2478 145.235 67.8544 144.196V144.369C67.3344 142.984 66.9011 141.771 66.6412 140.906C66.4678 139.953 66.3812 139.521 66.3812 139.521Z" fill="#201A1A"/>
<path d="M32.8434 132.769L28.4238 131.037C28.4238 131.037 22.7042 134.587 18.9779 137.703C15.5982 140.647 13.9516 143.937 13.9516 143.937C13.345 142.379 12.8251 141.34 11.0052 140.474C6.93221 138.656 3.03253 140.647 3.03253 140.647L1.47266 143.85L9.87863 150.17L20.2778 155.019L28.0771 154.499L42.8959 148.093L32.8434 132.769Z" fill="#BA7C69"/>
<path d="M31.1108 166.966L0 144.11C0 144.11 7.88602 142.811 10.0525 144.11C12.219 145.409 11.3524 148.092 11.3524 148.092L14.2122 147.833C14.2122 147.833 15.9454 143.244 22.1848 139.089C28.4243 134.933 34.1439 132.249 34.1439 132.249L60.9217 156.663L62.2216 162.724C62.2216 162.724 46.5362 166.273 41.3366 171.641L31.1108 166.966Z" fill="#A83F3F"/>
<path d="M42.9835 170.083C42.8968 170.169 36.3974 165.235 28.4247 159.088C20.452 152.941 14.0392 147.833 14.1259 147.746C14.2125 147.66 20.712 152.594 28.6847 158.741C36.744 164.888 43.0702 169.996 42.9835 170.083Z" fill="#201A1A"/>
<path d="M39.7765 170.775C39.6898 170.862 33.1903 165.927 25.2177 159.78C17.245 153.633 10.8322 148.525 10.9188 148.439C11.0055 148.352 17.505 153.287 25.4776 159.434C33.4503 165.667 39.8631 170.689 39.7765 170.775Z" fill="#201A1A"/>
<path d="M56.8481 238.91L66.6407 256.831C66.6407 256.831 52.6885 272.329 54.1617 275.792L87.6989 258.909L73.5734 230.426L56.8481 238.91Z" fill="#201A1A"/>
<path d="M76.1736 249.992C76.9536 249.819 77.7335 250.425 77.9068 251.204C78.0801 251.983 77.6468 252.849 76.8669 253.022C76.087 253.195 75.1337 252.589 74.9604 251.81C74.8737 251.031 75.4804 250.078 76.2603 250.078" fill="#FFE8CF"/>
<path d="M87.6993 258.91L86.1394 256.053L54.5953 273.281C54.5953 273.281 53.4687 274.753 54.162 275.705L87.6993 258.91Z" fill="#FFE8CF"/>
<path d="M65.9474 256.918C66.034 257.092 66.9006 256.745 67.9405 256.918C69.0671 257.005 69.847 257.611 69.9337 257.438C70.107 257.351 69.3271 256.399 68.0272 256.226C66.7273 256.053 65.8607 256.745 65.9474 256.918Z" fill="#FFE8CF"/>
<path d="M63.1748 260.208C63.2615 260.381 64.0414 260.294 64.9947 260.814C65.9479 261.247 66.4679 261.939 66.6412 261.853C66.8145 261.766 66.3812 260.727 65.2546 260.208C64.1281 259.602 63.1748 260.034 63.1748 260.208Z" fill="#FFE8CF"/>
<path d="M63.4342 265.662C63.6076 265.662 63.4342 264.623 62.481 263.931C61.6144 263.151 60.6611 263.238 60.6611 263.411C60.6611 263.584 61.3544 263.844 62.1343 264.45C62.8276 264.97 63.2609 265.662 63.4342 265.662Z" fill="#FFE8CF"/>
<path d="M64.1279 252.59C64.3012 252.676 64.9079 252.07 65.8611 251.724C66.8144 251.291 67.681 251.291 67.681 251.118C67.681 250.945 66.7277 250.685 65.6011 251.118C64.4746 251.551 64.0413 252.503 64.1279 252.59Z" fill="#FFE8CF"/>
<path d="M84.666 235.621L88.479 259.602L85.9659 279.428C85.7926 280.9 86.8325 282.112 88.3057 282.199C89.0857 282.285 89.8656 281.939 90.3856 281.246C93.592 277.264 105.291 262.373 104.944 260.641C104.511 258.65 102.605 235.015 102.605 235.015L84.666 235.621Z" fill="#201A1A"/>
<path d="M88.3057 282.285L104.684 259.083L104.858 260.122C104.944 260.988 104.771 261.94 104.338 262.633C103.038 264.624 99.3981 270.078 90.4722 281.333C89.9522 282.026 89.1723 282.372 88.3057 282.285Z" fill="#FFE8CF"/>
<g opacity="0.6">
<path d="M98.7916 252.07C98.2716 252.589 98.185 253.542 98.6183 254.061C99.1382 254.667 100.091 254.754 100.611 254.234C101.131 253.715 101.305 252.589 100.785 252.07C100.265 251.55 99.1382 251.55 98.7049 252.156" fill="#FFE8CF"/>
</g>
<path d="M92.4652 271.03C92.3785 271.117 91.5986 269.905 90.1254 269.472C88.6522 268.952 87.3523 269.472 87.2656 269.299C87.2656 269.212 87.5256 269.039 88.0456 268.866C88.5655 268.693 89.4321 268.693 90.2987 268.952C91.1653 269.212 91.7719 269.732 92.1186 270.251C92.3785 270.684 92.4652 271.03 92.4652 271.03Z" fill="#FFE8CF"/>
<path d="M91.1657 274.493C91.0791 274.58 90.2125 273.974 88.9126 273.714C87.6127 273.454 86.5728 273.887 86.4861 273.714C86.3995 273.628 87.526 272.935 88.9992 273.195C90.4725 273.454 91.2524 274.407 91.1657 274.493Z" fill="#FFE8CF"/>
<path d="M95.0649 266.442C94.9782 266.528 93.5916 265.49 91.5985 265.057C89.6053 264.537 87.9588 264.884 87.8721 264.71C87.7855 264.624 89.6053 264.018 91.6851 264.537C93.9383 265.057 95.1515 266.442 95.0649 266.442Z" fill="#FFE8CF"/>
<path d="M94.5451 259.083C94.4584 259.256 93.0719 258.823 91.3387 258.996C89.6055 259.17 88.3056 259.776 88.2189 259.602C88.1323 259.516 89.4322 258.563 91.3387 258.477C93.1585 258.304 94.6317 258.996 94.5451 259.083Z" fill="#FFE8CF"/>
<path d="M93.5923 251.984C93.5057 252.157 92.1191 251.551 90.2993 251.811C88.4794 252.07 87.3528 253.196 87.1795 253.023C87.0928 252.936 87.3528 252.676 87.8728 252.244C88.3927 251.811 89.1727 251.464 90.2126 251.291C91.1658 251.118 92.1191 251.205 92.7257 251.464C93.3323 251.724 93.5923 251.984 93.5923 251.984Z" fill="#FFE8CF"/>
<path d="M72.8802 187.138C72.8802 187.138 47.749 175.623 41.7695 177.701C35.7899 179.779 27.9039 188.523 33.7101 200.47C39.5163 212.418 59.188 248.347 59.188 248.347" stroke="#875849" stroke-width="0.5"/>
<path d="M72.8802 187.138C72.8802 187.138 47.749 175.623 41.7695 177.701C35.7899 179.779 27.9039 188.523 33.7101 200.47C39.5163 212.418 59.188 248.347 59.188 248.347L77.4732 237.352L63.8676 209.734L79.553 214.149L72.8802 187.138Z" fill="#201A1A"/>
<path d="M84.1458 179.605C84.1458 179.605 83.7125 179.605 83.0192 179.605C79.8128 179.779 69.9336 181.856 69.9336 192.852C69.9336 206.184 83.1925 245.749 83.1925 245.749L104.771 243.845L100.351 211.033C100.351 211.033 111.79 219.95 114.303 220.123C116.816 220.383 132.935 220.816 134.408 219.863C150.874 209.734 140.994 187.744 140.994 187.744C133.802 190.514 126.349 192.332 118.376 188.436C118.29 188.523 98.0113 180.731 84.1458 179.605Z" fill="#201A1A"/>
<path d="M99.9182 200.904C99.9182 201.077 100.005 201.163 100.005 201.423C100.092 201.856 100.178 202.549 100.265 203.414C100.438 205.146 100.612 207.743 100.525 211.033C101.565 218.652 103.125 230.166 104.944 243.932V244.192H104.685C98.445 244.711 91.5989 245.317 84.4062 245.923C83.9729 245.923 83.4529 246.01 83.1063 246.01H82.933L82.8463 245.837C80.2465 237.612 77.82 229.647 75.7402 222.548C73.6604 215.362 71.6672 208.955 70.3673 203.414C69.7607 200.644 69.4141 198.133 69.4141 195.882C69.4141 193.631 69.674 191.727 70.1073 190.168C70.5406 188.61 71.0606 187.571 71.4939 186.792C71.6672 186.446 71.9272 186.186 72.0138 186.013C71.9272 186.186 71.7539 186.446 71.5806 186.792C71.2339 187.484 70.714 188.61 70.2807 190.168C69.934 191.727 69.5874 193.631 69.674 195.796C69.674 198.047 70.0207 200.557 70.714 203.328C72.1005 208.782 74.0937 215.189 76.1735 222.375C78.34 229.56 80.6798 237.439 83.3662 245.663L83.1063 245.49C83.5396 245.49 83.9729 245.404 84.4062 245.404C91.5123 244.798 98.3584 244.192 104.685 243.672L104.511 243.932C102.778 230.253 101.218 218.652 100.265 211.033C100.438 207.743 100.265 205.146 100.178 203.414C100.092 202.549 100.005 201.856 100.005 201.423C100.005 201.25 100.005 201.077 99.9182 200.904Z" fill="#875849"/>
<path d="M66.3815 157.183L92.1194 164.888C92.1194 164.888 99.0522 131.989 102.692 126.622C106.245 121.254 114.911 121.773 118.031 129.998C121.15 138.309 109.625 178.827 103.298 183.329C96.9723 187.831 84.1467 182.203 81.6336 181.078C79.1205 179.952 61.6152 169.737 61.6152 169.737L66.3815 157.183Z" fill="#875849"/>
<path d="M66.3813 157.183C66.3813 157.183 66.2946 157.443 66.1213 158.049C65.948 158.655 65.6013 159.434 65.2547 160.473C64.4747 162.637 63.2615 165.754 61.7883 169.823L61.7016 169.65C65.428 171.728 69.9343 174.325 75.2205 177.355C76.5204 178.048 77.907 178.827 79.2935 179.606C79.9868 179.953 80.6801 180.385 81.46 180.732C82.24 181.078 83.0199 181.424 83.7998 181.771C86.9196 182.983 90.386 184.195 94.1123 184.628C95.9322 184.887 97.9253 184.974 99.7452 184.541C100.178 184.455 100.698 184.368 101.132 184.195C101.565 184.022 102.085 183.935 102.432 183.589C102.865 183.329 103.298 183.156 103.645 182.81C103.818 182.636 103.991 182.463 104.165 182.29C104.338 182.117 104.511 181.944 104.598 181.684C105.811 180.039 106.678 178.221 107.631 176.316C108.498 174.412 109.278 172.42 110.058 170.429C111.531 166.36 112.917 162.205 114.131 157.789C115.344 153.46 116.47 148.958 117.25 144.283C117.857 140.647 118.464 137.098 118.377 133.548C118.377 132.682 118.29 131.816 118.117 130.951C118.117 130.691 118.03 130.518 117.944 130.345C117.857 130.171 117.857 129.912 117.77 129.739L117.25 128.527C116.47 126.968 115.344 125.67 113.957 124.717C112.571 123.765 110.924 123.159 109.278 123.245C107.631 123.245 105.985 123.765 104.685 124.717C103.992 125.15 103.472 125.756 103.038 126.449C102.778 126.708 102.605 127.141 102.432 127.488C102.258 127.834 102.085 128.18 101.912 128.527C101.565 129.306 101.305 129.998 101.045 130.777C100.785 131.557 100.525 132.249 100.265 133.028C98.3586 139.002 96.9721 144.803 95.6722 150.084C94.3723 155.452 93.2457 160.386 92.2925 164.802V164.975L92.1191 164.888C84.1465 162.464 77.7337 160.56 73.314 159.174C71.1475 158.482 69.4143 157.962 68.2011 157.616C67.5945 157.443 67.1612 157.27 66.9012 157.183C66.5546 157.183 66.3813 157.183 66.3813 157.183C66.3813 157.183 66.5546 157.183 66.8146 157.27C67.1612 157.356 67.5945 157.443 68.1144 157.616C69.3277 157.962 70.9742 158.482 73.2274 159.088C77.647 160.386 84.1465 162.291 92.2058 164.629L92.0325 164.715C92.9857 160.3 94.1123 155.278 95.3255 149.997C96.6254 144.63 98.012 138.916 99.9185 132.855C100.178 132.076 100.438 131.384 100.698 130.604C100.958 129.825 101.218 129.133 101.565 128.353C101.738 128.007 101.912 127.574 102.085 127.228C102.258 126.882 102.432 126.449 102.692 126.189C103.212 125.496 103.732 124.89 104.425 124.371C105.811 123.332 107.458 122.812 109.191 122.812C110.924 122.812 112.657 123.419 114.131 124.371C115.604 125.41 116.73 126.795 117.597 128.353L118.117 129.565C118.204 129.739 118.29 129.998 118.377 130.171C118.464 130.431 118.55 130.604 118.55 130.864C118.724 131.73 118.81 132.682 118.81 133.548C118.81 137.184 118.29 140.734 117.684 144.37C116.817 149.045 115.777 153.547 114.564 157.876C113.351 162.205 111.964 166.447 110.491 170.516C109.711 172.507 108.931 174.498 108.064 176.403C107.198 178.308 106.245 180.126 105.031 181.857C104.858 182.03 104.685 182.29 104.511 182.463C104.338 182.636 104.165 182.896 103.992 182.983C103.645 183.329 103.125 183.589 102.692 183.848C102.258 184.108 101.738 184.281 101.305 184.455C100.872 184.628 100.352 184.714 99.8318 184.801C97.8387 185.147 95.9322 185.061 94.0257 184.801C90.2993 184.281 86.8329 183.156 83.6265 181.857C82.8466 181.511 82.0666 181.251 81.2867 180.818C80.5068 180.472 79.8135 180.039 79.1202 179.693C77.7337 178.914 76.3471 178.134 75.0472 177.355C69.761 174.325 65.2547 171.728 61.615 169.563L61.5283 169.477V169.39C63.0882 165.321 64.3014 162.205 65.168 160.04C65.6013 159.001 65.8613 158.222 66.1213 157.616C66.2946 157.443 66.3813 157.183 66.3813 157.183Z" fill="#201A1A"/>
<path d="M66.381 157.183L64.2145 156.577C64.2145 156.577 63.7812 147.227 61.2681 146.794C59.4482 146.448 50.1757 148.439 49.9157 151.209C49.569 154.066 52.3421 153.634 52.3421 153.634C52.3421 153.634 49.1357 154.499 49.1357 156.404C49.1357 157.356 50.609 157.616 51.9955 157.616C51.9955 157.616 49.9157 158.741 51.2156 160.213C52.5155 161.685 54.9419 160.906 54.9419 160.906L58.4083 160.213C58.4083 160.213 58.0617 163.676 58.6683 165.668C59.2749 167.745 62.048 168.438 62.048 168.438L66.381 157.183Z" fill="#F8B4A0"/>
<path d="M61.5284 150.777C61.5284 150.863 61.0084 150.863 60.0552 151.036C59.1886 151.21 57.8887 151.469 56.5888 151.902C55.2889 152.335 54.0757 152.855 53.2957 153.201C52.4291 153.547 51.9092 153.72 51.9092 153.634C51.9092 153.547 52.3425 153.287 53.2091 152.855C54.0757 152.422 55.2022 151.902 56.5021 151.469C57.8887 151.036 59.1019 150.863 60.0552 150.777C60.9218 150.604 61.5284 150.69 61.5284 150.777Z" fill="#875849"/>
<path d="M60.8347 155.798C60.8347 155.971 58.6682 155.884 56.0684 156.49C53.4687 157.096 51.5622 158.049 51.4755 157.962C51.3888 157.876 53.2953 156.664 55.9818 156.058C58.6682 155.452 60.9214 155.711 60.8347 155.798Z" fill="#875849"/>
<path d="M32.1505 166.1C32.1505 166.1 29.724 167.225 31.1106 169.996L31.3705 170.948C31.3705 170.948 30.0707 173.199 32.0638 175.277C32.0638 175.277 31.2839 178.22 34.317 179.086C34.317 179.086 33.8837 179.606 35.0102 180.298C36.0502 180.991 37.4367 181.077 38.6499 180.645C40.4698 180.039 43.1562 179.086 43.3296 178.134C43.5895 176.749 41.943 176.229 41.1631 176.576C40.3831 176.922 44.2828 175.104 44.2828 173.632C44.2828 172.16 43.6762 171.468 43.6762 171.468C43.6762 171.468 45.2361 171.554 44.8028 169.563C44.3695 167.485 41.943 167.398 41.943 167.398C41.943 167.398 43.0696 166.013 40.5565 165.148C38.0433 164.195 32.1505 166.1 32.1505 166.1Z" fill="#F8B4A0"/>
<path d="M42.2033 167.138C42.2033 167.312 39.6902 167.744 36.6571 168.783C33.624 169.822 31.3708 170.948 31.2842 170.861C31.2842 170.775 31.8041 170.428 32.7574 169.995C33.7106 169.476 35.0105 168.87 36.4838 168.351C37.957 167.831 39.4302 167.485 40.4701 167.312C41.5967 167.138 42.2033 167.052 42.2033 167.138Z" fill="#875849"/>
<path d="M43.9363 171.554C43.9363 171.641 41.3365 172.593 37.9568 173.632C34.6637 174.671 31.8906 175.364 31.8906 175.277C31.8906 175.19 34.4904 174.238 37.8701 173.199C41.1632 172.16 43.9363 171.468 43.9363 171.554Z" fill="#875849"/>
<path d="M41.1632 176.662C41.2499 176.749 39.69 177.442 37.7835 178.134C35.877 178.827 34.3171 179.26 34.2305 179.173C34.2305 179.086 35.7037 178.394 37.6102 177.701C39.5167 177.009 41.0766 176.576 41.1632 176.662Z" fill="#875849"/>
<path d="M372.759 53.9147C382.953 53.9147 391.217 45.6511 391.217 35.4574C391.217 25.2636 382.953 17 372.759 17C362.565 17 354.302 25.2636 354.302 35.4574C354.302 45.6511 362.565 53.9147 372.759 53.9147Z" fill="#201A1A"/>
<path d="M347.348 47.3046C349.197 47.3046 350.696 45.8056 350.696 43.9565C350.696 42.1074 349.197 40.6084 347.348 40.6084C345.499 40.6084 344 42.1074 344 43.9565C344 45.8056 345.499 47.3046 347.348 47.3046Z" fill="#201A1A"/>
<path d="M368.811 43.6132V45.6735C368.811 45.9311 368.982 46.1028 369.24 46.1028H370.871C371.128 46.1028 371.3 45.9311 371.3 45.6735V43.6132H372.159V45.6735C372.159 45.9311 372.33 46.1028 372.588 46.1028H374.219C374.477 46.1028 374.648 45.9311 374.648 45.6735V43.6132H374.82C378.082 43.6132 380.4 41.8962 380.4 38.9774C380.4 36.4878 378.769 35.2 376.794 34.9425V34.7708C378.426 34.3416 379.542 33.1397 379.542 31.1652C379.542 28.6756 377.653 27.1303 374.734 27.1303H374.562V25.1558C374.562 24.8983 374.391 24.7266 374.133 24.7266H372.502C372.244 24.7266 372.073 24.8983 372.073 25.1558V27.2162H371.128V25.1558C371.128 24.8983 370.957 24.7266 370.699 24.7266H369.154C368.896 24.7266 368.725 24.8983 368.725 25.1558V27.2162H365.462C365.205 27.2162 365.033 27.3879 365.033 27.6454V29.2765C365.033 29.5341 365.205 29.7058 365.462 29.7058H366.664C367.351 29.7058 367.866 30.2208 367.866 30.9076V39.9217C367.866 40.6085 367.351 41.1236 366.664 41.1236H365.462C365.205 41.1236 365.033 41.2953 365.033 41.5528V43.1839C365.033 43.4415 365.205 43.6132 365.462 43.6132H368.811ZM371.214 29.6199H374.047C375.507 29.6199 376.451 30.4784 376.451 31.7661C376.451 33.2255 375.507 33.9982 373.36 33.9982H371.214V29.6199ZM371.214 36.3161H374.219C376.108 36.3161 377.138 37.2604 377.138 38.8057C377.138 40.3509 376.108 41.2094 373.618 41.2094H371.214V36.3161Z" fill="#FFE8CF"/>
<path d="M31.4574 70.9147C41.6511 70.9147 49.9147 62.6511 49.9147 52.4574C49.9147 42.2636 41.6511 34 31.4574 34C21.2636 34 13 42.2636 13 52.4574C13 62.6511 21.2636 70.9147 31.4574 70.9147Z" fill="#201A1A" stroke="#201A1A" stroke-width="0.5" stroke-miterlimit="10"/>
<path d="M52.3188 69.8846C54.1679 69.8846 55.6669 68.3857 55.6669 66.5366C55.6669 64.6875 54.1679 63.1885 52.3188 63.1885C50.4697 63.1885 48.9707 64.6875 48.9707 66.5366C48.9707 68.3857 50.4697 69.8846 52.3188 69.8846Z" fill="#201A1A"/>
<path d="M31.5 46.0155C30.3303 45.0459 28.6346 44.9017 27.0908 45.0505C25.2929 45.2257 23.4784 45.8197 22.3479 46.3154C22.2442 46.3609 22.1562 46.4342 22.0945 46.5265C22.0329 46.6189 22 46.7264 22 46.8362V59.4278C22 59.5236 22.025 59.6178 22.0726 59.7019C22.1202 59.7859 22.1889 59.8571 22.2724 59.9089C22.356 59.9608 22.4517 59.9916 22.5507 59.9985C22.6498 60.0054 22.7491 59.9883 22.8396 59.9486C23.8869 59.4908 25.5744 58.9402 27.2096 58.7811C28.8828 58.6185 30.2852 58.8807 31.0369 59.785C31.0925 59.8518 31.163 59.9058 31.2432 59.9428C31.3233 59.9799 31.4111 59.9991 31.5 59.9991C31.5889 59.9991 31.6767 59.9799 31.7568 59.9428C31.837 59.9058 31.9075 59.8518 31.9631 59.785C32.7148 58.8807 34.1173 58.6185 35.7893 58.7811C37.4256 58.9402 39.1143 59.4908 40.1604 59.9486C40.2509 59.9883 40.3502 60.0054 40.4493 59.9985C40.5483 59.9916 40.644 59.9608 40.7276 59.9089C40.8111 59.8571 40.8798 59.7859 40.9274 59.7019C40.975 59.6178 41 59.5236 41 59.4278V46.8362C41 46.7264 40.9671 46.6189 40.9054 46.5265C40.8438 46.4342 40.7558 46.3609 40.6521 46.3154C39.5216 45.8197 37.7071 45.2257 35.9092 45.0505C34.3654 44.9006 32.6697 45.0459 31.5 46.0155Z" fill="#FFE8CF"/>
<path d="M28.146 48.0327C27.0001 48.1355 25.8218 48.4663 25 48.7731V57C25.8515 56.7098 26.9565 56.4271 28.0522 56.3276C29.0671 56.2364 29.1318 56.2969 30 56.7364V48.6562C29.3927 48.0849 29.381 47.9216 28.146 48.0327Z" fill="#201A1A"/>
<path d="M34.854 48.0327C33.619 47.9216 33.6073 48.0849 33 48.6562V56.7364C33.8682 56.2961 33.9319 56.2364 34.9478 56.3284C36.0435 56.4263 37.1476 56.7098 38 57V48.7731C37.1782 48.4663 35.9999 48.1355 34.854 48.0327Z" fill="#201A1A"/>
</svg>
