<svg width="407" height="300" viewBox="0 0 407 300" fill="none" xmlns="http://www.w3.org/2000/svg">
<circle cx="203.058" cy="150" r="150" fill="#F5D8B9"/>
<path d="M178.923 283.67H64.2722C47.1136 283.67 33.248 269.818 33.248 252.676V251.464C33.248 234.322 47.1136 220.47 64.2722 220.47H178.923V283.67Z" fill="#BA7C69"/>
<path d="M402.504 230.858H147.292V220.383H402.504C404.498 220.383 406.057 221.941 406.057 223.932V227.309C406.057 229.3 404.498 230.858 402.504 230.858Z" fill="#BA7C69"/>
<path d="M402.504 283.67H147.292V273.194H402.504C404.498 273.194 406.057 274.753 406.057 276.744V280.12C406.057 282.025 404.498 283.67 402.504 283.67Z" fill="#BA7C69"/>
<path d="M398.344 273.107H176.236C164.537 273.107 155.091 263.671 155.091 251.983C155.091 240.295 164.537 230.858 176.236 230.858H398.344C392.365 244.97 392.365 259.082 398.344 273.107Z" fill="#F5D8B9"/>
<g opacity="0.4">
<path d="M155.004 283.67H64.5319C47.2 283.67 33.1611 269.644 33.1611 252.329C33.1611 234.668 47.46 220.383 65.1385 220.383H157.431C134.553 234.235 136.199 267.48 155.004 283.67Z" fill="#201A1A"/>
</g>
<path d="M143.912 279.254C143.912 279.428 122.594 279.514 96.2497 279.514C69.9052 279.514 48.5869 279.341 48.5869 279.254C48.5869 279.081 69.9052 278.995 96.2497 278.995C122.508 278.908 143.912 279.081 143.912 279.254Z" fill="#201A1A"/>
<path d="M143.912 225.664C143.912 225.837 122.594 225.923 96.2497 225.923C69.9052 225.923 48.5869 225.75 48.5869 225.664C48.5869 225.49 69.9052 225.404 96.2497 225.404C122.508 225.317 143.912 225.49 143.912 225.664Z" fill="#201A1A"/>
<path d="M199.548 220.383H90.2701C79.351 220.383 70.5117 211.552 70.5117 200.644C70.5117 189.735 79.351 180.904 90.2701 180.904H199.548V220.383Z" fill="#875849"/>
<path d="M396.785 190.168H171.644V180.817H396.872C399.125 180.817 400.945 182.635 400.945 184.886V186.099C400.858 188.349 399.038 190.168 396.785 190.168Z" fill="#875849"/>
<path d="M396.785 220.382H171.644V211.032H396.872C399.125 211.032 400.945 212.85 400.945 215.101V216.313C400.858 218.564 399.038 220.382 396.785 220.382Z" fill="#875849"/>
<path d="M394.012 211.032H188.889C183.083 211.032 178.403 206.357 178.403 200.557C178.403 194.756 183.083 190.081 188.889 190.081H394.012C388.726 197.18 388.726 204.106 394.012 211.032Z" fill="#F5D8B9"/>
<g opacity="0.3">
<path d="M178.49 220.383H90.0968C79.2643 220.383 70.5117 211.639 70.5117 200.817C70.5117 189.822 79.4377 180.904 90.4434 180.904H180.569C160.291 189.562 161.764 210.254 178.49 220.383Z" fill="#201A1A"/>
</g>
<path d="M168.611 216.487C168.611 216.66 149.719 216.833 126.407 216.833C103.096 216.833 84.2041 216.66 84.2041 216.487C84.2041 216.314 103.096 216.141 126.407 216.141C149.632 216.141 168.611 216.314 168.611 216.487Z" fill="#201A1A"/>
<path d="M168.611 185.493C168.611 185.666 149.719 185.839 126.407 185.839C103.096 185.839 84.2041 185.666 84.2041 185.493C84.2041 185.32 103.096 185.146 126.407 185.146C149.632 185.233 168.611 185.32 168.611 185.493Z" fill="#201A1A"/>
<path d="M398.172 180.904C398.172 181.077 328.844 181.25 243.225 181.25C157.605 181.25 88.2773 181.077 88.2773 180.904C88.2773 180.731 157.605 180.558 243.225 180.558C328.758 180.558 398.172 180.731 398.172 180.904Z" fill="#201A1A"/>
<path d="M339.416 180.125L337.856 200.47C337.856 200.47 356.921 208.868 357.008 212.677L319.484 211.032L320.611 179.259L339.416 180.125Z" fill="#201A1A"/>
<path d="M326.33 198.305C325.637 198.478 325.03 199.344 325.204 200.123C325.377 200.902 326.157 201.508 326.85 201.335C327.63 201.162 328.237 200.21 328.063 199.431C327.804 198.651 326.85 198.045 326.157 198.392" fill="#F5D8B9"/>
<path d="M319.484 211.118L319.744 207.915L355.621 210.685C355.621 210.685 357.268 211.551 357.008 212.763L319.484 211.118Z" fill="#875849"/>
<path d="M338.463 200.296C338.463 200.47 337.509 200.556 336.643 201.162C335.69 201.682 335.17 202.547 334.996 202.461C334.823 202.374 335.17 201.249 336.296 200.556C337.423 199.863 338.549 200.123 338.463 200.296Z" fill="#F5D8B9"/>
<path d="M342.363 202.201C342.363 202.374 341.583 202.721 340.976 203.5C340.283 204.279 340.11 205.145 339.936 205.145C339.763 205.145 339.676 204.019 340.543 203.067C341.236 202.028 342.363 202.028 342.363 202.201Z" fill="#F5D8B9"/>
<path d="M344.356 207.223C344.183 207.223 344.009 206.27 344.529 205.231C345.049 204.192 345.916 203.846 346.002 203.933C346.089 204.106 345.483 204.625 345.136 205.491C344.616 206.443 344.529 207.223 344.356 207.223Z" fill="#F5D8B9"/>
<path d="M338.376 195.622C338.289 195.795 337.422 195.535 336.383 195.535C335.343 195.535 334.563 195.882 334.389 195.709C334.303 195.535 335.083 194.843 336.296 194.843C337.596 194.843 338.462 195.449 338.376 195.622Z" fill="#F5D8B9"/>
<path d="M333.696 112.942C344.962 111.038 357.701 122.033 355.708 136.318C353.975 148.871 342.795 194.497 342.795 194.497L324.684 185.753L329.797 129.046L333.696 112.942Z" fill="#201A1A"/>
<path d="M286.12 179.26L321.824 158.049L322.517 147.833L286.12 179.26Z" fill="#201A1A"/>
<path d="M284.041 180.904C293.66 176.748 321.218 150.689 321.218 150.689L318.184 195.709L342.536 197.613C342.536 197.613 346.002 148.438 347.909 136.837C349.729 125.236 343.229 113.202 333.523 114.068C323.731 114.933 247.037 144.109 246.517 146.014L244.611 152.854C241.751 163.243 243.571 172.333 250.243 180.731" fill="#201A1A"/>
<path d="M333.523 113.722C333.523 113.722 333.61 113.722 333.783 113.722C333.957 113.722 334.13 113.722 334.477 113.722C335.083 113.722 335.95 113.808 336.99 114.155C339.07 114.761 341.929 116.492 344.443 119.522C345.656 121.081 346.782 122.899 347.562 125.15C348.256 127.314 348.689 129.825 348.776 132.422C348.862 135.019 348.516 137.703 348.256 140.474C347.996 143.244 347.736 146.188 347.389 149.131C346.176 160.992 345.049 171.641 344.269 179.433C343.923 183.329 343.576 186.445 343.403 188.61C343.316 189.649 343.229 190.514 343.143 191.121C343.143 191.38 343.056 191.64 343.056 191.727C343.056 191.553 343.056 191.38 343.056 191.034C343.056 190.428 343.143 189.562 343.229 188.523C343.403 186.359 343.663 183.242 344.009 179.346C344.703 171.554 345.829 160.819 347.042 149.045C347.302 146.101 347.649 143.157 347.909 140.387C348.169 137.617 348.516 134.933 348.429 132.336C348.342 129.738 347.996 127.314 347.302 125.236C346.609 123.072 345.569 121.254 344.356 119.695C341.929 116.665 339.156 114.934 337.163 114.241C334.737 113.549 333.523 113.808 333.523 113.722Z" fill="#875849"/>
<path d="M329.016 139.521C329.103 139.608 326.763 141.772 324.424 145.062C322.17 148.266 320.87 151.296 320.784 151.209C320.697 151.209 320.957 150.43 321.564 149.218C322.084 148.006 322.95 146.448 324.164 144.803C325.29 143.158 326.503 141.859 327.457 140.907C328.323 140.041 329.016 139.521 329.016 139.521Z" fill="#875849"/>
<path d="M333.956 44.5474C335.689 45.4132 338.029 44.7206 339.069 43.0756C340.109 41.4307 339.675 39.0066 338.116 37.7945C339.675 37.0153 340.629 35.1972 340.369 33.4657C340.109 31.7342 338.722 30.2624 336.989 30.0027C337.509 28.3577 337.076 26.4531 335.949 25.241C334.822 23.9424 333.003 23.3363 331.269 23.6826C330.056 21.5182 327.196 20.4793 324.857 21.2585C323.383 20.3927 321.39 20.6525 320.177 21.778C318.964 22.9034 318.617 24.8947 319.31 26.4531" fill="#BA7C69"/>
<path d="M322.691 24.7205L323.557 24.9802C331.876 27.9238 336.556 36.6679 334.303 45.2389C332.223 53.1173 329.797 61.8615 328.323 66.0172C325.204 74.5016 316.191 72.8566 316.191 72.8566L313.331 83.3323L292.793 75.3674L304.059 37.4471C306.312 28.3566 313.591 22.1232 322.691 24.7205Z" fill="#DDB9A5"/>
<path d="M316.278 72.8567C316.278 72.8567 310.732 71.2983 306.226 65.6709C306.226 65.6709 306.746 73.1164 315.498 75.3674L316.278 72.8567Z" fill="#875849"/>
<path d="M328.237 53.2042C328.064 53.8968 327.284 54.2431 326.59 53.9834C325.897 53.8102 325.551 53.1176 325.724 52.425C325.897 51.7324 326.677 51.3861 327.37 51.6458C328.064 51.9055 328.497 52.5116 328.237 53.2042Z" fill="#201A1A"/>
<path d="M331.01 48.7886C330.837 48.8752 330.143 47.9229 328.844 47.4034C327.544 46.9705 326.33 47.2303 326.244 47.0571C326.157 46.9705 326.417 46.7108 327.024 46.5377C327.544 46.3645 328.324 46.3645 329.19 46.6242C329.97 46.884 330.577 47.49 330.837 47.9229C331.01 48.4423 331.097 48.7021 331.01 48.7886Z" fill="#201A1A"/>
<path d="M317.318 50.001C317.145 50.6937 316.365 51.04 315.672 50.7802C314.978 50.6071 314.632 49.9145 314.805 49.2219C314.978 48.5293 315.758 48.183 316.451 48.4427C317.145 48.6158 317.578 49.3084 317.318 50.001Z" fill="#201A1A"/>
<path d="M318.011 44.4605C317.837 44.5471 317.144 43.5948 315.758 43.0753C314.458 42.6424 313.245 42.9022 313.158 42.729C313.071 42.6424 313.331 42.3827 313.938 42.2095C314.458 42.0364 315.238 42.0364 316.104 42.2961C316.884 42.5558 317.491 43.1619 317.751 43.5948C318.011 44.1142 318.097 44.4605 318.011 44.4605Z" fill="#201A1A"/>
<path d="M319.311 55.888C319.311 55.8014 320.177 55.9746 321.564 56.2343C321.91 56.3209 322.257 56.3209 322.43 56.1477C322.604 55.9746 322.604 55.5417 322.517 55.1088C322.517 54.1565 322.43 53.2042 322.43 52.1653C322.344 48.0096 322.344 44.7197 322.517 44.7197C322.69 44.7197 322.864 48.0962 323.037 52.1653C323.037 53.2042 323.037 54.1565 323.124 55.1088C323.124 55.5417 323.21 56.0612 322.864 56.494C322.69 56.7538 322.344 56.8403 322.17 56.7538C321.91 56.7538 321.737 56.6672 321.564 56.6672C320.09 56.2343 319.311 55.9746 319.311 55.888Z" fill="#201A1A"/>
<path d="M320.87 39.8716C320.61 40.1313 319.57 39.3521 318.184 38.8327C316.797 38.3132 315.584 38.1401 315.584 37.7072C315.584 37.534 315.931 37.2743 316.537 37.1877C317.144 37.1012 317.924 37.1877 318.79 37.4475C319.57 37.7938 320.264 38.3132 320.61 38.7461C320.957 39.3521 321.044 39.6984 320.87 39.8716Z" fill="#201A1A"/>
<path d="M332.917 43.4211C332.57 43.5943 331.53 42.9016 330.23 42.4688C328.93 41.9493 327.717 41.8627 327.63 41.4299C327.544 41.2567 327.89 40.997 328.41 40.9104C329.017 40.8238 329.884 40.8238 330.75 41.1701C331.617 41.5164 332.31 42.0359 332.657 42.5553C333.09 42.9016 333.09 43.248 332.917 43.4211Z" fill="#201A1A"/>
<path d="M334.823 40.9972C334.823 40.9972 334.476 34.8503 332.31 32.6859C329.71 30.0886 327.197 33.0322 324.51 31.1275C321.824 29.2229 319.311 26.7122 315.498 28.0108C311.251 29.396 312.205 31.647 310.645 35.3697C304.405 50.4339 300.072 53.8104 301.805 46.2783C301.979 45.4125 299.986 44.0273 300.852 40.5643C301.979 36.0624 303.625 30.6946 305.705 28.0108C307.438 25.6732 309.518 24.4612 312.898 23.3357C318.184 21.6908 323.99 23.5954 327.803 25.4135C331.616 27.3182 337.596 34.4174 334.823 40.9972Z" fill="#BA7C69"/>
<path d="M302.412 46.365C302.845 45.0664 302.065 43.5946 300.679 43.2483C299.032 42.8154 296.953 43.1617 295.913 46.4516C294.006 52.3387 300.332 53.0314 300.419 52.8582C300.506 52.685 301.719 48.7891 302.412 46.365Z" fill="#DDB9A5"/>
<path d="M299.899 50.1744C299.899 50.1744 299.812 50.1744 299.552 50.2609C299.379 50.2609 299.032 50.2609 298.772 50.0012C298.252 49.5683 297.992 48.4429 298.339 47.3174C298.512 46.7979 298.772 46.2785 299.119 45.9322C299.466 45.5858 299.812 45.3261 300.159 45.4127C300.506 45.4127 300.679 45.6724 300.679 45.8456C300.679 46.0187 300.592 46.1053 300.679 46.1919C300.679 46.1919 300.852 46.1053 300.852 45.8456C300.852 45.759 300.852 45.5858 300.766 45.4127C300.679 45.2395 300.506 45.153 300.246 45.0664C299.812 44.9798 299.206 45.2395 298.859 45.6724C298.512 46.1053 298.166 46.6248 297.992 47.2308C297.646 48.4429 297.906 49.7415 298.686 50.2609C299.032 50.5207 299.466 50.5207 299.639 50.4341C299.812 50.3475 299.899 50.1744 299.899 50.1744Z" fill="#875849"/>
<path d="M306.572 35.0238C307.178 35.803 307.785 36.5822 308.652 37.0151C309.518 37.4479 310.732 37.2748 311.251 36.409C311.425 36.0627 311.511 35.5433 311.945 35.2835C312.378 35.0238 312.985 35.3701 313.418 35.5433C315.065 36.3224 317.664 35.1104 318.704 33.6386C318.878 34.4178 319.831 34.9372 320.611 34.7641C321.391 34.5909 321.737 34.4178 322.431 33.9849C323.124 33.552 324.077 33.2923 324.77 33.7252C325.204 33.8983 325.464 34.3312 325.984 34.4178C326.764 34.5909 327.457 33.8117 327.89 33.1191C328.237 32.4265 328.67 31.5608 329.45 31.3876C330.23 31.2145 330.923 31.7339 331.53 32.0802C332.223 32.4265 333.176 32.5997 333.61 31.9937C333.87 31.6474 333.783 31.2145 333.696 30.8682C333.263 29.1367 331.53 27.7514 329.71 27.838C329.797 25.6736 328.497 23.5958 326.59 22.6435C324.684 21.6911 322.171 22.124 320.611 23.5092C319.744 21.9509 318.098 20.8254 316.364 20.6522C314.631 20.4791 312.811 21.1717 311.598 22.4703C310.298 21.6045 308.478 21.6045 307.178 22.3837C305.879 23.2495 305.099 24.8944 305.445 26.4528C304.145 26.7125 302.932 27.4051 302.499 28.6172C302.066 29.8293 302.845 31.4742 304.059 31.5608C303.279 32.34 303.192 33.7252 303.885 34.5909C304.579 35.4567 306.052 35.5433 306.919 34.9372" fill="#BA7C69"/>
<path d="M329.537 29.7432C329.537 29.7432 329.537 29.7432 329.537 29.8297C329.537 29.9163 329.45 30.0029 329.364 30.0895C329.19 30.3492 328.93 30.6955 328.584 31.0418C328.15 31.3881 327.544 31.7344 326.764 31.9941C325.984 32.1673 325.031 32.2539 324.164 31.821L324.337 31.7344C324.337 32.3404 324.077 32.8599 323.644 33.2928C323.211 33.7257 322.691 34.072 322.171 34.4183C321.911 34.5914 321.651 34.7646 321.304 34.8511C320.958 34.9377 320.611 34.9377 320.264 34.8511C319.571 34.678 318.878 34.2451 318.618 33.5525H318.878C318.358 34.678 317.231 35.6303 315.931 35.9766C315.238 36.1498 314.458 36.1498 313.765 35.8901C313.072 35.6303 312.552 35.1974 312.032 34.8511H312.205C311.599 35.4572 310.905 35.8901 310.212 36.1498C309.432 36.4095 308.652 36.4095 307.959 35.9766C306.659 35.1974 306.139 33.7257 306.399 32.6002L306.486 32.6867C305.706 32.8599 304.926 32.6002 304.406 32.2539C303.886 31.9076 303.452 31.4747 303.193 31.1284C302.933 30.7821 302.846 30.4358 302.759 30.176C302.759 29.9163 302.673 29.8297 302.759 29.8297C302.759 29.8297 302.759 30.3492 303.279 31.0418C303.539 31.3881 303.886 31.821 304.406 32.0807C304.926 32.3404 305.619 32.6002 306.399 32.427H306.572V32.6002C306.399 33.6391 306.919 35.0243 308.132 35.7169C308.739 36.0632 309.432 36.0632 310.125 35.8035C310.819 35.5437 311.512 35.1109 312.032 34.5048L312.118 34.4183L312.205 34.5048C312.725 34.9377 313.245 35.284 313.852 35.5437C314.458 35.8035 315.152 35.8035 315.845 35.5437C317.058 35.1974 318.098 34.3317 318.618 33.2928L318.791 33.033L318.878 33.2928C319.138 33.8988 319.745 34.3317 320.351 34.5048C320.698 34.5914 320.958 34.5914 321.304 34.5048C321.564 34.4183 321.824 34.2451 322.171 34.072C322.691 33.7257 323.211 33.4659 323.644 33.033C324.077 32.6002 324.251 32.1673 324.251 31.6478V31.4747L324.424 31.5613C325.291 31.9076 326.244 31.9076 326.937 31.7344C327.717 31.5613 328.237 31.215 328.67 30.8686C329.277 30.3492 329.45 29.7432 329.537 29.7432Z" fill="#875849"/>
<path d="M317.751 60.304C317.751 60.0442 316.191 59.9577 315.238 58.4859C314.284 57.1007 314.544 55.4557 314.371 55.3691C314.284 55.3691 314.024 55.7154 313.938 56.4081C313.851 57.1007 313.938 58.1396 314.544 59.0053C315.151 59.8711 316.017 60.304 316.624 60.3905C317.404 60.5637 317.751 60.3905 317.751 60.304Z" fill="#201A1A"/>
<path d="M295.74 66.0176C295.74 66.0176 281.007 65.2384 274.421 73.2899C268.615 80.3892 243.311 143.07 243.311 153.286C243.311 163.502 266.102 154.585 274.941 149.996C283.781 145.321 308.479 123.071 308.479 123.071C308.479 123.071 308.912 120.387 309.345 118.05C309.778 115.712 313.938 99.6956 314.458 93.9816C314.805 89.5662 314.111 80.0428 314.111 80.0428C305.099 78.3979 295.74 66.0176 295.74 66.0176Z" fill="#BA7C69"/>
<path d="M377.027 99.1761L376.94 98.6566L376.247 98.8298L367.147 81.2549L325.551 99.1761L338.636 116.058L377.027 99.1761Z" fill="#BA7C69"/>
<g opacity="0.3">
<path d="M354.754 105.583L348.255 93.9819L361.6 88.0947L368.533 100.042L354.754 105.583Z" fill="#F5D8B9"/>
</g>
<path d="M315.758 110.864L323.297 106.968C323.297 106.968 327.717 96.7518 330.49 95.0203C333.263 93.2022 337.683 93.9814 337.683 93.9814L333.696 96.925C333.696 96.925 331.01 100.561 333.61 101.081C336.209 101.687 349.468 95.1069 351.375 95.28C353.281 95.4532 351.288 98.8297 351.288 98.8297C351.288 98.8297 353.801 99.5223 351.548 102.639C351.548 102.639 351.895 105.063 349.902 106.448C344.875 110.085 334.736 113.98 333.61 114.586C332.136 115.452 320.004 121.945 320.004 121.945L315.758 110.864Z" fill="#DDB9A5"/>
<path d="M351.201 98.8293C351.201 98.9159 350.682 99.2622 349.815 99.8682C348.948 100.474 347.735 101.253 346.262 102.033C344.875 102.812 343.489 103.418 342.536 103.851C341.582 104.284 340.889 104.457 340.889 104.37C340.802 104.284 343.229 103.245 346.002 101.686C348.862 100.041 351.115 98.7427 351.201 98.8293Z" fill="#875849"/>
<path d="M351.895 102.12C351.982 102.206 350.162 103.938 347.476 105.583C344.789 107.228 342.449 108.007 342.363 107.834C342.276 107.747 344.616 106.708 347.216 105.15C349.815 103.591 351.809 102.033 351.895 102.12Z" fill="#875849"/>
<path d="M367.754 82.3804L369.14 81.7744L373.733 90.3454L374.6 90.1723L375.293 90.7783L376.94 98.6567L376.247 98.8299L367.754 82.3804Z" fill="#F5D8B9"/>
<path d="M376.766 98.31C376.679 98.3966 374.86 94.7604 372.78 90.2584C370.7 85.7565 369.053 82.0337 369.14 82.0337C369.227 81.9472 371.047 85.5834 373.126 90.0853C375.293 94.5872 376.853 98.31 376.766 98.31Z" fill="#201A1A"/>
<path d="M319.831 108.699L298.339 116.318C298.339 116.318 298.426 87.5748 296.779 77.0126C294.96 65.9309 272.601 64.9785 272.168 83.5058C272.168 85.3238 270.955 117.011 275.028 129.304C279.188 141.598 285.254 143.676 294.093 140.819C302.932 138.049 327.457 120.56 327.457 120.56L319.831 108.699Z" fill="#BA7C69"/>
<path d="M319.831 108.699C319.831 108.699 320.004 108.959 320.351 109.479C320.697 109.998 321.217 110.777 321.824 111.73C323.124 113.721 325.03 116.751 327.543 120.647L327.63 120.733L327.543 120.82C323.73 123.504 318.964 126.794 313.331 130.517C310.471 132.335 307.438 134.239 304.145 136.231C302.499 137.183 300.766 138.135 298.946 139.088C298.079 139.607 297.126 139.953 296.173 140.386C295.219 140.733 294.266 141.165 293.226 141.425C291.233 142.031 288.98 142.377 286.813 142.204C284.56 142.031 282.394 141.079 280.661 139.52C278.927 137.962 277.627 135.971 276.588 133.806C275.548 131.642 274.768 129.391 274.161 127.054C273.035 122.292 272.601 117.27 272.255 112.249C271.908 107.141 271.821 101.947 271.821 96.6654C271.821 92.0769 271.908 87.5749 272.081 83.1596C272.168 80.9086 272.601 78.7442 273.554 76.6664C274.421 74.6751 275.894 72.9436 277.627 71.5584C281.181 68.9611 285.773 68.4417 289.673 69.5672C291.666 70.1732 293.486 71.2121 294.873 72.6839C295.566 73.4631 296.086 74.2423 296.519 75.1946C296.866 76.1469 297.126 77.0993 297.213 78.0516C297.732 81.8609 297.906 85.4971 298.079 89.0467C298.252 92.5963 298.339 95.9728 298.426 99.1761C298.599 105.669 298.599 111.47 298.599 116.491L298.426 116.405C305.272 113.981 310.645 112.162 314.371 110.864C316.191 110.258 317.578 109.738 318.531 109.392C318.964 109.219 319.311 109.132 319.571 109.046C319.657 108.786 319.831 108.699 319.831 108.699C319.831 108.699 319.744 108.786 319.484 108.873C319.224 108.959 318.877 109.132 318.357 109.305C317.404 109.652 316.018 110.171 314.198 110.864C310.558 112.162 305.185 114.067 298.426 116.578L298.252 116.664V116.491C298.252 111.47 298.166 105.669 297.992 99.1761C297.906 95.9728 297.819 92.5963 297.646 89.0467C297.473 85.4971 297.213 81.8609 296.693 78.0516C296.606 77.0993 296.346 76.2335 295.999 75.2812C295.566 74.4154 295.133 73.6362 294.439 72.857C293.14 71.4718 291.32 70.4329 289.413 69.9135C285.6 68.788 281.094 69.394 277.714 71.8181C276.068 73.1168 274.681 74.7617 273.814 76.753C272.948 78.7442 272.515 80.9086 272.428 83.073C272.255 87.4884 272.168 91.9903 272.168 96.5788C272.168 101.86 272.341 107.055 272.601 112.162C272.948 117.27 273.381 122.205 274.508 126.967C275.114 129.305 275.894 131.555 276.934 133.633C277.974 135.711 279.187 137.702 280.834 139.174C282.48 140.646 284.56 141.598 286.727 141.771C288.893 141.945 291.06 141.598 293.053 140.992C294.093 140.733 295.046 140.3 295.999 139.953C296.953 139.52 297.906 139.088 298.772 138.655C300.592 137.789 302.239 136.837 303.885 135.798C307.178 133.893 310.211 131.988 313.071 130.17C318.704 126.534 323.557 123.244 327.37 120.56V120.733C324.944 116.838 323.037 113.894 321.737 111.816C321.131 110.777 320.611 109.998 320.264 109.479C319.917 108.959 319.831 108.699 319.831 108.699Z" fill="#201A1A"/>
<path d="M292.187 127.227C292.1 127.227 292.273 126.534 292.707 125.408C293.053 124.37 293.747 122.898 294.526 121.339C295.393 119.781 296.26 118.482 297.04 117.617C297.82 116.751 298.34 116.231 298.34 116.318C298.426 116.405 296.606 118.569 294.96 121.599C293.227 124.629 292.273 127.313 292.187 127.227Z" fill="#201A1A"/>
<path d="M77.4445 59.8715C78.1378 58.5728 79.4376 57.7071 80.9109 57.5339C81.5175 57.4473 82.1241 57.4473 82.5574 57.0145C82.8174 56.7547 82.904 56.2353 83.0774 55.889C83.5973 54.7635 85.2438 54.244 86.3704 54.9366C86.6304 55.1098 86.8904 55.3695 87.1503 55.3695C88.3636 55.6293 89.0569 53.2917 90.2701 53.5514C89.8368 53.8977 89.4902 54.3306 89.3168 54.8501C89.1435 55.3695 89.3168 55.9756 89.8368 56.2353C91.05 56.8413 92.2633 54.4172 93.5632 54.8501C94.2564 55.1098 94.6031 56.1487 95.383 56.0621C95.643 56.0621 95.903 55.889 96.2496 55.8024C97.2029 55.4561 98.3294 55.9756 98.6761 56.9279C98.936 57.7071 98.8494 58.8326 99.5427 59.1789C99.976 59.4386 100.583 59.1789 101.016 59.0057C101.189 59.7849 101.189 60.5641 101.016 61.2567C102.576 61.6896 103.529 63.4211 103.009 64.9795C103.789 65.3258 104.569 65.6721 105.176 66.2781C105.782 66.8841 106.129 67.8365 105.782 68.6156C105.695 68.7888 105.609 68.9619 105.609 69.1351C105.609 69.3082 105.695 69.568 105.782 69.7411C106.129 70.4337 106.649 71.1263 106.822 71.9055C106.995 72.6847 106.649 73.7236 105.869 73.8102C105.695 73.8102 105.436 73.8102 105.349 73.9833C105.262 74.0699 105.262 74.2431 105.262 74.4162C105.262 75.0223 105.609 75.5417 105.782 76.0612C106.042 76.5806 106.129 77.1867 105.955 77.7061C105.782 78.2256 105.002 78.5719 104.569 78.2256C105.002 79.0047 105.436 79.8705 105.869 80.6497C106.129 81.1691 106.389 81.6886 106.129 82.208C105.782 82.8141 104.742 82.6409 104.222 82.208C103.702 81.6886 103.442 80.996 102.836 80.5631C102.576 80.39 102.316 80.2168 102.142 79.9571C101.969 79.7839 101.882 79.5242 101.709 79.4376C101.276 79.2645 100.843 79.8705 101.016 80.3034C101.189 80.7363 101.622 80.996 101.969 81.2557C102.316 81.5154 102.662 81.9483 102.576 82.3812C102.489 82.5544 102.316 82.7275 102.316 82.9872C102.142 83.7664 103.269 84.1127 103.529 84.8053C103.789 85.3248 103.529 85.9308 103.182 86.4503C102.836 87.0563 101.969 87.6623 101.536 87.1429C101.363 86.9697 101.363 86.71 101.189 86.5368C101.016 86.2771 100.756 86.1905 100.496 86.0174C99.8893 85.6711 99.3693 85.1516 99.0227 84.5456C99.8026 85.0651 100.583 85.8442 100.409 86.7966C100.323 87.1429 100.063 87.4892 99.8893 87.8355C99.5427 88.5281 99.3693 89.3073 99.0227 89.9999C98.6761 90.6925 97.8961 91.2985 97.2029 91.0388C97.6361 91.7314 97.5495 92.5972 96.9429 93.2032C96.4229 93.7226 95.4697 93.8958 94.7764 93.4629C94.6031 93.3763 94.4297 93.2032 94.2564 93.2032C93.9964 93.2032 93.8231 93.2898 93.5632 93.3763C92.3499 93.9824 90.79 93.7226 89.6635 92.8569C89.8368 92.6837 90.0968 92.5972 90.2701 92.424C88.8835 92.5972 87.497 92.7703 86.1971 92.3374C84.8972 91.9046 83.8573 90.6059 84.1173 89.2207C84.2039 88.6147 84.5506 88.0086 84.2039 87.4892C83.9439 87.1429 83.5106 87.1429 83.0774 87.0563C81.3442 86.8832 79.6976 86.7966 77.9644 86.6234C77.0978 86.5368 76.2312 86.4503 75.6246 86.0174C74.9313 85.4979 74.6714 84.459 75.1913 83.853C74.6714 83.247 73.8914 82.7275 73.1115 82.5544C72.2449 82.2946 71.2916 82.2946 70.3384 82.1215C69.4718 81.8617 68.5185 81.3423 68.3452 80.39C68.1719 79.4376 69.2118 78.4853 69.9918 78.9182C69.4718 77.6195 67.0453 78.139 66.5254 76.8403C66.0921 75.8014 67.3053 74.8491 67.8253 73.8102C67.5653 73.4639 67.132 73.2907 66.872 73.031C66.3521 72.3384 66.9587 71.2995 67.6519 70.78C68.3452 70.174 69.2118 69.568 69.1252 68.7022C69.1252 67.8365 68.0852 67.0573 68.3452 66.1915C68.5185 65.6721 69.0385 65.4123 69.5585 65.5855C69.7318 63.854 73.0248 64.2868 73.5448 62.5553C73.5448 62.3822 73.6315 62.2956 73.5448 62.1224C73.4581 62.0359 73.3715 61.9493 73.2848 61.8627C72.8515 61.5164 72.2449 61.4298 71.7249 61.1701C71.205 60.9104 70.685 60.4775 70.7717 59.958C70.8583 59.4386 71.8116 59.1789 71.8983 59.6983C72.3316 59.0923 73.4581 59.0057 73.8914 59.6983C74.1514 59.1789 74.9313 58.9191 75.4513 59.0923C76.0579 59.2654 76.4912 59.6983 76.9245 60.1312" fill="#BA7C69"/>
<path d="M89.3173 75.282C88.1908 73.2042 86.0243 71.819 83.8578 70.9532C82.9045 70.6069 81.9513 70.2606 80.9114 70.4338C79.9581 70.5203 78.9182 71.2129 78.6582 72.1653L79.2648 73.7236C79.7848 76.3209 82.3846 77.8793 83.9444 79.9571C84.6377 80.9094 85.331 82.0349 86.4576 82.1215C87.0642 82.2081 87.6708 81.9483 88.1908 81.602C90.1839 80.3034 90.4439 77.3598 89.3173 75.282Z" fill="#F5D8B9"/>
<path d="M92.9569 86.8829C93.8235 84.5454 92.6969 81.6884 90.5304 80.4763C91.137 79.0045 90.2704 77.3596 88.9705 76.4938C87.6706 75.6281 86.1108 75.3683 84.5509 75.1952C82.7311 71.9919 78.2248 70.7798 75.0184 72.5979C72.4186 70.5201 68.5189 71.2993 65.8324 73.0308C65.1392 73.4637 64.5325 73.9831 63.7526 74.1563C63.146 74.3294 62.626 74.3294 62.0194 74.416C58.813 74.9354 56.3865 78.0522 56.1266 81.2555C56.0399 81.7749 56.0399 82.2944 55.8666 82.8139C55.6066 83.4199 55.0867 83.9393 54.74 84.4588C53.8734 85.6709 53.6134 87.2292 53.9601 88.6144C54.3067 89.8265 55 90.952 54.8267 92.2506C54.74 92.8567 54.3934 93.4627 54.3934 94.0687C54.3067 95.8868 56.6465 97.0123 56.8198 98.8304C56.8198 99.1767 56.8198 99.6096 56.8198 99.9559C56.8198 100.735 57.1665 101.428 57.6864 102.034C58.1197 102.467 58.6397 102.813 58.813 103.332C58.9863 103.765 58.8997 104.198 58.8997 104.631C58.9863 105.67 62.3661 108.96 63.406 109.219L89.7505 101.514C91.657 100.475 92.6969 98.2244 92.2636 96.1465C92.1769 95.8002 92.0903 95.4539 92.1769 95.1076C92.2636 94.8479 92.5236 94.6748 92.7836 94.415C94.1701 93.0298 93.7368 90.6057 92.9569 88.7876C92.8702 88.5279 92.6969 88.2681 92.6969 88.0084C92.6102 87.6621 92.7836 87.3158 92.9569 86.8829Z" fill="#BA7C69"/>
<path d="M85.418 89.2208C84.1181 84.5457 79.5251 80.1303 74.2389 79.2645C70.8592 78.7451 68.606 79.3511 67.0461 79.6974C63.4931 80.3035 61.24 82.9007 61.24 82.9007C59.8534 83.6799 56.0404 90.1731 57.3403 95.4542C58.8135 101.428 60.8067 108.614 62.8865 112.683C67.0461 120.994 74.0656 119.955 74.0656 119.955L75.7988 126.622L78.9185 154.759L98.5036 119.349L93.7373 118.743L85.418 89.2208Z" fill="#DDB9A5"/>
<path d="M74.9317 107.401C74.7583 106.968 74.4117 106.622 74.0651 106.449C73.2851 106.103 72.4185 106.276 71.8986 106.882C71.3786 107.488 71.4653 108.267 71.8119 109.133C72.3319 109.566 72.6785 109.999 73.3718 109.912C73.4584 109.912 73.5451 109.912 73.6318 109.825C74.0651 109.652 74.4984 109.393 74.845 108.96C75.105 108.527 75.1916 107.921 74.9317 107.401Z" fill="#875849"/>
<path d="M62.7131 102.467C62.8864 103.073 63.493 103.419 64.1863 103.246C64.7929 103.073 65.2262 102.467 65.0529 101.861C64.8796 101.255 64.273 100.909 63.5797 101.082C62.8864 101.255 62.5398 101.861 62.7131 102.467Z" fill="#201A1A"/>
<path d="M60.4598 98.1379C60.6331 98.2245 61.3264 97.3587 62.5396 96.9259C63.7528 96.493 64.7928 96.8393 64.8794 96.6661C64.9661 96.5796 64.7061 96.3198 64.1861 96.2333C63.7528 96.0601 62.9729 95.9735 62.193 96.2333C61.413 96.493 60.8931 96.9259 60.6331 97.3587C60.4598 97.7916 60.3731 98.0513 60.4598 98.1379Z" fill="#201A1A"/>
<path d="M70.5119 105.411C70.5119 105.324 69.732 105.411 68.4321 105.67C68.0854 105.757 67.8254 105.757 67.6521 105.584C67.4788 105.411 67.5655 104.978 67.5655 104.631C67.6521 103.766 67.6521 102.9 67.7388 102.034C67.9121 98.3114 67.9988 95.2812 67.8254 95.2812C67.6521 95.2812 67.3921 98.3114 67.1322 102.034C67.0455 102.986 67.0455 103.852 66.9588 104.631C66.9588 104.978 66.8722 105.497 67.2188 105.93C67.3921 106.103 67.6521 106.19 67.8254 106.19C68.0854 106.19 68.2587 106.103 68.3454 106.103C69.8186 105.757 70.5119 105.497 70.5119 105.411Z" fill="#201A1A"/>
<path d="M74.1523 119.955C74.1523 119.955 80.2185 118.483 84.8981 113.115C84.8981 113.115 83.6849 120.214 74.6723 122.206L74.1523 119.955Z" fill="#875849"/>
<path d="M59.4197 94.0687C59.6796 94.3285 60.5462 93.809 61.6728 93.5493C62.7994 93.2895 63.7526 93.2895 63.926 92.9432C64.0126 92.7701 63.7526 92.5104 63.3193 92.3372C62.886 92.1641 62.1061 92.0775 61.4128 92.2506C60.6329 92.4238 60.0263 92.8567 59.6796 93.203C59.333 93.6358 59.2463 93.9821 59.4197 94.0687Z" fill="#201A1A"/>
<path d="M75.538 98.9171C75.7113 99.5232 75.3647 100.129 74.7581 100.389C74.1514 100.562 73.4582 100.302 73.2848 99.6963C73.1115 99.0903 73.4582 98.4843 74.0648 98.2245C74.7581 98.0514 75.3647 98.3111 75.538 98.9171Z" fill="#201A1A"/>
<path d="M77.1846 93.3759C77.0979 93.549 76.058 93.2027 74.8448 93.4624C73.6315 93.8087 72.9382 94.6745 72.7649 94.5013C72.6783 94.4148 72.7649 94.155 73.0249 93.7222C73.3715 93.3759 73.8915 92.8564 74.6714 92.6833C75.4514 92.5101 76.1446 92.5967 76.5779 92.7698C77.0112 93.1161 77.1846 93.2893 77.1846 93.3759Z" fill="#201A1A"/>
<path d="M77.1845 89.3938C77.0112 89.7401 75.9713 89.7401 74.8447 89.9998C73.7181 90.2595 72.8515 90.779 72.5915 90.5193C72.4182 90.4327 72.5049 90.0864 72.8515 89.7401C73.1982 89.3938 73.8048 88.9609 74.5847 88.7877C75.3647 88.6146 76.1446 88.7012 76.5779 88.8743C77.0978 88.9609 77.2712 89.2206 77.1845 89.3938Z" fill="#201A1A"/>
<path d="M86.6308 97.965C86.4575 97.2724 86.7175 95.5409 87.3241 95.2812C88.9706 94.502 92.0904 93.6362 93.4769 97.965C95.3835 103.939 89.0573 104.631 88.9706 104.458C88.884 104.285 87.3241 100.216 86.6308 97.965Z" fill="#DDB9A5"/>
<path d="M89.924 101.687C89.924 101.687 90.0106 101.687 90.2706 101.774C90.4439 101.774 90.7906 101.774 91.0505 101.514C91.5705 101.081 91.8305 99.9559 91.4838 98.8304C91.3105 98.3109 91.0505 97.7915 90.7039 97.4452C90.3573 97.0989 90.0106 96.8392 89.664 96.9257C89.3173 96.9257 89.144 97.1855 89.144 97.4452C89.144 97.6183 89.2307 97.7049 89.144 97.7915C89.144 97.7915 88.9707 97.7049 88.9707 97.4452C88.9707 97.3586 88.9707 97.1855 89.0574 97.0123C89.144 96.8392 89.3173 96.7526 89.5773 96.666C90.0106 96.5794 90.6172 96.8392 90.9639 97.272C91.3105 97.7049 91.6572 98.2244 91.8305 98.8304C92.1771 100.042 91.9171 101.341 91.1372 101.861C90.7906 102.12 90.3573 102.12 90.0973 102.034C89.924 101.861 89.924 101.687 89.924 101.687Z" fill="#875849"/>
<path d="M56.1264 95.8867C57.0797 94.7612 57.513 93.4626 56.993 92.0774C57.8596 92.0774 58.3796 90.7787 58.6396 89.913C58.8995 89.0472 59.3328 88.5278 59.0728 87.7486C58.9862 87.5754 58.9862 87.4023 58.9862 87.2291C59.0728 86.9694 59.3328 86.7963 59.5061 86.6231C60.6327 85.8439 61.326 84.4587 61.2393 82.9869C62.7126 83.1601 64.1858 82.9003 65.5723 82.3809C66.4389 83.0735 67.7388 83.2466 68.7787 82.9003C69.8186 82.554 70.6852 81.5151 70.9452 80.4762C71.5518 81.0822 72.5051 81.342 73.3717 81.2554C74.2383 81.1688 75.1049 80.9091 75.8848 80.6494C76.0581 82.3809 77.618 83.8527 79.3512 83.8527C79.6112 83.8527 79.8711 83.8527 80.0445 84.0258C80.2178 84.199 80.2178 84.4587 80.1311 84.7184C80.0445 86.2768 81.5177 87.662 82.9909 87.5754C82.2109 88.6143 82.9042 90.3459 84.1175 90.6922C84.3774 90.7787 84.7241 90.8653 84.7241 91.125C84.7241 91.2116 84.7241 91.2982 84.6374 91.3848C84.3774 92.0774 84.1175 92.8566 84.2908 93.6357C84.4641 94.4149 85.244 95.021 85.9373 94.8478C85.6773 95.2807 85.4174 95.8867 85.5907 96.4062C85.764 96.9256 86.4573 97.2719 86.8906 96.9256C87.0639 96.7525 89.837 95.2807 89.9237 95.021C90.8769 92.164 88.0171 90.3459 86.8906 87.5754C85.8507 84.805 83.9441 82.3809 81.7777 80.3031C80.8244 79.4373 79.8711 78.6581 78.7446 78.0521C77.4447 77.3595 76.0581 77.0132 74.6716 76.6669C72.8517 76.234 71.0319 75.7145 69.1254 75.8877C65.659 76.1474 62.7126 78.3118 60.1128 80.6494C59.1595 81.5151 58.2063 82.4675 57.513 83.5929C56.6464 84.8916 56.2131 86.4499 55.8664 88.0083C55.4332 90.2593 55.1732 92.5968 55.6065 94.7612" fill="#BA7C69"/>
<path d="M54.3068 94.1555C54.3068 94.1555 54.3068 93.8958 54.3935 93.3763C54.4802 93.1166 54.5668 92.8569 54.6535 92.5106C54.7401 92.1643 54.7401 91.7314 54.6535 91.2985C54.5668 90.8656 54.3935 90.3462 54.1335 89.8267C53.9602 89.3072 53.7002 88.7012 53.6136 88.0086C53.5269 87.316 53.6136 86.6234 53.7869 85.8442C53.8735 85.4979 54.0469 85.1516 54.2202 84.8053C54.3935 84.459 54.6535 84.1127 54.9135 83.853C55.1734 83.5067 55.4334 83.1604 55.6067 82.8141C55.7801 82.3812 55.7801 81.9483 55.7801 81.5154C55.8667 80.5631 56.1267 79.6973 56.4733 78.745C56.9066 77.8792 57.4266 77.0135 58.2065 76.2343C58.5532 75.888 58.9865 75.5417 59.5064 75.282C59.9397 75.0222 60.4597 74.7625 60.9796 74.5894C61.2396 74.5028 61.4996 74.4162 61.8462 74.4162C62.1062 74.4162 62.3662 74.3296 62.7128 74.3296C63.2328 74.243 63.8394 74.1565 64.2727 73.8102C64.7926 73.5504 65.2259 73.2041 65.7459 72.8578C66.2659 72.5115 66.7858 72.2518 67.3058 71.9921C67.8257 71.7323 68.4323 71.5592 69.039 71.4726C69.6456 71.2995 70.2522 71.2995 70.8588 71.2129C72.072 71.2129 73.4586 71.4726 74.4985 72.2518C74.5852 72.3384 74.6718 72.425 74.8452 72.5115H74.7585C76.405 71.5592 78.4849 71.4726 80.218 71.9055C81.9512 72.425 83.5111 73.5504 84.3777 75.1088L84.291 75.0222C85.1576 75.1088 85.9376 75.282 86.7175 75.4551C87.4975 75.6283 88.2774 75.9746 88.884 76.4074C89.4906 76.8403 90.0106 77.5329 90.2706 78.2255C90.5305 78.9181 90.6172 79.6973 90.3572 80.3899V80.3034C91.4838 80.9094 92.2637 81.8617 92.697 82.9006C93.1303 83.9395 93.217 85.065 93.0437 86.0174C92.957 86.2771 92.8703 86.5368 92.8703 86.71C92.7837 86.9697 92.697 87.1428 92.6104 87.4026C92.5237 87.6623 92.5237 87.8355 92.6104 88.0952C92.697 88.2683 92.7837 88.5281 92.7837 88.7012C93.1303 89.4804 93.3036 90.2596 93.3903 90.9522C93.477 91.6448 93.477 92.3374 93.3036 92.8569C93.1303 93.3763 92.957 93.8092 92.697 94.1555C92.437 94.4152 92.1771 94.5884 92.0904 94.7615C92.0037 94.9347 91.9171 95.0213 91.9171 95.0213C91.9171 95.0213 91.9171 94.9347 92.0904 94.7615C92.1771 94.5884 92.437 94.4152 92.697 94.1555C92.957 93.8958 93.1303 93.4629 93.3036 92.9434C93.477 92.424 93.477 91.7314 93.3036 91.0388C93.217 90.3462 92.957 89.567 92.6104 88.7878C92.5237 88.6146 92.437 88.3549 92.3504 88.1818C92.2637 87.922 92.3504 87.7489 92.3504 87.4892C92.437 87.2294 92.5237 87.0563 92.6104 86.7965C92.697 86.5368 92.7837 86.3637 92.7837 86.1039C92.957 85.1516 92.8703 84.0261 92.437 82.9872C92.0037 81.9483 91.2238 80.996 90.1839 80.4765H90.0972V80.3899C90.3572 79.7839 90.2706 79.0047 90.0106 78.3121C89.7506 77.6195 89.2306 77.0135 88.624 76.5806C88.0174 76.1477 87.2375 75.8014 86.4575 75.6283C85.6776 75.4551 84.8977 75.282 84.0311 75.1954H83.9444C83.0778 73.7236 81.6046 72.5981 79.8714 72.0786C78.1382 71.5592 76.1451 71.6458 74.5852 72.5981H74.4985H74.4119C74.3252 72.5115 74.2385 72.425 74.1519 72.3384C73.112 71.6458 71.8987 71.2995 70.5988 71.2995C69.9922 71.2995 69.3856 71.386 68.779 71.5592C68.1724 71.7323 67.6524 71.9055 67.0458 72.0786C66.5258 72.3384 66.0059 72.5981 65.4859 72.8578C64.966 73.1176 64.5327 73.5504 64.0127 73.8102C63.7527 73.9833 63.4928 74.0699 63.2328 74.1565C62.9728 74.243 62.6262 74.3296 62.3662 74.3296C62.1062 74.3296 61.8462 74.4162 61.4996 74.4162C61.2396 74.5028 60.9796 74.5028 60.7196 74.5894C60.1997 74.7625 59.6797 74.9357 59.2464 75.1954C58.8131 75.4551 58.3798 75.8014 58.0332 76.1477C57.2533 76.8403 56.7333 77.7061 56.3 78.5718C55.8667 79.4376 55.6934 80.3899 55.6067 81.2557C55.6067 81.6886 55.5201 82.208 55.3468 82.5543C55.1734 82.9872 54.9135 83.3335 54.6535 83.6798C54.3935 84.0261 54.1335 84.2858 53.9602 84.6322C53.7869 84.9785 53.6136 85.3248 53.5269 85.6711C53.2669 86.3637 53.2669 87.0563 53.3536 87.7489C53.4402 88.4415 53.6136 88.9609 53.8735 89.4804C54.0469 89.9999 54.2202 90.5193 54.3068 90.9522C54.3935 91.3851 54.3935 91.8179 54.3068 92.1643C54.2202 92.5106 54.1335 92.7703 54.0469 93.03C53.9602 93.2897 53.9602 93.4629 53.8735 93.5495C54.3068 94.0689 54.3068 94.1555 54.3068 94.1555Z" fill="#875849"/>
<path d="M71.8123 72.1651C71.8123 72.1651 71.639 72.1651 71.2924 72.0785C70.9457 71.9919 70.4258 71.9919 69.9058 72.0785C69.2992 72.1651 68.6059 72.4248 67.9993 72.9442C67.3927 73.4637 66.8727 74.2429 66.6994 75.1086C66.6128 75.3684 66.6128 75.6281 66.6128 75.8878C66.6128 76.1475 66.6994 76.4073 66.8727 76.4938L67.0461 76.667H66.7861C66.0928 76.667 65.3995 77.0133 64.9662 77.4462C64.5329 77.8791 64.3596 78.3985 64.2729 78.8314C64.1863 79.2643 64.2729 79.6106 64.3596 79.8703C64.4463 80.13 64.4463 80.2166 64.4463 80.2166C64.4463 80.2166 64.4463 80.2166 64.3596 80.13C64.3596 80.0435 64.2729 79.9569 64.2729 79.8703C64.1863 79.6106 64.0996 79.2643 64.1863 78.7448C64.1863 78.3119 64.4463 77.7059 64.8796 77.1865C65.3129 76.7536 66.0061 76.3207 66.7861 76.3207L66.6994 76.4938C66.4394 76.3207 66.3528 75.9744 66.3528 75.7147C66.3528 75.4549 66.3528 75.1952 66.4394 74.9355C66.6128 73.9832 67.1327 73.204 67.826 72.6845C68.4326 72.1651 69.2125 71.9053 69.8192 71.8188C70.4258 71.7322 70.9457 71.8188 71.2924 71.8188C71.4657 71.8188 71.5523 71.9053 71.639 71.9053C71.7257 72.1651 71.8123 72.1651 71.8123 72.1651Z" fill="#875849"/>
<path d="M83.598 75.9746C83.598 75.9746 83.598 76.0612 83.4247 76.2343C83.338 76.4075 83.1647 76.6672 82.9047 76.9269C82.6447 77.1867 82.2981 77.4464 81.8648 77.6196C81.4315 77.7927 80.8249 77.8793 80.2183 77.6196L80.3049 77.533C80.3049 77.6196 80.2183 77.7061 80.2183 77.7927C80.2183 77.8793 80.1316 77.9659 80.0449 78.0524C79.785 78.6585 79.3517 79.0913 78.8317 79.4376C78.3984 79.7839 77.8784 79.9571 77.4452 80.0437C77.0119 80.1302 76.6652 80.1303 76.4052 80.1303C76.1453 80.1303 76.0586 80.0437 76.0586 80.0437C76.0586 80.0437 76.5786 80.1303 77.3585 79.8705C77.7918 79.7839 78.2251 79.5242 78.6584 79.2645C79.0917 78.9182 79.525 78.4853 79.785 77.9659C79.785 77.8793 79.8716 77.7927 79.8716 77.7061C79.8716 77.6196 79.9583 77.533 79.9583 77.4464V77.3598H80.0449C80.5649 77.533 81.0849 77.533 81.5181 77.3598C81.9514 77.1867 82.2981 76.9269 82.5581 76.6672C83.338 76.4075 83.598 75.9746 83.598 75.9746Z" fill="#875849"/>
<path d="M88.4506 80.5635C88.4506 80.5635 88.4506 80.5635 88.4506 80.6501C88.4506 80.7366 88.4506 80.8232 88.4506 80.9964C88.3639 81.2561 88.1039 81.689 87.6706 81.9487C87.2373 82.2084 86.544 82.295 85.9374 82.295C85.5908 82.295 85.2442 82.295 84.8975 82.2084C84.5509 82.1218 84.1176 82.0353 83.8576 81.689L83.7709 81.6024H83.9443C83.511 82.2084 83.0777 82.8144 82.471 83.2473C81.9511 83.6802 81.3445 83.8534 80.8245 83.9399C80.3046 84.0265 79.8713 83.9399 79.6113 83.7668C79.438 83.6802 79.3513 83.6802 79.3513 83.5936C79.2646 83.5936 79.2646 83.5071 79.2646 83.5071C79.2646 83.5071 79.438 83.5936 79.6979 83.6802C79.9579 83.7668 80.3912 83.8534 80.8245 83.7668C81.3445 83.6802 81.8644 83.5071 82.3844 83.0742C82.9043 82.6413 83.3376 82.1218 83.7709 81.5158L83.8576 81.4292L83.9443 81.5158C83.9443 81.5158 83.9443 81.6024 84.0309 81.6024C84.2909 81.8621 84.6375 81.9487 84.9842 82.0353C85.3308 82.1218 85.6775 82.1218 86.0241 82.1218C86.7174 82.1218 87.324 82.1218 87.7573 81.8621C88.1906 81.6024 88.4506 81.2561 88.5372 80.9964C88.4506 80.7366 88.4506 80.5635 88.4506 80.5635Z" fill="#875849"/>
<path d="M88.1908 57.2744C88.1908 57.2744 88.1042 57.2744 87.9309 57.4476C87.7575 57.5341 87.5842 57.7073 87.4109 58.0536C87.2376 58.3999 87.1509 58.8328 87.3242 59.3522C87.4109 59.8717 87.7575 60.3911 88.0175 60.9106L88.1042 60.9972H88.0175C87.3242 61.1703 86.631 61.6032 86.111 62.2958C85.591 62.9884 85.3311 63.8542 85.591 64.7199C85.851 65.4991 86.371 66.1917 87.0643 66.4515L87.3242 66.538L87.0643 66.6246C86.111 66.8843 85.4177 67.5769 85.0711 68.3561C84.7244 69.0487 84.7245 69.8279 84.8978 70.4339C85.0711 71.04 85.3311 71.4729 85.5044 71.646C85.6777 71.9057 85.851 71.9923 85.851 71.9923C85.851 71.9923 85.851 71.9923 85.7644 71.9057C85.6777 71.8192 85.591 71.7326 85.5044 71.646C85.2444 71.3863 84.9844 70.9534 84.8111 70.3474C84.6378 69.7413 84.6378 68.9622 84.9844 68.183C85.3311 67.4038 86.0243 66.7112 87.0643 66.3649V66.538C86.2843 66.2783 85.6777 65.5857 85.4177 64.7199C85.2444 64.2871 85.2444 63.7676 85.3311 63.3347C85.4177 62.9018 85.6777 62.469 85.9377 62.1227C86.4576 61.4301 87.2376 60.9972 87.9309 60.824L87.8442 60.9106C87.4976 60.3911 87.2376 59.7851 87.1509 59.2657C87.0643 58.7462 87.1509 58.2267 87.3242 57.8804C87.4976 57.5341 87.7575 57.361 87.9309 57.2744C88.0175 57.361 88.1042 57.2744 88.1908 57.2744Z" fill="#875849"/>
<path d="M102.923 66.8838C102.923 66.8838 102.923 66.8838 102.836 66.9704C102.75 67.0569 102.663 67.1435 102.576 67.2301C102.316 67.4032 101.97 67.663 101.45 67.8361C100.93 68.0093 100.236 68.1824 99.5432 68.1824C98.7633 68.1824 97.8967 68.0093 97.1168 67.4898L97.2901 67.4032C97.0301 68.4422 96.3368 69.5676 95.2102 70.0871C93.997 70.6066 92.5238 70.3468 91.7439 69.3945L91.9172 69.3079C91.9172 69.7408 91.7439 70.1737 91.4839 70.52C91.2239 70.8663 90.9639 71.126 90.7039 71.3857C90.0973 71.8186 89.4907 71.9918 88.9708 72.1649C88.4508 72.2515 88.0175 72.3381 87.7575 72.3381C87.4975 72.3381 87.3242 72.3381 87.3242 72.3381C87.3242 72.3381 87.4975 72.3381 87.7575 72.2515C88.0175 72.2515 88.4508 72.1649 88.9708 71.9918C89.4907 71.8186 90.0973 71.6455 90.7039 71.2126C91.2239 70.7797 91.8305 70.0871 91.8305 69.2213V68.9616L92.0038 69.1348C92.6971 70.0005 94.0837 70.2602 95.2969 69.7408C96.4235 69.2213 97.0301 68.1824 97.2901 67.2301V67.1435L97.3767 67.2301C98.1567 67.663 98.9366 67.9227 99.7165 67.9227C100.496 67.9227 101.103 67.8361 101.623 67.5764C102.49 67.3167 102.923 66.8838 102.923 66.8838Z" fill="#875849"/>
<path d="M100.15 77.3596C100.15 77.3596 100.15 77.4462 100.15 77.5328C100.15 77.6194 99.9763 77.7059 99.8896 77.7925C99.543 77.9657 99.1097 78.0522 98.5031 77.9657C97.8965 77.8791 97.2032 77.7059 96.5966 77.1865C95.99 76.667 95.5567 75.8878 95.3833 74.9355L95.5567 75.0221C94.8634 75.6281 94.0834 75.9744 93.3035 76.061C92.5236 76.1476 91.8303 76.061 91.2237 75.8013C90.7037 75.6281 90.2704 75.3684 90.0104 75.1952C89.7505 75.0221 89.5771 74.8489 89.5771 74.8489C89.5771 74.8489 90.1838 75.2818 91.2237 75.7147C91.7436 75.8878 92.4369 75.9744 93.2168 75.8878C93.9968 75.8013 94.7767 75.455 95.3833 74.8489L95.5567 74.6758V74.8489C95.6433 75.7147 96.0766 76.4939 96.6832 77.0133C97.2898 77.5328 97.8965 77.7059 98.5031 77.7925C99.1097 77.8791 99.543 77.7925 99.8896 77.7059C100.063 77.6194 100.15 77.3596 100.15 77.3596Z" fill="#875849"/>
<path d="M75.2788 61.5166C75.3655 61.5166 75.1921 62.2958 75.5388 63.4213C75.7121 63.9407 76.1454 64.6333 76.752 65.1528C77.3586 65.6722 78.1386 66.1051 79.0918 66.1917C79.6118 66.2783 80.1317 66.1917 80.565 66.1051H80.6517V66.1917C80.6517 66.8843 80.825 67.5769 80.9983 68.1829C81.2583 68.789 81.5183 69.2219 81.7783 69.5682C81.9516 69.7413 82.0382 69.9145 82.2116 70.001C82.3849 70.0876 82.4715 70.1742 82.6449 70.1742C82.7315 70.1742 82.8182 70.0876 82.9048 70.001C82.9048 70.0876 82.8182 70.1742 82.6449 70.1742C82.4715 70.2608 82.2982 70.1742 82.2116 70.001C82.0382 69.9145 81.9516 69.7413 81.7783 69.5682C81.4316 69.2219 81.1716 68.7024 80.9117 68.1829C80.6517 67.5769 80.4784 66.8843 80.4784 66.1051L80.565 66.1917C80.0451 66.2783 79.5251 66.3649 79.0051 66.2783C78.0519 66.1917 77.1853 65.7588 76.5787 65.2394C75.9721 64.7199 75.6254 64.0273 75.3655 63.4213C75.1921 62.8152 75.1055 62.2958 75.1055 61.9495C75.1055 61.7763 75.1055 61.6032 75.1055 61.5166C75.1921 61.6032 75.2788 61.5166 75.2788 61.5166Z" fill="#875849"/>
<path d="M74.4122 105.67C74.2389 105.67 74.3255 106.882 73.3723 107.834C72.419 108.787 71.1191 108.787 71.1191 108.96C71.1191 109.046 71.4658 109.133 71.9857 109.133C72.5057 109.133 73.2856 108.873 73.8056 108.267C74.4122 107.661 74.5855 106.969 74.5855 106.449C74.6722 106.016 74.4989 105.67 74.4122 105.67Z" fill="#201A1A"/>
<path d="M123.461 167.571C122.941 163.589 119.561 135.192 119.561 135.192C119.561 135.192 119.301 127.573 112.975 123.071C106.649 118.57 94.7762 118.05 94.1696 118.483C92.9564 119.522 85.3303 144.196 82.8172 144.196C80.3907 144.196 75.7111 126.275 75.7111 126.275L74.6712 122.119L66.2652 125.496C66.2652 125.496 62.1056 128.266 59.8524 135.538C58.4659 140.04 53.353 168.177 53.353 168.177L40.5273 167.225V178.567L66.2652 184.627C66.2652 184.627 69.2983 182.463 70.8582 178.22C71.2048 177.181 71.1182 173.372 70.7715 168.351C71.4648 169.043 71.8981 169.39 71.8981 169.39L77.6176 185.666C102.662 191.726 129.18 199.345 140.879 191.466C139.319 180.991 123.807 170.255 123.461 167.571Z" fill="#875849"/>
<path d="M66.4388 139.521C66.4388 139.521 66.6988 139.953 67.0454 140.819C67.3921 141.598 67.912 142.81 68.432 144.196V144.282L68.3453 144.369C67.7387 145.494 67.2187 146.793 66.7854 148.265C66.0922 150.689 66.0055 153.026 66.0055 154.671C66.0922 156.316 66.2655 157.355 66.1788 157.355C66.1788 157.355 66.0922 157.095 65.9188 156.663C65.8322 156.23 65.6589 155.537 65.6589 154.671C65.4855 153.026 65.5722 150.602 66.2655 148.092C66.6988 146.62 67.3054 145.235 67.912 144.196V144.369C67.3921 142.984 66.9588 141.771 66.6988 140.906C66.5255 139.953 66.4388 139.521 66.4388 139.521Z" fill="#201A1A"/>
<path d="M32.901 132.769L28.4814 131.037C28.4814 131.037 22.7619 134.587 19.0355 137.703C15.6558 140.647 14.0092 143.937 14.0092 143.937C13.4026 142.379 12.8827 141.34 11.0628 140.474C6.98983 138.656 3.09015 140.647 3.09015 140.647L1.53027 143.85L9.93625 150.17L20.3354 155.019L28.1348 154.499L42.9535 148.093L32.901 132.769Z" fill="#F5D8B9"/>
<path d="M31.1684 166.966L0.0576172 144.11C0.0576172 144.11 7.94364 142.811 10.1101 144.11C12.2766 145.409 11.41 148.092 11.41 148.092L14.2698 147.833C14.2698 147.833 16.003 143.244 22.2425 139.089C28.482 134.933 34.2015 132.249 34.2015 132.249L60.9793 156.663L62.2792 162.724C62.2792 162.724 46.5938 166.273 41.3942 171.641L31.1684 166.966Z" fill="#BA7C69"/>
<path d="M43.0411 170.083C42.9545 170.169 36.455 165.235 28.4823 159.088C20.5096 152.941 14.0968 147.833 14.1835 147.746C14.2701 147.66 20.7696 152.594 28.7423 158.741C36.8016 164.888 43.1278 169.996 43.0411 170.083Z" fill="#201A1A"/>
<path d="M39.8341 170.775C39.7474 170.862 33.248 165.927 25.2753 159.78C17.3026 153.633 10.8898 148.525 10.9765 148.439C11.0631 148.352 17.5626 153.287 25.5353 159.434C33.5079 165.667 39.9207 170.689 39.8341 170.775Z" fill="#201A1A"/>
<path d="M56.9058 238.91L66.6983 256.831C66.6983 256.831 52.7461 272.329 54.2193 275.792L87.7566 258.909L73.6311 230.426L56.9058 238.91Z" fill="#201A1A"/>
<path d="M76.2313 249.992C77.0112 249.819 77.7911 250.425 77.9644 251.204C78.1378 251.983 77.7045 252.849 76.9245 253.022C76.1446 253.195 75.1913 252.589 75.018 251.81C74.9314 251.031 75.538 250.078 76.3179 250.078" fill="#F5D8B9"/>
<path d="M87.7569 258.91L86.197 256.053L54.6529 273.281C54.6529 273.281 53.5264 274.753 54.2196 275.705L87.7569 258.91Z" fill="#875849"/>
<path d="M66.005 256.918C66.0916 257.092 66.9582 256.745 67.9982 256.918C69.1247 257.005 69.9047 257.611 69.9913 257.438C70.1646 257.351 69.3847 256.399 68.0848 256.226C66.7849 256.053 65.9183 256.745 66.005 256.918Z" fill="#F5D8B9"/>
<path d="M63.2324 260.208C63.3191 260.381 64.099 260.294 65.0523 260.814C66.0055 261.247 66.5255 261.939 66.6988 261.853C66.8721 261.766 66.4388 260.727 65.3123 260.208C64.1857 259.602 63.2324 260.034 63.2324 260.208Z" fill="#F5D8B9"/>
<path d="M63.4919 265.662C63.6652 265.662 63.4919 264.623 62.5386 263.931C61.672 263.151 60.7188 263.238 60.7188 263.411C60.7188 263.584 61.412 263.844 62.192 264.45C62.8852 264.97 63.3185 265.662 63.4919 265.662Z" fill="#F5D8B9"/>
<path d="M64.1855 252.59C64.3589 252.676 64.9655 252.07 65.9187 251.724C66.872 251.291 67.7386 251.291 67.7386 251.118C67.7386 250.945 66.7853 250.685 65.6587 251.118C64.5322 251.551 64.0989 252.503 64.1855 252.59Z" fill="#F5D8B9"/>
<path d="M84.7236 235.621L88.5367 259.602L86.0235 279.428C85.8502 280.9 86.8901 282.112 88.3633 282.199C89.1433 282.285 89.9232 281.939 90.4432 281.246C93.6496 277.264 105.349 262.373 105.002 260.641C104.569 258.65 102.662 235.015 102.662 235.015L84.7236 235.621Z" fill="#201A1A"/>
<path d="M88.3633 282.285L104.742 259.083L104.915 260.122C105.002 260.988 104.829 261.94 104.395 262.633C103.095 264.624 99.4557 270.078 90.5298 281.333C90.0098 282.026 89.2299 282.372 88.3633 282.285Z" fill="#875849"/>
<g opacity="0.6">
<path d="M98.8492 252.07C98.3292 252.589 98.2426 253.542 98.6759 254.061C99.1958 254.667 100.149 254.754 100.669 254.234C101.189 253.715 101.362 252.589 100.842 252.07C100.322 251.55 99.1958 251.55 98.7625 252.156" fill="#F5D8B9"/>
</g>
<path d="M92.5228 271.03C92.4362 271.117 91.6562 269.905 90.183 269.472C88.7098 268.952 87.4099 269.472 87.3232 269.299C87.3232 269.212 87.5832 269.039 88.1032 268.866C88.6231 268.693 89.4897 268.693 90.3563 268.952C91.2229 269.212 91.8295 269.732 92.1762 270.251C92.4362 270.684 92.5228 271.03 92.5228 271.03Z" fill="#F5D8B9"/>
<path d="M91.2234 274.493C91.1367 274.58 90.2701 273.974 88.9702 273.714C87.6703 273.454 86.6304 273.887 86.5437 273.714C86.4571 273.628 87.5837 272.935 89.0569 273.195C90.5301 273.454 91.31 274.407 91.2234 274.493Z" fill="#F5D8B9"/>
<path d="M95.1225 266.442C95.0358 266.528 93.6493 265.49 91.6561 265.057C89.6629 264.537 88.0164 264.884 87.9297 264.71C87.8431 264.624 89.6629 264.018 91.7428 264.537C93.9959 265.057 95.2091 266.442 95.1225 266.442Z" fill="#F5D8B9"/>
<path d="M94.6027 259.083C94.516 259.256 93.1295 258.823 91.3963 258.996C89.6631 259.17 88.3632 259.776 88.2765 259.602C88.1899 259.516 89.4898 258.563 91.3963 258.477C93.2161 258.304 94.6894 258.996 94.6027 259.083Z" fill="#F5D8B9"/>
<path d="M93.6499 251.984C93.5633 252.157 92.1767 251.551 90.3569 251.811C88.537 252.07 87.4104 253.196 87.2371 253.023C87.1505 252.936 87.4104 252.676 87.9304 252.244C88.4504 251.811 89.2303 251.464 90.2702 251.291C91.2235 251.118 92.1767 251.205 92.7833 251.464C93.39 251.724 93.6499 251.984 93.6499 251.984Z" fill="#F5D8B9"/>
<path d="M72.9379 187.138C72.9379 187.138 47.8066 175.623 41.8271 177.701C35.8476 179.779 27.9615 188.523 33.7677 200.47C39.5739 212.418 59.2456 248.347 59.2456 248.347L77.5308 237.352L63.9253 209.734L79.6106 214.149L72.9379 187.138Z" fill="#201A1A"/>
<path d="M84.2034 179.605C84.2034 179.605 83.7701 179.605 83.0768 179.605C79.8704 179.779 69.9912 181.856 69.9912 192.852C69.9912 206.184 83.2501 245.749 83.2501 245.749L104.828 243.845L100.409 211.033C100.409 211.033 111.848 219.95 114.361 220.123C116.874 220.383 132.993 220.816 134.466 219.863C150.931 209.734 141.052 187.744 141.052 187.744C133.859 190.514 126.407 192.332 118.434 188.436C118.347 188.523 98.0689 180.731 84.2034 179.605Z" fill="#201A1A"/>
<path d="M99.9758 200.904C99.9758 201.077 100.063 201.163 100.063 201.423C100.149 201.856 100.236 202.549 100.322 203.414C100.496 205.146 100.669 207.743 100.582 211.033C101.622 218.652 103.182 230.166 105.002 243.932V244.192H104.742C98.5026 244.711 91.6565 245.317 84.4638 245.923C84.0305 245.923 83.5105 246.01 83.1639 246.01H82.9906L82.9039 245.837C80.3041 237.612 77.8777 229.647 75.7978 222.548C73.718 215.362 71.7248 208.955 70.4249 203.414C69.8183 200.644 69.4717 198.133 69.4717 195.882C69.4717 193.631 69.7317 191.727 70.165 190.168C70.5983 188.61 71.1182 187.571 71.5515 186.792C71.7248 186.446 71.9848 186.186 72.0715 186.013C71.9848 186.186 71.8115 186.446 71.6382 186.792C71.2915 187.484 70.7716 188.61 70.3383 190.168C69.9916 191.727 69.645 193.631 69.7317 195.796C69.7317 198.047 70.0783 200.557 70.7716 203.328C72.1581 208.782 74.1513 215.189 76.2311 222.375C78.3976 229.56 80.7374 237.439 83.4239 245.663L83.1639 245.49C83.5972 245.49 84.0305 245.404 84.4638 245.404C91.5699 244.798 98.416 244.192 104.742 243.672L104.569 243.932C102.836 230.253 101.276 218.652 100.322 211.033C100.496 207.743 100.322 205.146 100.236 203.414C100.149 202.549 100.063 201.856 100.063 201.423C100.063 201.25 100.063 201.077 99.9758 200.904Z" fill="#875849"/>
<path d="M66.4391 157.183L92.177 164.888C92.177 164.888 99.1098 131.989 102.749 126.622C106.303 121.254 114.968 121.773 118.088 129.998C121.208 138.309 109.682 178.827 103.356 183.329C97.0299 187.831 84.2043 182.203 81.6912 181.078C79.1781 179.952 61.6729 169.737 61.6729 169.737L66.4391 157.183Z" fill="#875849"/>
<path d="M66.4389 157.183C66.4389 157.183 66.3522 157.443 66.1789 158.049C66.0056 158.655 65.6589 159.434 65.3123 160.473C64.5324 162.637 63.3191 165.754 61.8459 169.823L61.7593 169.65C65.4856 171.728 69.9919 174.325 75.2781 177.355C76.578 178.048 77.9646 178.827 79.3511 179.606C80.0444 179.953 80.7377 180.385 81.5176 180.732C82.2976 181.078 83.0775 181.424 83.8574 181.771C86.9772 182.983 90.4436 184.195 94.1699 184.628C95.9898 184.887 97.9829 184.974 99.8028 184.541C100.236 184.455 100.756 184.368 101.189 184.195C101.623 184.022 102.143 183.935 102.489 183.589C102.923 183.329 103.356 183.156 103.702 182.81C103.876 182.636 104.049 182.463 104.222 182.29C104.396 182.117 104.569 181.944 104.656 181.684C105.869 180.039 106.736 178.221 107.689 176.316C108.555 174.412 109.335 172.42 110.115 170.429C111.588 166.36 112.975 162.205 114.188 157.789C115.402 153.46 116.528 148.958 117.308 144.283C117.915 140.647 118.521 137.098 118.435 133.548C118.435 132.682 118.348 131.816 118.175 130.951C118.175 130.691 118.088 130.518 118.001 130.345C117.915 130.171 117.915 129.912 117.828 129.739L117.308 128.527C116.528 126.968 115.402 125.67 114.015 124.717C112.628 123.765 110.982 123.159 109.335 123.245C107.689 123.245 106.042 123.765 104.742 124.717C104.049 125.15 103.529 125.756 103.096 126.449C102.836 126.708 102.663 127.141 102.489 127.488C102.316 127.834 102.143 128.18 101.969 128.527C101.623 129.306 101.363 129.998 101.103 130.777C100.843 131.557 100.583 132.249 100.323 133.028C98.4162 139.002 97.0297 144.803 95.7298 150.084C94.4299 155.452 93.3033 160.386 92.3501 164.802V164.975L92.1768 164.888C84.2041 162.464 77.7913 160.56 73.3716 159.174C71.2051 158.482 69.472 157.962 68.2587 157.616C67.6521 157.443 67.2188 157.27 66.9588 157.183C66.6122 157.183 66.4389 157.183 66.4389 157.183C66.4389 157.183 66.6122 157.183 66.8722 157.27C67.2188 157.356 67.6521 157.443 68.1721 157.616C69.3853 157.962 71.0318 158.482 73.285 159.088C77.7046 160.386 84.2041 162.291 92.2634 164.629L92.0901 164.715C93.0434 160.3 94.1699 155.278 95.3832 149.997C96.6831 144.63 98.0696 138.916 99.9761 132.855C100.236 132.076 100.496 131.384 100.756 130.604C101.016 129.825 101.276 129.133 101.623 128.353C101.796 128.007 101.969 127.574 102.143 127.228C102.316 126.882 102.489 126.449 102.749 126.189C103.269 125.496 103.789 124.89 104.482 124.371C105.869 123.332 107.515 122.812 109.249 122.812C110.982 122.812 112.715 123.419 114.188 124.371C115.661 125.41 116.788 126.795 117.655 128.353L118.175 129.565C118.261 129.739 118.348 129.998 118.435 130.171C118.521 130.431 118.608 130.604 118.608 130.864C118.781 131.73 118.868 132.682 118.868 133.548C118.868 137.184 118.348 140.734 117.741 144.37C116.875 149.045 115.835 153.547 114.622 157.876C113.408 162.205 112.022 166.447 110.549 170.516C109.769 172.507 108.989 174.498 108.122 176.403C107.256 178.308 106.302 180.126 105.089 181.857C104.916 182.03 104.742 182.29 104.569 182.463C104.396 182.636 104.222 182.896 104.049 182.983C103.702 183.329 103.183 183.589 102.749 183.848C102.316 184.108 101.796 184.281 101.363 184.455C100.929 184.628 100.409 184.714 99.8895 184.801C97.8963 185.147 95.9898 185.061 94.0833 184.801C90.3569 184.281 86.8905 183.156 83.6841 181.857C82.9042 181.511 82.1243 181.251 81.3443 180.818C80.5644 180.472 79.8711 180.039 79.1778 179.693C77.7913 178.914 76.4047 178.134 75.1048 177.355C69.8186 174.325 65.3123 171.728 61.6726 169.563L61.5859 169.477V169.39C63.1458 165.321 64.359 162.205 65.2256 160.04C65.6589 159.001 65.9189 158.222 66.1789 157.616C66.3522 157.443 66.4389 157.183 66.4389 157.183Z" fill="#201A1A"/>
<path d="M66.4386 157.183L64.2721 156.577C64.2721 156.577 63.8388 147.227 61.3257 146.794C59.5058 146.448 50.2333 148.439 49.9733 151.209C49.6267 154.066 52.3998 153.634 52.3998 153.634C52.3998 153.634 49.1934 154.499 49.1934 156.404C49.1934 157.356 50.6666 157.616 52.0531 157.616C52.0531 157.616 49.9733 158.741 51.2732 160.213C52.5731 161.685 54.9995 160.906 54.9995 160.906L58.4659 160.213C58.4659 160.213 58.1193 163.676 58.7259 165.668C59.3325 167.745 62.1056 168.438 62.1056 168.438L66.4386 157.183Z" fill="#DDB9A5"/>
<path d="M61.586 150.777C61.586 150.863 61.0661 150.863 60.1128 151.036C59.2462 151.21 57.9463 151.469 56.6464 151.902C55.3465 152.335 54.1333 152.855 53.3533 153.201C52.4868 153.547 51.9668 153.72 51.9668 153.634C51.9668 153.547 52.4001 153.287 53.2667 152.855C54.1333 152.422 55.2599 151.902 56.5597 151.469C57.9463 151.036 59.1595 150.863 60.1128 150.777C60.9794 150.604 61.586 150.69 61.586 150.777Z" fill="#875849"/>
<path d="M60.8923 155.798C60.8923 155.971 58.7259 155.884 56.1261 156.49C53.5263 157.096 51.6198 158.049 51.5331 157.962C51.4465 157.876 53.353 156.664 56.0394 156.058C58.7259 155.452 60.979 155.711 60.8923 155.798Z" fill="#875849"/>
<path d="M32.2081 166.1C32.2081 166.1 29.7816 167.225 31.1682 169.996L31.4282 170.948C31.4282 170.948 30.1283 173.199 32.1214 175.277C32.1214 175.277 31.3415 178.22 34.3746 179.086C34.3746 179.086 33.9413 179.606 35.0679 180.298C36.1078 180.991 37.4943 181.077 38.7076 180.645C40.5274 180.039 43.2139 179.086 43.3872 178.134C43.6472 176.749 42.0006 176.229 41.2207 176.576C40.4408 176.922 44.3404 175.104 44.3404 173.632C44.3404 172.16 43.7338 171.468 43.7338 171.468C43.7338 171.468 45.2937 171.554 44.8604 169.563C44.4271 167.485 42.0006 167.398 42.0006 167.398C42.0006 167.398 43.1272 166.013 40.6141 165.148C38.1009 164.195 32.2081 166.1 32.2081 166.1Z" fill="#DDB9A5"/>
<path d="M42.2609 167.138C42.2609 167.312 39.7478 167.744 36.7147 168.783C33.6816 169.822 31.4285 170.948 31.3418 170.861C31.3418 170.775 31.8618 170.428 32.815 169.995C33.7683 169.476 35.0682 168.87 36.5414 168.351C38.0146 167.831 39.4878 167.485 40.5277 167.312C41.6543 167.138 42.2609 167.052 42.2609 167.138Z" fill="#875849"/>
<path d="M43.9939 171.554C43.9939 171.641 41.3941 172.593 38.0144 173.632C34.7213 174.671 31.9482 175.364 31.9482 175.277C31.9482 175.19 34.548 174.238 37.9278 173.199C41.2208 172.16 43.9939 171.468 43.9939 171.554Z" fill="#875849"/>
<path d="M41.2208 176.662C41.3075 176.749 39.7476 177.442 37.8411 178.134C35.9346 178.827 34.3747 179.26 34.2881 179.173C34.2881 179.086 35.7613 178.394 37.6678 177.701C39.5743 177.009 41.1342 176.576 41.2208 176.662Z" fill="#875849"/>
<path d="M372.817 53.9147C383.01 53.9147 391.274 45.6511 391.274 35.4574C391.274 25.2636 383.01 17 372.817 17C362.623 17 354.359 25.2636 354.359 35.4574C354.359 45.6511 362.623 53.9147 372.817 53.9147Z" fill="#F5D8B9"/>
<path d="M347.406 47.3046C349.255 47.3046 350.754 45.8056 350.754 43.9565C350.754 42.1074 349.255 40.6084 347.406 40.6084C345.557 40.6084 344.058 42.1074 344.058 43.9565C344.058 45.8056 345.557 47.3046 347.406 47.3046Z" fill="#F5D8B9"/>
<path d="M368.868 43.6132V45.6735C368.868 45.9311 369.04 46.1028 369.297 46.1028H370.929C371.186 46.1028 371.358 45.9311 371.358 45.6735V43.6132H372.216V45.6735C372.216 45.9311 372.388 46.1028 372.645 46.1028H374.277C374.534 46.1028 374.706 45.9311 374.706 45.6735V43.6132H374.878C378.14 43.6132 380.458 41.8962 380.458 38.9774C380.458 36.4878 378.827 35.2 376.852 34.9425V34.7708C378.483 34.3416 379.599 33.1397 379.599 31.1652C379.599 28.6756 377.711 27.1303 374.792 27.1303H374.62V25.1558C374.62 24.8983 374.448 24.7266 374.191 24.7266H372.56C372.302 24.7266 372.13 24.8983 372.13 25.1558V27.2162H371.186V25.1558C371.186 24.8983 371.014 24.7266 370.757 24.7266H369.212C368.954 24.7266 368.782 24.8983 368.782 25.1558V27.2162H365.52C365.263 27.2162 365.091 27.3879 365.091 27.6454V29.2765C365.091 29.5341 365.263 29.7058 365.52 29.7058H366.722C367.409 29.7058 367.924 30.2208 367.924 30.9076V39.9217C367.924 40.6085 367.409 41.1236 366.722 41.1236H365.52C365.263 41.1236 365.091 41.2953 365.091 41.5528V43.1839C365.091 43.4415 365.263 43.6132 365.52 43.6132H368.868ZM371.272 29.6199H374.105C375.564 29.6199 376.509 30.4784 376.509 31.7661C376.509 33.2255 375.564 33.9982 373.418 33.9982H371.272V29.6199ZM371.272 36.3161H374.277C376.165 36.3161 377.195 37.2604 377.195 38.8057C377.195 40.3509 376.165 41.2094 373.676 41.2094H371.272V36.3161Z" fill="#BA7C69"/>
<path d="M31.515 70.9147C41.7087 70.9147 49.9724 62.6511 49.9724 52.4574C49.9724 42.2636 41.7087 34 31.515 34C21.3213 34 13.0576 42.2636 13.0576 52.4574C13.0576 62.6511 21.3213 70.9147 31.515 70.9147Z" fill="#F5D8B9" stroke="#201A1A" stroke-width="0.5" stroke-miterlimit="10"/>
<path d="M52.3764 69.8846C54.2255 69.8846 55.7245 68.3857 55.7245 66.5366C55.7245 64.6875 54.2255 63.1885 52.3764 63.1885C50.5273 63.1885 49.0283 64.6875 49.0283 66.5366C49.0283 68.3857 50.5273 69.8846 52.3764 69.8846Z" fill="#F5D8B9"/>
<path d="M31.5576 46.0155C30.3879 45.0459 28.6922 44.9017 27.1484 45.0505C25.3506 45.2257 23.5361 45.8197 22.4056 46.3154C22.3018 46.3609 22.2139 46.4342 22.1522 46.5265C22.0905 46.6189 22.0576 46.7264 22.0576 46.8362V59.4278C22.0576 59.5236 22.0826 59.6178 22.1302 59.7019C22.1778 59.7859 22.2465 59.8571 22.33 59.9089C22.4136 59.9608 22.5093 59.9916 22.6084 59.9985C22.7074 60.0054 22.8067 59.9883 22.8972 59.9486C23.9446 59.4908 25.632 58.9402 27.2672 58.7811C28.9404 58.6185 30.3428 58.8807 31.0945 59.785C31.1501 59.8518 31.2206 59.9058 31.3008 59.9428C31.3809 59.9799 31.4687 59.9991 31.5576 59.9991C31.6465 59.9991 31.7343 59.9799 31.8145 59.9428C31.8946 59.9058 31.9651 59.8518 32.0207 59.785C32.7724 58.8807 34.1749 58.6185 35.8469 58.7811C37.4832 58.9402 39.1719 59.4908 40.2181 59.9486C40.3085 59.9883 40.4078 60.0054 40.5069 59.9985C40.606 59.9916 40.7017 59.9608 40.7852 59.9089C40.8687 59.8571 40.9374 59.7859 40.985 59.7019C41.0326 59.6178 41.0576 59.5236 41.0576 59.4278V46.8362C41.0576 46.7264 41.0248 46.6189 40.9631 46.5265C40.9014 46.4342 40.8134 46.3609 40.7097 46.3154C39.5792 45.8197 37.7647 45.2257 35.9668 45.0505C34.4231 44.9006 32.7273 45.0459 31.5576 46.0155Z" fill="#BA7C69"/>
<path d="M28.2036 48.0327C27.0578 48.1355 25.8794 48.4663 25.0576 48.7731V57C25.9091 56.7098 27.0141 56.4271 28.1098 56.3276C29.1248 56.2364 29.1894 56.2969 30.0576 56.7364V48.6562C29.4503 48.0849 29.4386 47.9216 28.2036 48.0327Z" fill="#F5D8B9"/>
<path d="M34.9116 48.0327C33.6766 47.9216 33.6649 48.0849 33.0576 48.6562V56.7364C33.9258 56.2961 33.9895 56.2364 35.0054 56.3284C36.1011 56.4263 37.2052 56.7098 38.0576 57V48.7731C37.2358 48.4663 36.0575 48.1355 34.9116 48.0327Z" fill="#F5D8B9"/>
</svg>
