<svg width="233" height="171" viewBox="0 0 233 171" fill="none" xmlns="http://www.w3.org/2000/svg">
<path d="M199.025 141.032C196.367 141.676 193.906 143.286 191.477 145.03C188.918 146.855 188.458 147.794 185.21 149.726C180.681 152.41 176.907 153.322 176.021 153.537C173.363 154.154 171.132 154.315 169.622 154.422C168.671 154.476 167.785 154.503 166.997 154.529C165.225 154.556 163.945 154.449 163.584 154.449C154.166 153.885 140.121 153.054 131.327 156.81C130.572 157.132 128.8 157.964 126.044 159.011C123.221 160.084 120.366 161.157 118.791 161.479C106.879 163.787 103.499 159.977 88.9293 162.284C81.874 163.411 76.4595 164.968 76.4595 164.968C72.095 166.229 71.0449 166.9 67.2711 167.92C65.8929 168.295 60.183 169.798 53.8168 170.066C45.8755 170.415 39.739 168.751 33.7994 167.115C26.6785 165.156 22.9047 163.197 15.7509 162.284C12.3381 161.855 8.85971 161.748 8.85971 161.748C5.08594 161.64 2.00129 161.828 -0.000450671 162.016V34.2321C10.1395 34.0443 18.6387 34.6346 24.9393 35.3055C31.9618 36.0568 38.2951 36.7545 46.2693 39.0623C51.8151 40.6723 55.8842 42.3897 59.3954 43.8924C66.582 46.9515 68.0259 48.2932 77.4439 53.016C86.6979 57.6583 91.292 59.966 96.1487 61.3346C105.534 63.9643 113.902 64.018 115.838 64.018C122.795 63.9911 125.026 62.9446 133.558 63.213C137.332 63.3203 140.876 63.4276 145.372 64.2863C148.883 64.9572 159.679 67.1307 168.014 74.2149C170.837 76.63 171.263 77.7839 174.906 80.3868C179.959 83.9825 184.389 85.4316 185.407 85.7536C188.491 86.7196 191.182 87.1221 192.954 87.3636C196.465 87.8467 199.025 87.8735 200.174 87.9003C207.721 88.115 214.612 91.1741 216.253 91.9254C223.965 95.3602 233.35 103.786 232.989 114.734C232.694 123.617 226.098 130.325 221.175 133.518C216.122 136.792 211.331 138.08 211.331 138.08L210.346 138.322C206.54 139.234 202.766 140.119 199.025 141.032Z" fill="#FFE8CF"/>
<path d="M132.538 47.7169L131.665 52.2186L135.813 51.5549L136.031 51.52L136.203 51.6576C138.429 53.4305 141.14 54.6715 144.148 55.0475L144.148 55.0475C152.844 56.1393 160.789 50.0035 161.919 41.2674C163.01 32.5714 156.836 24.628 148.14 23.5363C139.443 22.4446 131.499 28.6188 130.408 37.3154C129.955 40.9713 130.747 44.4706 132.477 47.3652L132.575 47.5293L132.538 47.7169Z" fill="#FFE8CF" stroke="#201A1A"/>
<path d="M129.721 39.9349C129.72 39.8953 129.718 39.8556 129.717 39.8158C129.679 39.0334 129.714 38.2152 129.819 37.3957C129.824 37.361 129.828 37.3263 129.833 37.2916C129.871 37.0844 129.906 36.8727 129.942 36.658C130.047 36.0274 130.157 35.3716 130.341 34.7329L130.454 34.7675L130.342 34.7285C130.353 34.6896 130.365 34.6508 130.377 34.6121C130.87 32.8656 131.698 31.0448 132.932 29.4039C132.933 29.4033 132.933 29.4027 132.934 29.4021C132.961 29.3653 132.989 29.3286 133.017 29.292L129.721 39.9349ZM129.721 39.9349L129.794 39.9323L129.721 39.9358C129.818 42.214 130.377 44.1553 131.073 45.7338" fill="#201A1A" stroke="#201A1A"/>
<path d="M151.19 39.7787C151.19 38.8467 151.927 38.1089 152.859 38.1089C153.791 38.1089 154.529 38.8467 154.529 39.7787C154.529 40.7107 153.791 41.4485 152.859 41.4485C151.927 41.4485 151.19 40.6719 151.19 39.7787Z" fill="#201A1A"/>
<path d="M144.507 39.7787C144.507 38.8467 145.245 38.1089 146.177 38.1089C147.109 38.1089 147.847 38.8467 147.847 39.7787C147.847 40.7107 147.109 41.4485 146.177 41.4485C145.245 41.4485 144.507 40.6719 144.507 39.7787Z" fill="#201A1A"/>
<path d="M137.873 40.5941C137.407 39.7786 137.679 38.7689 138.494 38.303C139.31 37.837 140.319 38.1088 140.785 38.9243C141.251 39.7398 140.98 40.7494 140.164 41.2154C139.349 41.6814 138.339 41.4096 137.873 40.5941Z" fill="#201A1A"/>
<mask id="mask0_730_3" style="mask-type:alpha" maskUnits="userSpaceOnUse" x="0" y="0" width="234" height="171">
<path d="M199.027 141.031C196.369 141.675 193.908 143.285 191.479 145.03C188.92 146.854 188.46 147.793 185.212 149.726C180.683 152.409 176.909 153.321 176.023 153.536C173.365 154.153 171.134 154.314 169.624 154.422C168.673 154.475 167.787 154.502 166.999 154.529C165.227 154.556 163.947 154.448 163.586 154.448C154.168 153.885 140.123 153.053 131.329 156.81C130.574 157.132 128.802 157.964 126.045 159.01C123.223 160.084 120.368 161.157 118.793 161.479C106.881 163.787 103.501 159.976 88.9313 162.284C81.8759 163.411 76.4614 164.967 76.4614 164.967C72.097 166.229 71.0469 166.899 67.2731 167.919C65.8949 168.295 60.1849 169.797 53.8188 170.066C45.8774 170.415 39.7409 168.751 33.8014 167.114C26.6804 165.155 22.9066 163.196 15.7529 162.284C12.3401 161.855 8.86166 161.747 8.86166 161.747C5.08789 161.64 2.00324 161.828 0.00150275 162.016V34.2316C10.1415 34.0437 18.6406 34.6341 24.9412 35.3049C31.9637 36.0563 38.2971 36.754 46.2712 39.0617C51.817 40.6717 59.3974 43.8918 59.3974 43.8918C59.3974 43.8918 47.3004 13.7806 59.3974 3.90623C69.2717 -4.15387 87.1796 2.53769 92.0363 3.90623C101.422 6.53598 130.287 27.4004 125.239 48.3703C130.87 56.5253 125.028 62.9441 133.56 63.2124C137.334 63.3197 140.878 63.4271 145.374 64.2858C148.885 64.9566 159.681 67.1302 168.016 74.2144C170.839 76.6295 177.322 69.8442 180.964 72.4471C186.018 76.0429 184.391 85.4311 185.409 85.7531C188.493 86.7191 191.184 87.1216 192.956 87.3631C196.467 87.8461 199.027 87.873 200.175 87.8998C207.723 88.1145 214.614 91.1736 216.255 91.9249C223.967 95.3597 233.352 103.786 232.991 114.734C232.696 123.616 226.1 130.324 221.177 133.518C216.124 136.791 211.333 138.08 211.333 138.08L210.348 138.321C206.542 139.233 202.768 140.119 199.027 141.031Z" fill="#201A1A"/>
</mask>
<g mask="url(#mask0_730_3)">
<path d="M164.655 110.704C164.655 110.704 155.036 133.79 152.99 139.233C152.99 139.233 138.991 136.941 138.541 129.164L154.422 105.301L164.655 110.704Z" fill="#F8B4A0"/>
<path d="M175.832 93.4299C176.528 90.2782 184.469 82.0919 182.422 80.864C179.803 79.2676 174.072 90.1554 173.499 91.1377C172.926 92.0792 171.575 91.2605 172.108 90.4419C172.926 89.2549 180.703 77.5485 177.92 76.1978C176.405 75.461 175.014 78.2034 175.014 78.2034C175.014 78.2034 168.096 90.1144 166.827 89.4186C165.518 88.7228 169.815 82.1328 171.207 79.5951C172.517 77.1392 171.944 75.0926 170.511 75.7475C168.383 76.689 165.395 83.0742 164.003 85.5301C162.652 87.9451 158.559 94.8625 157.659 90.0326C156.758 85.2027 154.302 81.8054 153.034 81.3142C151.765 80.864 150.7 82.5012 151.56 83.7701C152.256 84.7934 152.911 86.8399 153.32 88.3953C153.688 89.6642 153.688 91.0149 153.729 92.3657C153.77 93.3071 153.688 95.149 153.034 97.4002C152.215 100.02 152.952 103.008 154.384 105.341L149.882 115.287L160.237 120.936L164.617 110.744C167.319 108.042 170.388 105.668 172.108 103.908C176.569 99.2831 173.049 102.721 180.621 94.2485C182.709 91.9154 185.001 89.3368 184.346 88.1088C184.264 87.9042 184.06 87.8223 183.896 87.6995C182.218 86.799 175.177 96.4588 175.832 93.4299Z" fill="#F8B4A0"/>
<path d="M169.65 101.249C169.609 101.29 168.914 100.84 167.645 100.553C166.376 100.267 164.452 100.226 162.61 101.044C162.119 101.249 161.669 101.535 161.219 101.822L161.014 101.945L160.932 101.699C160.523 100.144 159.827 98.8749 159.254 98.0563C158.681 97.2376 158.271 96.7874 158.312 96.7464C158.353 96.7055 158.804 97.1148 159.458 97.9335C160.072 98.7521 160.85 99.98 161.3 101.617L161.014 101.535C161.464 101.208 161.914 100.921 162.446 100.717C163.429 100.307 164.411 100.103 165.312 100.062C166.212 100.021 167.031 100.144 167.686 100.348C168.341 100.512 168.832 100.799 169.159 100.962C169.487 101.126 169.65 101.249 169.65 101.249Z" fill="#201A1A"/>
<path d="M163.96 109.843C163.96 109.925 162.282 109.597 160.399 108.656C158.516 107.714 157.288 106.527 157.329 106.487C157.411 106.405 158.721 107.428 160.563 108.369C162.364 109.27 163.96 109.72 163.96 109.843Z" fill="#201A1A"/>
<path d="M50.4989 82.9111L68.7134 79.1454L73.1749 75.7891L97.2016 80.4143C97.57 81.1101 101.499 86.554 101.499 86.554L110.955 89.7876C115.007 90.8927 118.609 93.144 121.228 96.3366C123.234 98.7925 125.444 102.149 127.368 106.61C131.625 116.598 137.765 128.14 137.765 128.14L141.612 121.919L157.862 129.573C157.862 129.573 148.366 148.729 145.214 151.471C141.735 154.5 133.672 154.869 128.105 149.179C124.748 145.741 115.048 132.233 113.042 128.836L110.054 142.998L107.312 159.166L111.773 170.3H46.7332L49.4347 159.78C49.4347 159.78 46.7741 132.397 46.0374 127.281C44.3183 115.247 50.4989 82.9111 50.4989 82.9111Z" fill="#A83F3F"/>
<path d="M50.4976 82.9121C50.4976 82.9121 37.4814 86.555 34.6162 99.4893C32.8971 107.348 27.0029 129.656 24.9154 148.075C23.6875 159.004 23.7284 169.114 23.6875 170.26H43.662L52.1348 86.555L50.4976 82.9121Z" fill="#A83F3F"/>
<path d="M83.8984 94.0453C83.8984 94.0453 83.8984 94.0862 83.9394 94.1681C83.9803 94.2499 84.0622 94.4136 84.144 94.5364C84.3078 94.8639 84.5533 95.3551 84.7989 95.969C85.372 97.197 86.0678 99.0389 87.132 101.045L87.1729 101.167L87.2548 101.085C88.6055 99.9394 90.0791 98.5477 91.5935 97.0742C94.2541 94.4137 96.6281 91.9168 98.3472 90.1977C99.2068 89.3382 99.9026 88.6423 100.394 88.1102C100.639 87.8646 100.803 87.7009 100.967 87.5372C101.09 87.4144 101.171 87.3325 101.171 87.3325C101.171 87.3325 101.09 87.3734 100.967 87.4962C100.803 87.619 100.598 87.8237 100.394 88.0284C99.9026 88.4786 99.1659 89.1744 98.2654 90.0749C96.5053 91.794 94.1313 94.2499 91.4707 96.9105C89.9563 98.384 88.4828 99.7757 87.1729 100.963L87.3367 101.004C86.2315 98.998 85.5357 97.197 84.9217 95.969C84.6352 95.3551 84.3896 94.8639 84.185 94.5364C84.1031 94.3727 84.0212 94.2909 83.9803 94.1681C83.9394 94.0862 83.8984 94.0453 83.8984 94.0453Z" fill="#201A1A"/>
<path d="M68.4668 79.6372C68.4668 79.6372 68.4668 79.7191 68.5077 79.9237C68.5487 80.1284 68.5896 80.4149 68.6715 80.7424C68.8352 81.4382 69.0808 82.4615 69.4082 83.6894C70.1041 86.1862 71.2501 89.5426 72.6827 93.1855C73.4195 95.1093 74.1563 96.9512 74.8521 98.5884L74.893 98.7112L74.9749 98.6294C76.8168 96.9921 78.495 95.7232 79.6001 94.7409C80.1732 94.2497 80.6234 93.8813 80.9099 93.5948C81.0327 93.472 81.1555 93.3492 81.2374 93.2674C81.3193 93.1855 81.3602 93.1446 81.3602 93.1446C81.3602 93.1446 81.3193 93.1855 81.2374 93.2264C81.1555 93.3083 81.0327 93.3902 80.869 93.5129C80.5416 93.7995 80.0913 94.1269 79.5183 94.6181C78.3722 95.5595 76.694 96.8284 74.8112 98.4657L74.9749 98.5066C74.2791 96.8693 73.5832 95.0274 72.8055 93.1036C71.4139 89.4607 70.2268 86.1044 69.4901 83.6076C69.1217 82.3796 68.8352 81.3563 68.6715 80.6605C68.5896 80.333 68.5487 80.0465 68.4668 79.8419C68.4668 79.7191 68.4668 79.6372 68.4668 79.6372Z" fill="#201A1A"/>
<path d="M110.546 141.198C110.546 141.198 110.546 141.157 110.587 141.116C110.628 141.034 110.628 140.952 110.669 140.83C110.751 140.584 110.832 140.216 110.996 139.765C111.119 139.315 111.283 138.701 111.446 138.046C111.61 137.391 111.774 136.614 111.978 135.754C112.715 132.357 113.452 127.609 113.902 122.288C114.353 117.007 114.475 112.178 114.434 108.698C114.434 106.979 114.393 105.547 114.353 104.564C114.312 104.073 114.312 103.705 114.312 103.459C114.312 103.336 114.312 103.255 114.312 103.173C114.312 103.091 114.312 103.091 114.312 103.091C114.312 103.091 114.312 103.132 114.312 103.173C114.312 103.255 114.312 103.336 114.312 103.459C114.312 103.746 114.312 104.114 114.312 104.564C114.353 105.547 114.353 106.938 114.353 108.698C114.353 112.178 114.23 116.967 113.739 122.247C113.288 127.527 112.592 132.275 111.897 135.672C111.733 136.532 111.569 137.309 111.405 137.964C111.242 138.619 111.119 139.233 110.996 139.683C110.873 140.134 110.791 140.502 110.71 140.789C110.669 140.911 110.669 140.993 110.628 141.075C110.546 141.157 110.546 141.198 110.546 141.198Z" fill="#201A1A"/>
<path d="M49.4332 97.2778C49.4332 97.2778 49.3923 97.3188 49.3923 97.4006C49.3514 97.4825 49.3104 97.6053 49.2286 97.7281C49.1058 98.0555 48.9011 98.4648 48.6965 99.0379C48.5737 99.3244 48.4509 99.6518 48.3281 99.9793C48.2053 100.348 48.0825 100.716 47.9188 101.125C47.796 101.535 47.6322 101.985 47.4685 102.435C47.3457 102.926 47.182 103.418 47.0592 103.95C45.8313 108.166 45.2173 114.264 45.5857 120.936C45.954 127.608 46.7317 133.625 47.2229 137.964C47.4685 140.133 47.6732 141.893 47.8369 143.121C47.9188 143.735 47.9597 144.185 48.0006 144.513C48.0416 144.676 48.0416 144.799 48.0416 144.881C48.0416 144.963 48.0825 145.004 48.0825 145.004C48.0825 145.004 48.0825 144.963 48.0825 144.881C48.0825 144.799 48.0825 144.676 48.0416 144.513C48.0006 144.185 47.9597 143.694 47.9188 143.121C47.796 141.893 47.6322 140.133 47.3866 137.964C46.9364 133.625 46.1996 127.608 45.8313 120.977C45.4629 114.305 46.0768 108.247 47.2639 104.032C47.3866 103.499 47.5504 103.008 47.6732 102.517C47.8369 102.067 47.9597 101.617 48.0825 101.207C48.2053 100.798 48.3281 100.43 48.4509 100.061C48.5737 99.6928 48.6965 99.4063 48.8192 99.1197C49.0239 98.5467 49.1876 98.1374 49.3104 97.8099C49.3514 97.6871 49.3923 97.5644 49.4332 97.4825C49.4332 97.3188 49.4332 97.2778 49.4332 97.2778Z" fill="#201A1A"/>
<path d="M137.682 142.058C137.723 142.058 137.805 138.947 137.846 135.099C137.887 131.252 137.846 128.141 137.805 128.141C137.764 128.141 137.682 131.252 137.641 135.099C137.6 138.947 137.6 142.058 137.682 142.058Z" fill="#201A1A"/>
<path d="M78.6178 160.968C78.6178 160.968 78.6178 160.927 78.6178 160.804C78.6178 160.682 78.5768 160.518 78.5768 160.313C78.5359 159.863 78.454 159.208 78.3312 158.389C78.2903 157.98 78.2084 157.53 78.1675 156.998C78.1266 156.507 78.0447 155.934 78.0038 155.361C77.881 154.174 77.7173 152.823 77.5945 151.349C77.5126 150.613 77.4717 149.835 77.3898 149.016C77.3079 148.198 77.3079 147.338 77.2261 146.478C77.1033 144.718 77.0624 142.836 76.9805 140.871C76.8986 136.901 76.8986 132.562 77.1033 127.977C77.3489 123.393 77.7173 119.054 78.1675 115.125C78.4131 113.16 78.6587 111.277 78.9452 109.558C79.068 108.699 79.1908 107.839 79.3545 107.021C79.5182 106.202 79.641 105.424 79.7638 104.687C80.0094 103.214 80.2959 101.863 80.5415 100.717C80.6643 100.144 80.7871 99.5711 80.869 99.0799C80.9918 98.5887 81.0736 98.1385 81.1555 97.7292C81.3192 96.9105 81.483 96.2966 81.5648 95.8463C81.442 96.2966 81.3192 96.9105 81.1146 97.7292C81.0327 98.1385 80.9099 98.5887 80.7871 99.0799C80.6643 99.5711 80.5825 100.103 80.4597 100.717C80.2141 101.904 79.9276 103.214 79.641 104.687C79.5182 105.424 79.3545 106.202 79.2317 107.021C79.068 107.839 78.9452 108.658 78.8224 109.558C78.5359 111.318 78.2903 113.16 78.0447 115.125C77.5535 119.054 77.1852 123.434 76.9396 128.018C76.7349 132.603 76.7349 136.982 76.8168 140.953C76.8986 142.917 76.9396 144.841 77.0624 146.601C77.1033 147.502 77.1442 148.32 77.2261 149.139C77.3079 149.958 77.3489 150.735 77.4307 151.472C77.5535 152.987 77.7173 154.337 77.8401 155.483C77.9219 156.056 77.9628 156.629 78.0447 157.121C78.1266 157.612 78.1675 158.103 78.2494 158.512C78.3722 159.331 78.454 159.986 78.5359 160.436C78.5768 160.641 78.5768 160.804 78.6178 160.927C78.5768 160.886 78.6178 160.968 78.6178 160.968Z" fill="#201A1A"/>
<path d="M69.9397 116.762C69.9397 116.762 69.8988 116.762 69.8579 116.762C69.776 116.762 69.6942 116.762 69.6123 116.721C69.3667 116.68 69.0392 116.639 68.589 116.598C67.6885 116.516 66.3787 116.353 64.7415 116.189C61.426 115.861 56.7189 115.37 51.0704 114.756H50.9885V114.838C50.8657 118.972 50.7429 123.638 50.6201 128.591V128.632L50.661 128.673C51.1932 129.246 51.7253 129.819 52.2983 130.433C54.3449 132.643 56.3505 134.772 58.2743 136.818L58.3152 136.859L58.3971 136.818C62.04 135.017 65.4373 133.298 68.4662 131.825L68.5071 131.784V131.743C68.9574 127.159 69.3258 123.393 69.5714 120.773C69.6941 119.463 69.776 118.44 69.8579 117.744C69.8988 117.417 69.8988 117.13 69.9397 116.967C69.9397 116.844 69.9397 116.762 69.9397 116.762C69.9397 116.762 69.9397 116.844 69.8988 117.049C69.8579 117.253 69.8579 117.499 69.8169 117.867C69.7351 118.563 69.6123 119.627 69.4895 120.937C69.203 123.557 68.8346 127.322 68.3434 131.866L68.3843 131.784C65.3964 133.257 61.9581 134.936 58.3152 136.737L58.438 136.777C56.5552 134.731 54.5495 132.602 52.462 130.392C51.889 129.778 51.3569 129.205 50.8248 128.632L50.8657 128.714C50.9885 123.761 51.1113 119.095 51.1932 114.961L51.0704 115.043C56.678 115.575 61.3441 116.025 64.6596 116.353C66.2968 116.516 67.6066 116.639 68.5071 116.721C68.9574 116.762 69.2848 116.803 69.5304 116.803C69.6532 116.803 69.7351 116.803 69.8169 116.844C69.9397 116.762 69.9397 116.762 69.9397 116.762Z" fill="#201A1A"/>
<path d="M50.9902 119.668C50.9902 119.668 51.2358 119.75 51.6861 119.791C52.1363 119.873 52.7912 119.955 53.6508 120.078C55.288 120.282 57.5802 120.528 60.077 120.773C62.5738 121.019 64.825 121.224 66.5442 121.387C67.3219 121.469 68.0177 121.551 68.5089 121.592C68.9591 121.633 69.2456 121.674 69.2456 121.633C69.2456 121.633 69 121.551 68.5498 121.51C68.0996 121.428 67.4447 121.347 66.5851 121.224C64.9478 121.019 62.6557 120.773 60.1589 120.528C57.6621 120.282 55.4108 120.078 53.7326 119.914C52.9549 119.832 52.2591 119.75 51.7679 119.709C51.2768 119.668 50.9902 119.627 50.9902 119.668Z" fill="#201A1A"/>
<g opacity="0.3">
<path d="M47.0599 135.753C46.8143 138.537 46.6096 141.32 46.364 144.103C44.8496 136.94 42.4756 129.245 42.8439 121.918C43.2123 114.633 43.9082 107.633 48.0013 101.002C48.0013 101.002 45.218 108.002 45.5864 116.556C45.9547 125.111 47.0599 135.753 47.0599 135.753Z" fill="#201A1A"/>
</g>
<path d="M140.383 120.199C140.67 119.708 140.956 119.217 141.488 119.053C142.061 118.849 142.675 119.135 143.207 119.422C148.16 121.877 153.113 124.333 158.065 126.83C159.048 127.321 160.112 127.894 160.48 128.918C160.972 130.227 160.071 131.619 159.252 132.724C157.902 134.607 156.265 136.654 153.931 136.899L141.161 128.14C139.605 127.894 138.623 126.175 138.705 124.579C138.787 122.983 139.605 121.55 140.383 120.199Z" fill="#A83F3F"/>
<path d="M138.786 125.562C138.786 125.562 138.827 125.603 138.909 125.726C139.032 125.848 139.155 125.971 139.318 126.094C139.687 126.422 140.178 126.872 140.833 127.445C142.143 128.55 143.984 130.064 146.154 131.579C148.282 133.093 150.329 134.362 151.802 135.181C152.539 135.59 153.153 135.959 153.562 136.163C153.767 136.245 153.931 136.327 154.054 136.409C154.176 136.45 154.217 136.491 154.217 136.491C154.217 136.491 154.176 136.45 154.054 136.368C153.931 136.286 153.767 136.204 153.562 136.081C153.112 135.836 152.539 135.467 151.802 135.058C150.329 134.158 148.323 132.889 146.195 131.374C144.066 129.86 142.183 128.386 140.874 127.322C140.219 126.79 139.687 126.34 139.318 126.012C139.155 125.889 138.991 125.767 138.909 125.644C138.827 125.562 138.786 125.521 138.786 125.562Z" fill="#201A1A"/>
<g opacity="0.3">
<path d="M68.6321 80.5791C70.3921 86.3914 72.848 92.9404 74.8946 98.5889C76.6546 97.0745 79.1105 95.1097 80.8705 93.6362C79.3561 96.6651 77.5142 99.4894 75.4267 102.15C75.1811 102.436 74.8536 102.805 74.4852 102.723C74.1169 102.641 73.9531 102.273 73.7894 101.904C72.7252 99.0801 71.62 96.2149 70.5558 93.3906C69.0823 89.3384 67.6497 84.7132 68.6321 80.5791Z" fill="#201A1A"/>
</g>
<path d="M96.2574 17.4213C90.9363 15.9069 85.9427 17.4213 81.0309 19.9591C76.1192 22.4968 72.1488 26.7128 69.6111 31.5836C66.9096 36.741 65.7226 42.7579 66.7049 48.4883C67.6873 54.2187 70.9209 59.6216 75.7917 62.8143C82.4226 67.1939 91.5503 66.9483 98.3858 62.8961C105.221 58.8439 109.724 51.3944 110.911 43.5356C111.729 38.1326 111.075 32.4022 108.537 27.5723C106.04 22.7424 101.578 18.813 96.2574 17.4213Z" fill="#875849"/>
<path d="M78.7789 34.0809C79.8022 32.1162 79.7613 29.7421 80.3343 27.6137C81.5623 22.8657 85.901 19.4274 90.6081 18.0358C94.9878 16.7669 100.063 17.7083 104.934 19.9186C108.25 21.4331 111.319 23.7662 113.284 26.836C115.904 30.9291 116.395 36.2912 114.512 40.7936L90.1988 34.4083C87.6611 36.0456 85.0824 37.7238 82.1353 38.5015C81.2757 38.7061 80.3753 38.8698 79.5157 38.6243C78.6561 38.3787 77.8784 37.6828 77.7557 36.8233C77.6738 35.8 78.3696 34.9404 78.7789 34.0809Z" fill="#875849"/>
<path d="M73.0117 77.1815L79.2742 33.0574C79.5607 30.9699 80.5022 28.8415 82.5897 28.9234L104.693 26.7949C111.61 27.1224 114.885 36.2091 114.271 43.0856C113.575 50.7398 112.47 60.1131 110.71 65.6388C107.148 76.7722 98.1845 76.895 98.1845 76.895C98.1845 76.854 97.6524 79.1052 96.9566 83.2393L82.6306 92.7763L73.0117 77.1815Z" fill="#F8B4A0"/>
<path d="M108.907 51.5178C108.825 52.2955 108.088 52.8685 107.27 52.7866C106.451 52.7048 105.878 52.0089 105.96 51.2313C106.042 50.4536 106.779 49.8805 107.597 49.9624C108.416 50.0442 109.03 50.7401 108.907 51.5178Z" fill="#201A1A"/>
<path d="M111.482 47.6237C111.277 47.7874 110.295 46.8051 108.699 46.5595C107.143 46.3139 105.833 46.9279 105.711 46.7232C105.629 46.6414 105.874 46.3139 106.447 46.0274C106.98 45.7409 107.88 45.4953 108.862 45.659C109.845 45.8227 110.622 46.3139 111.032 46.7232C111.482 47.1735 111.605 47.5418 111.482 47.6237Z" fill="#201A1A"/>
<path d="M94.3972 49.134C94.3154 49.9117 93.5786 50.4847 92.76 50.4029C91.9413 50.321 91.3683 49.6252 91.4502 48.8475C91.532 48.0698 92.2688 47.4967 93.0874 47.5786C93.906 47.6605 94.4791 48.3563 94.3972 49.134Z" fill="#201A1A"/>
<path d="M96.525 45.5466C96.3203 45.7103 95.3379 44.7279 93.7416 44.4823C92.1862 44.2368 90.8764 44.8507 90.7536 44.6461C90.6718 44.5642 90.9174 44.2368 91.4904 43.9502C92.0225 43.6637 92.923 43.4181 93.9053 43.5819C94.8877 43.7456 95.6654 44.2368 96.0747 44.6461C96.525 45.0963 96.6068 45.4647 96.525 45.5466Z" fill="#201A1A"/>
<path d="M99.9514 58.1065C99.9514 58.0247 100.975 57.9837 102.571 58.0247C102.98 58.0247 103.39 58.0247 103.471 57.7791C103.594 57.4925 103.512 57.0423 103.39 56.5511C103.144 55.5278 102.939 54.4227 102.653 53.3175C101.671 48.6923 101.016 44.9675 101.22 44.9266C101.425 44.8857 102.366 48.6104 103.349 53.1947C103.594 54.3408 103.799 55.405 104.004 56.4283C104.085 56.9195 104.249 57.4516 103.963 58.0247C103.799 58.3112 103.471 58.4749 103.226 58.5158C102.939 58.5568 102.735 58.5158 102.53 58.5158C100.934 58.3521 99.9104 58.1884 99.9514 58.1065Z" fill="#201A1A"/>
<path d="M98.1866 76.898C98.1866 76.898 90.4506 76.2022 83.5332 70.5127C83.5332 70.5127 87.0942 79.4357 97.4499 80.3362L98.1866 76.898Z" fill="#BA7C69"/>
<path d="M98.675 61.7871C98.2247 60.9685 97.2833 60.3954 96.301 60.3545C95.6051 60.3136 94.8684 60.5592 94.3772 61.0503C93.886 61.5415 93.6814 62.3192 93.9679 62.8922C94.2953 63.5472 95.1549 63.8337 95.9326 63.7109C96.7103 63.629 97.447 63.2197 98.1429 62.8104C98.3475 62.6876 98.5113 62.5648 98.675 62.4011C98.7978 62.2373 98.8796 61.9918 98.7568 61.828" fill="#BA7C69"/>
<path d="M95.1255 58.4722C95.371 58.5131 95.1255 60.1913 96.3943 61.6239C97.6632 63.0565 99.5051 63.1383 99.5051 63.3839C99.5051 63.5067 99.0549 63.6705 98.2772 63.5477C97.4995 63.4658 96.4762 63.0565 95.6576 62.156C94.8799 61.2964 94.6343 60.2322 94.7161 59.5364C94.7571 58.8405 95.0436 58.4722 95.1255 58.4722Z" fill="#201A1A"/>
<path d="M96.9808 40.8334C96.7761 41.2428 95.2207 40.7925 93.3379 40.7516C91.455 40.6697 89.8996 40.9562 89.695 40.5469C89.6131 40.3423 89.9406 39.9739 90.5955 39.6464C91.2504 39.319 92.2737 39.0734 93.3788 39.1143C94.5249 39.1553 95.5072 39.4827 96.1212 39.8511C96.7761 40.2604 97.0626 40.6697 96.9808 40.8334Z" fill="#201A1A"/>
<path d="M112.088 40.6643C111.76 40.9918 110.737 40.4597 109.427 40.2141C108.117 39.9685 106.971 40.0913 106.807 39.682C106.726 39.4773 106.971 39.1499 107.503 38.9043C108.035 38.6587 108.854 38.495 109.754 38.6587C110.655 38.8224 111.392 39.2726 111.76 39.682C112.129 40.1322 112.251 40.5415 112.088 40.6643Z" fill="#201A1A"/>
<path d="M75.2226 30.3154C78.2106 24.0119 88.9756 16.1531 95.8111 17.5448L105.962 25.6492C104.775 29.333 101.46 32.1982 97.6531 32.8122C95.6065 33.1396 93.2734 32.9759 91.8817 34.5313C90.4491 36.0867 90.8175 38.6654 89.5077 40.3026C87.6658 42.5539 83.4908 41.858 81.9763 44.3548C81.3214 45.46 81.4033 46.8516 80.7075 47.9568C79.807 49.3894 75.6729 50.822 74.1584 50.0852C72.644 49.3485 72.9714 46.647 72.644 45.1325C72.0709 42.5539 72.603 41.3668 73.0942 40.0161C74.2403 36.8644 73.79 33.3034 75.2226 30.3154Z" fill="#875849"/>
<path d="M78.6992 52.0509C78.822 51.1914 78.167 49.0629 77.3484 48.7764C75.1791 48.0806 71.0859 47.6303 70.1854 53.3198C68.9575 61.0968 76.98 60.7284 77.0619 60.5237C77.1028 60.36 78.2489 54.957 78.6992 52.0509Z" fill="#F8B4A0"/>
<path d="M75.1392 57.2072C75.0983 57.1663 74.9755 57.2891 74.7299 57.33C74.4843 57.4119 74.116 57.4119 73.7066 57.2072C72.929 56.757 72.4378 55.3653 72.6424 53.9736C72.7243 53.2778 73.0108 52.6229 73.3383 52.0908C73.6657 51.5587 74.116 51.2312 74.5253 51.2312C74.9346 51.1903 75.2211 51.4768 75.262 51.7224C75.3439 51.968 75.262 52.0908 75.303 52.1317C75.303 52.1727 75.5076 52.0089 75.4667 51.6815C75.4667 51.5178 75.3848 51.3131 75.2211 51.1494C75.0574 50.9856 74.8118 50.8629 74.4843 50.8219C73.8704 50.781 73.2564 51.2312 72.888 51.8043C72.4787 52.3773 72.1922 53.1141 72.0694 53.8918C71.8647 55.4472 72.4378 57.0435 73.502 57.5756C74.0341 57.8212 74.5253 57.6984 74.7709 57.5756C75.0983 57.3709 75.1802 57.2072 75.1392 57.2072Z" fill="#BA7C69"/>
<path d="M103.995 22.9884C104.363 26.2629 108.702 30.8881 110.544 33.5896C114.064 38.7469 114.678 40.4251 113.45 50.9854C115.783 47.5472 117.625 44.1499 117.953 40.0158C118.28 35.8817 117.216 31.5839 114.719 28.3094C112.181 25.0349 108.129 22.8656 103.995 22.9884Z" fill="#875849"/>
<path d="M85.4135 11.8957C83.7763 10.0947 81.4023 8.90771 78.9464 8.29374C75.4263 7.43418 71.6197 7.63884 68.427 9.19423C65.2344 10.7087 62.7785 13.5739 62.1236 16.8484C61.4687 20.1229 62.7375 23.7658 65.5209 25.9352C63.7608 27.6543 61.5096 29.005 59.0537 29.7418C59.7086 30.7241 60.9366 31.3381 62.1645 31.5428C63.3924 31.7474 64.6613 31.6246 65.8893 31.5018C65.0706 32.7298 63.8018 33.6712 62.3282 34.1215C64.3339 34.6536 66.4623 34.4898 68.427 33.9168C70.3917 33.3847 72.1927 32.4433 73.9527 31.4609C79.9287 27.9817 83.2442 24.9528 87.2964 19.5908C87.8285 17.2577 87.0917 13.6967 85.4135 11.8957Z" fill="#875849"/>
<path d="M72.5195 28.3081C76.8992 21.8818 82.5068 18.4436 87.5823 17.3794Z" fill="#875849"/>
<path d="M87.5832 17.3794C87.5832 17.3794 87.3376 17.4613 86.8464 17.5841C86.3962 17.7068 85.7003 17.9115 84.9226 18.239C83.3263 18.8529 81.1979 19.9171 79.0694 21.5135C76.9819 23.1098 75.3447 24.8289 74.2395 26.1387C73.7074 26.7936 73.2572 27.3667 72.9707 27.735C72.6841 28.1034 72.5204 28.3081 72.4795 28.3081C72.4795 28.3081 72.6023 28.0625 72.8888 27.6532C73.1344 27.2439 73.5846 26.6708 74.1167 26.0159C75.181 24.6652 76.8182 22.9051 78.9467 21.3088C81.0751 19.7125 83.2445 18.6483 84.8817 18.0752C85.7003 17.7887 86.3962 17.625 86.8464 17.5022C87.2967 17.4203 87.5832 17.3794 87.5832 17.3794Z" fill="#64392C"/>
<path d="M67.2812 33.7937C67.2812 33.7937 67.3222 33.7937 67.3631 33.8346C67.445 33.8756 67.5268 33.9165 67.6496 33.9574C67.8952 34.0802 68.2636 34.203 68.7548 34.3668C69.7371 34.6942 71.1697 35.0626 72.9707 35.2263C74.7717 35.39 76.982 35.3082 79.3151 34.817C81.6891 34.3668 84.2268 33.5481 86.8055 32.4839C89.3842 31.4197 91.7992 30.3555 93.9685 29.2913C96.1379 28.227 98.0207 27.1219 99.4943 26.0986C101.009 25.0753 102.114 24.093 102.851 23.3971C103.219 23.0697 103.506 22.7422 103.669 22.5785C103.751 22.4966 103.833 22.4148 103.874 22.3739C103.915 22.3329 103.956 22.292 103.956 22.292C103.956 22.292 103.956 22.3329 103.874 22.3739C103.833 22.4557 103.751 22.4966 103.669 22.6194C103.506 22.8241 103.219 23.1106 102.851 23.479C102.114 24.2158 101.009 25.1981 99.5352 26.2623C98.0617 27.3266 96.1788 28.4317 94.0094 29.5368C91.8401 30.6011 89.4251 31.7062 86.8465 32.7704C84.2678 33.8346 81.73 34.6533 79.3151 35.1035C76.9411 35.5538 74.7308 35.6356 72.8889 35.4719C71.0469 35.3082 69.6143 34.8989 68.6729 34.5305C68.1817 34.3668 67.8134 34.203 67.5678 34.0802C67.445 34.0393 67.3631 33.9984 67.2812 33.9574C67.3222 33.7937 67.2812 33.7937 67.2812 33.7937Z" fill="#64392C"/>
<path d="M90.4889 72.3102L91.2257 70.8367C91.1847 70.7958 86.0274 68.1762 84.0627 66.498C79.3965 62.5686 75.1396 56.347 75.0578 56.2651L73.707 57.2066C73.8708 57.4521 78.1686 63.7147 82.9985 67.7669C85.1269 69.5678 90.2433 72.2284 90.4889 72.3102Z" fill="#998E8D"/>
<path d="M86.6422 67.8076C86.6422 67.8076 93.6824 70.9593 93.6824 71.6552C93.6824 72.351 92.5773 73.7427 91.7177 73.6608C90.8991 73.5789 88.4841 72.2282 88.0339 71.6961C87.5836 71.164 86.8469 69.6905 85.9873 68.9946L86.6422 67.8076Z" fill="#201A1A"/>
<path d="M73.787 46.7269L75.4242 46.645C75.4242 46.5631 75.1377 39.6867 77.8392 32.7692C81.4002 23.6006 88.2358 18.6888 98.1412 18.1567C98.9598 18.1158 99.8603 18.1977 100.843 18.3205L100.106 17.6246C99.7784 17.2972 99.3691 17.0516 98.9189 16.8469C98.3049 16.6013 97.65 16.4785 96.9951 16.5604C84.4701 17.6246 78.8216 25.6063 76.2838 32.1962C73.4595 39.482 73.7461 46.4403 73.787 46.7269Z" fill="#998E8D"/>
<path d="M74.5665 61.5855C77.4374 61.5855 79.7647 58.2503 79.7647 54.136C79.7647 50.0218 77.4374 46.6865 74.5665 46.6865C71.6955 46.6865 69.3682 50.0218 69.3682 54.136C69.3682 58.2503 71.6955 61.5855 74.5665 61.5855Z" fill="#998E8D"/>
<path d="M69.4092 54.1356C69.4092 54.1356 69.4092 54.0947 69.4092 54.0128C69.4092 53.9309 69.4092 53.8491 69.4501 53.7263C69.4501 53.4398 69.491 53.0714 69.5729 52.5802C69.7366 51.5978 70.105 50.1243 71.1692 48.6917C71.4148 48.3233 71.7832 47.9959 72.1516 47.7094C72.5609 47.4228 72.9702 47.1363 73.4614 47.0135C73.9526 46.8498 74.4847 46.7679 75.0577 46.8498C75.5898 46.9317 76.1629 47.1363 76.654 47.4228C77.6364 48.0777 78.4141 49.101 78.9053 50.288C79.4374 51.4751 79.683 52.8258 79.683 54.1765C79.683 55.5273 79.4374 56.878 78.9053 58.065C78.4141 59.252 77.6364 60.2753 76.654 60.9302C76.1629 61.2577 75.6308 61.4623 75.0577 61.5032C74.5256 61.5851 73.9526 61.5032 73.4614 61.3395C72.9702 61.1758 72.52 60.8893 72.1516 60.6437C71.7832 60.3162 71.4557 59.9888 71.1692 59.6613C70.0641 58.2287 69.7366 56.7552 69.5729 55.7728C69.491 55.2817 69.4501 54.8724 69.4501 54.6268C69.4501 54.504 69.4501 54.4221 69.4092 54.3402C69.4092 54.1765 69.4092 54.1356 69.4092 54.1356C69.4092 54.1356 69.4092 54.1765 69.4092 54.2584C69.4092 54.3402 69.4092 54.4221 69.4092 54.5449C69.4092 54.8314 69.4501 55.1998 69.491 55.691C69.6548 56.6733 69.9413 58.1878 71.0464 59.6613C71.292 60.0297 71.6604 60.3572 72.0288 60.6846C72.4381 60.9711 72.8883 61.2986 73.3795 61.4214C73.9116 61.5851 74.4847 61.667 75.0577 61.5851C75.6308 61.5032 76.2038 61.2986 76.7359 60.9711C77.7592 60.3162 78.5778 59.252 79.1099 58.0241C79.642 56.7961 79.8876 55.4454 79.8876 54.0537C79.8876 52.6621 79.642 51.3113 79.1099 50.0834C78.5778 48.8554 77.8001 47.8322 76.7359 47.1363C76.2038 46.8089 75.6308 46.6042 75.0577 46.5223C74.4847 46.4405 73.9116 46.5224 73.3795 46.6861C72.8474 46.8498 72.3972 47.1363 72.0288 47.4228C71.6604 47.7503 71.292 48.0777 71.0464 48.4461C69.9413 49.9197 69.6138 51.4341 69.491 52.4165C69.4501 52.9076 69.4092 53.317 69.4092 53.5626C69.4092 53.6853 69.4092 53.7672 69.4092 53.8491C69.4092 54.1356 69.4092 54.1356 69.4092 54.1356Z" fill="#201A1A"/>
<path d="M73.7891 58.4746C75.6201 58.4746 77.1045 56.3488 77.1045 53.7266C77.1045 51.1043 75.6201 48.9785 73.7891 48.9785C71.958 48.9785 70.4736 51.1043 70.4736 53.7266C70.4736 56.3488 71.958 58.4746 73.7891 58.4746Z" fill="#998E8D"/>
<path d="M70.4736 53.726C70.5146 53.726 70.4736 53.3576 70.5964 52.7437C70.7192 52.1297 70.9239 51.1883 71.6197 50.2878C71.9472 49.8375 72.4383 49.4282 73.0523 49.2236C73.3798 49.1417 73.7072 49.1008 74.0347 49.1417C74.3621 49.1826 74.7305 49.3054 75.017 49.5101C75.631 49.9194 76.1222 50.5743 76.4496 51.3111C76.7771 52.0478 76.9408 52.9074 76.9408 53.767C76.9408 54.6265 76.7771 55.4861 76.4496 56.2228C76.1222 56.9596 75.631 57.6145 75.017 58.0238C74.6896 58.2285 74.3621 58.3513 74.0347 58.3922C73.7072 58.4331 73.3388 58.3922 73.0523 58.3103C72.4383 58.1057 71.9472 57.6964 71.6197 57.2461C70.9239 56.3456 70.7192 55.4042 70.5964 54.7902C70.5146 54.0944 70.5146 53.726 70.4736 53.726C70.4736 53.726 70.4736 53.8079 70.4736 53.9716C70.4736 54.1353 70.4736 54.3809 70.5146 54.7084C70.5964 55.3224 70.8011 56.3047 71.4969 57.2461C71.8244 57.6964 72.3565 58.1875 73.0114 58.3922C73.3388 58.515 73.7072 58.5559 74.0756 58.515C74.444 58.4741 74.8124 58.3103 75.1398 58.1057C75.7947 57.6964 76.3268 57.0005 76.6543 56.2228C76.9817 55.4451 77.1454 54.5856 77.1454 53.6851C77.1454 52.7846 76.9817 51.925 76.6543 51.1474C76.3268 50.3697 75.7947 49.6738 75.1398 49.2645C74.8124 49.0599 74.444 48.9371 74.0756 48.8552C73.7072 48.8143 73.3388 48.8552 73.0114 48.978C72.3565 49.2236 71.8653 49.6738 71.4969 50.1241C70.8011 51.0655 70.5964 52.0478 70.5146 52.6618C70.4736 52.9893 70.4736 53.2349 70.4736 53.3986C70.4736 53.6442 70.4736 53.726 70.4736 53.726Z" fill="#201A1A"/>
<path d="M73.5439 57.1247C74.8551 57.1247 75.918 55.6037 75.918 53.7274C75.918 51.8511 74.8551 50.3301 73.5439 50.3301C72.2328 50.3301 71.1699 51.8511 71.1699 53.7274C71.1699 55.6037 72.2328 57.1247 73.5439 57.1247Z" fill="#998E8D"/>
<path d="M71.1699 53.7272C71.2109 53.7272 71.1699 53.4817 71.2518 53.0314C71.3336 52.5812 71.4974 51.9263 71.9885 51.2714C72.2341 50.9439 72.5616 50.6574 73.0118 50.4937C73.4621 50.3299 73.9942 50.4118 74.4035 50.6983C75.304 51.2714 75.7542 52.4993 75.7542 53.7272C75.7542 54.9552 75.2631 56.1831 74.4035 56.7562C73.9533 57.0427 73.4212 57.1245 73.0118 56.9608C72.5616 56.838 72.2341 56.5106 71.9885 56.1831C71.4974 55.5282 71.3336 54.8733 71.2518 54.4231C71.2109 54.0138 71.2109 53.7272 71.1699 53.7272C71.1699 53.7272 71.1699 53.8091 71.1699 53.9319C71.1699 54.0547 71.1699 54.2184 71.2109 54.464C71.2927 54.9143 71.4155 55.6101 71.9067 56.3059C72.1523 56.6334 72.5207 57.0018 73.0118 57.1655C73.2574 57.2473 73.5439 57.2883 73.7895 57.2473C74.0761 57.2064 74.3216 57.1245 74.5672 56.9608C75.0584 56.6334 75.4268 56.1422 75.6724 55.6101C75.918 55.037 76.0408 54.4231 76.0408 53.7682C76.0408 53.1133 75.918 52.4993 75.6724 51.9263C75.4268 51.3532 75.0584 50.862 74.5672 50.5755C74.3216 50.4118 74.0351 50.3299 73.7895 50.289C73.503 50.2481 73.2574 50.289 73.0118 50.3709C72.5207 50.5346 72.1523 50.862 71.9067 51.2304C71.4155 51.9263 71.2518 52.6221 71.2109 53.0723C71.1699 53.3179 71.1699 53.4817 71.1699 53.6044C71.1699 53.6863 71.1699 53.7272 71.1699 53.7272Z" fill="#201A1A"/>
</g>
</svg>
