<svg width="1440" height="658" viewBox="0 0 1440 658" fill="none" xmlns="http://www.w3.org/2000/svg">
<path d="M1440 15.9879V658H0V0C144 0 144 15.9879 288 15.9879C432 15.9879 432 0 576 0C720 0 720 15.9879 864 15.9879C1008 15.9879 1008 0 1152 0C1296 0 1296 15.9879 1440 15.9879Z" fill="#201A1A"/>
<path d="M512.513 429.112C505.668 430.771 499.33 434.917 493.077 439.408C486.486 444.107 485.303 446.526 476.937 451.501C465.276 458.411 455.558 460.761 453.276 461.313C446.431 462.903 440.685 463.317 436.798 463.594C434.347 463.732 432.066 463.801 430.038 463.87C425.475 463.939 422.179 463.663 421.249 463.663C396.997 462.212 360.829 460.07 338.183 469.744C336.239 470.573 331.676 472.715 324.578 475.41C317.31 478.174 309.958 480.938 305.902 481.767C275.228 487.71 266.524 477.898 229.004 483.84C210.836 486.743 196.893 490.75 196.893 490.75C185.654 493.998 182.95 495.726 173.232 498.351C169.683 499.319 154.979 503.189 138.586 503.88C118.136 504.778 102.334 500.494 87.0385 496.278C68.7012 491.234 58.9833 486.19 40.5616 483.84C31.7733 482.735 22.8159 482.458 22.8159 482.458C13.098 482.182 5.15469 482.666 -1.93036e-05 483.149V154.091C26.1115 153.607 47.9979 155.128 64.2225 156.855C82.3063 158.79 98.6154 160.586 119.15 166.529C133.431 170.675 143.909 175.098 152.951 178.967C171.457 186.845 175.176 190.3 199.428 202.462C223.258 214.416 235.088 220.359 247.595 223.883C271.763 230.655 293.311 230.793 298.297 230.793C316.212 230.724 321.958 228.029 343.929 228.72C353.647 228.996 362.773 229.273 374.35 231.484C383.392 233.211 411.193 238.809 432.657 257.051C439.925 263.27 441.023 266.242 450.403 272.944C463.417 282.204 474.824 285.935 477.444 286.765C485.387 289.252 492.317 290.289 496.88 290.911C505.922 292.155 512.513 292.224 515.471 292.293C534.906 292.846 552.652 300.723 556.877 302.658C576.736 311.503 600.904 333.2 599.974 361.394C599.213 384.266 582.228 401.541 569.553 409.764C556.539 418.194 544.202 421.511 544.202 421.511L541.667 422.133C531.864 424.483 522.146 426.763 512.513 429.112Z" fill="#FFE8CF"/>
<mask id="mask0_686_3" style="mask-type:alpha" maskUnits="userSpaceOnUse" x="0" y="65" width="600" height="439">
<path d="M512.513 429.112C505.668 430.77 499.33 434.916 493.077 439.408C486.486 444.107 485.303 446.525 476.937 451.501C465.276 458.411 455.558 460.76 453.276 461.313C446.431 462.902 440.685 463.317 436.798 463.593C434.347 463.731 432.066 463.801 430.038 463.87C425.475 463.939 422.179 463.662 421.249 463.662C396.997 462.211 360.829 460.069 338.183 469.743C336.239 470.572 331.676 472.715 324.578 475.409C317.31 478.174 309.958 480.938 305.902 481.767C275.228 487.709 266.524 477.897 229.004 483.84C210.836 486.742 196.893 490.75 196.893 490.75C185.654 493.998 182.95 495.725 173.232 498.351C169.683 499.318 154.979 503.188 138.586 503.879C118.136 504.777 102.334 500.493 87.0385 496.278C68.7012 491.234 58.9833 486.189 40.5616 483.84C31.7732 482.734 22.8159 482.458 22.8159 482.458C13.098 482.181 5.15471 482.665 0 483.149V154.091C26.1115 153.607 47.9979 155.127 64.2225 156.855C82.3063 158.789 98.6154 160.586 119.15 166.529C133.431 170.675 152.951 178.967 152.951 178.967C152.951 178.967 121.8 101.427 152.951 75.9994C178.379 55.2437 224.493 72.4753 237 75.9994C261.168 82.7713 335.5 136.499 322.5 190.499C337 211.499 321.958 228.029 343.929 228.72C353.647 228.996 362.773 229.272 374.35 231.484C383.392 233.211 411.193 238.808 432.657 257.051C439.925 263.27 456.62 245.797 466 252.5C479.014 261.76 474.824 285.935 477.444 286.764C485.387 289.252 492.317 290.288 496.88 290.91C505.922 292.154 512.513 292.223 515.471 292.292C534.906 292.845 552.652 300.723 556.877 302.657C576.736 311.502 600.904 333.2 599.974 361.393C599.213 384.266 582.228 401.541 569.553 409.764C556.539 418.194 544.202 421.511 544.202 421.511L541.667 422.133C531.864 424.482 522.146 426.762 512.513 429.112Z" fill="#201A1A"/>
</mask>
<g mask="url(#mask0_686_3)">
<path d="M424.007 351.014C424.007 351.014 399.237 410.462 393.967 424.48C393.967 424.48 357.919 418.578 356.76 398.551L397.656 337.101L424.007 351.014Z" fill="#F8B4A0"/>
<path d="M452.783 306.534C454.574 298.418 475.023 277.337 469.752 274.175C463.007 270.064 448.25 298.102 446.775 300.631C445.299 303.055 441.821 300.947 443.191 298.839C445.299 295.783 465.325 265.637 458.158 262.159C454.258 260.262 450.674 267.324 450.674 267.324C450.674 267.324 432.861 297.996 429.594 296.204C426.221 294.412 437.288 277.443 440.872 270.908C444.245 264.583 442.769 259.313 439.08 261C433.599 263.424 425.905 279.867 422.321 286.191C418.843 292.41 408.302 310.223 405.984 297.785C403.665 285.348 397.341 276.599 394.073 275.334C390.806 274.175 388.065 278.391 390.279 281.659C392.07 284.294 393.757 289.564 394.811 293.569C395.76 296.837 395.76 300.315 395.865 303.793C395.97 306.218 395.76 310.961 394.073 316.758C391.965 323.504 393.862 331.198 397.551 337.206L385.957 362.819L412.624 377.365L423.902 351.119C430.859 344.163 438.764 338.049 443.191 333.517C454.68 321.606 445.615 330.46 465.115 308.642C470.49 302.634 476.393 295.993 474.706 292.831C474.496 292.304 473.969 292.094 473.547 291.777C469.225 289.458 451.096 314.334 452.783 306.534Z" fill="#F8B4A0"/>
<path d="M436.868 326.667C436.763 326.772 434.971 325.613 431.703 324.875C428.436 324.137 423.482 324.032 418.739 326.14C417.474 326.667 416.314 327.405 415.155 328.143L414.628 328.459L414.417 327.826C413.363 323.821 411.571 320.554 410.096 318.446C408.62 316.337 407.566 315.178 407.671 315.073C407.777 314.967 408.936 316.021 410.623 318.129C412.204 320.237 414.206 323.399 415.366 327.616L414.628 327.405C415.787 326.562 416.947 325.824 418.317 325.297C420.847 324.243 423.376 323.716 425.695 323.61C428.014 323.505 430.122 323.821 431.809 324.348C433.495 324.77 434.76 325.508 435.603 325.929C436.446 326.351 436.868 326.667 436.868 326.667Z" fill="#201A1A"/>
<path d="M422.216 348.8C422.216 349.011 417.894 348.168 413.045 345.744C408.197 343.319 405.035 340.263 405.14 340.157C405.351 339.947 408.724 342.582 413.467 345.006C418.105 347.325 422.216 348.484 422.216 348.8Z" fill="#201A1A"/>
<path d="M130.039 279.446L176.943 269.749L188.432 261.106L250.304 273.016C251.253 274.808 261.371 288.827 261.371 288.827L285.719 297.154C296.154 300 305.43 305.797 312.175 314.018C317.34 320.342 323.032 328.985 327.986 340.474C338.948 366.193 354.758 395.916 354.758 395.916L364.666 379.895L406.511 399.605C406.511 399.605 382.058 448.934 373.942 455.996C364.982 463.796 344.218 464.744 329.883 450.093C321.24 441.24 296.26 406.457 291.095 397.708L283.4 434.178L276.338 475.812L287.827 504.481H120.342L127.299 477.393C127.299 477.393 120.447 406.878 118.55 393.703C114.123 362.714 130.039 279.446 130.039 279.446Z" fill="#A83F3F"/>
<path d="M130.039 279.447C130.039 279.447 96.5208 288.828 89.1426 322.135C84.7157 342.372 69.5376 399.817 64.1621 447.248C61 475.391 61.1054 501.425 61 504.377H112.437L134.255 288.828L130.039 279.447Z" fill="#A83F3F"/>
<path d="M216.047 308.117C216.047 308.117 216.047 308.222 216.152 308.433C216.258 308.644 216.468 309.065 216.679 309.381C217.101 310.225 217.733 311.49 218.366 313.071C219.841 316.233 221.633 320.976 224.374 326.141L224.479 326.457L224.69 326.246C228.168 323.295 231.963 319.711 235.863 315.916C242.714 309.065 248.827 302.636 253.254 298.209C255.468 295.995 257.259 294.203 258.524 292.833C259.157 292.201 259.578 291.779 260 291.358C260.316 291.041 260.527 290.831 260.527 290.831C260.527 290.831 260.316 290.936 260 291.252C259.578 291.568 259.051 292.095 258.524 292.622C257.259 293.782 255.362 295.574 253.043 297.893C248.511 302.319 242.398 308.644 235.546 315.495C231.647 319.289 227.852 322.873 224.479 325.93L224.901 326.035C222.055 320.87 220.263 316.233 218.682 313.071C217.944 311.49 217.312 310.225 216.785 309.381C216.574 308.96 216.363 308.749 216.258 308.433C216.152 308.222 216.047 308.117 216.047 308.117Z" fill="#201A1A"/>
<path d="M176.311 271.015C176.311 271.015 176.311 271.225 176.416 271.752C176.521 272.279 176.627 273.017 176.838 273.861C177.259 275.652 177.892 278.287 178.735 281.45C180.527 287.879 183.478 296.522 187.167 305.903C189.064 310.857 190.962 315.6 192.753 319.816L192.859 320.132L193.07 319.922C197.813 315.706 202.134 312.438 204.98 309.908C206.456 308.644 207.615 307.695 208.353 306.957C208.669 306.641 208.985 306.325 209.196 306.114C209.407 305.903 209.512 305.798 209.512 305.798C209.512 305.798 209.407 305.903 209.196 306.008C208.985 306.219 208.669 306.43 208.248 306.746C207.404 307.484 206.245 308.327 204.769 309.592C201.818 312.016 197.497 315.284 192.648 319.5L193.07 319.605C191.278 315.389 189.486 310.646 187.483 305.692C183.9 296.311 180.843 287.668 178.946 281.239C177.997 278.077 177.259 275.442 176.838 273.65C176.627 272.806 176.521 272.069 176.311 271.542C176.311 271.225 176.311 271.015 176.311 271.015Z" fill="#201A1A"/>
<path d="M284.666 429.541C284.666 429.541 284.666 429.436 284.771 429.331C284.877 429.12 284.877 428.909 284.982 428.593C285.193 427.96 285.404 427.012 285.825 425.852C286.142 424.693 286.563 423.112 286.985 421.425C287.406 419.739 287.828 417.736 288.355 415.523C290.252 406.774 292.15 394.548 293.309 380.845C294.468 367.248 294.785 354.811 294.679 345.851C294.679 341.424 294.574 337.735 294.468 335.206C294.363 333.941 294.363 332.992 294.363 332.36C294.363 332.044 294.363 331.833 294.363 331.622C294.363 331.411 294.363 331.411 294.363 331.411C294.363 331.411 294.363 331.517 294.363 331.622C294.363 331.833 294.363 332.044 294.363 332.36C294.363 333.098 294.363 334.046 294.363 335.206C294.468 337.735 294.468 341.319 294.468 345.851C294.468 354.811 294.152 367.143 292.887 380.74C291.728 394.337 289.936 406.563 288.144 415.312C287.723 417.525 287.301 419.528 286.879 421.214C286.458 422.901 286.142 424.482 285.825 425.641C285.509 426.801 285.298 427.749 285.088 428.487C284.982 428.803 284.982 429.014 284.877 429.225C284.666 429.436 284.666 429.541 284.666 429.541Z" fill="#201A1A"/>
<path d="M127.298 316.442C127.298 316.442 127.192 316.548 127.192 316.759C127.087 316.969 126.981 317.286 126.77 317.602C126.454 318.445 125.927 319.499 125.4 320.975C125.084 321.713 124.768 322.556 124.452 323.399C124.135 324.348 123.819 325.296 123.398 326.35C123.081 327.404 122.66 328.564 122.238 329.723C121.922 330.988 121.5 332.253 121.184 333.623C118.022 344.48 116.441 360.185 117.39 377.365C118.338 394.546 120.341 410.04 121.606 421.213C122.238 426.799 122.765 431.332 123.187 434.494C123.398 436.075 123.503 437.234 123.608 438.077C123.714 438.499 123.714 438.815 123.714 439.026C123.714 439.237 123.819 439.342 123.819 439.342C123.819 439.342 123.819 439.237 123.819 439.026C123.819 438.815 123.819 438.499 123.714 438.077C123.608 437.234 123.503 435.969 123.398 434.494C123.081 431.332 122.66 426.799 122.027 421.213C120.868 410.04 118.971 394.546 118.022 377.471C117.073 360.29 118.654 344.69 121.711 333.834C122.027 332.464 122.449 331.199 122.765 329.934C123.187 328.775 123.503 327.615 123.819 326.561C124.135 325.507 124.452 324.558 124.768 323.61C125.084 322.661 125.4 321.923 125.716 321.186C126.243 319.71 126.665 318.656 126.981 317.813C127.087 317.496 127.192 317.18 127.298 316.969C127.298 316.548 127.298 316.442 127.298 316.442Z" fill="#201A1A"/>
<path d="M354.548 431.755C354.653 431.755 354.864 423.744 354.969 413.836C355.075 403.929 354.969 395.918 354.864 395.918C354.758 395.918 354.548 403.929 354.442 413.836C354.337 423.744 354.337 431.755 354.548 431.755Z" fill="#201A1A"/>
<path d="M202.451 480.449C202.451 480.449 202.451 480.344 202.451 480.028C202.451 479.712 202.346 479.29 202.346 478.763C202.24 477.604 202.029 475.917 201.713 473.809C201.608 472.755 201.397 471.596 201.292 470.225C201.186 468.961 200.975 467.485 200.87 466.009C200.554 462.953 200.132 459.474 199.816 455.68C199.605 453.783 199.5 451.78 199.289 449.672C199.078 447.564 199.078 445.35 198.867 443.137C198.551 438.604 198.446 433.756 198.235 428.697C198.024 418.473 198.024 407.3 198.551 395.495C199.184 383.69 200.132 372.517 201.292 362.398C201.924 357.339 202.556 352.49 203.294 348.063C203.611 345.85 203.927 343.636 204.348 341.528C204.77 339.42 205.086 337.418 205.402 335.52C206.035 331.726 206.773 328.248 207.405 325.296C207.721 323.821 208.037 322.345 208.248 321.08C208.564 319.815 208.775 318.656 208.986 317.602C209.408 315.494 209.829 313.913 210.04 312.753C209.724 313.913 209.408 315.494 208.881 317.602C208.67 318.656 208.354 319.815 208.037 321.08C207.721 322.345 207.51 323.715 207.194 325.296C206.562 328.353 205.824 331.726 205.086 335.52C204.77 337.418 204.348 339.42 204.032 341.528C203.611 343.636 203.294 345.744 202.978 348.063C202.24 352.596 201.608 357.339 200.975 362.398C199.711 372.517 198.762 383.795 198.13 395.6C197.603 407.405 197.603 418.683 197.813 428.907C198.024 433.967 198.13 438.921 198.446 443.453C198.551 445.772 198.657 447.88 198.867 449.988C199.078 452.096 199.184 454.099 199.394 455.996C199.711 459.896 200.132 463.374 200.448 466.325C200.659 467.801 200.765 469.277 200.975 470.542C201.186 471.806 201.292 473.071 201.502 474.125C201.819 476.233 202.029 477.92 202.24 479.079C202.346 479.606 202.346 480.028 202.451 480.344C202.346 480.239 202.451 480.449 202.451 480.449Z" fill="#201A1A"/>
<path d="M180.106 366.615C180.106 366.615 180 366.615 179.895 366.615C179.684 366.615 179.473 366.615 179.262 366.51C178.63 366.404 177.787 366.299 176.627 366.193C174.309 365.983 170.936 365.561 166.719 365.139C158.182 364.296 146.061 363.031 131.515 361.45H131.304V361.661C130.988 372.307 130.672 384.323 130.355 397.076V397.182L130.461 397.287C131.831 398.763 133.201 400.239 134.677 401.82C139.947 407.511 145.112 412.992 150.066 418.262L150.171 418.368L150.382 418.262C159.763 413.625 168.511 409.198 176.311 405.403L176.417 405.298V405.192C177.576 393.387 178.525 383.69 179.157 376.944C179.473 373.572 179.684 370.936 179.895 369.145C180 368.301 180 367.564 180.106 367.142C180.106 366.826 180.106 366.615 180.106 366.615C180.106 366.615 180.106 366.826 180 367.353C179.895 367.88 179.895 368.512 179.789 369.461C179.579 371.253 179.262 373.993 178.946 377.366C178.208 384.112 177.26 393.809 175.995 405.509L176.1 405.298C168.406 409.092 159.552 413.414 150.171 418.052L150.487 418.157C145.639 412.887 140.474 407.406 135.099 401.714C133.623 400.133 132.253 398.657 130.882 397.182L130.988 397.393C131.304 384.639 131.62 372.623 131.831 361.977L131.515 362.188C145.955 363.558 157.971 364.718 166.509 365.561C170.725 365.983 174.098 366.299 176.417 366.51C177.576 366.615 178.419 366.72 179.052 366.72C179.368 366.72 179.579 366.72 179.789 366.826C180.106 366.615 180.106 366.615 180.106 366.615Z" fill="#201A1A"/>
<path d="M131.305 374.097C131.305 374.097 131.937 374.308 133.097 374.414C134.256 374.624 135.942 374.835 138.156 375.151C142.372 375.678 148.275 376.311 154.704 376.943C161.134 377.576 166.931 378.103 171.358 378.524C173.36 378.735 175.152 378.946 176.417 379.051C177.577 379.157 178.314 379.262 178.314 379.157C178.314 379.157 177.682 378.946 176.523 378.841C175.363 378.63 173.677 378.419 171.463 378.103C167.247 377.576 161.345 376.943 154.915 376.311C148.485 375.678 142.688 375.151 138.367 374.73C136.364 374.519 134.572 374.308 133.307 374.203C132.043 374.097 131.305 373.992 131.305 374.097Z" fill="#201A1A"/>
<g opacity="0.3">
<path d="M121.185 415.521C120.552 422.688 120.025 429.856 119.393 437.023C115.493 418.578 109.379 398.762 110.328 379.895C111.277 361.133 113.069 343.109 123.609 326.034C123.609 326.034 116.441 344.058 117.39 366.087C118.339 388.116 121.185 415.521 121.185 415.521Z" fill="#201A1A"/>
</g>
<path d="M361.504 375.468C362.242 374.203 362.979 372.938 364.35 372.517C365.825 371.99 367.406 372.728 368.776 373.465C381.53 379.79 394.284 386.114 407.038 392.543C409.567 393.808 412.308 395.284 413.257 397.919C414.521 401.292 412.202 404.876 410.094 407.721C406.616 412.57 402.4 417.84 396.392 418.472L363.506 395.916C359.501 395.284 356.971 390.857 357.182 386.746C357.393 382.635 359.501 378.946 361.504 375.468Z" fill="#A83F3F"/>
<path d="M357.393 389.275C357.393 389.275 357.498 389.381 357.709 389.697C358.025 390.013 358.341 390.329 358.763 390.645C359.711 391.489 360.976 392.648 362.663 394.124C366.036 396.97 370.779 400.87 376.365 404.769C381.846 408.669 387.116 411.937 390.911 414.045C392.808 415.099 394.389 416.048 395.443 416.575C395.97 416.785 396.392 416.996 396.708 417.207C397.024 417.312 397.13 417.418 397.13 417.418C397.13 417.418 397.024 417.312 396.708 417.102C396.392 416.891 395.97 416.68 395.443 416.364C394.284 415.731 392.808 414.783 390.911 413.729C387.116 411.41 381.951 408.142 376.471 404.242C370.99 400.343 366.141 396.548 362.768 393.808C361.082 392.437 359.711 391.278 358.763 390.435C358.341 390.118 357.92 389.802 357.709 389.486C357.498 389.275 357.393 389.17 357.393 389.275Z" fill="#201A1A"/>
<g opacity="0.3">
<path d="M176.732 273.439C181.265 288.407 187.589 305.271 192.859 319.817C197.391 315.917 203.716 310.858 208.248 307.063C204.348 314.863 199.605 322.136 194.229 328.987C193.597 329.725 192.754 330.673 191.805 330.462C190.856 330.252 190.435 329.303 190.013 328.354C187.273 321.082 184.427 313.703 181.686 306.431C177.892 295.996 174.203 284.085 176.732 273.439Z" fill="#201A1A"/>
</g>
<path d="M247.878 110.8C234.176 106.9 221.317 110.8 208.668 117.335C196.02 123.87 185.796 134.726 179.261 147.269C172.304 160.55 169.248 176.044 171.777 190.801C174.307 205.557 182.634 219.47 195.177 227.692C212.252 238.97 235.757 238.337 253.359 227.903C270.961 217.468 282.556 198.284 285.612 178.047C287.721 164.134 286.034 149.377 279.499 136.94C273.069 124.502 261.581 114.384 247.878 110.8Z" fill="#875849"/>
<path d="M202.871 153.701C205.506 148.642 205.401 142.529 206.876 137.048C210.038 124.821 221.211 115.967 233.332 112.383C244.61 109.116 257.68 111.54 270.223 117.232C278.761 121.132 286.666 127.14 291.726 135.045C298.471 145.585 299.736 159.393 294.888 170.987L232.278 154.544C225.743 158.761 219.103 163.082 211.514 165.085C209.3 165.612 206.982 166.033 204.768 165.401C202.555 164.769 200.552 162.977 200.236 160.763C200.025 158.128 201.817 155.915 202.871 153.701Z" fill="#875849"/>
<path d="M188.01 264.688L204.136 151.063C204.874 145.688 207.299 140.207 212.674 140.417L269.592 134.937C287.405 135.78 295.837 159.179 294.256 176.887C292.464 196.597 289.618 220.735 285.086 234.964C275.916 263.634 252.833 263.95 252.833 263.95C252.833 263.844 251.462 269.642 249.671 280.287L212.779 304.846L188.01 264.688Z" fill="#F8B4A0"/>
<path d="M280.439 198.599C280.228 200.602 278.331 202.077 276.223 201.867C274.115 201.656 272.639 199.864 272.85 197.861C273.061 195.859 274.958 194.383 277.066 194.594C279.174 194.805 280.755 196.596 280.439 198.599Z" fill="#201A1A"/>
<path d="M287.094 188.586C286.567 189.008 284.037 186.478 279.926 185.846C275.921 185.213 272.548 186.794 272.232 186.267C272.021 186.057 272.654 185.213 274.129 184.476C275.499 183.738 277.818 183.105 280.348 183.527C282.878 183.949 284.88 185.213 285.934 186.267C287.094 187.427 287.41 188.375 287.094 188.586Z" fill="#201A1A"/>
<path d="M243.037 192.488C242.826 194.49 240.929 195.966 238.821 195.755C236.713 195.544 235.237 193.753 235.448 191.75C235.659 189.747 237.556 188.272 239.664 188.482C241.772 188.693 243.248 190.485 243.037 192.488Z" fill="#201A1A"/>
<path d="M248.616 183.212C248.089 183.633 245.56 181.104 241.449 180.471C237.443 179.839 234.071 181.42 233.754 180.893C233.544 180.682 234.176 179.839 235.652 179.101C237.022 178.363 239.341 177.731 241.87 178.152C244.4 178.574 246.403 179.839 247.457 180.893C248.616 182.052 248.827 183.001 248.616 183.212Z" fill="#201A1A"/>
<path d="M257.366 215.579C257.366 215.368 260.001 215.263 264.112 215.368C265.166 215.368 266.22 215.368 266.431 214.736C266.747 213.998 266.536 212.838 266.22 211.573C265.588 208.938 265.061 206.093 264.323 203.247C261.793 191.336 260.107 181.744 260.634 181.639C261.161 181.534 263.585 191.125 266.115 202.93C266.747 205.882 267.274 208.622 267.801 211.257C268.012 212.522 268.434 213.892 267.696 215.368C267.274 216.106 266.431 216.527 265.799 216.633C265.061 216.738 264.534 216.633 264.007 216.633C259.896 216.211 257.261 215.79 257.366 215.579Z" fill="#201A1A"/>
<path d="M252.828 263.958C252.828 263.958 232.907 262.166 215.094 247.515C215.094 247.515 224.264 270.492 250.931 272.811L252.828 263.958Z" fill="#BA7C69"/>
<path d="M254.094 225.051C252.935 222.943 250.511 221.467 247.981 221.362C246.189 221.257 244.292 221.889 243.027 223.154C241.762 224.419 241.235 226.421 241.973 227.897C242.816 229.583 245.03 230.321 247.032 230.005C249.035 229.794 250.932 228.74 252.724 227.686C253.251 227.37 253.673 227.054 254.094 226.632C254.411 226.21 254.621 225.578 254.305 225.156" fill="#BA7C69"/>
<path d="M244.928 216.519C245.56 216.624 244.928 220.946 248.195 224.635C251.463 228.324 256.206 228.535 256.206 229.167C256.206 229.484 255.046 229.905 253.044 229.589C251.041 229.378 248.406 228.324 246.298 226.005C244.295 223.792 243.663 221.051 243.874 219.26C243.979 217.468 244.717 216.519 244.928 216.519Z" fill="#201A1A"/>
<path d="M249.769 171.095C249.242 172.149 245.237 170.99 240.388 170.884C235.54 170.674 231.534 171.411 231.007 170.357C230.797 169.83 231.64 168.882 233.326 168.038C235.013 167.195 237.648 166.563 240.494 166.668C243.445 166.774 245.975 167.617 247.556 168.565C249.242 169.62 249.98 170.674 249.769 171.095Z" fill="#201A1A"/>
<path d="M288.666 170.671C287.823 171.515 285.188 170.144 281.815 169.512C278.442 168.88 275.491 169.196 275.069 168.142C274.858 167.615 275.491 166.771 276.861 166.139C278.231 165.507 280.339 165.085 282.658 165.507C284.977 165.928 286.874 167.088 287.823 168.142C288.771 169.301 289.088 170.355 288.666 170.671Z" fill="#201A1A"/>
<path d="M193.704 144.003C201.398 127.771 229.119 107.534 246.722 111.118L272.862 131.988C269.805 141.474 261.267 148.852 251.465 150.433C246.195 151.276 240.187 150.855 236.603 154.86C232.914 158.865 233.863 165.506 230.49 169.722C225.747 175.519 214.995 173.727 211.096 180.157C209.409 183.003 209.62 186.586 207.828 189.432C205.509 193.121 194.863 196.81 190.964 194.913C187.064 193.016 187.907 186.059 187.064 182.159C185.588 175.519 186.958 172.462 188.223 168.984C191.174 160.868 190.015 151.698 193.704 144.003Z" fill="#875849"/>
<path d="M202.66 199.973C202.976 197.76 201.29 192.279 199.182 191.541C193.596 189.749 183.055 188.59 180.736 203.241C177.574 223.267 198.233 222.319 198.444 221.792C198.549 221.37 201.501 207.457 202.66 199.973Z" fill="#F8B4A0"/>
<path d="M193.49 213.252C193.385 213.147 193.069 213.463 192.436 213.568C191.804 213.779 190.855 213.779 189.801 213.252C187.799 212.093 186.534 208.509 187.061 204.925C187.272 203.134 188.01 201.447 188.853 200.077C189.696 198.707 190.855 197.863 191.909 197.863C192.963 197.758 193.701 198.496 193.807 199.128C194.017 199.761 193.807 200.077 193.912 200.182C193.912 200.288 194.439 199.866 194.334 199.023C194.334 198.601 194.123 198.074 193.701 197.653C193.28 197.231 192.647 196.915 191.804 196.809C190.223 196.704 188.642 197.863 187.693 199.339C186.639 200.815 185.901 202.712 185.585 204.715C185.058 208.72 186.534 212.831 189.274 214.201C190.645 214.833 191.909 214.517 192.542 214.201C193.385 213.674 193.596 213.252 193.49 213.252Z" fill="#BA7C69"/>
<path d="M267.801 125.136C268.749 133.568 279.922 145.479 284.665 152.435C293.73 165.716 295.311 170.037 292.149 197.231C298.157 188.378 302.9 179.629 303.743 168.983C304.586 158.338 301.846 147.27 295.416 138.838C288.881 130.406 278.446 124.82 267.801 125.136Z" fill="#875849"/>
<path d="M219.948 96.5713C215.732 91.9336 209.618 88.8769 203.294 87.2958C194.23 85.0824 184.427 85.6094 176.206 89.6147C167.984 93.5146 161.66 100.893 159.974 109.325C158.287 117.757 161.555 127.138 168.722 132.725C164.19 137.151 158.393 140.63 152.068 142.527C153.755 145.057 156.917 146.638 160.079 147.165C163.241 147.692 166.509 147.376 169.671 147.059C167.563 150.221 164.295 152.646 160.501 153.805C165.665 155.175 171.146 154.754 176.206 153.278C181.265 151.908 185.903 149.484 190.435 146.954C205.824 137.995 214.362 130.195 224.796 116.387C226.167 110.379 224.269 101.209 219.948 96.5713Z" fill="#875849"/>
<path d="M186.746 138.838C198.024 122.29 212.464 113.436 225.534 110.695Z" fill="#875849"/>
<path d="M225.534 110.695C225.534 110.695 224.902 110.906 223.637 111.222C222.478 111.539 220.686 112.066 218.683 112.909C214.572 114.49 209.091 117.23 203.61 121.341C198.235 125.452 194.019 129.879 191.173 133.252C189.803 134.938 188.643 136.414 187.905 137.362C187.168 138.311 186.746 138.838 186.641 138.838C186.641 138.838 186.957 138.205 187.695 137.151C188.327 136.097 189.487 134.622 190.857 132.935C193.597 129.457 197.813 124.925 203.294 120.814C208.775 116.703 214.362 113.963 218.578 112.487C220.686 111.749 222.478 111.328 223.637 111.012C224.796 110.801 225.534 110.695 225.534 110.695Z" fill="#64392C"/>
<path d="M173.255 152.962C173.255 152.962 173.36 152.962 173.466 153.067C173.676 153.173 173.887 153.278 174.204 153.384C174.836 153.7 175.785 154.016 177.049 154.438C179.579 155.281 183.268 156.229 187.906 156.651C192.544 157.073 198.235 156.862 204.243 155.597C210.357 154.438 216.892 152.33 223.532 149.589C230.172 146.849 236.391 144.108 241.978 141.368C247.564 138.627 252.413 135.781 256.207 133.146C260.107 130.511 262.953 127.981 264.85 126.19C265.799 125.346 266.537 124.503 266.958 124.082C267.169 123.871 267.38 123.66 267.485 123.555C267.591 123.449 267.696 123.344 267.696 123.344C267.696 123.344 267.696 123.449 267.485 123.555C267.38 123.765 267.169 123.871 266.958 124.187C266.537 124.714 265.799 125.452 264.85 126.4C262.953 128.298 260.107 130.827 256.312 133.568C252.518 136.308 247.669 139.154 242.083 142C236.497 144.741 230.278 147.586 223.637 150.327C216.997 153.067 210.462 155.175 204.243 156.335C198.13 157.494 192.438 157.705 187.695 157.284C182.952 156.862 179.263 155.808 176.839 154.859C175.574 154.438 174.625 154.016 173.993 153.7C173.676 153.594 173.466 153.489 173.255 153.384C173.36 152.962 173.255 152.962 173.255 152.962Z" fill="#64392C"/>
<path d="M233.019 252.146L234.916 248.352C234.811 248.246 221.53 241.5 216.471 237.179C204.455 227.06 193.493 211.039 193.282 210.828L189.804 213.252C190.225 213.885 201.293 230.011 213.73 240.446C219.211 245.084 232.387 251.935 233.019 252.146Z" fill="#998E8D"/>
<path d="M223.11 240.552C223.11 240.552 241.24 248.668 241.24 250.46C241.24 252.252 238.394 255.836 236.18 255.625C234.072 255.414 227.853 251.936 226.694 250.566C225.535 249.195 223.637 245.401 221.424 243.609L223.11 240.552Z" fill="#201A1A"/>
<path d="M190.015 186.269L194.232 186.059C194.232 185.848 193.494 168.14 200.45 150.327C209.62 126.717 227.223 114.068 252.73 112.698C254.838 112.593 257.157 112.804 259.687 113.12L257.79 111.328C256.946 110.485 255.892 109.852 254.733 109.325C253.152 108.693 251.465 108.377 249.779 108.587C217.526 111.328 202.98 131.882 196.445 148.851C189.172 167.613 189.91 185.532 190.015 186.269Z" fill="#998E8D"/>
<path d="M192.018 224.532C199.411 224.532 205.404 215.943 205.404 205.348C205.404 194.754 199.411 186.165 192.018 186.165C184.625 186.165 178.632 194.754 178.632 205.348C178.632 215.943 184.625 224.532 192.018 224.532Z" fill="#998E8D"/>
<path d="M178.736 205.348C178.736 205.348 178.736 205.242 178.736 205.032C178.736 204.821 178.736 204.61 178.842 204.294C178.842 203.556 178.947 202.607 179.158 201.342C179.58 198.813 180.528 195.018 183.269 191.329C183.901 190.381 184.85 189.537 185.798 188.8C186.852 188.062 187.906 187.324 189.171 187.008C190.436 186.586 191.806 186.375 193.282 186.586C194.652 186.797 196.128 187.324 197.393 188.062C199.922 189.748 201.925 192.383 203.19 195.44C204.56 198.497 205.192 201.975 205.192 205.453C205.192 208.932 204.56 212.41 203.19 215.466C201.925 218.523 199.922 221.158 197.393 222.845C196.128 223.688 194.758 224.215 193.282 224.32C191.912 224.531 190.436 224.32 189.171 223.899C187.906 223.477 186.747 222.739 185.798 222.107C184.85 221.264 184.006 220.42 183.269 219.577C180.423 215.888 179.58 212.094 179.158 209.564C178.947 208.299 178.842 207.245 178.842 206.613C178.842 206.296 178.842 206.086 178.736 205.875C178.736 205.453 178.736 205.348 178.736 205.348C178.736 205.348 178.736 205.453 178.736 205.664C178.736 205.875 178.736 206.086 178.736 206.402C178.736 207.14 178.842 208.088 178.947 209.353C179.369 211.883 180.107 215.783 182.952 219.577C183.585 220.526 184.533 221.369 185.482 222.212C186.536 222.95 187.696 223.793 188.96 224.11C190.331 224.531 191.806 224.742 193.282 224.531C194.758 224.32 196.233 223.793 197.603 222.95C200.239 221.264 202.347 218.523 203.717 215.361C205.087 212.199 205.719 208.721 205.719 205.137C205.719 201.553 205.087 198.075 203.717 194.913C202.347 191.751 200.344 189.116 197.603 187.324C196.233 186.481 194.758 185.954 193.282 185.743C191.806 185.532 190.331 185.743 188.96 186.164C187.59 186.586 186.431 187.324 185.482 188.062C184.533 188.905 183.585 189.748 182.952 190.697C180.107 194.491 179.263 198.391 178.947 200.921C178.842 202.186 178.736 203.24 178.736 203.872C178.736 204.188 178.736 204.399 178.736 204.61C178.736 205.348 178.736 205.348 178.736 205.348Z" fill="#201A1A"/>
<path d="M190.014 216.52C194.729 216.52 198.552 211.046 198.552 204.294C198.552 197.541 194.729 192.067 190.014 192.067C185.299 192.067 181.477 197.541 181.477 204.294C181.477 211.046 185.299 216.52 190.014 216.52Z" fill="#998E8D"/>
<path d="M181.477 204.292C181.582 204.292 181.477 203.343 181.793 201.762C182.109 200.181 182.636 197.757 184.428 195.438C185.271 194.279 186.536 193.225 188.117 192.698C188.96 192.487 189.803 192.381 190.647 192.487C191.49 192.592 192.438 192.908 193.176 193.435C194.757 194.489 196.022 196.176 196.865 198.073C197.709 199.97 198.13 202.184 198.13 204.397C198.13 206.611 197.709 208.824 196.865 210.722C196.022 212.619 194.757 214.305 193.176 215.359C192.333 215.886 191.49 216.202 190.647 216.308C189.803 216.413 188.855 216.308 188.117 216.097C186.536 215.57 185.271 214.516 184.428 213.357C182.636 211.038 182.109 208.613 181.793 207.032C181.582 205.241 181.582 204.292 181.477 204.292C181.477 204.292 181.477 204.503 181.477 204.924C181.477 205.346 181.477 205.978 181.582 206.822C181.793 208.403 182.32 210.932 184.112 213.357C184.955 214.516 186.325 215.781 188.012 216.308C188.855 216.624 189.803 216.73 190.752 216.624C191.701 216.519 192.649 216.097 193.493 215.57C195.179 214.516 196.549 212.724 197.392 210.722C198.236 208.719 198.657 206.505 198.657 204.187C198.657 201.868 198.236 199.654 197.392 197.652C196.549 195.649 195.179 193.857 193.493 192.803C192.649 192.276 191.701 191.96 190.752 191.749C189.803 191.644 188.855 191.749 188.012 192.065C186.325 192.698 185.06 193.857 184.112 195.016C182.32 197.441 181.793 199.97 181.582 201.551C181.477 202.395 181.477 203.027 181.477 203.449C181.477 204.081 181.477 204.292 181.477 204.292Z" fill="#201A1A"/>
<path d="M189.383 213.043C192.759 213.043 195.496 209.126 195.496 204.294C195.496 199.463 192.759 195.546 189.383 195.546C186.007 195.546 183.27 199.463 183.27 204.294C183.27 209.126 186.007 213.043 189.383 213.043Z" fill="#998E8D"/>
<path d="M183.27 204.294C183.375 204.294 183.27 203.661 183.48 202.502C183.691 201.342 184.113 199.656 185.378 197.969C186.01 197.126 186.853 196.388 188.013 195.967C189.172 195.545 190.542 195.756 191.596 196.494C193.915 197.969 195.075 201.132 195.075 204.294C195.075 207.456 193.81 210.618 191.596 212.093C190.437 212.831 189.067 213.042 188.013 212.62C186.853 212.304 186.01 211.461 185.378 210.618C184.113 208.931 183.691 207.245 183.48 206.085C183.375 205.031 183.375 204.294 183.27 204.294C183.27 204.294 183.27 204.504 183.27 204.821C183.27 205.137 183.27 205.558 183.375 206.191C183.586 207.35 183.902 209.142 185.167 210.934C185.799 211.777 186.748 212.726 188.013 213.147C188.645 213.358 189.383 213.464 190.015 213.358C190.753 213.253 191.386 213.042 192.018 212.62C193.283 211.777 194.231 210.512 194.864 209.142C195.496 207.667 195.812 206.085 195.812 204.399C195.812 202.713 195.496 201.132 194.864 199.656C194.231 198.18 193.283 196.915 192.018 196.178C191.386 195.756 190.648 195.545 190.015 195.44C189.278 195.334 188.645 195.44 188.013 195.651C186.748 196.072 185.799 196.915 185.167 197.864C183.902 199.656 183.48 201.448 183.375 202.607C183.27 203.24 183.27 203.661 183.27 203.977C183.27 204.188 183.27 204.294 183.27 204.294Z" fill="#201A1A"/>
</g>
<g clip-path="url(#clip0_686_3)">
<path d="M77.4013 637.453C80.6279 637.453 83.2186 631.858 83.2186 624.988C83.2422 618.095 80.6279 612.5 77.4013 612.5C74.1982 612.5 71.584 618.095 71.584 624.965C71.584 631.858 74.1982 637.453 77.4013 637.453Z" fill="#FFE8CF"/>
<path d="M81.0049 612.5C84.2315 612.5 86.8222 618.095 86.8222 624.965C86.8222 631.858 84.2079 637.429 81.0049 637.429" fill="#FFE8CF"/>
<path d="M86.0684 615.097C88.612 615.097 90.6845 619.535 90.6845 624.988C90.6845 630.441 88.612 634.879 86.0684 634.879" fill="#FFE8CF"/>
<path d="M73.8448 637.453C70.6182 637.453 68.0039 631.858 68.0039 624.965C68.0039 618.095 70.6182 612.5 73.8448 612.5" fill="#FFE8CF"/>
<path d="M68.6162 635.352C66.0726 635.352 64 630.914 64 625.46C64 620.007 66.0726 615.569 68.6162 615.569" fill="#FFE8CF"/>
<path d="M144.241 634.643C145.96 634.643 147.279 634.03 148.151 632.778C149.046 631.551 149.47 629.851 149.47 627.703C146.761 627.703 144.736 628.081 143.393 628.836C142.051 629.591 141.368 630.654 141.368 631.999C141.368 632.849 141.627 633.51 142.145 633.959C142.687 634.431 143.37 634.643 144.241 634.643ZM151.472 627.396V626.617C151.472 623.217 149.587 621.518 145.843 621.518C144.429 621.518 143.275 621.754 142.428 622.25C141.58 622.722 141.156 623.43 141.156 624.327C141.156 625.437 141.815 626.239 143.111 626.711C144.406 627.183 146.549 627.42 149.517 627.42H151.472V627.396ZM160.091 619.818C160.892 623.548 161.387 625.885 161.387 628.387C161.387 634.431 157.383 637.429 154.463 637.429C153.591 637.429 152.861 637.146 152.296 636.603C151.731 636.06 151.448 635.234 151.448 634.148V627.703H149.799C149.799 628.978 149.799 630.229 149.564 631.338C149.328 632.424 148.857 633.392 148.363 634.336C147.868 635.281 147.162 636.036 146.267 636.603C145.372 637.169 144.288 637.453 143.063 637.453C141.65 637.453 140.473 637.075 139.578 636.296C138.683 635.54 138.235 634.525 138.235 633.274C138.235 630.087 141.109 628.199 146.832 627.585C144.406 627.443 142.592 627.089 141.391 626.499C140.19 625.909 139.601 624.964 139.601 623.666C139.601 622.132 140.261 620.928 141.556 620.03C142.852 619.133 144.618 618.708 146.855 618.708C149.328 618.708 151.26 619.322 152.626 620.573C154.015 621.825 154.698 623.713 154.698 626.263V633.156C154.698 636.131 156.37 636.65 157.972 635.257C159.456 633.935 159.173 632.755 159.244 631.433C159.267 631.126 159.691 629.78 159.691 629.78C159.974 629.355 160.563 632.448 160.751 631.504C160.939 630.559 161.034 629.403 161.034 628.033C161.034 625.602 160.539 623.383 159.738 619.818H160.091Z" fill="#FFE8CF"/>
<path d="M98.1035 612.5H101.118L109.079 633.699H109.149L117.016 612.5H120.007L110.727 636.815H107.43L98.1035 612.5Z" fill="#FFE8CF"/>
<path d="M133.595 626.664C133.478 625.484 133.172 624.492 132.653 623.642C132.135 622.793 131.476 622.179 130.628 621.73C129.804 621.305 128.862 621.069 127.802 621.069C126.742 621.069 125.776 621.305 124.905 621.777C124.033 622.25 123.327 622.911 122.762 623.76C122.22 624.61 121.843 625.578 121.655 626.664H133.595ZM123.633 636.272C122.173 635.446 121.042 634.313 120.218 632.849C119.394 631.386 118.97 629.733 118.97 627.915C118.97 626.098 119.347 624.587 120.1 623.194C120.854 621.801 121.914 620.691 123.256 619.889C124.599 619.086 126.129 618.708 127.849 618.708C129.568 618.708 131.005 619.11 132.277 619.889C133.548 620.668 134.538 621.777 135.244 623.17C135.951 624.587 136.327 626.168 136.351 627.939V628.435C136.351 628.6 136.351 628.789 136.327 628.978H121.678C121.82 630.205 122.196 631.268 122.832 632.188C123.468 633.109 124.269 633.817 125.282 634.336C126.271 634.856 127.401 635.115 128.626 635.115C129.945 635.115 131.17 634.809 132.253 634.195C133.336 633.581 134.137 632.778 134.608 631.81L136.846 632.731C136.469 633.675 135.88 634.502 135.079 635.21C134.255 635.918 133.289 636.485 132.182 636.886C131.052 637.287 129.874 637.5 128.602 637.5C126.742 637.5 125.093 637.075 123.633 636.272Z" fill="#FFE8CF"/>
<path d="M172.033 619.535C172.998 620.078 173.728 620.88 174.223 621.895C174.718 622.911 174.977 624.138 174.977 625.555V636.815H172.362V625.814C172.362 624.351 171.962 623.17 171.161 622.297C170.361 621.423 169.254 620.998 167.864 620.998C166.71 620.998 165.697 621.258 164.779 621.754C163.86 622.25 163.154 622.981 162.635 623.902C162.117 624.823 161.882 625.838 161.882 626.971V636.815H159.268V619.393H161.646L161.882 621.99H161.905C162.659 620.904 163.601 620.101 164.685 619.535C165.791 618.992 167.087 618.708 168.571 618.708C169.913 618.708 171.067 618.992 172.033 619.535Z" fill="#FFE8CF"/>
</g>
<path d="M1376 625.5C1376 629.213 1374.53 632.774 1371.9 635.399C1369.27 638.025 1365.71 639.5 1362 639.5C1358.29 639.5 1354.73 638.025 1352.1 635.399C1349.47 632.774 1348 629.213 1348 625.5C1348 621.787 1349.47 618.226 1352.1 615.601C1354.73 612.975 1358.29 611.5 1362 611.5C1365.71 611.5 1369.27 612.975 1371.9 615.601C1374.53 618.226 1376 621.787 1376 625.5ZM1362.5 621.836C1361.14 622.403 1358.42 623.575 1354.34 625.353C1353.68 625.615 1353.33 625.874 1353.3 626.126C1353.24 626.552 1353.78 626.72 1354.5 626.949L1354.81 627.045C1355.52 627.278 1356.49 627.549 1356.98 627.56C1357.44 627.57 1357.95 627.385 1358.5 627C1362.32 624.426 1364.29 623.125 1364.41 623.097C1364.5 623.076 1364.62 623.052 1364.7 623.125C1364.78 623.197 1364.77 623.335 1364.76 623.372C1364.71 623.598 1362.62 625.544 1361.53 626.552C1361.19 626.867 1360.96 627.089 1360.91 627.14C1360.8 627.25 1360.69 627.359 1360.58 627.465C1359.91 628.106 1359.42 628.585 1360.6 629.369C1361.18 629.747 1361.63 630.057 1362.09 630.368C1362.59 630.708 1363.08 631.046 1363.73 631.469C1363.89 631.574 1364.05 631.688 1364.2 631.796C1364.78 632.209 1365.3 632.581 1365.95 632.521C1366.32 632.486 1366.71 632.136 1366.9 631.086C1367.37 628.606 1368.28 623.235 1368.49 621.022C1368.5 620.838 1368.49 620.653 1368.47 620.47C1368.45 620.323 1368.38 620.188 1368.27 620.091C1368.11 619.981 1367.92 619.924 1367.72 619.928C1367.2 619.937 1366.39 620.219 1362.5 621.836Z" fill="#FFE8CF"/>
<circle cx="1300" cy="625.5" r="14" fill="#FFE8CF"/>
<path d="M1296.96 631.567C1303.13 631.567 1306.5 626.538 1306.5 622.185C1306.5 622.045 1306.5 621.902 1306.49 621.761C1307.15 621.293 1307.72 620.714 1308.17 620.051C1307.55 620.317 1306.9 620.492 1306.24 620.571C1306.94 620.159 1307.46 619.51 1307.72 618.745C1307.06 619.129 1306.34 619.399 1305.58 619.542C1305.08 619.012 1304.41 618.661 1303.68 618.544C1302.95 618.426 1302.21 618.548 1301.56 618.891C1300.91 619.233 1300.39 619.778 1300.08 620.44C1299.78 621.101 1299.7 621.844 1299.87 622.551C1298.54 622.485 1297.24 622.145 1296.05 621.551C1294.86 620.957 1293.81 620.124 1292.96 619.105C1292.54 619.831 1292.41 620.691 1292.6 621.509C1292.79 622.327 1293.29 623.042 1294 623.509C1293.47 623.491 1292.95 623.351 1292.49 623.099V623.144C1292.49 623.905 1292.76 624.643 1293.24 625.232C1293.73 625.822 1294.42 626.227 1295.17 626.378C1294.89 626.456 1294.59 626.495 1294.29 626.494C1294.08 626.495 1293.87 626.475 1293.66 626.437C1293.88 627.092 1294.29 627.665 1294.86 628.076C1295.42 628.486 1296.1 628.713 1296.79 628.725C1295.61 629.644 1294.14 630.142 1292.63 630.139C1292.36 630.141 1292.1 630.125 1291.83 630.094C1293.37 631.056 1295.15 631.567 1296.96 631.567Z" fill="#201A1A"/>
<defs>
<clipPath id="clip0_686_3">
<rect width="111" height="25" fill="white" transform="translate(64 612.5)"/>
</clipPath>
</defs>
</svg>
