<svg width="1440" height="658" viewBox="0 0 1440 658" fill="none" xmlns="http://www.w3.org/2000/svg">
<path d="M1440 15.9879V658H0V0C144 0 144 15.9879 288 15.9879C432 15.9879 432 0 576 0C720 0 720 15.9879 864 15.9879C1008 15.9879 1008 0 1152 0C1296 0 1296 15.9879 1440 15.9879Z" fill="#F5D8B9"/>
<path d="M511.513 429.112C504.668 430.771 498.33 434.917 492.077 439.408C485.486 444.107 484.303 446.526 475.937 451.501C464.276 458.411 454.558 460.761 452.276 461.313C445.431 462.903 439.685 463.317 435.798 463.594C433.347 463.732 431.066 463.801 429.038 463.87C424.475 463.939 421.179 463.663 420.249 463.663C395.997 462.212 359.829 460.07 337.183 469.744C335.239 470.573 330.676 472.715 323.578 475.41C316.31 478.174 308.958 480.938 304.902 481.767C274.228 487.71 265.524 477.898 228.004 483.84C209.836 486.743 195.893 490.75 195.893 490.75C184.654 493.998 181.95 495.726 172.232 498.351C168.683 499.319 153.979 503.189 137.586 503.88C117.136 504.778 101.334 500.494 86.0385 496.278C67.7012 491.234 57.9833 486.19 39.5616 483.84C30.7733 482.735 21.8159 482.458 21.8159 482.458C12.098 482.182 4.15466 482.666 -1 483.149V154.091C25.1115 153.607 46.9979 155.128 63.2225 156.855C81.3063 158.79 97.6154 160.586 118.15 166.529C132.431 170.675 142.909 175.098 151.951 178.967C170.457 186.845 174.176 190.3 198.428 202.462C222.258 214.416 234.088 220.359 246.595 223.883C270.763 230.655 292.311 230.793 297.297 230.793C315.212 230.724 320.958 228.029 342.929 228.72C352.647 228.996 361.773 229.273 373.35 231.484C382.392 233.211 410.193 238.809 431.657 257.051C438.925 263.27 440.023 266.242 449.403 272.944C462.417 282.204 473.824 285.935 476.444 286.765C484.387 289.252 491.317 290.289 495.88 290.911C504.922 292.155 511.513 292.224 514.471 292.293C533.906 292.846 551.652 300.723 555.877 302.658C575.736 311.503 599.904 333.2 598.974 361.394C598.213 384.266 581.228 401.541 568.553 409.764C555.539 418.194 543.202 421.511 543.202 421.511L540.667 422.133C530.864 424.483 521.146 426.763 511.513 429.112Z" fill="#201A1A"/>
</svg>
