<svg width="28" height="29" viewBox="0 0 28 29" fill="none" xmlns="http://www.w3.org/2000/svg">
<path d="M28 14.5C28 18.213 26.525 21.774 23.8995 24.3995C21.274 27.025 17.713 28.5 14 28.5C10.287 28.5 6.72601 27.025 4.10051 24.3995C1.475 21.774 0 18.213 0 14.5C0 10.787 1.475 7.22601 4.10051 4.60051C6.72601 1.975 10.287 0.5 14 0.5C17.713 0.5 21.274 1.975 23.8995 4.60051C26.525 7.22601 28 10.787 28 14.5ZM14.5022 10.8355C13.1407 11.4025 10.4178 12.575 6.33675 14.353C5.67525 14.6155 5.327 14.8745 5.2955 15.1265C5.243 15.5517 5.77675 15.7198 6.503 15.949L6.80925 16.0453C7.52325 16.278 8.48575 16.5492 8.9845 16.5597C9.4395 16.5702 9.94525 16.3848 10.5035 15.9998C14.3167 13.4255 16.2855 12.1252 16.408 12.0972C16.4955 12.0763 16.618 12.0518 16.6985 12.1252C16.7808 12.197 16.772 12.3352 16.7633 12.372C16.7108 12.5977 14.616 14.5437 13.5327 15.5518C13.195 15.8667 12.9552 16.089 12.9062 16.1398C12.7984 16.25 12.6887 16.3585 12.5772 16.4653C11.9122 17.1058 11.4152 17.5853 12.6035 18.3693C13.1757 18.7473 13.6342 19.057 14.091 19.3685C14.588 19.708 15.085 20.0457 15.729 20.4692C15.8917 20.5743 16.0493 20.688 16.2015 20.7965C16.7808 21.2095 17.304 21.5805 17.9463 21.521C18.3207 21.486 18.7075 21.136 18.9035 20.086C19.3673 17.6063 20.279 12.2355 20.489 10.0217C20.5018 9.83772 20.4942 9.65284 20.4662 9.4705C20.4498 9.32336 20.3786 9.1878 20.2668 9.09075C20.1075 8.98083 19.9177 8.92389 19.7243 8.928C19.1992 8.93675 18.389 9.2185 14.5022 10.8355Z" fill="#201A1A"/>
</svg>
