<svg width="28" height="29" viewBox="0 0 28 29" fill="none" xmlns="http://www.w3.org/2000/svg">
<circle cx="14" cy="14.5" r="14" fill="#FFE8CF"/>
<path d="M10.9637 20.5667C17.1275 20.5667 20.4993 15.5383 20.4993 11.1853C20.4993 11.0446 20.4993 10.9019 20.4932 10.7612C21.1497 10.2933 21.7162 9.71402 22.1663 9.05052C21.5531 9.31672 20.9033 9.49216 20.238 9.57115C20.9388 9.15871 21.4637 8.50976 21.7151 7.74493C21.0567 8.12899 20.336 8.3986 19.5847 8.54195C19.0795 8.0123 18.4111 7.66143 17.6829 7.54367C16.9547 7.42592 16.2075 7.54786 15.5568 7.8906C14.9061 8.23335 14.3884 8.77777 14.0838 9.43955C13.7793 10.1013 13.7048 10.8435 13.8721 11.5511C12.5396 11.4854 11.2361 11.1446 10.046 10.5508C8.85597 9.95712 7.80596 9.12374 6.96409 8.10475C6.53671 8.8315 6.40628 9.69116 6.59929 10.5092C6.7923 11.3271 7.29428 12.0422 8.0033 12.509C7.472 12.4912 6.95237 12.3507 6.48634 12.0989V12.1441C6.48726 12.9055 6.75513 13.6431 7.24469 14.2324C7.73425 14.8218 8.41546 15.2266 9.17317 15.3785C8.88557 15.4565 8.58847 15.4954 8.29015 15.4941C8.07985 15.4947 7.86996 15.4755 7.66336 15.4368C7.87752 16.0921 8.29452 16.6651 8.85595 17.0755C9.41738 17.4859 10.0951 17.7131 10.7943 17.7253C9.60657 18.6438 8.13948 19.1419 6.62926 19.1395C6.36315 19.1406 6.09722 19.1255 5.83301 19.0942C7.3658 20.0564 9.14592 20.5672 10.9637 20.5667Z" fill="#201A1A"/>
</svg>
