<svg width="111" height="26" viewBox="0 0 111 26" fill="none" xmlns="http://www.w3.org/2000/svg">
<g clip-path="url(#clip0_647_460)">
<path d="M13.4008 25.4528C16.6274 25.4528 19.2181 19.8579 19.2181 12.9882C19.2417 6.0949 16.6274 0.5 13.4008 0.5C10.1978 0.5 7.5835 6.0949 7.5835 12.9646C7.5835 19.8579 10.1978 25.4528 13.4008 25.4528Z" fill="#FFE8CF"/>
<path d="M17.0044 0.5C20.231 0.5 22.8217 6.0949 22.8217 12.9646C22.8217 19.8579 20.2075 25.4292 17.0044 25.4292" fill="#FFE8CF"/>
<path d="M22.0679 3.09668C24.6115 3.09668 26.684 7.53483 26.684 12.9881C26.684 18.4413 24.6115 22.8795 22.0679 22.8795" fill="#FFE8CF"/>
<path d="M9.84477 25.4528C6.61816 25.4528 4.00391 19.8579 4.00391 12.9646C4.00391 6.0949 6.61816 0.5 9.84477 0.5" fill="#FFE8CF"/>
<path d="M4.61617 23.3517C2.07257 23.3517 0 18.9135 0 13.4603C0 8.007 2.07257 3.56885 4.61617 3.56885" fill="#FFE8CF"/>
<path d="M80.2411 22.6433C81.9604 22.6433 83.2793 22.0296 84.1507 20.7784C85.0457 19.5508 85.4696 17.8511 85.4696 15.7028C82.7611 15.7028 80.7357 16.0805 79.3932 16.836C78.0508 17.5914 77.3677 18.6537 77.3677 19.9993C77.3677 20.8492 77.6268 21.5102 78.145 21.9587C78.6867 22.4309 79.3697 22.6433 80.2411 22.6433ZM87.4715 15.3959V14.6169C87.4715 11.2175 85.5874 9.51775 81.8426 9.51775C80.4295 9.51775 79.2755 9.75382 78.4276 10.2496C77.5797 10.7217 77.1558 11.4299 77.1558 12.327C77.1558 13.4365 77.8152 14.2392 79.1106 14.7113C80.4059 15.1835 82.5492 15.4195 85.5167 15.4195H87.4715V15.3959ZM96.0915 7.81803C96.8923 11.548 97.3868 13.8851 97.3868 16.3874C97.3868 22.4309 93.383 25.429 90.4626 25.429C89.5912 25.429 88.8611 25.1457 88.2958 24.6027C87.7306 24.0598 87.448 23.2335 87.448 22.1476V15.7028H85.7993C85.7993 16.9776 85.7993 18.2288 85.5638 19.3383C85.3283 20.4243 84.8572 21.3922 84.3627 22.3364C83.8681 23.2807 83.1615 24.0362 82.2665 24.6027C81.3716 25.1693 80.2882 25.4526 79.0635 25.4526C77.6504 25.4526 76.4728 25.0749 75.5778 24.2958C74.6828 23.5404 74.2354 22.5253 74.2354 21.2741C74.2354 18.0872 77.1087 16.1986 82.8318 15.5848C80.4059 15.4432 78.5924 15.089 77.3913 14.4989C76.1902 13.9087 75.6014 12.9644 75.6014 11.666C75.6014 10.1315 76.2608 8.92757 77.5562 8.0305C78.8515 7.13343 80.6179 6.7085 82.8553 6.7085C85.3283 6.7085 87.2595 7.32228 88.6255 8.57346C90.0151 9.82464 90.6981 11.7132 90.6981 14.2628V21.1561C90.6981 24.1306 92.3703 24.65 93.9718 23.2571C95.4556 21.9351 95.173 20.7548 95.2436 19.4328C95.2672 19.1259 95.6911 17.7803 95.6911 17.7803C95.9737 17.3553 96.5625 20.4479 96.7509 19.5036C96.9394 18.5593 97.0336 17.4025 97.0336 16.0333C97.0336 13.6018 96.539 11.3827 95.7382 7.81803H96.0915Z" fill="#FFE8CF"/>
<path d="M34.103 0.5H37.1177L45.0782 21.6992H45.1489L53.0152 0.5H56.0063L46.7268 24.8154H43.4296L34.103 0.5Z" fill="#FFE8CF"/>
<path d="M69.5959 14.6641C69.4782 13.4838 69.172 12.4923 68.6539 11.6424C68.1357 10.7925 67.4763 10.1788 66.6284 9.73021C65.8041 9.30528 64.862 9.06921 63.8022 9.06921C62.7423 9.06921 61.7767 9.30529 60.9053 9.77743C60.0339 10.2496 59.3273 10.9106 58.7621 11.7604C58.2204 12.6103 57.8435 13.5782 57.6551 14.6641H69.5959ZM59.6335 24.2722C58.1733 23.446 57.0428 22.3128 56.2185 20.8492C55.3941 19.3855 54.9702 17.733 54.9702 15.9153C54.9702 14.0975 55.347 12.5867 56.1007 11.1939C56.8544 9.80104 57.9142 8.6915 59.2567 7.88885C60.5991 7.08621 62.13 6.7085 63.8493 6.7085C65.5686 6.7085 67.0052 7.10982 68.277 7.88885C69.5488 8.66789 70.538 9.77743 71.2446 11.1703C71.9511 12.5867 72.328 14.1684 72.3515 15.9389V16.4347C72.3515 16.5999 72.3515 16.7888 72.328 16.9776H57.6787C57.82 18.2052 58.1968 19.2675 58.8327 20.1882C59.4686 21.1089 60.2694 21.8171 61.2821 22.3364C62.2713 22.8558 63.4018 23.1155 64.6265 23.1155C65.9454 23.1155 67.1701 22.8086 68.2535 22.1948C69.3369 21.581 70.1376 20.7784 70.6087 19.8105L72.8461 20.7312C72.4693 21.6754 71.8805 22.5017 71.0797 23.2099C70.2554 23.9181 69.2898 24.4847 68.1828 24.886C67.0523 25.2873 65.8747 25.4998 64.6029 25.4998C62.7423 25.4998 61.0937 25.0749 59.6335 24.2722Z" fill="#FFE8CF"/>
<path d="M108.033 7.53475C108.998 8.07771 109.728 8.88036 110.223 9.89547C110.718 10.9106 110.977 12.1381 110.977 13.5546V24.8152H108.362V13.8143C108.362 12.3506 107.962 11.1703 107.161 10.2968C106.361 9.42332 105.254 8.99839 103.864 8.99839C102.71 8.99839 101.697 9.25807 100.779 9.75382C99.8602 10.2496 99.1536 10.9814 98.6355 11.9021C98.1174 12.8228 97.8818 13.8379 97.8818 14.971V24.8152H95.2676V7.3931H97.6463L97.8818 9.98989H97.9054C98.6591 8.90396 99.6011 8.10132 100.685 7.53475C101.791 6.99178 103.087 6.7085 104.571 6.7085C105.913 6.7085 107.067 6.99178 108.033 7.53475Z" fill="#FFE8CF"/>
</g>
<defs>
<clipPath id="clip0_647_460">
<rect width="111" height="25" fill="white" transform="translate(0 0.5)"/>
</clipPath>
</defs>
</svg>
