<svg width="111" height="26" viewBox="0 0 111 26" fill="none" xmlns="http://www.w3.org/2000/svg">
<g clip-path="url(#clip0_299_2166)">
<path d="M13.4013 25.4528C16.6279 25.4528 19.2186 19.8579 19.2186 12.9882C19.2422 6.0949 16.6279 0.5 13.4013 0.5C10.1982 0.5 7.58398 6.0949 7.58398 12.9646C7.58398 19.8579 10.1982 25.4528 13.4013 25.4528Z" fill="#201A1A"/>
<path d="M17.0049 0.5C20.2315 0.5 22.8222 6.0949 22.8222 12.9646C22.8222 19.8579 20.2079 25.4292 17.0049 25.4292" fill="#201A1A"/>
<path d="M22.0684 3.09668C24.612 3.09668 26.6845 7.53483 26.6845 12.9881C26.6845 18.4413 24.612 22.8795 22.0684 22.8795" fill="#201A1A"/>
<path d="M9.84477 25.4528C6.61816 25.4528 4.00391 19.8579 4.00391 12.9646C4.00391 6.0949 6.61816 0.5 9.84477 0.5" fill="#201A1A"/>
<path d="M4.61617 23.3521C2.07257 23.3521 0 18.914 0 13.4607C0 8.00748 2.07257 3.56934 4.61617 3.56934" fill="#201A1A"/>
<path d="M80.2411 22.6438C81.9604 22.6438 83.2793 22.03 84.1507 20.7789C85.0457 19.5513 85.4696 17.8516 85.4696 15.7033C82.7611 15.7033 80.7357 16.081 79.3932 16.8365C78.0508 17.5919 77.3677 18.6542 77.3677 19.9998C77.3677 20.8497 77.6268 21.5107 78.145 21.9592C78.6867 22.4314 79.3697 22.6438 80.2411 22.6438ZM87.4715 15.3964V14.6174C87.4715 11.218 85.5874 9.51824 81.8426 9.51824C80.4295 9.51824 79.2755 9.75431 78.4276 10.2501C77.5797 10.7222 77.1558 11.4304 77.1558 12.3275C77.1558 13.437 77.8152 14.2397 79.1106 14.7118C80.4059 15.184 82.5492 15.42 85.5167 15.42H87.4715V15.3964ZM96.0915 7.81852C96.8923 11.5485 97.3868 13.8856 97.3868 16.3879C97.3868 22.4314 93.383 25.4295 90.4626 25.4295C89.5912 25.4295 88.8611 25.1462 88.2958 24.6032C87.7306 24.0603 87.448 23.234 87.448 22.1481V15.7033H85.7993C85.7993 16.9781 85.7993 18.2293 85.5638 19.3388C85.3283 20.4248 84.8572 21.3926 84.3627 22.3369C83.8681 23.2812 83.1615 24.0367 82.2665 24.6032C81.3716 25.1698 80.2882 25.4531 79.0635 25.4531C77.6504 25.4531 76.4728 25.0754 75.5778 24.2963C74.6828 23.5409 74.2354 22.5258 74.2354 21.2746C74.2354 18.0876 77.1087 16.1991 82.8318 15.5853C80.4059 15.4436 78.5924 15.0895 77.3913 14.4994C76.1902 13.9092 75.6014 12.9649 75.6014 11.6665C75.6014 10.132 76.2608 8.92806 77.5562 8.03099C78.8515 7.13391 80.6179 6.70898 82.8553 6.70898C85.3283 6.70898 87.2595 7.32277 88.6255 8.57395C90.0151 9.82513 90.6981 11.7137 90.6981 14.2633V21.1566C90.6981 24.1311 92.3703 24.6504 93.9718 23.2576C95.4556 21.9356 95.173 20.7553 95.2436 19.4333C95.2672 19.1264 95.6911 17.7807 95.6911 17.7807C95.9737 17.3558 96.5625 20.4484 96.7509 19.5041C96.9394 18.5598 97.0336 17.403 97.0336 16.0338C97.0336 13.6023 96.539 11.3832 95.7382 7.81852H96.0915Z" fill="#201A1A"/>
<path d="M34.1035 0.5H37.1182L45.0787 21.6992H45.1493L53.0157 0.5H56.0068L46.7273 24.8154H43.4301L34.1035 0.5Z" fill="#201A1A"/>
<path d="M69.5954 14.6646C69.4777 13.4842 69.1715 12.4927 68.6534 11.6429C68.1352 10.793 67.4758 10.1792 66.6279 9.7307C65.8036 9.30577 64.8615 9.0697 63.8017 9.0697C62.7418 9.0697 61.7762 9.30577 60.9048 9.77792C60.0334 10.2501 59.3268 10.9111 58.7616 11.7609C58.2199 12.6108 57.8431 13.5787 57.6546 14.6646H69.5954ZM59.633 24.2727C58.1728 23.4465 57.0423 22.3133 56.218 20.8497C55.3937 19.386 54.9697 17.7335 54.9697 15.9158C54.9697 14.098 55.3466 12.5872 56.1002 11.1943C56.8539 9.80152 57.9137 8.69199 59.2562 7.88934C60.5986 7.0867 62.1295 6.70898 63.8488 6.70898C65.5681 6.70898 67.0047 7.11031 68.2765 7.88934C69.5483 8.66838 70.5375 9.77792 71.2441 11.1707C71.9506 12.5872 72.3275 14.1689 72.351 15.9394V16.4351C72.351 16.6004 72.351 16.7892 72.3275 16.9781H57.6782C57.8195 18.2057 58.1963 19.268 58.8322 20.1887C59.4681 21.1094 60.2689 21.8176 61.2816 22.3369C62.2708 22.8563 63.4013 23.116 64.626 23.116C65.9449 23.116 67.1696 22.8091 68.253 22.1953C69.3364 21.5815 70.1371 20.7789 70.6082 19.811L72.8456 20.7316C72.4688 21.6759 71.88 22.5022 71.0792 23.2104C70.2549 23.9186 69.2893 24.4852 68.1823 24.8865C67.0518 25.2878 65.8742 25.5003 64.6024 25.5003C62.7418 25.5003 61.0932 25.0754 59.633 24.2727Z" fill="#201A1A"/>
<path d="M108.033 7.53524C108.998 8.0782 109.728 8.88084 110.223 9.89595C110.718 10.9111 110.977 12.1386 110.977 13.5551V24.8157H108.362V13.8147C108.362 12.3511 107.962 11.1707 107.161 10.2973C106.361 9.42381 105.254 8.99888 103.864 8.99888C102.71 8.99888 101.697 9.25856 100.779 9.75431C99.8602 10.2501 99.1536 10.9819 98.6355 11.9026C98.1174 12.8232 97.8818 13.8384 97.8818 14.9715V24.8157H95.2676V7.39359H97.6463L97.8818 9.99038H97.9054C98.6591 8.90445 99.6011 8.10181 100.685 7.53524C101.791 6.99227 103.087 6.70898 104.571 6.70898C105.913 6.70898 107.067 6.99227 108.033 7.53524Z" fill="#201A1A"/>
</g>
<defs>
<clipPath id="clip0_299_2166">
<rect width="111" height="25" fill="white" transform="translate(0 0.5)"/>
</clipPath>
</defs>
</svg>
