<svg width="711" height="714" viewBox="0 0 711 714" fill="none" xmlns="http://www.w3.org/2000/svg">
<path d="M103.672 605.52C111.783 607.922 119.293 613.928 126.703 620.435C134.514 627.241 135.916 630.745 145.83 637.952C159.648 647.961 171.164 651.365 173.868 652.165C181.979 654.468 188.788 655.068 193.394 655.469C196.298 655.669 199.002 655.769 201.405 655.869C206.813 655.969 210.718 655.569 211.82 655.569C240.559 653.467 283.417 650.364 310.254 664.377C312.557 665.578 317.964 668.682 326.376 672.585C334.987 676.589 343.699 680.593 348.506 681.794C384.855 690.403 395.169 676.189 439.63 684.797C461.159 689.001 477.682 694.807 477.682 694.807C491 699.512 494.204 702.014 505.72 705.818C509.926 707.219 527.35 712.825 546.776 713.826C571.009 715.127 589.735 708.921 607.859 702.815C629.589 695.508 641.105 688.201 662.934 684.797C673.349 683.196 683.963 682.795 683.963 682.795C695.479 682.395 704.892 683.096 711 683.796V207.132C680.058 206.431 654.122 208.633 634.896 211.136C613.467 213.938 594.141 216.541 569.807 225.149C552.884 231.155 540.468 237.561 529.753 243.167C507.823 254.578 503.417 259.583 474.678 277.2C446.439 294.517 432.42 303.125 417.6 308.23C388.961 318.04 363.426 318.24 357.518 318.24C336.289 318.14 329.48 314.236 303.444 315.237C291.929 315.638 281.114 316.038 267.395 319.241C256.681 321.744 223.736 329.851 198.301 356.277C189.689 365.286 188.388 369.59 177.272 379.3C161.851 392.713 148.333 398.118 145.229 399.319C135.816 402.923 127.605 404.424 122.197 405.325C111.483 407.127 103.672 407.227 100.167 407.327C77.1359 408.128 56.1073 419.539 51.1004 422.342C27.5684 435.154 -1.07068 466.585 0.0308222 507.424C0.932051 540.557 21.0595 565.581 36.08 577.493C51.501 589.705 66.1209 594.509 66.1209 594.509L69.125 595.41C80.7408 598.813 92.2565 602.117 103.672 605.52Z" fill="#F5D8B9"/>
<mask id="mask0_299_946" style="mask-type:alpha" maskUnits="userSpaceOnUse" x="0" y="0" width="711" height="714">
<path d="M126.9 620.5C119.5 614 112 608 103.9 605.6C92.4999 602.2 80.9999 598.9 69.3999 595.5L66.3999 594.6C66.3999 594.6 51.7999 589.8 36.3999 577.6C21.3999 565.7 1.29992 540.7 0.399921 507.6C-0.700079 466.8 27.8999 435.4 51.3999 422.6C56.3999 419.8 88.9999 316.8 112 316C123.1 306.3 250.4 253 259 244C285 243 242.9 -39.9997 607.4 5.00027C607.4 5.00027 681.8 217.4 710.4 207.6V683.8C704.3 683.1 694.9 682.4 683.4 682.8C683.4 682.8 672.8 683.2 662.4 684.8C640.6 688.2 629.1 695.5 607.4 702.8C589.3 708.9 570.6 715.1 546.4 713.8C527 712.8 509.6 707.2 505.4 705.8C493.9 702 490.7 699.5 477.4 694.8C477.4 694.8 460.9 689 439.4 684.8C395 676.2 384.7 690.4 348.4 681.8C343.6 680.6 334.9 676.6 326.3 672.6C317.9 668.7 312.5 665.6 310.2 664.4C283.4 650.4 240.6 653.5 211.9 655.6C210.8 655.6 206.9 656 201.5 655.9C199.1 655.8 196.4 655.7 193.5 655.5C188.9 655.1 182.1 654.5 174 652.2L173.99 652.197C171.272 651.392 159.783 647.988 146 638C136.1 630.8 134.7 627.3 126.9 620.5Z" fill="#F5D8B9"/>
</mask>
<g mask="url(#mask0_299_946)">
<path d="M271.071 715.003H537.791L512.89 641.989L308.515 652.499L271.071 715.003Z" fill="#201A1A"/>
<path d="M320.69 654.158L476.553 648.442L531.889 338.685L481.902 317.113C481.902 317.113 461.243 328.728 422.693 328.913C385.064 329.097 385.617 316.375 385.617 316.375L352.6 351.96C352.6 351.96 311.836 467.75 311.283 470.147C310.545 472.36 320.69 654.158 320.69 654.158Z" fill="#F5D8B9"/>
<path d="M500.902 324.857C500.902 324.857 577.634 340.713 578.372 353.435C579.11 366.158 545.539 445.441 544.802 447.469C544.064 449.497 514.736 562.706 514.736 562.706L559.004 714.819H421.033C421.033 714.819 430.809 571.187 442.061 504.995C453.128 438.619 455.71 416.493 459.953 390.127C461.613 379.617 470.282 343.479 475.631 321.353C478.214 311.028 476.369 302.362 476.369 302.362L483.01 304.944L500.902 324.857Z" fill="#875849"/>
<path d="M260.743 519.192C260.005 520.299 245.986 571.187 243.773 585.938C241.744 598.476 238.793 618.757 252.073 637.564C265.354 656.371 279.003 654.158 292.284 649.364C305.565 644.57 319.952 616.914 322.535 601.057C325.117 585.2 310.176 515.505 310.176 515.505L260.743 519.192Z" fill="#875849"/>
<path d="M385.802 306.234L368.647 330.388C368.647 330.388 311.651 337.763 298.555 347.351C285.459 356.939 258.897 529.333 258.897 529.333L311.836 558.834L270.887 715.188H322.165C322.165 715.188 334.892 649.364 333.786 601.979C332.679 554.593 340.795 493.195 355.92 447.653C371.045 402.296 385.433 323.566 385.433 323.566L385.802 306.234Z" fill="#875849"/>
<g opacity="0.3">
<path d="M540.927 657.476L449.069 606.403C452.943 627.423 465.301 647.52 483.378 659.136C501.454 670.567 524.326 674.255 544.985 668.908C543.694 665.036 542.218 661.348 540.927 657.476Z" fill="#201A1A"/>
</g>
<path d="M268.858 560.309C268.858 560.493 266.644 560.862 263.509 562.152C260.189 563.443 255.946 566.209 252.626 570.449C249.306 574.69 247.646 579.484 247.092 582.987C246.539 586.49 246.723 588.703 246.539 588.703C246.539 588.703 246.354 588.15 246.354 587.228C246.354 586.306 246.354 584.831 246.539 582.987C246.908 579.484 248.568 574.506 252.073 570.081C255.577 565.656 260.004 563.074 263.509 561.784C265.169 561.231 266.644 560.862 267.567 560.677C268.304 560.309 268.858 560.309 268.858 560.309Z" fill="#201A1A"/>
<path d="M279.556 631.848C279.556 631.848 294.128 627.238 299.293 621.338C305.38 614.516 308.7 604.375 309.069 600.872C309.807 592.022 312.943 545.927 312.943 545.927L274.576 543.346L250.966 588.519C250.966 588.519 244.51 605.113 257.606 622.813C266.091 634.245 279.556 631.848 279.556 631.848Z" fill="#BA7C69"/>
<path d="M316.448 606.404C316.263 606.404 316.632 604.376 317.001 601.057C317.37 597.738 317.37 593.313 316.816 588.335C316.263 583.356 314.972 578.931 313.865 575.981C312.759 572.847 311.836 571.003 312.021 571.003C312.021 571.003 312.39 571.372 312.759 572.294C313.127 573.031 313.865 574.322 314.419 575.797C315.71 578.931 317.001 583.356 317.739 588.335C318.292 593.313 318.108 598.107 317.739 601.241C317.554 602.901 317.185 604.191 317.001 605.113C316.632 606.035 316.448 606.404 316.448 606.404Z" fill="#201A1A"/>
<path d="M314.972 607.325C314.972 607.325 314.972 608.063 314.972 609.538C314.972 610.275 314.972 611.197 314.787 612.119C314.603 613.041 314.603 614.332 314.234 615.438C313.681 618.019 312.943 620.785 311.652 624.104C310.36 627.238 308.7 630.557 306.671 633.876C304.458 637.195 302.06 639.96 299.662 642.357C297.264 644.754 294.866 646.598 292.837 648.073C291.731 648.811 290.808 649.364 289.886 649.917C288.964 650.47 288.226 650.839 287.673 651.208C286.381 651.761 285.644 652.129 285.644 652.129C285.644 651.945 288.41 650.654 292.468 647.704C294.497 646.229 296.711 644.201 299.109 641.989C301.322 639.592 303.72 636.826 305.933 633.507C307.962 630.373 309.623 627.054 310.914 623.919C312.205 620.785 313.127 618.019 313.496 615.438C314.787 610.46 314.787 607.325 314.972 607.325Z" fill="#201A1A"/>
<path d="M140.479 309.922C138.634 309.922 129.227 312.319 124.247 319.326L210.018 441.016L317.186 428.663L315.526 319.141C315.526 319.141 308.332 308.632 301.138 309.738C298.371 310.291 207.805 324.304 199.689 346.614C199.689 346.614 200.611 335.367 193.048 329.651C185.486 323.935 140.479 309.922 140.479 309.922Z" fill="white"/>
<path d="M141.77 310.291C142.693 310.475 143.799 310.844 145.459 311.397C148.595 312.319 153.391 313.978 159.662 316.006C165.749 318.034 173.312 320.616 181.981 324.119C184.195 325.041 186.408 325.963 188.622 326.885C190.835 327.991 193.233 329.097 195.077 330.941C198.951 334.813 200.427 340.713 200.242 346.613L199.689 346.429C201.349 342.372 204.853 339.238 208.543 336.841C212.416 334.26 216.474 332.232 220.901 330.203C229.755 326.332 239.531 323.197 250.045 320.247C260.374 317.481 271.441 314.9 283.062 312.503C288.78 311.397 294.682 310.291 300.769 309.369C302.245 309 304.089 309.184 305.565 309.737C307.041 310.291 308.516 311.028 309.623 311.95C312.205 313.794 314.234 316.191 316.079 318.772V318.956V319.141C316.448 347.351 317.001 378.142 317.555 410.04C317.739 416.309 317.739 422.393 317.923 428.478V428.846H317.555C279.373 433.272 243.035 437.328 210.387 441.015H210.203L210.018 440.831C170.361 384.411 139.557 340.529 124.432 318.956V318.772V318.588C126.276 316.006 128.49 314.162 130.519 312.872C132.548 311.581 134.392 310.844 135.868 310.291C137.343 309.737 138.635 309.553 139.372 309.369C140.11 309.737 140.479 309.922 140.479 309.922C140.479 309.922 140.11 309.922 139.372 310.106C138.635 310.29 137.343 310.659 135.868 311.212C134.392 311.766 132.548 312.687 130.519 313.794C128.49 315.084 126.276 316.928 124.432 319.509V319.325C139.557 340.713 170.73 384.595 210.387 440.831L210.018 440.647C242.666 436.959 278.819 432.718 317.186 428.293L316.817 428.846C316.632 422.762 316.632 416.493 316.448 410.408C315.895 378.511 315.526 347.72 314.972 319.509V319.694C313.128 317.297 311.099 314.9 308.701 313.056C307.41 312.134 306.118 311.397 304.827 310.844C303.352 310.291 302.06 310.29 300.585 310.475C294.498 311.397 288.78 312.503 282.877 313.609C271.441 315.822 260.374 318.403 250.045 321.169C239.715 323.935 229.939 327.069 221.085 330.941C216.658 332.785 212.416 334.997 208.727 337.394C205.038 339.976 201.718 342.926 200.058 346.798L199.32 348.457V346.613C199.504 340.897 198.029 334.997 194.524 331.31C192.679 329.466 190.282 328.36 188.253 327.253C186.039 326.147 183.826 325.225 181.612 324.488C172.943 320.985 165.565 318.403 159.478 316.375C153.391 314.347 148.595 312.687 145.459 311.581C143.799 311.028 142.693 310.659 141.77 310.291Z" fill="#201A1A"/>
<path d="M193.048 457.978L112.626 321.537C111.888 320.246 112.073 318.587 112.995 317.481C113.917 316.374 115.577 316.006 116.869 316.559L180.136 341.819C181.427 342.372 182.35 343.109 183.272 344.031C185.116 346.06 185.854 348.825 185.301 351.591L184.379 355.832L206.513 361.547L207.066 360.257C208.911 355.647 212.6 352.144 217.396 350.669L319.399 318.218C323.826 316.743 328.437 318.771 330.65 322.828L402.956 462.403L400.558 469.041L285.459 496.329H265.169L193.048 457.978Z" fill="#9A3131"/>
<path d="M193.048 457.978C193.048 457.978 193.417 458.162 194.339 458.531C195.261 458.9 196.368 459.637 198.028 460.375C201.348 462.034 205.96 464.616 212.231 467.75C224.589 474.203 242.666 483.791 265.354 495.776H265.169C271.441 495.776 278.265 495.776 285.459 495.776C317.37 488.216 356.658 478.813 400.558 468.303L400.189 468.488C400.927 466.459 401.665 464.247 402.587 461.85V462.219C390.782 439.54 378.239 415.386 365.143 389.942C358.503 377.22 351.862 364.313 345.038 351.222C341.717 344.585 338.213 337.947 334.708 331.309C333.786 329.65 333.048 327.991 332.126 326.331L330.835 323.75C330.466 322.828 330.097 322.09 329.543 321.353C327.33 318.403 323.272 317.112 319.952 318.218C299.478 324.672 279.372 331.125 259.636 337.394C249.86 340.528 240.083 343.663 230.676 346.613C225.881 348.088 221.085 349.563 216.658 351.222C212.231 353.066 208.726 356.938 207.435 361.363L207.251 361.732L206.882 361.548C199.319 359.704 191.941 357.676 184.747 355.832L184.378 355.647L184.563 355.279L185.301 351.96C185.67 350.854 185.67 349.747 185.67 348.641C185.485 346.428 184.378 344.4 182.718 343.11C181.796 342.372 180.874 342.003 179.952 341.635L176.816 340.344C174.787 339.422 172.758 338.685 170.544 337.947C162.244 334.628 154.313 331.494 146.381 328.359C138.45 325.225 130.887 322.09 123.324 319.14C121.48 318.403 119.635 317.665 117.791 316.928C116.131 316.006 113.917 316.743 113.364 318.403C112.995 319.14 112.995 320.062 113.364 320.984L114.839 323.381C115.762 325.04 116.868 326.7 117.791 328.359C133.285 354.726 146.75 377.773 158.002 396.948C169.253 416.124 178.107 431.243 184.194 441.753C187.145 446.915 189.543 450.972 191.203 453.737C191.941 455.028 192.494 456.134 193.048 456.872C192.863 457.609 193.048 457.978 193.048 457.978C193.048 457.978 192.863 457.609 192.494 457.056C192.126 456.319 191.388 455.397 190.65 454.106C188.99 451.34 186.592 447.468 183.641 442.306C177.554 431.98 168.515 416.677 157.264 397.686C146.012 378.51 132.363 355.463 116.868 329.097C115.946 327.437 114.839 325.778 113.917 324.119C113.364 323.197 112.995 322.459 112.442 321.537C111.888 320.615 111.888 319.325 112.257 318.403C112.626 317.481 113.548 316.559 114.655 316.19C115.762 315.822 116.868 316.006 117.791 316.375C119.635 317.112 121.48 317.85 123.324 318.587C130.887 321.537 138.45 324.672 146.381 327.806C154.313 330.941 162.244 334.075 170.544 337.394C172.573 338.131 174.602 339.053 176.816 339.791L179.952 341.081C181.058 341.45 182.165 342.003 183.087 342.741C184.932 344.216 186.223 346.428 186.407 348.825C186.592 349.932 186.223 351.222 186.039 352.329L185.301 355.647L184.932 355.094C192.126 356.938 199.504 358.782 207.066 360.81L206.513 361.179C207.989 356.569 211.678 352.329 216.289 350.485C221.085 348.825 225.696 347.535 230.492 345.875C240.083 342.925 249.675 339.791 259.451 336.656C279.003 330.387 299.109 323.934 319.767 317.481C323.641 316.19 328.068 317.85 330.466 320.984C331.019 321.722 331.572 322.644 331.941 323.565L333.233 326.147C334.155 327.806 334.893 329.466 335.815 331.125C339.32 337.763 342.64 344.4 346.144 351.038C352.969 364.129 359.609 377.22 366.25 389.758C379.346 415.018 391.889 439.356 403.694 462.034V462.219V462.403C402.956 464.616 402.034 467.013 401.296 469.041V469.225H401.112C357.027 479.55 317.923 488.769 285.828 496.329C278.634 496.329 271.994 496.329 265.538 496.329C242.85 484.344 224.774 474.756 212.415 468.119C206.328 464.8 201.533 462.219 198.397 460.559C196.737 459.637 195.63 459.084 194.708 458.531C193.417 458.162 193.048 457.978 193.048 457.978Z" fill="#201A1A"/>
<g opacity="0.3">
<path d="M249.676 479.919L197.106 454.659L124.247 334.997L188.621 359.888L187.146 363.392L133.101 342.372L199.689 451.894L251.336 476.6L249.676 479.919Z" fill="#201A1A"/>
</g>
<g opacity="0.3">
<path d="M292.284 487.295L226.065 367.817L323.641 336.473L387.278 459.638L292.284 487.295ZM231.415 370.03L294.129 483.054L381.929 457.426L321.797 341.082L231.415 370.03Z" fill="#201A1A"/>
</g>
<path d="M280.479 494.67C280.294 494.854 263.693 465.169 243.403 428.293C223.113 391.602 206.882 361.548 207.066 361.548C207.25 361.363 223.851 391.048 244.141 427.924C264.431 464.616 280.663 494.67 280.479 494.67Z" fill="#201A1A"/>
<path d="M184.562 355.647C184.562 355.647 184.931 356.016 185.485 356.938C186.038 357.86 186.776 359.335 187.698 360.994C189.727 364.498 192.494 369.476 195.814 375.745C202.639 388.283 211.862 405.614 222.191 424.79C232.336 443.965 241.559 461.297 248.199 473.835C251.519 480.104 254.286 485.082 256.131 488.769C257.053 490.429 257.791 491.904 258.344 492.826C258.897 493.748 259.082 494.301 259.082 494.301C259.082 494.301 258.713 493.932 258.16 493.01C257.606 492.088 256.868 490.613 255.946 488.954C253.917 485.451 251.15 480.472 247.83 474.203C241.005 461.666 231.783 444.334 221.453 425.158C211.308 405.983 202.086 388.651 195.445 376.114C192.125 369.845 189.358 364.866 187.514 361.179C186.591 359.519 185.854 358.044 185.3 357.123C184.747 356.201 184.562 355.647 184.562 355.647Z" fill="#201A1A"/>
<path d="M197.106 357.861C196.921 357.861 197.29 355.28 197.843 352.329C198.581 349.379 199.319 346.982 199.503 346.982C199.688 346.982 199.319 349.564 198.766 352.514C198.028 355.464 197.29 357.861 197.106 357.861Z" fill="#201A1A"/>
<g opacity="0.3">
<path d="M209.28 394.736L248.384 467.197L262.034 469.226L223.114 397.318L209.28 394.736Z" fill="#201A1A"/>
</g>
<g opacity="0.3">
<path d="M195.445 375.376L217.026 379.801L221.822 387.545L199.688 383.304L195.814 376.482" fill="#201A1A"/>
</g>
<g opacity="0.3">
<path d="M272.732 375.376L268.858 366.526L293.206 357.86L297.264 366.526L272.732 375.376Z" fill="#201A1A"/>
</g>
<g opacity="0.3">
<path d="M271.072 420.181L257.606 394.737L326.223 369.477L338.397 394.737L271.072 420.181Z" fill="#201A1A"/>
</g>
<path d="M491.862 13.9927C497.211 9.01447 504.958 6.61754 512.151 7.9082C515.103 8.46134 518.238 9.38323 520.821 8.09258C522.665 7.17068 523.772 5.14251 525.248 3.48309C529.675 -1.31077 538.344 -1.12639 542.586 3.85185C543.693 5.14251 544.431 6.61754 545.906 7.35506C551.44 10.6739 558.449 0.164267 563.983 3.48309C561.401 4.58937 558.818 5.88003 557.343 8.27696C555.867 10.6739 555.682 13.9927 557.711 15.8365C562.876 20.8148 572.283 10.6739 578.001 14.9146C581.137 17.1272 581.322 22.6585 585.011 23.7648C586.486 24.1336 587.962 23.7648 589.437 23.5804C594.418 23.2117 599.214 27.6368 599.582 32.615C599.767 36.8558 597.369 42.0184 600.505 44.9684C602.349 46.8122 605.485 46.6279 608.067 46.4435C607.883 50.3154 606.592 54.1874 604.747 57.6906C611.572 61.9313 613.601 72.2566 608.99 78.8942C612.31 81.6599 615.63 84.61 617.474 88.482C619.503 92.3539 619.688 97.3322 616.921 100.651C616.368 101.389 615.63 102.126 615.077 103.048C614.708 103.97 614.708 105.076 614.892 106.182C615.445 110.239 617.106 114.111 616.737 118.167C616.368 122.223 613.232 126.648 609.174 126.095C608.252 125.911 607.145 125.542 606.407 126.095C605.854 126.464 605.485 127.202 605.301 127.939C604.563 130.889 605.116 133.839 605.485 136.789C605.669 139.739 605.669 142.874 603.825 145.271C601.98 147.483 597.922 148.221 596.262 145.824C597.185 150.433 598.107 155.043 599.029 159.652C599.582 162.418 599.951 165.737 597.922 167.581C595.156 169.978 590.729 167.765 588.884 164.631C587.04 161.496 586.671 157.624 584.826 154.49C584.088 153.199 582.982 152.093 582.613 150.618C582.244 149.512 582.059 148.221 581.322 147.483C579.477 145.824 576.71 148.221 576.71 150.618C576.895 153.015 578.555 154.859 580.03 156.702C581.506 158.546 582.428 161.312 581.137 163.34C580.584 164.262 579.477 164.815 578.739 165.921C576.71 169.24 581.506 172.928 581.875 176.8C582.244 179.75 580.03 182.147 577.817 184.175C575.235 186.572 570.254 188.416 568.779 185.097C568.225 183.99 568.594 182.7 568.225 181.409C567.856 179.934 566.565 179.012 565.643 178.09C563.061 175.509 561.216 172.19 560.663 168.687C563.43 172.559 566.381 177.537 564.167 181.778C563.245 183.437 561.401 184.728 559.925 186.019C556.974 188.784 555.129 192.288 552.362 195.053C549.596 197.819 544.984 199.478 541.664 197.45C542.586 201.322 540.742 205.747 537.237 207.591C533.733 209.435 528.937 208.513 526.354 205.563C525.617 204.825 525.063 203.719 524.141 203.35C523.034 202.797 521.927 203.166 520.636 203.35C513.627 204.272 506.249 200.953 502.56 195.053C503.667 194.684 504.958 194.316 506.064 193.947C499.24 192.656 492.046 191.366 486.512 187.125C480.979 182.884 477.659 174.956 480.979 168.871C482.454 166.29 485.037 163.524 484.114 160.759C483.377 158.73 481.348 157.809 479.319 157.071C471.203 153.752 463.271 150.433 455.155 147.299C451.282 145.64 447.224 143.98 444.641 140.477C442.243 137.158 442.243 131.442 445.748 129.23C444.088 125.358 441.137 122.039 437.632 119.642C433.574 117.061 428.963 115.586 424.905 113.189C420.847 110.792 417.158 106.367 417.711 101.757C418.265 96.9634 424.905 93.6446 428.041 97.3322C427.672 90.1414 414.944 89.0351 414.207 81.8443C413.653 75.9442 421.216 73.3629 425.089 69.1221C424.351 67.094 422.507 65.6189 421.769 63.5908C420.293 59.35 424.72 55.4781 428.963 53.6343C433.205 51.9749 438.186 50.1311 439.477 45.8903C440.768 41.4652 437.079 36.1182 439.661 32.2463C441.137 30.0337 444.272 29.4806 446.486 30.9556C450.175 22.8429 465.485 29.8493 470.28 22.4742C470.649 21.921 471.018 21.1835 470.834 20.446C470.834 19.8929 470.465 19.3397 470.096 18.7866C468.436 16.3896 465.669 15.099 463.456 13.2552C461.242 11.4114 459.398 8.27696 460.689 5.69565C461.796 3.11434 466.96 3.29872 466.776 6.24879C469.912 3.85185 475.261 5.32689 476.367 9.19885C478.396 6.80192 482.454 7.17068 485.037 8.8301C487.619 10.4895 489.279 13.4396 490.755 16.2053" fill="#201A1A"/>
<path d="M526.539 107.104C524.325 95.1192 515.84 85.3471 506.249 77.7875C502.191 74.6531 497.948 71.703 492.968 70.7811C487.988 69.8592 482.27 71.5186 479.503 75.7594L480.056 84.2408C478.581 97.7005 488.726 109.316 493.337 122.039C495.366 127.57 497.026 134.208 502.375 136.605C505.142 137.895 508.462 137.711 511.413 136.789C522.85 133.101 528.752 119.088 526.539 107.104Z" fill="#875849"/>
<path d="M526.17 169.609C534.102 159.652 532.995 143.795 524.141 134.945C529.121 128.676 527.461 119.089 522.481 113.004C517.501 106.735 510.123 103.232 502.929 99.7288C499.056 81.4752 478.766 68.3843 460.689 72.625C451.467 58.6122 431.177 56.2153 415.129 60.8247C411.256 61.931 407.198 63.4061 403.14 63.4061C400.188 63.4061 397.237 62.4842 394.286 62.1154C377.87 59.7185 361.453 71.15 354.997 86.2691C353.891 88.666 353.153 91.2473 351.493 93.2755C349.279 96.0412 346.143 97.5162 343.377 99.7288C337.29 104.338 333.601 111.529 333.047 119.089C332.678 125.542 334.707 132.18 331.941 138.08C330.649 141.03 328.067 143.242 326.96 146.377C323.825 155.043 333.416 164.077 331.572 173.296C331.203 175.14 330.28 176.799 329.727 178.643C328.62 182.331 328.989 186.387 330.649 189.89C331.941 192.656 333.97 195.053 334.154 198.003C334.338 200.216 333.232 202.428 332.678 204.641C331.572 209.988 343.008 231.007 347.619 234.141L487.804 236.907C498.502 234.879 507.171 225.291 508.278 214.597C508.463 212.753 508.463 210.91 509.569 209.434C510.492 208.328 512.152 207.775 513.443 207.038C522.481 202.244 523.772 189.89 522.85 179.749C522.666 178.274 522.666 176.799 523.035 175.509C523.403 172.743 524.879 171.268 526.17 169.609Z" fill="#201A1A"/>
<path d="M486.328 169.425C487.066 144.718 471.756 115.955 447.224 103.601C431.73 95.8574 419.74 95.673 411.44 94.5668C393.179 92.1698 378.238 101.204 378.238 101.204C370.491 102.864 341.901 128.493 340.241 156.703C338.212 187.863 337.105 226.029 340.794 249.445C348.172 296.278 384.141 302.178 384.141 302.178L382.481 339.238L408.673 387.73L475.999 319.141L486.328 169.425Z" fill="#BA7C69"/>
<path d="M410.886 242.255C410.702 239.858 409.411 237.645 407.75 235.986C404.43 232.852 399.45 232.298 395.577 234.695C391.703 237.092 389.305 242.255 389.674 247.049C391.519 249.999 394.654 252.027 398.159 252.58C398.712 252.58 399.266 252.765 399.819 252.765C402.401 252.765 405.168 252.027 407.382 250.183C409.779 248.339 411.071 245.205 410.886 242.255Z" fill="#875849"/>
<path d="M350.754 198.373C350.57 201.507 353.152 204.273 356.472 204.457C359.793 204.641 362.559 202.245 362.744 199.11C362.928 195.976 360.346 193.21 357.026 193.026C353.521 192.841 350.754 195.238 350.754 198.373Z" fill="#201A1A"/>
<path d="M350.754 174.587C351.492 175.325 356.104 172.006 362.559 172.006C369.015 172.006 373.811 175.325 374.549 174.403C374.918 174.034 374.18 172.559 372.151 171.084C370.122 169.609 366.617 168.134 362.559 168.134C358.502 168.134 355.181 169.609 353.152 171.084C351.123 172.743 350.386 174.218 350.754 174.587Z" fill="#201A1A"/>
<path d="M388.567 225.476C388.567 225.108 384.509 224.37 378.053 223.632C376.393 223.448 374.918 223.079 374.549 221.973C374.18 220.867 374.918 219.023 375.656 216.995C377.131 212.938 378.791 208.882 380.451 204.457C387.276 186.572 392.072 171.822 391.334 171.638C390.596 171.453 384.509 185.65 377.685 203.535C376.024 207.96 374.549 212.201 373.073 216.257C372.52 218.101 371.413 220.314 372.151 222.711C372.52 224.001 373.811 224.923 374.918 225.108C376.024 225.476 376.947 225.476 377.685 225.476C384.509 225.845 388.567 225.845 388.567 225.476Z" fill="#201A1A"/>
<path d="M384.141 301.993C384.141 301.993 415.683 304.022 446.855 285.215C446.855 285.215 430.255 318.956 383.403 314.531L384.141 301.993Z" fill="#875849"/>
<path d="M407.751 230.086C406.644 230.086 406.644 237.092 400.741 242.071C394.839 247.049 387.276 246.311 387.276 247.233C387.092 247.602 388.936 248.524 392.072 248.708C395.208 248.893 399.635 247.786 403.324 244.836C407.013 241.702 408.488 237.645 408.857 234.88C408.857 231.745 408.12 229.902 407.751 230.086Z" fill="#201A1A"/>
<path d="M353.337 150.249C354.443 151.908 359.423 150.802 365.142 151.171C370.86 151.54 375.655 153.199 376.947 151.724C377.5 150.987 376.947 149.511 374.918 147.852C372.889 146.193 369.568 144.902 365.51 144.533C361.452 144.349 357.948 145.271 355.734 146.561C353.705 148.036 352.968 149.511 353.337 150.249Z" fill="#201A1A"/>
<path d="M420.293 201.138C420.293 204.272 417.526 206.853 414.206 207.038C410.886 207.038 408.304 204.641 408.304 201.322C408.304 198.188 411.071 195.606 414.391 195.422C417.526 195.422 420.293 198.003 420.293 201.138Z" fill="#201A1A"/>
<path d="M439.292 176.984C438.554 177.722 434.128 174.219 427.672 174.034C421.216 173.666 416.42 176.8 415.682 176.062C415.313 175.694 416.236 174.403 418.265 172.928C420.293 171.453 423.798 170.162 427.856 170.347C431.914 170.531 435.234 172.191 437.079 173.666C439.108 175.325 439.661 176.616 439.292 176.984Z" fill="#201A1A"/>
<path d="M441.137 155.412C439.845 156.887 434.865 155.043 428.963 154.859C423.06 154.305 417.895 155.412 416.789 153.937C416.235 153.199 417.158 151.724 419.371 150.433C421.584 149.143 425.274 148.221 429.332 148.405C433.39 148.59 436.894 150.065 438.923 151.724C440.952 153.199 441.69 154.674 441.137 155.412Z" fill="#201A1A"/>
<path d="M478.581 213.676C478.581 210.173 482.639 201.876 486.144 201.507C495.366 200.032 511.967 200.77 512.152 224.186C512.336 256.083 480.241 249.814 480.241 248.893C480.057 248.155 478.581 225.845 478.581 213.676Z" fill="#BA7C69"/>
<path d="M488.726 237.092C488.91 236.907 489.279 237.461 490.201 237.829C491.123 238.198 492.784 238.567 494.444 237.829C497.764 236.539 500.531 231.192 500.715 225.476C500.715 222.526 500.162 219.76 499.055 217.548C498.133 215.151 496.473 213.676 494.813 213.307C493.152 212.938 491.861 214.044 491.492 214.782C491.123 215.704 491.308 216.257 491.123 216.441C491.123 216.441 490.386 215.888 490.755 214.598C490.939 214.044 491.308 213.122 492.046 212.569C492.784 212.016 493.89 211.647 495.181 211.647C497.579 211.832 499.793 214.044 501.084 216.626C502.375 219.207 503.113 222.157 503.113 225.476C502.929 231.929 499.793 238.014 495.181 239.304C492.968 239.858 491.123 239.304 490.017 238.567C488.726 237.829 488.726 237.092 488.726 237.092Z" fill="#875849"/>
<path d="M332.862 157.071C339.318 153.015 343.376 147.483 343.007 139.924C347.25 141.214 351.677 135.683 354.074 131.995C356.657 128.308 359.608 126.464 359.424 122.039C359.424 121.117 359.239 120.195 359.793 119.457C360.53 118.167 362.006 117.798 363.297 117.429C370.122 115.217 375.656 109.501 377.316 102.495C384.14 105.445 391.703 106.735 399.266 106.182C402.586 110.976 408.488 113.926 414.206 113.557C420.109 113.373 425.642 109.87 428.409 104.892C430.254 108.948 434.496 111.529 438.739 112.635C442.981 113.742 447.592 113.557 452.019 113.373C450.175 122.039 455.708 131.442 464.009 134.023C465.116 134.392 466.407 134.761 466.96 135.867C467.513 136.973 466.96 138.264 466.407 139.37C463.64 146.746 468.436 155.965 475.998 157.808C470.834 161.865 471.387 171.268 476.921 174.587C478.027 175.324 479.687 176.062 479.503 177.537C479.503 178.09 479.134 178.459 478.765 178.828C476.367 181.962 473.969 185.465 473.785 189.337C473.416 193.209 476.183 197.634 480.056 197.819C478.027 199.662 475.998 202.059 475.998 204.825C475.998 207.591 478.765 210.356 481.347 209.435C482.454 209.066 498.317 205.931 499.055 205.009C508.093 192.656 496.657 179.196 495.919 163.893C494.997 148.774 489.648 134.023 482.085 120.748C478.95 115.217 475.261 109.87 470.834 105.445C465.669 100.282 459.398 96.4101 453.311 92.5381C445.195 87.5598 436.894 82.5816 427.671 80.369C410.517 76.3127 392.441 82.5816 376.393 89.9568C370.306 92.7225 364.219 95.8569 359.055 100.098C352.968 105.26 348.356 112.082 344.483 119.273C338.765 129.414 333.969 140.292 332.862 151.908" fill="#201A1A"/>
<path d="M326.592 145.824C326.592 145.824 326.961 144.533 328.252 142.321C328.99 141.215 329.912 140.108 330.834 138.449C331.756 136.79 332.494 134.761 332.679 132.549C332.863 130.152 332.679 127.571 332.494 124.621C332.31 121.67 332.125 118.536 332.679 115.217C333.232 111.898 334.708 108.395 336.921 105.076C338.028 103.417 339.319 101.942 340.795 100.651C342.27 99.1762 344.115 98.0699 345.775 96.9636C347.62 95.8573 349.28 94.5667 350.571 92.7229C351.862 91.0635 352.784 88.8509 353.522 86.6384C355.367 82.2133 357.949 77.9725 361.269 74.285C364.589 70.5974 368.832 67.0942 373.627 64.6972C376.025 63.4066 378.608 62.4847 381.375 61.7472C384.141 61.194 386.908 60.6409 389.859 60.8253C391.335 60.8253 392.811 61.0097 394.102 61.194C395.577 61.3784 396.869 61.7472 398.344 61.9315C401.111 62.4847 404.062 62.6691 406.829 61.9315C409.78 61.3784 412.547 60.2721 415.498 59.5346C418.45 58.7971 421.401 58.244 424.537 57.8752C427.672 57.5064 430.808 57.5064 433.944 57.8752C437.08 58.0596 440.215 58.7971 443.351 59.5346C449.438 61.3784 455.34 64.8816 459.398 70.2286C459.767 70.7818 460.136 71.3349 460.505 71.888C470.097 69.6755 480.242 72.2568 487.989 77.4194C495.736 82.582 501.638 90.5103 503.298 99.3606L503.114 98.9918C506.987 100.836 510.861 102.679 514.366 104.892C517.87 107.104 521.006 109.87 523.404 113.005C525.802 116.323 527.277 120.195 527.462 124.067C527.831 127.939 526.724 131.996 524.326 134.946V134.393C528.937 139.002 531.151 145.087 531.704 150.802C532.258 156.518 530.966 162.234 528.384 166.659C527.831 167.765 526.908 168.872 526.171 169.793C525.433 170.715 524.511 171.637 523.957 172.559C523.404 173.481 522.85 174.587 522.85 175.694C522.666 176.8 522.85 177.906 522.85 179.012C523.219 183.438 523.035 187.494 522.482 191.181C521.928 194.869 520.821 198.003 519.346 200.4C517.87 202.797 516.026 204.457 514.366 205.563C512.706 206.669 511.23 207.038 510.492 207.591C509.57 208.144 509.385 208.513 509.385 208.513C509.385 208.513 509.57 207.96 510.492 207.407C511.23 206.854 512.706 206.301 514.366 205.194C516.026 204.088 517.686 202.429 519.161 200.032C520.637 197.635 521.559 194.5 522.113 190.997C522.666 187.494 522.666 183.438 522.297 179.012C522.297 177.906 522.113 176.8 522.113 175.509C522.113 174.403 522.666 173.112 523.404 172.19C524.142 171.084 524.879 170.162 525.617 169.24C526.355 168.318 527.093 167.212 527.646 166.106C530.229 161.681 531.335 156.334 530.782 150.618C530.229 145.087 528.015 139.186 523.588 134.761L523.404 134.577L523.588 134.208C525.802 131.443 526.724 127.755 526.355 124.067C525.986 120.38 524.695 116.692 522.297 113.558C519.899 110.423 516.763 107.842 513.443 105.629C509.939 103.417 506.25 101.573 502.376 99.7293L502.192 99.5449V99.3606C500.347 90.8791 494.814 83.1352 487.251 78.1569C479.688 73.1787 469.912 70.5974 460.505 72.6256H460.136L459.952 72.4412C459.583 71.888 459.214 71.5193 458.845 70.9661C454.972 65.8035 449.253 62.4847 443.351 60.6409C440.4 59.719 437.264 59.1659 434.128 58.9815C430.993 58.7971 428.041 58.7971 424.906 58.9815C421.954 59.3502 418.819 59.719 416.052 60.4565C413.101 61.194 410.334 62.1159 407.382 62.8534C405.907 63.2222 404.431 63.4066 402.956 63.2222C401.48 63.2222 400.004 63.0378 398.529 62.6691C397.053 62.4847 395.762 62.1159 394.286 61.9315C392.811 61.7472 391.519 61.5628 390.044 61.5628C387.277 61.3784 384.51 61.9316 381.928 62.4847C379.346 63.2222 376.763 63.9597 374.365 65.2504C369.569 67.6473 365.512 70.7818 362.191 74.4693C358.871 78.1569 356.289 82.2133 354.444 86.6384C353.522 88.8509 352.784 90.8791 351.309 92.7229C349.833 94.5667 347.988 95.8573 346.328 96.9636C344.484 98.0699 342.824 99.3605 341.348 100.651C339.872 101.942 338.581 103.417 337.475 105.076C335.261 108.211 333.97 111.53 333.232 114.848C332.494 118.167 332.679 121.302 332.863 124.252C333.048 127.202 333.232 129.783 332.863 132.18C332.679 134.577 331.941 136.605 331.019 138.265C330.096 139.924 329.174 141.03 328.436 142.137C327.699 143.243 327.33 143.98 326.961 144.533C326.776 145.455 326.776 145.824 326.592 145.824Z" fill="#875849"/>
<path d="M445.564 65.4343C445.564 65.4343 444.642 64.8812 443.166 64.1437C441.691 63.4061 439.293 62.4842 436.157 62.1155C433.206 61.7467 429.332 61.9311 425.643 63.5905C421.954 65.2499 418.449 68.2 416.051 72.2563C415.314 73.3626 414.76 74.6533 414.391 75.9439C414.022 77.2346 414.022 78.3409 414.576 79.2628L415.314 80.369L414.022 80.0003C410.518 79.0784 406.829 79.6315 404.062 81.1066C401.295 82.5816 399.635 84.9785 398.713 87.0067C397.791 89.0349 397.422 91.063 397.422 92.3537C397.422 93.6443 397.422 94.3819 397.422 94.3819C397.422 94.3819 397.422 94.1975 397.237 93.8287C397.237 93.46 397.053 92.9068 397.053 92.3537C397.053 91.063 397.237 89.0349 398.159 86.8223C399.082 84.6098 400.926 82.0284 403.693 80.369C406.46 78.7096 410.333 77.9721 414.207 79.0784L413.654 79.8159C412.731 78.5252 412.916 77.0502 413.285 75.5752C413.654 74.2845 414.207 72.9939 414.945 71.7032C417.343 67.4625 421.216 64.328 425.09 62.6686C428.963 61.0092 432.837 60.8248 435.972 61.378C439.108 61.7467 441.506 62.853 442.982 63.7749C443.719 64.1436 444.273 64.5124 444.642 64.8812C445.38 65.2499 445.564 65.4343 445.564 65.4343Z" fill="#875849"/>
<path d="M497.396 102.126C497.396 102.126 497.027 102.68 496.289 103.233C495.551 103.97 494.26 104.892 492.6 105.814C490.94 106.736 488.727 107.658 486.144 107.658C483.562 107.842 480.611 107.289 478.213 105.261L478.951 105.076C478.582 105.445 478.397 105.998 478.028 106.367C477.659 106.736 477.29 107.289 476.922 107.658C474.524 110.055 471.757 111.714 468.99 112.636C466.223 113.558 463.641 113.742 461.427 113.558C459.214 113.374 457.554 112.82 456.447 112.452C455.34 111.899 454.787 111.53 454.787 111.53C454.787 111.345 457.185 112.636 461.612 112.82C463.641 112.82 466.223 112.636 468.99 111.714C471.572 110.792 474.339 109.317 476.553 106.92C476.922 106.551 477.29 106.183 477.659 105.814C478.028 105.445 478.213 104.892 478.582 104.523L478.951 104.155L479.319 104.523C481.533 106.367 484.3 106.92 486.513 106.736C488.911 106.736 490.94 105.814 492.6 105.076C495.551 103.601 497.211 101.942 497.396 102.126Z" fill="#875849"/>
<path d="M514.181 131.811C514.181 131.811 514.181 131.996 514.181 132.364C513.996 132.733 513.812 133.286 513.443 133.839C512.705 135.13 510.861 136.605 508.278 137.158C505.696 137.896 502.376 137.343 499.24 136.236C497.58 135.683 495.92 135.13 494.26 134.208C492.6 133.471 490.755 132.18 489.833 130.152C489.833 129.967 489.648 129.783 489.648 129.599L490.386 129.783C487.251 132.18 484.115 134.208 480.979 135.499C477.843 136.789 474.523 136.974 471.941 136.421C469.359 135.868 467.514 134.761 466.407 133.839C465.854 133.286 465.485 132.917 465.301 132.733C465.116 132.364 464.932 132.18 464.932 132.18C464.932 132.18 465.485 132.733 466.592 133.471C467.698 134.208 469.543 135.314 471.941 135.683C474.339 136.052 477.475 135.868 480.426 134.577C483.561 133.471 486.513 131.442 489.648 129.046L490.202 128.677L490.386 129.23C490.386 129.414 490.571 129.599 490.571 129.599C491.309 131.258 492.969 132.364 494.444 133.102C496.104 133.839 497.764 134.577 499.424 135.13C502.56 136.236 505.696 136.789 508.094 136.236C510.492 135.683 512.336 134.393 513.074 133.286C513.996 132.549 513.996 131.811 514.181 131.811Z" fill="#875849"/>
<path d="M548.674 17.8651C548.674 17.8651 548.121 17.8652 547.198 18.0495C546.276 18.2339 544.8 18.9714 543.694 20.2621C542.402 21.5527 541.48 23.7653 541.296 26.3466C541.111 28.9279 541.665 31.878 542.402 35.0124L542.587 35.5656H542.034C538.529 35.3812 534.471 36.4875 530.966 38.8844C527.462 41.2813 524.879 45.3377 524.879 50.1315C524.695 54.3723 526.539 58.4286 529.491 60.8255L530.597 61.7474H529.306C524.326 61.7474 519.899 63.96 517.132 67.0944C514.365 70.2289 513.259 73.9165 513.074 76.8665C512.89 80.001 513.628 82.3979 514.181 83.873C514.734 85.5324 515.288 86.2699 515.288 86.2699C515.288 86.2699 515.103 86.0855 514.919 85.7167C514.734 85.348 514.366 84.7948 513.997 84.0573C513.259 82.5823 512.521 80.001 512.705 76.8665C512.89 73.7321 513.812 69.8601 516.763 66.5413C519.715 63.4068 524.326 60.8255 529.491 60.8255L529.122 61.5631C525.802 58.9817 523.957 54.5566 524.142 50.1315C524.142 47.7346 524.879 45.3377 525.986 43.3095C527.093 41.2813 528.753 39.6219 530.597 38.3313C534.286 35.7499 538.529 34.828 542.218 34.828L541.849 35.3812C541.111 32.2467 540.558 29.1123 540.742 26.3466C540.927 23.5809 542.034 21.3684 543.509 20.0777C544.8 18.6027 546.276 18.0495 547.383 17.8651C547.936 17.8651 548.305 17.6808 548.489 17.8651H548.674Z" fill="#875849"/>
<path d="M605.485 87.1912C605.485 87.1912 605.301 87.3756 604.932 87.5599C604.563 87.7443 604.009 88.1131 603.272 88.2975C601.796 88.8506 599.583 89.5881 596.816 89.7725C594.049 89.9569 590.544 89.7725 586.855 88.4818C583.166 87.3756 579.293 84.9786 576.157 81.4754H576.895C574.128 86.0849 568.963 90.51 562.507 91.2475C555.683 92.1694 549.042 88.2975 546.644 82.7661H547.382C546.644 84.9786 545.169 86.8224 543.509 88.1131C541.849 89.4037 540.004 90.51 538.344 91.0631C534.655 92.3538 531.335 92.3538 528.568 91.985C525.801 91.8007 523.772 91.2475 522.296 90.8788C520.821 90.51 520.083 90.3256 520.083 90.3256C520.083 90.3256 520.821 90.3256 522.296 90.6944C523.772 90.8788 525.801 91.2475 528.568 91.4319C531.15 91.6163 534.655 91.4319 537.975 90.3256C541.295 89.035 544.984 86.4537 546.46 82.3973L546.829 81.291L547.198 82.3973C549.411 87.5599 555.683 91.0631 562.138 90.3256C568.225 89.5881 573.206 85.5318 575.972 80.9223L576.341 80.3691L576.71 80.9223C579.662 84.4255 583.351 86.638 587.04 87.9287C590.544 89.2194 594.049 89.4037 596.816 89.4037C602.534 88.8506 605.485 87.0068 605.485 87.1912Z" fill="#875849"/>
<path d="M571.915 133.839C571.915 133.839 571.915 134.023 571.546 134.392C571.177 134.761 570.624 135.13 569.701 135.13C568.041 135.314 565.459 135.13 562.692 134.023C559.925 132.917 556.79 130.704 554.576 127.201C552.363 123.698 551.256 119.089 552.178 114.479V114.295L552.916 114.848C548.674 116.876 544.062 117.245 540.189 116.507C536.131 115.77 532.995 114.11 530.413 112.266C528.015 110.423 526.355 108.579 525.248 107.288C524.141 105.998 523.772 105.076 523.772 105.076C523.957 104.891 525.801 108.21 530.782 111.713C533.18 113.373 536.315 115.032 540.189 115.585C544.062 116.138 548.489 115.77 552.363 113.926L553.285 113.557L553.101 114.479V114.663C552.178 119.089 553.285 123.514 555.314 126.648C557.343 129.967 560.294 132.179 562.877 133.286C565.643 134.392 568.041 134.761 569.701 134.761C571.361 134.761 571.915 133.654 571.915 133.839Z" fill="#875849"/>
<path d="M478.766 18.9706C478.95 18.9706 476.921 22.6582 477.29 28.7427C477.475 31.8771 478.213 35.3803 480.426 38.8835C482.455 42.3867 485.96 45.5212 490.202 47.365C492.6 48.4713 495.182 49.0244 497.58 49.2088H498.134L497.949 49.7619C496.842 53.2651 496.474 56.9527 496.842 60.0872C497.027 63.2216 497.765 65.9873 498.687 68.1999C499.056 69.3061 499.609 70.228 499.978 70.9655C500.347 71.7031 501.085 72.2562 501.638 72.2562C502.192 72.2562 502.745 72.0718 502.929 71.8874C503.114 71.7031 503.114 71.5187 503.298 71.5187C503.298 71.5187 503.298 71.7031 503.114 72.0718C502.929 72.4406 502.376 72.625 501.638 72.625C500.9 72.625 500.163 72.0718 499.609 71.3343C499.056 70.5968 498.687 69.4905 498.134 68.3842C497.211 66.1717 496.474 63.406 496.105 60.0872C495.736 56.7683 496.105 53.0807 497.211 49.3932L497.58 49.9463C494.998 49.7619 492.416 49.2088 490.018 47.9181C485.591 45.89 482.086 42.5711 479.873 38.8835C477.659 35.196 476.921 31.5084 476.921 28.3739C476.737 25.2395 477.475 22.6582 478.028 20.9987C478.397 20.2612 478.582 19.5237 478.766 19.1549C478.582 19.1549 478.766 18.7862 478.766 18.9706Z" fill="#875849"/>
<path d="M500.716 202.613V197.45L449.438 181.04C431.177 173.297 405.169 177.722 389.86 187.125L376.579 187.494L376.763 187.309C361.638 175.325 335.999 172.928 316.078 181.594L316.631 183.806C316.631 183.991 316.816 184.175 316.816 184.728L317.185 186.572C319.767 198.372 323.087 210.726 326.223 214.044C328.437 216.257 335.446 217.548 341.348 218.101C343.562 218.285 345.591 218.469 347.066 218.654C348.911 218.838 364.405 219.76 366.987 217.363C369.939 214.782 374.734 195.791 376.21 190.075L389.86 189.706C391.52 194.316 394.286 214.598 400.742 218.838C407.567 223.079 435.973 221.788 439.109 216.994C441.322 213.676 449.438 193.578 451.283 187.309L451.652 186.756L500.716 202.613ZM365.512 215.519C362.56 217.732 331.572 216.257 328.068 212.385C324.932 209.066 321.058 192.288 319.767 186.019C319.767 185.834 319.767 185.834 319.767 185.834C337.475 179.012 360.531 181.225 373.812 191.366C371.045 201.322 367.172 214.044 365.512 215.519ZM437.264 215.519C435.235 218.469 408.858 220.866 402.034 216.626C397.422 213.676 394.84 199.478 392.811 191.181C407.752 182.331 433.206 178.459 449.438 186.572C446.118 197.819 438.924 213.122 437.264 215.519Z" fill="#201A1A"/>
<g opacity="0.3">
<path d="M395.577 193.025C395.577 193.025 398.344 212.938 404.062 214.044C409.78 214.966 416.605 184.728 416.605 184.728C416.605 184.728 399.266 188.046 395.577 193.025Z" fill="white"/>
</g>
<g opacity="0.3">
<path d="M321.796 186.571C321.796 186.571 324.563 209.25 330.281 210.172C335.999 211.094 347.619 183.437 347.619 183.437C347.619 183.437 325.485 181.777 321.796 186.571Z" fill="white"/>
</g>
<path d="M499.241 556.621C493.155 550.168 473.787 534.127 468.069 531.915C462.351 529.702 444.643 571.372 443.352 582.435C442.245 593.313 448.332 607.695 456.079 617.282C467.147 630.926 493.708 647.889 503.668 652.499C513.813 657.293 542.404 673.518 559.742 636.642C577.081 599.766 574.867 600.135 579.663 584.832C587.226 561.231 593.497 514.952 597.186 486.742C600.322 462.772 601.613 431.797 600.322 408.934C599.031 386.071 592.759 365.604 577.265 351.407C564.354 339.607 521.191 443.781 521.191 444.703C521.191 445.625 501.27 556.437 501.27 556.437" fill="#875849"/>
<path d="M356.843 422.209C356.843 422.209 352.785 415.202 367.726 412.99C382.666 410.777 393.365 413.358 396.869 414.649C400.374 416.124 419.004 433.824 420.479 437.143C424.537 446.362 431.362 474.204 431.362 474.204L440.585 487.294L418.819 526.199C418.819 526.199 415.499 522.327 412.363 519.745C409.043 516.98 399.452 513.845 397.423 505.548C395.394 497.435 389.491 486.557 389.491 486.557C389.491 486.557 353.154 478.629 349.834 476.969C346.513 475.31 346.882 470.516 346.882 470.516C346.882 470.516 337.475 469.41 335.631 468.488C333.602 467.75 328.99 461.113 336.737 457.609C344.484 454.106 370.123 452.262 373.628 452.262C377.133 452.262 393.734 454.475 393.734 454.475C393.734 454.475 371.784 449.497 365.143 448.944C358.503 448.39 343.193 448.759 340.795 448.206C337.844 447.469 335.815 440.278 341.349 437.696C348.173 434.562 359.241 433.64 361.823 433.456C371.599 433.087 394.84 436.775 394.84 436.775L386.355 427.371C386.355 427.371 373.075 424.974 365.697 425.159C360.716 425.159 356.843 422.209 356.843 422.209Z" fill="#BA7C69"/>
<path d="M408.675 515.32L469.545 606.588C469.545 606.588 495.368 575.059 497.213 552.196L498.319 540.949L430.071 474.572L408.675 515.32Z" fill="#BA7C69"/>
<path d="M391.336 470.7C391.336 470.885 388.753 470.516 384.695 469.963C380.637 469.41 374.919 469.041 368.648 468.856C362.376 468.856 356.658 469.041 352.6 469.41C348.542 469.778 345.96 470.147 345.96 469.963C345.96 469.963 346.513 469.778 347.62 469.594C348.727 469.41 350.387 469.041 352.416 468.856C356.474 468.303 362.192 467.935 368.463 467.935C374.735 468.119 380.453 468.672 384.511 469.225C386.54 469.594 388.2 469.778 389.307 470.147C390.598 470.516 391.336 470.7 391.336 470.7Z" fill="#875849"/>
<path d="M537.423 549.246C537.423 549.246 536.5 548.693 535.209 547.771C533.734 546.665 531.705 545.189 529.307 543.53C524.326 539.842 517.502 534.864 510.123 529.148C506.434 526.383 502.745 523.802 499.056 521.958C497.212 521.036 495.367 520.483 493.707 520.114C492.047 519.745 490.387 519.376 488.911 519.376C485.96 519.192 483.562 520.114 482.086 521.036C480.611 521.958 480.058 522.695 479.873 522.695C479.873 522.695 480.057 522.511 480.242 522.142C480.611 521.773 480.98 521.405 481.718 520.851C483.009 519.745 485.591 518.823 488.727 518.823C490.202 518.823 492.047 519.192 493.707 519.561C495.552 519.93 497.396 520.483 499.241 521.405C502.93 523.064 506.619 525.645 510.492 528.595C518.055 534.311 524.695 539.289 529.676 543.161C532.073 545.005 533.918 546.48 535.394 547.586C536.869 548.508 537.423 549.246 537.423 549.246Z" fill="#201A1A"/>
<path d="M566.935 549.431C566.751 549.615 564.722 547.034 560.664 543.715C558.635 542.056 556.237 540.027 553.286 538.184C550.334 536.34 547.014 534.496 543.51 532.837C539.821 531.177 536.316 529.887 532.996 528.965C529.676 528.043 526.54 527.49 523.958 527.121C518.793 526.383 515.473 526.383 515.473 526.199C515.473 526.199 516.21 526.015 517.686 526.015C518.424 526.015 519.346 526.015 520.453 526.015C521.56 526.015 522.666 526.199 523.958 526.383C526.54 526.568 529.676 527.305 533.18 528.043C536.5 528.965 540.189 530.255 543.879 531.915C547.568 533.574 550.888 535.602 553.839 537.446C556.79 539.474 559.188 541.318 561.033 543.162C561.955 544.084 562.877 544.821 563.615 545.743C564.353 546.481 564.906 547.218 565.46 547.771C566.382 548.693 566.935 549.431 566.935 549.431Z" fill="#201A1A"/>
<path d="M556.606 352.145C556.606 352.145 555.868 352.882 554.392 354.357C553.655 355.095 552.732 355.832 551.81 356.938C550.888 358.045 549.781 358.967 548.674 360.442C547.568 361.732 546.276 363.207 544.985 364.867C543.694 366.526 542.403 368.186 541.112 370.214C538.529 374.086 535.947 378.511 533.734 383.305C531.52 388.098 529.86 392.892 528.569 397.317C528.016 399.53 527.462 401.743 527.093 403.586C526.724 405.615 526.355 407.458 526.171 409.118C525.802 410.777 525.802 412.437 525.618 413.727C525.433 415.018 525.433 416.309 525.249 417.23C525.064 419.259 525.064 420.18 524.88 420.18C524.88 420.18 524.695 419.074 524.88 417.046C524.88 416.124 524.88 414.834 525.064 413.543C525.249 412.068 525.249 410.593 525.433 408.749C525.618 407.09 525.987 405.061 526.355 403.033C526.724 401.005 527.278 398.793 527.831 396.58C529.122 392.155 530.782 387.177 532.996 382.383C535.209 377.589 537.792 373.164 540.558 369.292C541.85 367.448 543.141 365.604 544.432 363.945C545.723 362.285 547.014 360.81 548.121 359.52C549.228 358.229 550.519 357.123 551.441 356.201C552.363 355.279 553.286 354.357 554.024 353.804C555.684 352.882 556.606 352.145 556.606 352.145Z" fill="#201A1A"/>
<path d="M499.24 556.621C493.154 550.168 473.786 534.127 468.068 531.915C462.35 529.702 444.642 571.372 443.351 582.435C442.244 593.313 448.331 607.695 456.078 617.282C467.146 630.926 493.707 647.889 503.667 652.499C513.812 657.293 542.403 673.518 559.741 636.642C577.08 599.766 574.867 600.135 579.662 584.832C587.225 561.231 593.496 514.952 597.185 486.742C600.321 462.772 601.612 431.797 600.321 408.934C599.03 386.071 592.758 365.604 577.264 351.407C564.353 339.607 521.19 443.781 521.19 444.703C521.19 445.625 501.269 556.437 501.269 556.437" fill="#875849"/>
<path d="M356.843 422.209C356.843 422.209 352.785 415.202 367.726 412.99C382.666 410.777 393.365 413.358 396.869 414.649C400.374 416.124 419.004 433.824 420.479 437.143C424.537 446.362 431.362 474.204 431.362 474.204L440.585 487.294L418.819 526.199C418.819 526.199 415.499 522.327 412.363 519.745C409.043 516.98 399.452 513.845 397.423 505.548C395.394 497.435 389.491 486.557 389.491 486.557C389.491 486.557 353.154 478.629 349.834 476.969C346.513 475.31 346.882 470.516 346.882 470.516C346.882 470.516 337.475 469.41 335.631 468.488C333.602 467.75 328.99 461.113 336.737 457.609C344.484 454.106 370.123 452.262 373.628 452.262C377.133 452.262 393.734 454.475 393.734 454.475C393.734 454.475 371.784 449.497 365.143 448.944C358.503 448.39 343.193 448.759 340.795 448.206C337.844 447.469 335.815 440.278 341.349 437.696C348.173 434.562 359.241 433.64 361.823 433.456C371.599 433.087 394.84 436.775 394.84 436.775L386.355 427.371C386.355 427.371 373.075 424.974 365.697 425.159C360.716 425.159 356.843 422.209 356.843 422.209Z" fill="#BA7C69"/>
<path d="M408.674 515.32L469.544 606.588C469.544 606.588 495.367 575.059 497.212 552.196L498.318 540.949L430.07 474.572L408.674 515.32Z" fill="#BA7C69"/>
<path d="M391.336 470.7C391.336 470.885 388.753 470.516 384.695 469.963C380.637 469.41 374.919 469.041 368.648 468.856C362.376 468.856 356.658 469.041 352.6 469.41C348.542 469.778 345.96 470.147 345.96 469.963C345.96 469.963 346.513 469.778 347.62 469.594C348.727 469.41 350.387 469.041 352.416 468.856C356.474 468.303 362.192 467.935 368.463 467.935C374.735 468.119 380.453 468.672 384.511 469.225C386.54 469.594 388.2 469.778 389.307 470.147C390.598 470.516 391.336 470.7 391.336 470.7Z" fill="#875849"/>
<path d="M537.423 549.246C537.423 549.246 536.5 548.693 535.209 547.771C533.734 546.665 531.705 545.189 529.307 543.53C524.326 539.842 517.502 534.864 510.123 529.148C506.434 526.383 502.745 523.802 499.056 521.958C497.212 521.036 495.367 520.483 493.707 520.114C492.047 519.745 490.387 519.376 488.911 519.376C485.96 519.192 483.562 520.114 482.086 521.036C480.611 521.958 480.058 522.695 479.873 522.695C479.873 522.695 480.057 522.511 480.242 522.142C480.611 521.773 480.98 521.405 481.718 520.851C483.009 519.745 485.591 518.823 488.727 518.823C490.202 518.823 492.047 519.192 493.707 519.561C495.552 519.93 497.396 520.483 499.241 521.405C502.93 523.064 506.619 525.645 510.492 528.595C518.055 534.311 524.695 539.289 529.676 543.161C532.073 545.005 533.918 546.48 535.394 547.586C536.869 548.508 537.423 549.246 537.423 549.246Z" fill="#201A1A"/>
<path d="M521.745 444.703C521.745 444.703 521.745 445.256 521.56 446.178C521.376 447.284 521.376 448.575 521.007 450.419C520.638 454.106 519.9 459.453 519.162 465.907C517.502 479.182 515.104 497.251 512.522 517.164C511.969 521.221 511.415 525.093 511.046 528.964L510.493 528.411C528.016 528.411 543.326 532.836 552.917 538.183C557.713 540.765 561.218 543.53 563.431 545.743C564.538 546.665 565.276 547.771 565.829 548.324C566.382 548.877 566.567 549.246 566.567 549.246C566.567 549.246 565.46 548.14 563.247 546.112C561.033 544.084 557.529 541.502 552.733 538.921C543.141 533.758 528.016 529.518 510.677 529.518H510.124V528.964C510.677 525.093 511.046 521.221 511.6 517.164C514.182 497.251 516.764 478.998 518.424 465.907C519.347 459.453 520.085 454.106 520.638 450.419C520.822 448.575 521.191 447.284 521.191 446.178C521.56 445.256 521.745 444.703 521.745 444.703Z" fill="#201A1A"/>
<path d="M556.606 352.145C556.606 352.145 555.868 352.882 554.392 354.357C553.655 355.095 552.732 355.832 551.81 356.938C550.888 358.045 549.781 358.967 548.674 360.442C547.568 361.732 546.276 363.207 544.985 364.867C543.694 366.526 542.403 368.186 541.112 370.214C538.529 374.086 535.947 378.511 533.734 383.305C531.52 388.098 529.86 392.892 528.569 397.317C528.016 399.53 527.462 401.743 527.093 403.586C526.724 405.615 526.355 407.458 526.171 409.118C525.802 410.777 525.802 412.437 525.618 413.727C525.433 415.018 525.433 416.309 525.249 417.23C525.064 419.259 525.064 420.18 524.88 420.18C524.88 420.18 524.695 419.074 524.88 417.046C524.88 416.124 524.88 414.834 525.064 413.543C525.249 412.068 525.249 410.593 525.433 408.749C525.618 407.09 525.987 405.061 526.355 403.033C526.724 401.005 527.278 398.793 527.831 396.58C529.122 392.155 530.782 387.177 532.996 382.383C535.209 377.589 537.792 373.164 540.558 369.292C541.85 367.448 543.141 365.604 544.432 363.945C545.723 362.285 547.014 360.81 548.121 359.52C549.228 358.229 550.519 357.123 551.441 356.201C552.363 355.279 553.286 354.357 554.024 353.804C555.684 352.882 556.606 352.145 556.606 352.145Z" fill="#201A1A"/>
<path d="M236.025 491.535C236.025 491.535 220.346 453 223.482 439.909C223.851 438.25 225.327 437.144 226.987 437.144C228.278 437.144 229.569 437.881 230.122 438.987L250.412 478.076C250.412 478.076 253.179 470.885 258.897 468.488C264.8 465.907 277.711 462.588 277.711 462.588L295.972 464.8C299.108 465.169 300.584 469.041 298.37 471.254C296.341 473.282 293.021 475.31 287.303 475.679C274.022 476.785 270.518 479.92 270.518 479.92L263.877 491.351C263.877 491.351 277.896 481.763 282.323 481.395C285.827 481.026 304.826 480.657 313.126 480.473C316.262 480.473 319.213 482.317 320.136 485.267C321.058 487.848 320.32 490.798 314.418 492.273C314.418 492.273 320.874 495.592 312.02 500.017C303.904 504.073 295.419 506.655 295.419 506.655L282.876 515.136L261.848 529.886L237.132 512.923C237.132 512.923 228.278 503.52 233.811 495.776C235.287 494.67 236.025 491.535 236.025 491.535Z" fill="#BA7C69"/>
<path d="M297.264 504.258C297.264 504.258 309.069 514.214 311.651 520.483C314.234 526.752 316.447 533.206 312.389 548.14C308.331 563.259 274.576 548.14 274.576 548.14C273.654 541.871 266.091 534.496 257.606 526.937L289.148 503.521L297.264 504.258Z" fill="#BA7C69"/>
<path d="M253.733 472.728C253.917 472.728 252.995 474.019 251.888 475.863C250.597 477.707 249.121 480.288 247.277 483.238C243.772 489.138 240.821 493.748 240.452 493.563C240.268 493.563 241.005 492.273 242.112 490.244C243.219 488.216 244.695 485.635 246.539 482.685C249.859 476.785 253.548 472.544 253.733 472.728Z" fill="#875849"/>
<path d="M315.156 492.273C315.156 492.273 314.418 492.458 313.311 492.642C312.02 492.826 310.36 492.826 308.146 493.011C303.904 493.38 297.817 493.748 291.177 494.117C284.352 494.117 279.74 498.542 276.42 501.123C273.1 503.889 271.071 505.733 270.887 505.549C270.887 505.549 271.256 504.995 272.178 504.074C273.1 503.152 274.391 502.045 275.867 500.57C277.527 499.095 279.556 497.436 281.954 495.776C283.245 495.039 284.536 494.301 286.196 493.748C287.672 493.38 289.332 493.011 290.992 493.011C297.632 492.642 303.535 492.458 307.962 492.273C310.175 492.273 311.835 492.089 313.127 492.089C314.418 492.089 315.156 492.089 315.156 492.273Z" fill="#875849"/>
<path d="M264.8 491.535C264.984 491.72 263.877 492.826 262.771 494.301C261.664 495.776 260.926 497.251 260.742 497.067C260.557 497.067 260.926 495.407 262.033 493.748C263.139 492.089 264.615 491.351 264.8 491.535Z" fill="#875849"/>
<path d="M311.282 501.123C311.282 501.307 310.175 501.861 308.146 502.598C306.117 503.336 303.351 504.442 300.215 505.548C293.943 507.761 289.148 509.973 288.963 509.789C288.779 509.605 293.574 506.839 299.846 504.626C302.982 503.52 305.933 502.598 307.962 502.045C309.806 501.492 311.098 501.123 311.282 501.123Z" fill="#875849"/>
</g>
</svg>
