<svg width="46" height="1200" viewBox="0 0 46 1200" fill="none" xmlns="http://www.w3.org/2000/svg">
<path d="M23 956.434C14 986.134 5 1015.93 5 1075.33C5 1134.83 14 1164.53 23 1194.23" stroke="#201A1A" stroke-width="10" stroke-miterlimit="10" stroke-linecap="round"/>
<path d="M23 718.634C32 748.334 41 778.134 41 837.534C41 897.034 32 926.734 23 956.434" stroke="#201A1A" stroke-width="10" stroke-miterlimit="10" stroke-linecap="round"/>
<path d="M23 480.834C14 510.534 5 540.334 5 599.734C5 659.234 14 688.934 23 718.634" stroke="#201A1A" stroke-width="10" stroke-miterlimit="10" stroke-linecap="round"/>
<path d="M23 243.234C32 272.959 41 302.784 41 362.234C41 421.784 32 451.509 23 481.234" stroke="#201A1A" stroke-width="10" stroke-miterlimit="10" stroke-linecap="round"/>
<path d="M23 5.23438C14 34.9344 5 64.7344 5 124.134C5 183.634 14 213.334 23 243.034" stroke="#201A1A" stroke-width="10" stroke-miterlimit="10" stroke-linecap="round"/>
</svg>
