<svg width="46" height="1199" viewBox="0 0 46 1199" fill="none" xmlns="http://www.w3.org/2000/svg">
<path d="M23 956.199C14 985.899 5 1015.7 5 1075.1C5 1134.6 14 1164.3 23 1194" stroke="#F5D8B9" stroke-width="10" stroke-miterlimit="10" stroke-linecap="round"/>
<path d="M23 718.399C32 748.099 41 777.899 41 837.299C41 896.799 32 926.499 23 956.199" stroke="#F5D8B9" stroke-width="10" stroke-miterlimit="10" stroke-linecap="round"/>
<path d="M23 480.6C14 510.3 5 540.1 5 599.5C5 659 14 688.7 23 718.4" stroke="#F5D8B9" stroke-width="10" stroke-miterlimit="10" stroke-linecap="round"/>
<path d="M23 243C32 272.725 41 302.55 41 362C41 421.55 32 451.275 23 481" stroke="#F5D8B9" stroke-width="10" stroke-miterlimit="10" stroke-linecap="round"/>
<path d="M23 5C14 34.7 5 64.5 5 123.9C5 183.4 14 213.1 23 242.8" stroke="#F5D8B9" stroke-width="10" stroke-miterlimit="10" stroke-linecap="round"/>
</svg>
