<svg width="246" height="229" viewBox="0 0 246 229" fill="none" xmlns="http://www.w3.org/2000/svg">
<path d="M123.408 228.775C152.897 228.775 176.802 177.735 176.802 114.774C176.802 51.8137 152.897 0.773926 123.408 0.773926C93.9194 0.773926 70.0142 51.8137 70.0142 114.774C70.0142 177.735 93.9194 228.775 123.408 228.775Z" fill="#F8F2F2"/>
<path d="M156.25 0.773926C185.765 0.773926 209.643 51.822 209.643 114.774C209.643 177.727 185.73 228.775 156.25 228.775" fill="#F8F2F2"/>
<path d="M202.676 24.4072C226.064 24.4072 245.006 64.8816 245.006 114.774C245.006 164.667 226.064 205.141 202.676 205.141" fill="#F8F2F2"/>
<path d="M90.6713 228.775C61.1558 228.775 37.2773 177.727 37.2773 114.774C37.2773 51.822 61.1558 0.773926 90.6713 0.773926" fill="#F8F2F2"/>
<path d="M42.8793 209.553C19.491 209.553 0.549316 169.079 0.549316 119.186C0.549316 69.2936 19.491 28.7842 42.8793 28.7842" fill="#F8F2F2"/>
</svg>
