<svg width="707" height="776" viewBox="0 0 707 776" fill="none" xmlns="http://www.w3.org/2000/svg">
<path d="M35.9999 537.997C35.9999 670.003 265.152 775.994 546.516 775.994C828.848 776.957 1058 670.003 1058 537.997C1058 406.954 828.848 300 547.483 300C265.152 300 35.9999 406.954 35.9999 537.997Z" fill="#0B0125"/>
<path d="M187.798 776C126.248 776 76.3779 669.272 76.3779 537.775C76.3779 406.728 126.248 300 187.798 300" fill="#0B0125"/>
<path d="M88.0582 735.922C39.5363 735.922 0 651.259 0 547.233C0 443.206 39.5363 358.544 88.0582 358.544" fill="#0B0125"/>
<mask id="mask0_332_2" style="mask-type:alpha" maskUnits="userSpaceOnUse" x="36" y="0" width="1022" height="777">
<path d="M36 537.997C36 670.003 265.152 775.994 546.517 775.994C828.848 776.958 1058 670.003 1058 537.997C1058 406.954 743.364 1.22988e-05 462 0C179.669 -1.23411e-05 36 406.954 36 537.997Z" fill="#0B0125"/>
</mask>
<g mask="url(#mask0_332_2)">
<path d="M267.071 778.003H533.791L508.89 704.989L304.515 715.499L267.071 778.003Z" fill="#0B0125"/>
<path d="M316.69 717.158L472.553 711.442L527.889 401.685L477.902 380.113C477.902 380.113 457.243 391.728 418.693 391.913C381.064 392.097 381.617 379.375 381.617 379.375L348.6 414.96C348.6 414.96 307.836 530.75 307.283 533.147C306.545 535.36 316.69 717.158 316.69 717.158Z" fill="white"/>
<path d="M496.902 387.857C496.902 387.857 573.634 403.713 574.372 416.435C575.11 429.158 541.539 508.441 540.802 510.469C540.064 512.497 510.736 625.706 510.736 625.706L555.004 777.819H417.033C417.033 777.819 426.809 634.187 438.061 567.995C449.128 501.619 451.71 479.493 455.953 453.127C457.613 442.617 466.282 406.479 471.631 384.353C474.214 374.028 472.369 365.362 472.369 365.362L479.01 367.944L496.902 387.857Z" fill="#796BC1"/>
<path d="M256.743 582.192C256.005 583.299 241.986 634.187 239.773 648.938C237.744 661.476 234.793 681.757 248.073 700.564C261.354 719.371 275.003 717.158 288.284 712.364C301.565 707.57 315.952 679.914 318.535 664.057C321.117 648.2 306.176 578.505 306.176 578.505L256.743 582.192Z" fill="#796BC1"/>
<path d="M381.802 369.234L364.647 393.388C364.647 393.388 307.651 400.763 294.555 410.351C281.459 419.939 254.897 592.333 254.897 592.333L307.836 621.834L266.887 778.188H318.165C318.165 778.188 330.892 712.364 329.786 664.979C328.679 617.593 336.795 556.195 351.92 510.653C367.045 465.296 381.433 386.566 381.433 386.566L381.802 369.234Z" fill="#796BC1"/>
<g opacity="0.3">
<path d="M536.927 720.476L445.069 669.403C448.943 690.423 461.301 710.52 479.378 722.136C497.454 733.567 520.326 737.255 540.985 731.908C539.694 728.036 538.218 724.348 536.927 720.476Z" fill="#0B0125"/>
</g>
<path d="M264.858 623.309C264.858 623.493 262.644 623.862 259.509 625.152C256.189 626.443 251.946 629.209 248.626 633.449C245.306 637.69 243.646 642.484 243.092 645.987C242.539 649.49 242.723 651.703 242.539 651.703C242.539 651.703 242.354 651.15 242.354 650.228C242.354 649.306 242.354 647.831 242.539 645.987C242.908 642.484 244.568 637.506 248.073 633.081C251.577 628.656 256.004 626.074 259.509 624.784C261.169 624.231 262.644 623.862 263.567 623.677C264.304 623.309 264.858 623.309 264.858 623.309Z" fill="#0B0125"/>
<path d="M275.556 694.848C275.556 694.848 290.128 690.238 295.293 684.338C301.38 677.516 304.7 667.375 305.069 663.872C305.807 655.022 308.943 608.927 308.943 608.927L270.576 606.346L246.966 651.519C246.966 651.519 240.51 668.113 253.606 685.813C262.091 697.245 275.556 694.848 275.556 694.848Z" fill="#CABEFF"/>
<path d="M312.448 669.404C312.263 669.404 312.632 667.376 313.001 664.057C313.37 660.738 313.37 656.313 312.816 651.335C312.263 646.356 310.972 641.931 309.865 638.981C308.759 635.847 307.836 634.003 308.021 634.003C308.021 634.003 308.39 634.372 308.759 635.294C309.127 636.031 309.865 637.322 310.419 638.797C311.71 641.931 313.001 646.356 313.739 651.335C314.292 656.313 314.108 661.107 313.739 664.241C313.554 665.901 313.185 667.191 313.001 668.113C312.632 669.035 312.448 669.404 312.448 669.404Z" fill="#0B0125"/>
<path d="M310.972 670.325C310.972 670.325 310.972 671.063 310.972 672.538C310.972 673.275 310.972 674.197 310.787 675.119C310.603 676.041 310.603 677.332 310.234 678.438C309.681 681.019 308.943 683.785 307.652 687.104C306.36 690.238 304.7 693.557 302.671 696.876C300.458 700.195 298.06 702.96 295.662 705.357C293.264 707.754 290.866 709.598 288.837 711.073C287.731 711.811 286.808 712.364 285.886 712.917C284.964 713.47 284.226 713.839 283.673 714.208C282.381 714.761 281.644 715.129 281.644 715.129C281.644 714.945 284.41 713.654 288.468 710.704C290.497 709.229 292.711 707.201 295.109 704.989C297.322 702.592 299.72 699.826 301.933 696.507C303.962 693.373 305.623 690.054 306.914 686.919C308.205 683.785 309.127 681.019 309.496 678.438C310.787 673.46 310.787 670.325 310.972 670.325Z" fill="#0B0125"/>
<path d="M136.479 372.922C134.634 372.922 125.227 375.319 120.247 382.326L206.018 504.016L313.186 491.663L311.526 382.141C311.526 382.141 304.332 371.632 297.138 372.738C294.371 373.291 203.805 387.304 195.689 409.614C195.689 409.614 196.611 398.367 189.048 392.651C181.486 386.935 136.479 372.922 136.479 372.922Z" fill="white"/>
<path d="M137.77 373.291C138.693 373.475 139.799 373.844 141.459 374.397C144.595 375.319 149.391 376.978 155.662 379.006C161.749 381.034 169.312 383.616 177.981 387.119C180.195 388.041 182.408 388.963 184.622 389.885C186.835 390.991 189.233 392.097 191.077 393.941C194.951 397.813 196.427 403.713 196.242 409.613L195.689 409.429C197.349 405.372 200.853 402.238 204.543 399.841C208.416 397.26 212.474 395.232 216.901 393.203C225.755 389.332 235.531 386.197 246.045 383.247C256.374 380.481 267.441 377.9 279.062 375.503C284.78 374.397 290.682 373.291 296.769 372.369C298.245 372 300.089 372.184 301.565 372.737C303.041 373.291 304.516 374.028 305.623 374.95C308.205 376.794 310.234 379.191 312.079 381.772V381.956V382.141C312.448 410.351 313.001 441.142 313.555 473.04C313.739 479.309 313.739 485.393 313.923 491.478V491.846H313.555C275.373 496.272 239.035 500.328 206.387 504.015H206.203L206.018 503.831C166.361 447.411 135.557 403.529 120.432 381.956V381.772V381.588C122.276 379.006 124.49 377.162 126.519 375.872C128.548 374.581 130.392 373.844 131.868 373.291C133.343 372.737 134.635 372.553 135.372 372.369C136.11 372.737 136.479 372.922 136.479 372.922C136.479 372.922 136.11 372.922 135.372 373.106C134.635 373.29 133.343 373.659 131.868 374.212C130.392 374.766 128.548 375.687 126.519 376.794C124.49 378.084 122.276 379.928 120.432 382.509V382.325C135.557 403.713 166.73 447.595 206.387 503.831L206.018 503.647C238.666 499.959 274.819 495.718 313.186 491.293L312.817 491.846C312.632 485.762 312.632 479.493 312.448 473.408C311.895 441.511 311.526 410.72 310.972 382.509V382.694C309.128 380.297 307.099 377.9 304.701 376.056C303.41 375.134 302.118 374.397 300.827 373.844C299.352 373.291 298.06 373.29 296.585 373.475C290.498 374.397 284.78 375.503 278.877 376.609C267.441 378.822 256.374 381.403 246.045 384.169C235.715 386.935 225.939 390.069 217.085 393.941C212.658 395.785 208.416 397.997 204.727 400.394C201.038 402.976 197.718 405.926 196.058 409.798L195.32 411.457V409.613C195.504 403.897 194.029 397.997 190.524 394.31C188.679 392.466 186.282 391.36 184.253 390.253C182.039 389.147 179.826 388.225 177.612 387.488C168.943 383.985 161.565 381.403 155.478 379.375C149.391 377.347 144.595 375.687 141.459 374.581C139.799 374.028 138.693 373.659 137.77 373.291Z" fill="#0B0125"/>
<path d="M189.048 520.978L108.626 384.537C107.888 383.246 108.073 381.587 108.995 380.481C109.917 379.374 111.577 379.006 112.869 379.559L176.136 404.819C177.427 405.372 178.35 406.109 179.272 407.031C181.116 409.06 181.854 411.825 181.301 414.591L180.379 418.832L202.513 424.547L203.066 423.257C204.911 418.647 208.6 415.144 213.396 413.669L315.399 381.218C319.826 379.743 324.437 381.771 326.65 385.828L398.956 525.403L396.558 532.041L281.459 559.329H261.169L189.048 520.978Z" fill="#FB2576"/>
<path d="M189.048 520.978C189.048 520.978 189.417 521.162 190.339 521.531C191.261 521.9 192.368 522.637 194.028 523.375C197.348 525.034 201.96 527.616 208.231 530.75C220.589 537.203 238.666 546.791 261.354 558.776H261.169C267.441 558.776 274.265 558.776 281.459 558.776C313.37 551.216 352.658 541.813 396.558 531.303L396.189 531.488C396.927 529.459 397.665 527.247 398.587 524.85V525.219C386.782 502.54 374.239 478.386 361.143 452.942C354.503 440.22 347.862 427.313 341.038 414.222C337.717 407.585 334.213 400.947 330.708 394.309C329.786 392.65 329.048 390.991 328.126 389.331L326.835 386.75C326.466 385.828 326.097 385.09 325.543 384.353C323.33 381.403 319.272 380.112 315.952 381.218C295.478 387.672 275.372 394.125 255.636 400.394C245.86 403.528 236.083 406.663 226.676 409.613C221.881 411.088 217.085 412.563 212.658 414.222C208.231 416.066 204.726 419.938 203.435 424.363L203.251 424.732L202.882 424.548C195.319 422.704 187.941 420.676 180.747 418.832L180.378 418.647L180.563 418.279L181.301 414.96C181.67 413.854 181.67 412.747 181.67 411.641C181.485 409.428 180.378 407.4 178.718 406.11C177.796 405.372 176.874 405.003 175.952 404.635L172.816 403.344C170.787 402.422 168.758 401.685 166.544 400.947C158.244 397.628 150.313 394.494 142.381 391.359C134.45 388.225 126.887 385.09 119.324 382.14C117.48 381.403 115.635 380.665 113.791 379.928C112.131 379.006 109.917 379.743 109.364 381.403C108.995 382.14 108.995 383.062 109.364 383.984L110.839 386.381C111.762 388.04 112.868 389.7 113.791 391.359C129.285 417.726 142.75 440.773 154.002 459.948C165.253 479.124 174.107 494.243 180.194 504.753C183.145 509.915 185.543 513.972 187.203 516.737C187.941 518.028 188.494 519.134 189.048 519.872C188.863 520.609 189.048 520.978 189.048 520.978C189.048 520.978 188.863 520.609 188.494 520.056C188.126 519.319 187.388 518.397 186.65 517.106C184.99 514.34 182.592 510.468 179.641 505.306C173.554 494.98 164.515 479.677 153.264 460.686C142.012 441.51 128.363 418.463 112.868 392.097C111.946 390.437 110.839 388.778 109.917 387.119C109.364 386.197 108.995 385.459 108.442 384.537C107.888 383.615 107.888 382.325 108.257 381.403C108.626 380.481 109.548 379.559 110.655 379.19C111.762 378.822 112.868 379.006 113.791 379.375C115.635 380.112 117.48 380.85 119.324 381.587C126.887 384.537 134.45 387.672 142.381 390.806C150.313 393.941 158.244 397.075 166.544 400.394C168.573 401.131 170.602 402.053 172.816 402.791L175.952 404.081C177.058 404.45 178.165 405.003 179.087 405.741C180.932 407.216 182.223 409.428 182.407 411.825C182.592 412.932 182.223 414.222 182.039 415.329L181.301 418.647L180.932 418.094C188.126 419.938 195.504 421.782 203.066 423.81L202.513 424.179C203.989 419.569 207.678 415.329 212.289 413.485C217.085 411.825 221.696 410.535 226.492 408.875C236.083 405.925 245.675 402.791 255.451 399.656C275.003 393.387 295.109 386.934 315.767 380.481C319.641 379.19 324.068 380.85 326.466 383.984C327.019 384.722 327.572 385.644 327.941 386.565L329.233 389.147C330.155 390.806 330.893 392.466 331.815 394.125C335.32 400.763 338.64 407.4 342.144 414.038C348.969 427.129 355.609 440.22 362.25 452.758C375.346 478.018 387.889 502.356 399.694 525.034V525.219V525.403C398.956 527.616 398.034 530.013 397.296 532.041V532.225H397.112C353.027 542.55 313.923 551.769 281.828 559.329C274.634 559.329 267.994 559.329 261.538 559.329C238.85 547.344 220.774 537.756 208.415 531.119C202.328 527.8 197.533 525.219 194.397 523.559C192.737 522.637 191.63 522.084 190.708 521.531C189.417 521.162 189.048 520.978 189.048 520.978Z" fill="#0B0125"/>
<g opacity="0.3">
<path d="M245.676 542.919L193.106 517.659L120.247 397.997L184.621 422.888L183.146 426.392L129.101 405.372L195.689 514.894L247.336 539.6L245.676 542.919Z" fill="#0B0125"/>
</g>
<g opacity="0.3">
<path d="M288.284 550.295L222.065 430.817L319.641 399.473L383.278 522.638L288.284 550.295ZM227.415 433.03L290.129 546.054L377.929 520.426L317.797 404.082L227.415 433.03Z" fill="#0B0125"/>
</g>
<path d="M276.479 557.67C276.294 557.854 259.693 528.169 239.403 491.293C219.113 454.602 202.882 424.548 203.066 424.548C203.25 424.363 219.851 454.048 240.141 490.924C260.431 527.616 276.663 557.67 276.479 557.67Z" fill="#0B0125"/>
<path d="M180.562 418.647C180.562 418.647 180.931 419.016 181.485 419.938C182.038 420.86 182.776 422.335 183.698 423.994C185.727 427.498 188.494 432.476 191.814 438.745C198.639 451.283 207.862 468.614 218.191 487.79C228.336 506.965 237.559 524.297 244.199 536.835C247.519 543.104 250.286 548.082 252.131 551.769C253.053 553.429 253.791 554.904 254.344 555.826C254.897 556.748 255.082 557.301 255.082 557.301C255.082 557.301 254.713 556.932 254.16 556.01C253.606 555.088 252.868 553.613 251.946 551.954C249.917 548.451 247.15 543.472 243.83 537.203C237.005 524.666 227.783 507.334 217.453 488.158C207.308 468.983 198.086 451.651 191.445 439.114C188.125 432.845 185.358 427.866 183.514 424.179C182.591 422.519 181.854 421.044 181.3 420.123C180.747 419.201 180.562 418.647 180.562 418.647Z" fill="#0B0125"/>
<path d="M193.106 420.861C192.921 420.861 193.29 418.28 193.843 415.329C194.581 412.379 195.319 409.982 195.503 409.982C195.688 409.982 195.319 412.564 194.766 415.514C194.028 418.464 193.29 420.861 193.106 420.861Z" fill="#0B0125"/>
<g opacity="0.3">
<path d="M205.28 457.736L244.384 530.197L258.034 532.226L219.114 460.318L205.28 457.736Z" fill="#0B0125"/>
</g>
<g opacity="0.3">
<path d="M191.445 438.376L213.026 442.801L217.822 450.545L195.688 446.304L191.814 439.482" fill="#0B0125"/>
</g>
<g opacity="0.3">
<path d="M268.732 438.376L264.858 429.526L289.206 420.86L293.264 429.526L268.732 438.376Z" fill="#0B0125"/>
</g>
<g opacity="0.3">
<path d="M267.072 483.181L253.606 457.737L322.223 432.477L334.397 457.737L267.072 483.181Z" fill="#0B0125"/>
</g>
<path d="M487.862 76.9927C493.211 72.0145 500.958 69.6175 508.151 70.9082C511.103 71.4613 514.238 72.3832 516.821 71.0926C518.665 70.1707 519.772 68.1425 521.248 66.4831C525.675 61.6892 534.344 61.8736 538.586 66.8519C539.693 68.1425 540.431 69.6175 541.906 70.3551C547.44 73.6739 554.449 63.1643 559.983 66.4831C557.401 67.5894 554.818 68.88 553.343 71.277C551.867 73.6739 551.682 76.9927 553.711 78.8365C558.876 83.8148 568.283 73.6739 574.001 77.9146C577.137 80.1272 577.322 85.6585 581.011 86.7648C582.486 87.1336 583.962 86.7648 585.437 86.5804C590.418 86.2117 595.214 90.6368 595.582 95.615C595.767 99.8558 593.369 105.018 596.505 107.968C598.349 109.812 601.485 109.628 604.067 109.443C603.883 113.315 602.592 117.187 600.747 120.691C607.572 124.931 609.601 135.257 604.99 141.894C608.31 144.66 611.63 147.61 613.474 151.482C615.503 155.354 615.688 160.332 612.921 163.651C612.368 164.389 611.63 165.126 611.077 166.048C610.708 166.97 610.708 168.076 610.892 169.182C611.445 173.239 613.106 177.111 612.737 181.167C612.368 185.223 609.232 189.648 605.174 189.095C604.252 188.911 603.145 188.542 602.407 189.095C601.854 189.464 601.485 190.202 601.301 190.939C600.563 193.889 601.116 196.839 601.485 199.789C601.669 202.739 601.669 205.874 599.825 208.271C597.98 210.483 593.922 211.221 592.262 208.824C593.185 213.433 594.107 218.043 595.029 222.652C595.582 225.418 595.951 228.737 593.922 230.581C591.156 232.978 586.729 230.765 584.884 227.631C583.04 224.496 582.671 220.624 580.826 217.49C580.088 216.199 578.982 215.093 578.613 213.618C578.244 212.512 578.059 211.221 577.322 210.483C575.477 208.824 572.71 211.221 572.71 213.618C572.895 216.015 574.555 217.859 576.03 219.702C577.506 221.546 578.428 224.312 577.137 226.34C576.584 227.262 575.477 227.815 574.739 228.921C572.71 232.24 577.506 235.928 577.875 239.8C578.244 242.75 576.03 245.147 573.817 247.175C571.235 249.572 566.254 251.416 564.779 248.097C564.225 246.99 564.594 245.7 564.225 244.409C563.856 242.934 562.565 242.012 561.643 241.09C559.061 238.509 557.216 235.19 556.663 231.687C559.43 235.559 562.381 240.537 560.167 244.778C559.245 246.437 557.401 247.728 555.925 249.019C552.974 251.784 551.129 255.288 548.362 258.053C545.596 260.819 540.984 262.478 537.664 260.45C538.586 264.322 536.742 268.747 533.237 270.591C529.733 272.435 524.937 271.513 522.354 268.563C521.617 267.825 521.063 266.719 520.141 266.35C519.034 265.797 517.927 266.166 516.636 266.35C509.627 267.272 502.249 263.953 498.56 258.053C499.667 257.684 500.958 257.316 502.064 256.947C495.24 255.656 488.046 254.366 482.512 250.125C476.979 245.884 473.659 237.956 476.979 231.871C478.454 229.29 481.037 226.524 480.114 223.759C479.377 221.73 477.348 220.809 475.319 220.071C467.203 216.752 459.271 213.433 451.155 210.299C447.282 208.64 443.224 206.98 440.641 203.477C438.243 200.158 438.243 194.442 441.748 192.23C440.088 188.358 437.137 185.039 433.632 182.642C429.574 180.061 424.963 178.586 420.905 176.189C416.847 173.792 413.158 169.367 413.711 164.757C414.265 159.963 420.905 156.645 424.041 160.332C423.672 153.141 410.944 152.035 410.207 144.844C409.653 138.944 417.216 136.363 421.089 132.122C420.351 130.094 418.507 128.619 417.769 126.591C416.293 122.35 420.72 118.478 424.963 116.634C429.205 114.975 434.186 113.131 435.477 108.89C436.768 104.465 433.079 99.1182 435.661 95.2463C437.137 93.0337 440.272 92.4806 442.486 93.9556C446.175 85.8429 461.485 92.8493 466.28 85.4742C466.649 84.921 467.018 84.1835 466.834 83.446C466.834 82.8929 466.465 82.3397 466.096 81.7866C464.436 79.3896 461.669 78.099 459.456 76.2552C457.242 74.4114 455.398 71.277 456.689 68.6956C457.796 66.1143 462.96 66.2987 462.776 69.2488C465.912 66.8519 471.261 68.3269 472.367 72.1989C474.396 69.8019 478.454 70.1707 481.037 71.8301C483.619 73.4895 485.279 76.4396 486.755 79.2053" fill="#0B0125"/>
<path d="M522.539 170.104C520.325 158.119 511.84 148.347 502.249 140.788C498.191 137.653 493.948 134.703 488.968 133.781C483.988 132.859 478.27 134.519 475.503 138.759L476.056 147.241C474.581 160.7 484.726 172.316 489.337 185.039C491.366 190.57 493.026 197.208 498.375 199.605C501.142 200.895 504.462 200.711 507.413 199.789C518.85 196.101 524.752 182.088 522.539 170.104Z" fill="#796BC1"/>
<path d="M522.17 232.609C530.102 222.652 528.995 206.795 520.141 197.945C525.121 191.676 523.461 182.089 518.481 176.004C513.501 169.735 506.123 166.232 498.929 162.729C495.056 144.475 474.766 131.384 456.689 135.625C447.467 121.612 427.177 119.215 411.129 123.825C407.256 124.931 403.198 126.406 399.14 126.406C396.188 126.406 393.237 125.484 390.286 125.115C373.87 122.718 357.453 134.15 350.997 149.269C349.891 151.666 349.153 154.247 347.493 156.275C345.279 159.041 342.143 160.516 339.377 162.729C333.29 167.338 329.601 174.529 329.047 182.089C328.678 188.542 330.707 195.18 327.941 201.08C326.649 204.03 324.067 206.242 322.96 209.377C319.825 218.043 329.416 227.077 327.572 236.296C327.203 238.14 326.28 239.799 325.727 241.643C324.62 245.331 324.989 249.387 326.649 252.89C327.941 255.656 329.97 258.053 330.154 261.003C330.338 263.216 329.232 265.428 328.678 267.641C327.572 272.988 339.008 294.007 343.619 297.141L483.804 299.907C494.502 297.879 503.171 288.291 504.278 277.597C504.463 275.753 504.463 273.91 505.569 272.434C506.492 271.328 508.152 270.775 509.443 270.038C518.481 265.244 519.772 252.89 518.85 242.749C518.666 241.274 518.666 239.799 519.034 238.509C519.403 235.743 520.879 234.268 522.17 232.609Z" fill="#0B0125"/>
<path d="M482.328 232.425C483.066 207.718 467.756 178.955 443.224 166.601C427.73 158.857 415.74 158.673 407.44 157.567C389.179 155.17 374.238 164.204 374.238 164.204C366.491 165.864 337.901 191.493 336.241 219.703C334.212 250.863 333.105 289.029 336.794 312.445C344.172 359.278 380.141 365.178 380.141 365.178L378.481 402.238L404.673 450.73L471.999 382.141L482.328 232.425Z" fill="#CABEFF"/>
<path d="M406.886 305.255C406.702 302.858 405.411 300.645 403.75 298.986C400.43 295.852 395.45 295.298 391.577 297.695C387.703 300.092 385.305 305.255 385.674 310.049C387.519 312.999 390.654 315.027 394.159 315.58C394.712 315.58 395.266 315.765 395.819 315.765C398.401 315.765 401.168 315.027 403.382 313.183C405.779 311.339 407.071 308.205 406.886 305.255Z" fill="#796BC1"/>
<path d="M346.754 261.373C346.57 264.507 349.152 267.273 352.472 267.457C355.793 267.641 358.559 265.245 358.744 262.11C358.928 258.976 356.346 256.21 353.026 256.026C349.521 255.841 346.754 258.238 346.754 261.373Z" fill="#0B0125"/>
<path d="M346.754 237.587C347.492 238.325 352.104 235.006 358.559 235.006C365.015 235.006 369.811 238.325 370.549 237.403C370.918 237.034 370.18 235.559 368.151 234.084C366.122 232.609 362.617 231.134 358.559 231.134C354.502 231.134 351.181 232.609 349.152 234.084C347.123 235.743 346.386 237.218 346.754 237.587Z" fill="#0B0125"/>
<path d="M384.567 288.476C384.567 288.108 380.509 287.37 374.053 286.633C372.393 286.448 370.918 286.079 370.549 284.973C370.18 283.867 370.918 282.023 371.656 279.995C373.131 275.938 374.791 271.882 376.451 267.457C383.276 249.572 388.072 234.822 387.334 234.638C386.596 234.453 380.509 248.65 373.685 266.535C372.024 270.96 370.549 275.201 369.073 279.257C368.52 281.101 367.413 283.314 368.151 285.711C368.52 287.001 369.811 287.923 370.918 288.108C372.024 288.476 372.947 288.476 373.685 288.476C380.509 288.845 384.567 288.845 384.567 288.476Z" fill="#0B0125"/>
<path d="M380.141 364.993C380.141 364.993 411.683 367.022 442.855 348.215C442.855 348.215 426.255 381.956 379.403 377.531L380.141 364.993Z" fill="#796BC1"/>
<path d="M403.751 293.086C402.644 293.086 402.644 300.092 396.741 305.071C390.839 310.049 383.276 309.311 383.276 310.233C383.092 310.602 384.936 311.524 388.072 311.708C391.208 311.893 395.635 310.786 399.324 307.836C403.013 304.702 404.488 300.645 404.857 297.88C404.857 294.745 404.12 292.902 403.751 293.086Z" fill="#0B0125"/>
<path d="M349.337 213.249C350.443 214.908 355.423 213.802 361.142 214.171C366.86 214.54 371.655 216.199 372.947 214.724C373.5 213.987 372.947 212.511 370.918 210.852C368.889 209.193 365.568 207.902 361.51 207.533C357.452 207.349 353.948 208.271 351.734 209.561C349.705 211.036 348.968 212.511 349.337 213.249Z" fill="#0B0125"/>
<path d="M416.293 264.138C416.293 267.272 413.526 269.853 410.206 270.038C406.886 270.038 404.304 267.641 404.304 264.322C404.304 261.188 407.071 258.606 410.391 258.422C413.526 258.422 416.293 261.003 416.293 264.138Z" fill="#0B0125"/>
<path d="M435.292 239.984C434.554 240.722 430.128 237.219 423.672 237.034C417.216 236.666 412.42 239.8 411.682 239.062C411.313 238.694 412.236 237.403 414.265 235.928C416.293 234.453 419.798 233.162 423.856 233.347C427.914 233.531 431.234 235.191 433.079 236.666C435.108 238.325 435.661 239.616 435.292 239.984Z" fill="#0B0125"/>
<path d="M437.137 218.412C435.845 219.887 430.865 218.043 424.963 217.859C419.06 217.305 413.895 218.412 412.789 216.937C412.235 216.199 413.158 214.724 415.371 213.433C417.584 212.143 421.274 211.221 425.332 211.405C429.39 211.59 432.894 213.065 434.923 214.724C436.952 216.199 437.69 217.674 437.137 218.412Z" fill="#0B0125"/>
<path d="M474.581 276.676C474.581 273.173 478.639 264.876 482.144 264.507C491.366 263.032 507.967 263.77 508.152 287.186C508.336 319.083 476.241 312.814 476.241 311.893C476.057 311.155 474.581 288.845 474.581 276.676Z" fill="#CABEFF"/>
<path d="M484.726 300.092C484.91 299.907 485.279 300.461 486.201 300.829C487.123 301.198 488.784 301.567 490.444 300.829C493.764 299.539 496.531 294.192 496.715 288.476C496.715 285.526 496.162 282.76 495.055 280.548C494.133 278.151 492.473 276.676 490.813 276.307C489.152 275.938 487.861 277.044 487.492 277.782C487.123 278.704 487.308 279.257 487.123 279.441C487.123 279.441 486.386 278.888 486.755 277.598C486.939 277.044 487.308 276.122 488.046 275.569C488.784 275.016 489.89 274.647 491.181 274.647C493.579 274.832 495.793 277.044 497.084 279.626C498.375 282.207 499.113 285.157 499.113 288.476C498.929 294.929 495.793 301.014 491.181 302.304C488.968 302.857 487.123 302.304 486.017 301.567C484.726 300.829 484.726 300.092 484.726 300.092Z" fill="#796BC1"/>
<path d="M328.862 220.071C335.318 216.015 339.376 210.483 339.007 202.924C343.25 204.214 347.677 198.683 350.074 194.995C352.657 191.308 355.608 189.464 355.424 185.039C355.424 184.117 355.239 183.195 355.793 182.457C356.53 181.167 358.006 180.798 359.297 180.429C366.122 178.217 371.656 172.501 373.316 165.495C380.14 168.445 387.703 169.735 395.266 169.182C398.586 173.976 404.488 176.926 410.206 176.557C416.109 176.373 421.642 172.87 424.409 167.892C426.254 171.948 430.496 174.529 434.739 175.635C438.981 176.742 443.592 176.557 448.019 176.373C446.175 185.039 451.708 194.442 460.009 197.023C461.116 197.392 462.407 197.761 462.96 198.867C463.513 199.974 462.96 201.264 462.407 202.37C459.64 209.746 464.436 218.965 471.998 220.808C466.834 224.865 467.387 234.268 472.921 237.587C474.027 238.324 475.687 239.062 475.503 240.537C475.503 241.09 475.134 241.459 474.765 241.828C472.367 244.962 469.969 248.465 469.785 252.337C469.416 256.209 472.183 260.634 476.056 260.819C474.027 262.662 471.998 265.059 471.998 267.825C471.998 270.591 474.765 273.356 477.347 272.435C478.454 272.066 494.317 268.931 495.055 268.009C504.093 255.656 492.657 242.196 491.919 226.893C490.997 211.774 485.648 197.023 478.085 183.748C474.95 178.217 471.261 172.87 466.834 168.445C461.669 163.282 455.398 159.41 449.311 155.538C441.195 150.56 432.894 145.582 423.671 143.369C406.517 139.313 388.441 145.582 372.393 152.957C366.306 155.722 360.219 158.857 355.055 163.098C348.968 168.26 344.356 175.082 340.483 182.273C334.765 192.414 329.969 203.292 328.862 214.908" fill="#0B0125"/>
<path d="M322.592 208.824C322.592 208.824 322.961 207.533 324.252 205.321C324.99 204.215 325.912 203.108 326.834 201.449C327.756 199.79 328.494 197.761 328.679 195.549C328.863 193.152 328.679 190.571 328.494 187.621C328.31 184.67 328.125 181.536 328.679 178.217C329.232 174.898 330.708 171.395 332.921 168.076C334.028 166.417 335.319 164.942 336.795 163.651C338.27 162.176 340.115 161.07 341.775 159.964C343.62 158.857 345.28 157.567 346.571 155.723C347.862 154.063 348.784 151.851 349.522 149.638C351.367 145.213 353.949 140.973 357.269 137.285C360.589 133.597 364.832 130.094 369.627 127.697C372.025 126.407 374.608 125.485 377.375 124.747C380.141 124.194 382.908 123.641 385.859 123.825C387.335 123.825 388.811 124.01 390.102 124.194C391.577 124.378 392.869 124.747 394.344 124.932C397.111 125.485 400.062 125.669 402.829 124.932C405.78 124.378 408.547 123.272 411.498 122.535C414.45 121.797 417.401 121.244 420.537 120.875C423.672 120.506 426.808 120.506 429.944 120.875C433.08 121.06 436.215 121.797 439.351 122.535C445.438 124.378 451.34 127.882 455.398 133.229C455.767 133.782 456.136 134.335 456.505 134.888C466.097 132.675 476.242 135.257 483.989 140.419C491.736 145.582 497.638 153.51 499.298 162.361L499.114 161.992C502.987 163.836 506.861 165.679 510.366 167.892C513.87 170.104 517.006 172.87 519.404 176.005C521.802 179.323 523.277 183.195 523.462 187.067C523.831 190.939 522.724 194.996 520.326 197.946V197.393C524.937 202.002 527.151 208.087 527.704 213.802C528.258 219.518 526.966 225.234 524.384 229.659C523.831 230.765 522.908 231.872 522.171 232.793C521.433 233.715 520.511 234.637 519.957 235.559C519.404 236.481 518.85 237.587 518.85 238.694C518.666 239.8 518.85 240.906 518.85 242.012C519.219 246.438 519.035 250.494 518.482 254.181C517.928 257.869 516.821 261.003 515.346 263.4C513.87 265.797 512.026 267.457 510.366 268.563C508.706 269.669 507.23 270.038 506.492 270.591C505.57 271.144 505.385 271.513 505.385 271.513C505.385 271.513 505.57 270.96 506.492 270.407C507.23 269.854 508.706 269.301 510.366 268.194C512.026 267.088 513.686 265.429 515.161 263.032C516.637 260.635 517.559 257.5 518.113 253.997C518.666 250.494 518.666 246.438 518.297 242.012C518.297 240.906 518.113 239.8 518.113 238.509C518.113 237.403 518.666 236.112 519.404 235.19C520.142 234.084 520.879 233.162 521.617 232.24C522.355 231.318 523.093 230.212 523.646 229.106C526.229 224.681 527.335 219.334 526.782 213.618C526.229 208.087 524.015 202.186 519.588 197.761L519.404 197.577L519.588 197.208C521.802 194.443 522.724 190.755 522.355 187.067C521.986 183.38 520.695 179.692 518.297 176.558C515.899 173.423 512.763 170.842 509.443 168.629C505.939 166.417 502.25 164.573 498.376 162.729L498.192 162.545V162.361C496.347 153.879 490.814 146.135 483.251 141.157C475.688 136.179 465.912 133.597 456.505 135.626H456.136L455.952 135.441C455.583 134.888 455.214 134.519 454.845 133.966C450.972 128.804 445.253 125.485 439.351 123.641C436.4 122.719 433.264 122.166 430.128 121.981C426.993 121.797 424.041 121.797 420.906 121.981C417.954 122.35 414.819 122.719 412.052 123.457C409.101 124.194 406.334 125.116 403.382 125.853C401.907 126.222 400.431 126.407 398.956 126.222C397.48 126.222 396.004 126.038 394.529 125.669C393.053 125.485 391.762 125.116 390.286 124.932C388.811 124.747 387.519 124.563 386.044 124.563C383.277 124.378 380.51 124.932 377.928 125.485C375.346 126.222 372.763 126.96 370.365 128.25C365.569 130.647 361.512 133.782 358.191 137.469C354.871 141.157 352.289 145.213 350.444 149.638C349.522 151.851 348.784 153.879 347.309 155.723C345.833 157.567 343.988 158.857 342.328 159.964C340.484 161.07 338.824 162.361 337.348 163.651C335.872 164.942 334.581 166.417 333.475 168.076C331.261 171.211 329.97 174.53 329.232 177.848C328.494 181.167 328.679 184.302 328.863 187.252C329.048 190.202 329.232 192.783 328.863 195.18C328.679 197.577 327.941 199.605 327.019 201.265C326.096 202.924 325.174 204.03 324.436 205.137C323.699 206.243 323.33 206.98 322.961 207.533C322.776 208.455 322.776 208.824 322.592 208.824Z" fill="#796BC1"/>
<path d="M441.564 128.434C441.564 128.434 440.642 127.881 439.166 127.144C437.691 126.406 435.293 125.484 432.157 125.115C429.206 124.747 425.332 124.931 421.643 126.591C417.954 128.25 414.449 131.2 412.051 135.256C411.314 136.363 410.76 137.653 410.391 138.944C410.022 140.235 410.022 141.341 410.576 142.263L411.314 143.369L410.022 143C406.518 142.078 402.829 142.632 400.062 144.107C397.295 145.582 395.635 147.979 394.713 150.007C393.791 152.035 393.422 154.063 393.422 155.354C393.422 156.644 393.422 157.382 393.422 157.382C393.422 157.382 393.422 157.197 393.237 156.829C393.237 156.46 393.053 155.907 393.053 155.354C393.053 154.063 393.237 152.035 394.159 149.822C395.082 147.61 396.926 145.028 399.693 143.369C402.46 141.71 406.333 140.972 410.207 142.078L409.654 142.816C408.731 141.525 408.916 140.05 409.285 138.575C409.654 137.285 410.207 135.994 410.945 134.703C413.343 130.462 417.216 127.328 421.09 125.669C424.963 124.009 428.837 123.825 431.972 124.378C435.108 124.747 437.506 125.853 438.982 126.775C439.719 127.144 440.273 127.512 440.642 127.881C441.38 128.25 441.564 128.434 441.564 128.434Z" fill="#796BC1"/>
<path d="M493.396 165.126C493.396 165.126 493.027 165.68 492.289 166.233C491.551 166.97 490.26 167.892 488.6 168.814C486.94 169.736 484.727 170.658 482.144 170.658C479.562 170.842 476.611 170.289 474.213 168.261L474.951 168.076C474.582 168.445 474.397 168.998 474.028 169.367C473.659 169.736 473.29 170.289 472.922 170.658C470.524 173.055 467.757 174.714 464.99 175.636C462.223 176.558 459.641 176.742 457.427 176.558C455.214 176.374 453.554 175.82 452.447 175.452C451.34 174.899 450.787 174.53 450.787 174.53C450.787 174.345 453.185 175.636 457.612 175.82C459.641 175.82 462.223 175.636 464.99 174.714C467.572 173.792 470.339 172.317 472.553 169.92C472.922 169.551 473.29 169.183 473.659 168.814C474.028 168.445 474.213 167.892 474.582 167.523L474.951 167.155L475.319 167.523C477.533 169.367 480.3 169.92 482.513 169.736C484.911 169.736 486.94 168.814 488.6 168.076C491.551 166.601 493.211 164.942 493.396 165.126Z" fill="#796BC1"/>
<path d="M510.181 194.811C510.181 194.811 510.181 194.996 510.181 195.364C509.996 195.733 509.812 196.286 509.443 196.839C508.705 198.13 506.861 199.605 504.278 200.158C501.696 200.896 498.376 200.343 495.24 199.236C493.58 198.683 491.92 198.13 490.26 197.208C488.6 196.471 486.755 195.18 485.833 193.152C485.833 192.967 485.648 192.783 485.648 192.599L486.386 192.783C483.251 195.18 480.115 197.208 476.979 198.499C473.843 199.789 470.523 199.974 467.941 199.421C465.359 198.868 463.514 197.761 462.407 196.839C461.854 196.286 461.485 195.917 461.301 195.733C461.116 195.364 460.932 195.18 460.932 195.18C460.932 195.18 461.485 195.733 462.592 196.471C463.698 197.208 465.543 198.314 467.941 198.683C470.339 199.052 473.475 198.868 476.426 197.577C479.561 196.471 482.513 194.442 485.648 192.046L486.202 191.677L486.386 192.23C486.386 192.414 486.571 192.599 486.571 192.599C487.309 194.258 488.969 195.364 490.444 196.102C492.104 196.839 493.764 197.577 495.424 198.13C498.56 199.236 501.696 199.789 504.094 199.236C506.492 198.683 508.336 197.393 509.074 196.286C509.996 195.549 509.996 194.811 510.181 194.811Z" fill="#796BC1"/>
<path d="M544.674 80.8651C544.674 80.8651 544.121 80.8652 543.198 81.0495C542.276 81.2339 540.8 81.9714 539.694 83.2621C538.402 84.5527 537.48 86.7653 537.296 89.3466C537.111 91.9279 537.665 94.878 538.402 98.0124L538.587 98.5656H538.034C534.529 98.3812 530.471 99.4875 526.966 101.884C523.462 104.281 520.879 108.338 520.879 113.132C520.695 117.372 522.539 121.429 525.491 123.826L526.597 124.747H525.306C520.326 124.747 515.899 126.96 513.132 130.094C510.365 133.229 509.259 136.916 509.074 139.867C508.89 143.001 509.628 145.398 510.181 146.873C510.734 148.532 511.288 149.27 511.288 149.27C511.288 149.27 511.103 149.086 510.919 148.717C510.734 148.348 510.366 147.795 509.997 147.057C509.259 145.582 508.521 143.001 508.705 139.867C508.89 136.732 509.812 132.86 512.763 129.541C515.715 126.407 520.326 123.826 525.491 123.826L525.122 124.563C521.802 121.982 519.957 117.557 520.142 113.132C520.142 110.735 520.879 108.338 521.986 106.309C523.093 104.281 524.753 102.622 526.597 101.331C530.286 98.7499 534.529 97.828 538.218 97.828L537.849 98.3812C537.111 95.2467 536.558 92.1123 536.742 89.3466C536.927 86.5809 538.034 84.3684 539.509 83.0777C540.8 81.6027 542.276 81.0495 543.383 80.8651C543.936 80.8651 544.305 80.6808 544.489 80.8651C544.489 80.8651 544.674 80.8651 544.674 80.8651Z" fill="#796BC1"/>
<path d="M601.485 150.191C601.485 150.191 601.301 150.376 600.932 150.56C600.563 150.744 600.009 151.113 599.272 151.297C597.796 151.851 595.583 152.588 592.816 152.772C590.049 152.957 586.544 152.772 582.855 151.482C579.166 150.376 575.293 147.979 572.157 144.475H572.895C570.128 149.085 564.963 153.51 558.507 154.248C551.683 155.169 545.042 151.297 542.644 145.766H543.382C542.644 147.979 541.169 149.822 539.509 151.113C537.849 152.404 536.004 153.51 534.344 154.063C530.655 155.354 527.335 155.354 524.568 154.985C521.801 154.801 519.772 154.248 518.296 153.879C516.821 153.51 516.083 153.326 516.083 153.326C516.083 153.326 516.821 153.326 518.296 153.694C519.772 153.879 521.801 154.248 524.568 154.432C527.15 154.616 530.655 154.432 533.975 153.326C537.295 152.035 540.984 149.454 542.46 145.397L542.829 144.291L543.198 145.397C545.411 150.56 551.683 154.063 558.138 153.326C564.225 152.588 569.206 148.532 571.972 143.922L572.341 143.369L572.71 143.922C575.662 147.425 579.351 149.638 583.04 150.929C586.544 152.219 590.049 152.404 592.816 152.404C598.534 151.851 601.485 150.007 601.485 150.191Z" fill="#796BC1"/>
<path d="M567.915 196.839C567.915 196.839 567.915 197.023 567.546 197.392C567.177 197.761 566.624 198.13 565.701 198.13C564.041 198.314 561.459 198.13 558.692 197.023C555.925 195.917 552.79 193.704 550.576 190.201C548.363 186.698 547.256 182.089 548.178 177.479V177.295L548.916 177.848C544.674 179.876 540.062 180.245 536.189 179.507C532.131 178.77 528.995 177.11 526.413 175.266C524.015 173.423 522.355 171.579 521.248 170.288C520.141 168.998 519.772 168.076 519.772 168.076C519.957 167.891 521.801 171.21 526.782 174.713C529.18 176.373 532.315 178.032 536.189 178.585C540.062 179.138 544.489 178.77 548.363 176.926L549.285 176.557L549.101 177.479V177.663C548.178 182.089 549.285 186.514 551.314 189.648C553.343 192.967 556.294 195.179 558.877 196.286C561.643 197.392 564.041 197.761 565.701 197.761C567.361 197.761 567.915 196.654 567.915 196.839Z" fill="#796BC1"/>
<path d="M474.766 81.9706C474.95 81.9706 472.921 85.6582 473.29 91.7427C473.475 94.8771 474.213 98.3803 476.426 101.884C478.455 105.387 481.96 108.521 486.202 110.365C488.6 111.471 491.182 112.024 493.58 112.209H494.134L493.949 112.762C492.842 116.265 492.474 119.953 492.842 123.087C493.027 126.222 493.765 128.987 494.687 131.2C495.056 132.306 495.609 133.228 495.978 133.966C496.347 134.703 497.085 135.256 497.638 135.256C498.192 135.256 498.745 135.072 498.929 134.887C499.114 134.703 499.114 134.519 499.298 134.519C499.298 134.519 499.298 134.703 499.114 135.072C498.929 135.441 498.376 135.625 497.638 135.625C496.9 135.625 496.163 135.072 495.609 134.334C495.056 133.597 494.687 132.491 494.134 131.384C493.211 129.172 492.474 126.406 492.105 123.087C491.736 119.768 492.105 116.081 493.211 112.393L493.58 112.946C490.998 112.762 488.416 112.209 486.018 110.918C481.591 108.89 478.086 105.571 475.873 101.884C473.659 98.196 472.921 94.5084 472.921 91.3739C472.737 88.2395 473.475 85.6582 474.028 83.9987C474.397 83.2612 474.582 82.5237 474.766 82.1549C474.582 82.1549 474.766 81.7862 474.766 81.9706Z" fill="#796BC1"/>
<path d="M496.716 265.613V260.45L445.438 244.04C427.177 236.297 401.169 240.722 385.86 250.125L372.579 250.494L372.763 250.309C357.638 238.325 331.999 235.928 312.078 244.594L312.631 246.806C312.631 246.991 312.816 247.175 312.816 247.728L313.185 249.572C315.767 261.372 319.087 273.726 322.223 277.044C324.437 279.257 331.446 280.548 337.348 281.101C339.562 281.285 341.591 281.469 343.066 281.654C344.911 281.838 360.405 282.76 362.987 280.363C365.939 277.782 370.734 258.791 372.21 253.075L385.86 252.706C387.52 257.316 390.286 277.598 396.742 281.838C403.567 286.079 431.973 284.788 435.109 279.994C437.322 276.676 445.438 256.578 447.283 250.309L447.652 249.756L496.716 265.613ZM361.512 278.519C358.56 280.732 327.572 279.257 324.068 275.385C320.932 272.066 317.058 255.288 315.767 249.019C315.767 248.834 315.767 248.834 315.767 248.834C333.475 242.012 356.531 244.225 369.812 254.366C367.045 264.322 363.172 277.044 361.512 278.519ZM433.264 278.519C431.235 281.469 404.858 283.866 398.034 279.626C393.422 276.676 390.84 262.478 388.811 254.181C403.752 245.331 429.206 241.459 445.438 249.572C442.118 260.819 434.924 276.122 433.264 278.519Z" fill="#0B0125"/>
<g opacity="0.3">
<path d="M391.577 256.025C391.577 256.025 394.344 275.938 400.062 277.044C405.78 277.966 412.605 247.728 412.605 247.728C412.605 247.728 395.266 251.046 391.577 256.025Z" fill="white"/>
</g>
<g opacity="0.3">
<path d="M317.796 249.571C317.796 249.571 320.563 272.25 326.281 273.172C331.999 274.094 343.619 246.437 343.619 246.437C343.619 246.437 321.485 244.777 317.796 249.571Z" fill="white"/>
</g>
<path d="M495.241 619.621C489.155 613.168 469.787 597.127 464.069 594.915C458.351 592.702 440.643 634.372 439.352 645.435C438.245 656.313 444.332 670.695 452.079 680.282C463.147 693.926 489.708 710.889 499.668 715.499C509.813 720.293 538.404 736.518 555.742 699.642C573.081 662.766 570.867 663.135 575.663 647.832C583.226 624.231 589.497 577.952 593.186 549.742C596.322 525.772 597.613 494.797 596.322 471.934C595.031 449.071 588.759 428.604 573.265 414.407C560.354 402.607 517.191 506.781 517.191 507.703C517.191 508.625 497.27 619.437 497.27 619.437" fill="#796BC1"/>
<path d="M352.843 485.209C352.843 485.209 348.785 478.202 363.726 475.99C378.666 473.777 389.365 476.358 392.869 477.649C396.374 479.124 415.004 496.824 416.479 500.143C420.537 509.362 427.362 537.204 427.362 537.204L436.585 550.294L414.819 589.199C414.819 589.199 411.499 585.327 408.363 582.745C405.043 579.98 395.452 576.845 393.423 568.548C391.394 560.435 385.491 549.557 385.491 549.557C385.491 549.557 349.154 541.629 345.834 539.969C342.513 538.31 342.882 533.516 342.882 533.516C342.882 533.516 333.475 532.41 331.631 531.488C329.602 530.75 324.99 524.113 332.737 520.609C340.484 517.106 366.123 515.262 369.628 515.262C373.133 515.262 389.734 517.475 389.734 517.475C389.734 517.475 367.784 512.497 361.143 511.944C354.503 511.39 339.193 511.759 336.795 511.206C333.844 510.469 331.815 503.278 337.349 500.696C344.173 497.562 355.241 496.64 357.823 496.456C367.599 496.087 390.84 499.775 390.84 499.775L382.355 490.371C382.355 490.371 369.075 487.974 361.697 488.159C356.716 488.159 352.843 485.209 352.843 485.209Z" fill="#CABEFF"/>
<path d="M404.675 578.32L465.545 669.588C465.545 669.588 491.368 638.059 493.213 615.196L494.319 603.949L426.071 537.572L404.675 578.32Z" fill="#CABEFF"/>
<path d="M387.336 533.7C387.336 533.885 384.753 533.516 380.695 532.963C376.637 532.41 370.919 532.041 364.648 531.856C358.376 531.856 352.658 532.041 348.6 532.41C344.542 532.778 341.96 533.147 341.96 532.963C341.96 532.963 342.513 532.778 343.62 532.594C344.727 532.41 346.387 532.041 348.416 531.856C352.474 531.303 358.192 530.935 364.463 530.935C370.735 531.119 376.453 531.672 380.511 532.225C382.54 532.594 384.2 532.778 385.307 533.147C386.598 533.516 387.336 533.7 387.336 533.7Z" fill="#796BC1"/>
<path d="M533.423 612.246C533.423 612.246 532.5 611.693 531.209 610.771C529.734 609.665 527.705 608.189 525.307 606.53C520.326 602.842 513.502 597.864 506.123 592.148C502.434 589.383 498.745 586.802 495.056 584.958C493.212 584.036 491.367 583.483 489.707 583.114C488.047 582.745 486.387 582.376 484.911 582.376C481.96 582.192 479.562 583.114 478.086 584.036C476.611 584.958 476.058 585.695 475.873 585.695C475.873 585.695 476.057 585.511 476.242 585.142C476.611 584.773 476.98 584.405 477.718 583.851C479.009 582.745 481.591 581.823 484.727 581.823C486.202 581.823 488.047 582.192 489.707 582.561C491.552 582.93 493.396 583.483 495.241 584.405C498.93 586.064 502.619 588.645 506.492 591.595C514.055 597.311 520.695 602.289 525.676 606.161C528.073 608.005 529.918 609.48 531.394 610.586C532.869 611.508 533.423 612.246 533.423 612.246Z" fill="#0B0125"/>
<path d="M562.935 612.431C562.751 612.615 560.722 610.034 556.664 606.715C554.635 605.056 552.237 603.027 549.286 601.184C546.334 599.34 543.014 597.496 539.51 595.837C535.821 594.177 532.316 592.887 528.996 591.965C525.676 591.043 522.54 590.49 519.958 590.121C514.793 589.383 511.473 589.383 511.473 589.199C511.473 589.199 512.21 589.015 513.686 589.015C514.424 589.015 515.346 589.015 516.453 589.015C517.56 589.015 518.666 589.199 519.958 589.383C522.54 589.568 525.676 590.305 529.18 591.043C532.5 591.965 536.189 593.255 539.879 594.915C543.568 596.574 546.888 598.602 549.839 600.446C552.79 602.474 555.188 604.318 557.033 606.162C557.955 607.084 558.877 607.821 559.615 608.743C560.353 609.481 560.906 610.218 561.46 610.771C562.382 611.693 562.935 612.431 562.935 612.431Z" fill="#0B0125"/>
<path d="M552.606 415.145C552.606 415.145 551.868 415.882 550.392 417.357C549.655 418.095 548.732 418.832 547.81 419.938C546.888 421.045 545.781 421.967 544.674 423.442C543.568 424.732 542.276 426.207 540.985 427.867C539.694 429.526 538.403 431.186 537.112 433.214C534.529 437.086 531.947 441.511 529.734 446.305C527.52 451.098 525.86 455.892 524.569 460.317C524.016 462.53 523.462 464.743 523.093 466.586C522.724 468.615 522.355 470.458 522.171 472.118C521.802 473.777 521.802 475.437 521.618 476.727C521.433 478.018 521.433 479.309 521.249 480.23C521.064 482.259 521.064 483.18 520.88 483.18C520.88 483.18 520.695 482.074 520.88 480.046C520.88 479.124 520.88 477.834 521.064 476.543C521.249 475.068 521.249 473.593 521.433 471.749C521.618 470.09 521.987 468.061 522.355 466.033C522.724 464.005 523.278 461.793 523.831 459.58C525.122 455.155 526.782 450.177 528.996 445.383C531.209 440.589 533.792 436.164 536.558 432.292C537.85 430.448 539.141 428.604 540.432 426.945C541.723 425.285 543.014 423.81 544.121 422.52C545.228 421.229 546.519 420.123 547.441 419.201C548.363 418.279 549.286 417.357 550.024 416.804C551.684 415.882 552.606 415.145 552.606 415.145Z" fill="#0B0125"/>
<path d="M495.24 619.621C489.154 613.168 469.786 597.127 464.068 594.915C458.35 592.702 440.642 634.372 439.351 645.435C438.244 656.313 444.331 670.695 452.078 680.282C463.146 693.926 489.707 710.889 499.667 715.499C509.812 720.293 538.403 736.518 555.741 699.642C573.08 662.766 570.867 663.135 575.662 647.832C583.225 624.231 589.496 577.952 593.185 549.742C596.321 525.772 597.612 494.797 596.321 471.934C595.03 449.071 588.759 428.604 573.264 414.407C560.353 402.607 517.19 506.781 517.19 507.703C517.19 508.625 497.269 619.437 497.269 619.437" fill="#796BC1"/>
<path d="M352.843 485.209C352.843 485.209 348.785 478.202 363.726 475.99C378.666 473.777 389.365 476.358 392.869 477.649C396.374 479.124 415.004 496.824 416.479 500.143C420.537 509.362 427.362 537.204 427.362 537.204L436.585 550.294L414.819 589.199C414.819 589.199 411.499 585.327 408.363 582.745C405.043 579.98 395.452 576.845 393.423 568.548C391.394 560.435 385.491 549.557 385.491 549.557C385.491 549.557 349.154 541.629 345.834 539.969C342.513 538.31 342.882 533.516 342.882 533.516C342.882 533.516 333.475 532.41 331.631 531.488C329.602 530.75 324.99 524.113 332.737 520.609C340.484 517.106 366.123 515.262 369.628 515.262C373.133 515.262 389.734 517.475 389.734 517.475C389.734 517.475 367.784 512.497 361.143 511.944C354.503 511.39 339.193 511.759 336.795 511.206C333.844 510.469 331.815 503.278 337.349 500.696C344.173 497.562 355.241 496.64 357.823 496.456C367.599 496.087 390.84 499.775 390.84 499.775L382.355 490.371C382.355 490.371 369.075 487.974 361.697 488.159C356.716 488.159 352.843 485.209 352.843 485.209Z" fill="#CABEFF"/>
<path d="M404.674 578.32L465.544 669.588C465.544 669.588 491.367 638.059 493.212 615.196L494.318 603.949L426.07 537.572L404.674 578.32Z" fill="#CABEFF"/>
<path d="M387.336 533.7C387.336 533.885 384.753 533.516 380.695 532.963C376.637 532.41 370.919 532.041 364.648 531.856C358.376 531.856 352.658 532.041 348.6 532.41C344.542 532.778 341.96 533.147 341.96 532.963C341.96 532.963 342.513 532.778 343.62 532.594C344.727 532.41 346.387 532.041 348.416 531.856C352.474 531.303 358.192 530.935 364.463 530.935C370.735 531.119 376.453 531.672 380.511 532.225C382.54 532.594 384.2 532.778 385.307 533.147C386.598 533.516 387.336 533.7 387.336 533.7Z" fill="#796BC1"/>
<path d="M533.423 612.246C533.423 612.246 532.5 611.693 531.209 610.771C529.734 609.665 527.705 608.189 525.307 606.53C520.326 602.842 513.502 597.864 506.123 592.148C502.434 589.383 498.745 586.802 495.056 584.958C493.212 584.036 491.367 583.483 489.707 583.114C488.047 582.745 486.387 582.376 484.911 582.376C481.96 582.192 479.562 583.114 478.086 584.036C476.611 584.958 476.058 585.695 475.873 585.695C475.873 585.695 476.057 585.511 476.242 585.142C476.611 584.773 476.98 584.405 477.718 583.851C479.009 582.745 481.591 581.823 484.727 581.823C486.202 581.823 488.047 582.192 489.707 582.561C491.552 582.93 493.396 583.483 495.241 584.405C498.93 586.064 502.619 588.645 506.492 591.595C514.055 597.311 520.695 602.289 525.676 606.161C528.073 608.005 529.918 609.48 531.394 610.586C532.869 611.508 533.423 612.246 533.423 612.246Z" fill="#0B0125"/>
<path d="M517.745 507.703C517.745 507.703 517.745 508.256 517.56 509.178C517.376 510.284 517.376 511.575 517.007 513.419C516.638 517.106 515.9 522.453 515.162 528.907C513.502 542.182 511.104 560.251 508.522 580.164C507.969 584.221 507.415 588.093 507.046 591.964L506.493 591.411C524.016 591.411 539.326 595.836 548.917 601.183C553.713 603.765 557.218 606.53 559.431 608.743C560.538 609.665 561.276 610.771 561.829 611.324C562.382 611.877 562.567 612.246 562.567 612.246C562.567 612.246 561.46 611.14 559.247 609.112C557.033 607.084 553.529 604.502 548.733 601.921C539.141 596.758 524.016 592.518 506.677 592.518H506.124V591.964C506.677 588.093 507.046 584.221 507.6 580.164C510.182 560.251 512.764 541.998 514.424 528.907C515.347 522.453 516.085 517.106 516.638 513.419C516.822 511.575 517.191 510.284 517.191 509.178C517.56 508.256 517.745 507.703 517.745 507.703Z" fill="#0B0125"/>
<path d="M552.606 415.145C552.606 415.145 551.868 415.882 550.392 417.357C549.655 418.095 548.732 418.832 547.81 419.938C546.888 421.045 545.781 421.967 544.674 423.442C543.568 424.732 542.276 426.207 540.985 427.867C539.694 429.526 538.403 431.186 537.112 433.214C534.529 437.086 531.947 441.511 529.734 446.305C527.52 451.098 525.86 455.892 524.569 460.317C524.016 462.53 523.462 464.743 523.093 466.586C522.724 468.615 522.355 470.458 522.171 472.118C521.802 473.777 521.802 475.437 521.618 476.727C521.433 478.018 521.433 479.309 521.249 480.23C521.064 482.259 521.064 483.18 520.88 483.18C520.88 483.18 520.695 482.074 520.88 480.046C520.88 479.124 520.88 477.834 521.064 476.543C521.249 475.068 521.249 473.593 521.433 471.749C521.618 470.09 521.987 468.061 522.355 466.033C522.724 464.005 523.278 461.793 523.831 459.58C525.122 455.155 526.782 450.177 528.996 445.383C531.209 440.589 533.792 436.164 536.558 432.292C537.85 430.448 539.141 428.604 540.432 426.945C541.723 425.285 543.014 423.81 544.121 422.52C545.228 421.229 546.519 420.123 547.441 419.201C548.363 418.279 549.286 417.357 550.024 416.804C551.684 415.882 552.606 415.145 552.606 415.145Z" fill="#0B0125"/>
<path d="M232.025 554.535C232.025 554.535 216.346 516 219.482 502.909C219.851 501.25 221.327 500.144 222.987 500.144C224.278 500.144 225.569 500.881 226.122 501.987L246.412 541.076C246.412 541.076 249.179 533.885 254.897 531.488C260.8 528.907 273.711 525.588 273.711 525.588L291.972 527.8C295.108 528.169 296.584 532.041 294.37 534.254C292.341 536.282 289.021 538.31 283.303 538.679C270.022 539.785 266.518 542.92 266.518 542.92L259.877 554.351C259.877 554.351 273.896 544.763 278.323 544.395C281.827 544.026 300.826 543.657 309.126 543.473C312.262 543.473 315.213 545.317 316.136 548.267C317.058 550.848 316.32 553.798 310.418 555.273C310.418 555.273 316.874 558.592 308.02 563.017C299.904 567.073 291.419 569.655 291.419 569.655L278.876 578.136L257.848 592.886L233.132 575.923C233.132 575.923 224.278 566.52 229.811 558.776C231.287 557.67 232.025 554.535 232.025 554.535Z" fill="#CABEFF"/>
<path d="M293.264 567.258C293.264 567.258 305.069 577.214 307.651 583.483C310.234 589.752 312.447 596.206 308.389 611.14C304.331 626.259 270.576 611.14 270.576 611.14C269.654 604.871 262.091 597.496 253.606 589.937L285.148 566.521L293.264 567.258Z" fill="#CABEFF"/>
<path d="M249.733 535.728C249.917 535.728 248.995 537.019 247.888 538.863C246.597 540.707 245.121 543.288 243.277 546.238C239.772 552.138 236.821 556.748 236.452 556.563C236.268 556.563 237.005 555.273 238.112 553.244C239.219 551.216 240.695 548.635 242.539 545.685C245.859 539.785 249.548 535.544 249.733 535.728Z" fill="#796BC1"/>
<path d="M311.156 555.273C311.156 555.273 310.418 555.458 309.311 555.642C308.02 555.826 306.36 555.826 304.146 556.011C299.904 556.38 293.817 556.748 287.177 557.117C280.352 557.117 275.74 561.542 272.42 564.123C269.1 566.889 267.071 568.733 266.887 568.549C266.887 568.549 267.256 567.995 268.178 567.074C269.1 566.152 270.391 565.045 271.867 563.57C273.527 562.095 275.556 560.436 277.954 558.776C279.245 558.039 280.536 557.301 282.196 556.748C283.672 556.38 285.332 556.011 286.992 556.011C293.632 555.642 299.535 555.458 303.962 555.273C306.175 555.273 307.835 555.089 309.127 555.089C310.418 555.089 311.156 555.089 311.156 555.273Z" fill="#796BC1"/>
<path d="M260.8 554.535C260.984 554.72 259.877 555.826 258.771 557.301C257.664 558.776 256.926 560.251 256.742 560.067C256.557 560.067 256.926 558.407 258.033 556.748C259.139 555.089 260.615 554.351 260.8 554.535Z" fill="#796BC1"/>
<path d="M307.282 564.123C307.282 564.307 306.175 564.861 304.146 565.598C302.117 566.336 299.351 567.442 296.215 568.548C289.943 570.761 285.148 572.973 284.963 572.789C284.779 572.605 289.574 569.839 295.846 567.626C298.982 566.52 301.933 565.598 303.962 565.045C305.806 564.492 307.098 564.123 307.282 564.123Z" fill="#796BC1"/>
</g>
</svg>
