<svg width="111" height="25" viewBox="0 0 111 25" fill="none" xmlns="http://www.w3.org/2000/svg">
<g clip-path="url(#clip0_244_805)">
<path d="M13.4013 24.9528C16.6279 24.9528 19.2186 19.3579 19.2186 12.4882C19.2422 5.5949 16.6279 0 13.4013 0C10.1982 0 7.58398 5.5949 7.58398 12.4646C7.58398 19.3579 10.1982 24.9528 13.4013 24.9528Z" fill="#181818"/>
<path d="M17.0049 0C20.2315 0 22.8222 5.5949 22.8222 12.4646C22.8222 19.3579 20.2079 24.9292 17.0049 24.9292" fill="#181818"/>
<path d="M22.0684 2.59668C24.612 2.59668 26.6845 7.03483 26.6845 12.4881C26.6845 17.9413 24.612 22.3795 22.0684 22.3795" fill="#181818"/>
<path d="M9.84477 24.9528C6.61816 24.9528 4.00391 19.3579 4.00391 12.4646C4.00391 5.5949 6.61816 0 9.84477 0" fill="#181818"/>
<path d="M4.61617 22.8521C2.07257 22.8521 0 18.414 0 12.9607C0 7.50748 2.07257 3.06934 4.61617 3.06934" fill="#181818"/>
<path d="M80.2411 22.1438C81.9604 22.1438 83.2793 21.53 84.1507 20.2789C85.0457 19.0513 85.4696 17.3516 85.4696 15.2033C82.7611 15.2033 80.7357 15.581 79.3932 16.3365C78.0508 17.0919 77.3677 18.1542 77.3677 19.4998C77.3677 20.3497 77.6268 21.0107 78.145 21.4592C78.6867 21.9314 79.3697 22.1438 80.2411 22.1438ZM87.4715 14.8964V14.1174C87.4715 10.718 85.5874 9.01824 81.8426 9.01824C80.4295 9.01824 79.2755 9.25431 78.4276 9.75006C77.5797 10.2222 77.1558 10.9304 77.1558 11.8275C77.1558 12.937 77.8152 13.7397 79.1106 14.2118C80.4059 14.684 82.5492 14.92 85.5167 14.92H87.4715V14.8964ZM96.0915 7.31852C96.8923 11.0485 97.3868 13.3856 97.3868 15.8879C97.3868 21.9314 93.383 24.9295 90.4626 24.9295C89.5912 24.9295 88.8611 24.6462 88.2958 24.1032C87.7306 23.5603 87.448 22.734 87.448 21.6481V15.2033H85.7993C85.7993 16.4781 85.7993 17.7293 85.5638 18.8388C85.3283 19.9248 84.8572 20.8926 84.3627 21.8369C83.8681 22.7812 83.1615 23.5367 82.2665 24.1032C81.3716 24.6698 80.2882 24.9531 79.0635 24.9531C77.6504 24.9531 76.4728 24.5754 75.5778 23.7963C74.6828 23.0409 74.2354 22.0258 74.2354 20.7746C74.2354 17.5876 77.1087 15.6991 82.8318 15.0853C80.4059 14.9436 78.5924 14.5895 77.3913 13.9994C76.1902 13.4092 75.6014 12.4649 75.6014 11.1665C75.6014 9.63203 76.2608 8.42806 77.5562 7.53099C78.8515 6.63391 80.6179 6.20898 82.8553 6.20898C85.3283 6.20898 87.2595 6.82277 88.6255 8.07395C90.0151 9.32513 90.6981 11.2137 90.6981 13.7633V20.6566C90.6981 23.6311 92.3703 24.1504 93.9718 22.7576C95.4556 21.4356 95.173 20.2553 95.2436 18.9333C95.2672 18.6264 95.6911 17.2807 95.6911 17.2807C95.9737 16.8558 96.5625 19.9484 96.7509 19.0041C96.9394 18.0598 97.0336 16.903 97.0336 15.5338C97.0336 13.1023 96.539 10.8832 95.7382 7.31852H96.0915Z" fill="#181818"/>
<path d="M34.1035 0H37.1182L45.0787 21.1992H45.1493L53.0157 0H56.0068L46.7273 24.3154H43.4301L34.1035 0Z" fill="#181818"/>
<path d="M69.5954 14.1646C69.4777 12.9842 69.1715 11.9927 68.6534 11.1429C68.1352 10.293 67.4758 9.67924 66.6279 9.2307C65.8036 8.80577 64.8615 8.5697 63.8017 8.5697C62.7418 8.5697 61.7762 8.80577 60.9048 9.27792C60.0334 9.75006 59.3268 10.4111 58.7616 11.2609C58.2199 12.1108 57.8431 13.0787 57.6546 14.1646H69.5954ZM59.633 23.7727C58.1728 22.9465 57.0423 21.8133 56.218 20.3497C55.3937 18.886 54.9697 17.2335 54.9697 15.4158C54.9697 13.598 55.3466 12.0872 56.1002 10.6943C56.8539 9.30152 57.9137 8.19199 59.2562 7.38934C60.5986 6.5867 62.1295 6.20898 63.8488 6.20898C65.5681 6.20898 67.0047 6.61031 68.2765 7.38934C69.5483 8.16838 70.5375 9.27792 71.2441 10.6707C71.9506 12.0872 72.3275 13.6689 72.351 15.4394V15.9351C72.351 16.1004 72.351 16.2892 72.3275 16.4781H57.6782C57.8195 17.7057 58.1963 18.768 58.8322 19.6887C59.4681 20.6094 60.2689 21.3176 61.2816 21.8369C62.2708 22.3563 63.4013 22.616 64.626 22.616C65.9449 22.616 67.1696 22.3091 68.253 21.6953C69.3364 21.0815 70.1371 20.2789 70.6082 19.311L72.8456 20.2316C72.4688 21.1759 71.88 22.0022 71.0792 22.7104C70.2549 23.4186 69.2893 23.9852 68.1823 24.3865C67.0518 24.7878 65.8742 25.0003 64.6024 25.0003C62.7418 25.0003 61.0932 24.5754 59.633 23.7727Z" fill="#181818"/>
<path d="M108.033 7.03524C108.998 7.5782 109.728 8.38084 110.223 9.39595C110.718 10.4111 110.977 11.6386 110.977 13.0551V24.3157H108.362V13.3147C108.362 11.8511 107.962 10.6707 107.161 9.79728C106.361 8.92381 105.254 8.49888 103.864 8.49888C102.71 8.49888 101.697 8.75856 100.779 9.25431C99.8602 9.75006 99.1536 10.4819 98.6355 11.4026C98.1174 12.3232 97.8818 13.3384 97.8818 14.4715V24.3157H95.2676V6.89359H97.6463L97.8818 9.49038H97.9054C98.6591 8.40445 99.6011 7.60181 100.685 7.03524C101.791 6.49227 103.087 6.20898 104.571 6.20898C105.913 6.20898 107.067 6.49227 108.033 7.03524Z" fill="#181818"/>
</g>
<defs>
<clipPath id="clip0_244_805">
<rect width="111" height="25" fill="white"/>
</clipPath>
</defs>
</svg>
