<svg width="100" height="23" viewBox="0 0 100 23" fill="none" xmlns="http://www.w3.org/2000/svg">
<g clip-path="url(#clip0_711_24527)">
<path d="M12.0729 22.48C14.9797 22.48 17.3137 17.4395 17.3137 11.2506C17.3349 5.04045 14.9797 0 12.0729 0C9.18722 0 6.83203 5.04045 6.83203 11.2294C6.83203 17.4395 9.18722 22.48 12.0729 22.48Z" fill="#FFE8CF"/>
<path d="M15.3193 0C18.2262 0 20.5602 5.04045 20.5602 11.2294C20.5602 17.4395 18.205 22.4587 15.3193 22.4587" fill="#FFE8CF"/>
<path d="M19.8809 2.33984C22.1724 2.33984 24.0396 6.33818 24.0396 11.251C24.0396 16.1639 22.1724 20.1622 19.8809 20.1622" fill="#FFE8CF"/>
<path d="M8.86946 22.48C5.96261 22.48 3.60742 17.4395 3.60742 11.2294C3.60742 5.04045 5.96261 0 8.86946 0" fill="#FFE8CF"/>
<path d="M4.15871 20.587C1.86718 20.587 0 16.5887 0 11.6758C0 6.76298 1.86718 2.76465 4.15871 2.76465" fill="#FFE8CF"/>
<path d="M72.2895 19.9495C73.8384 19.9495 75.0266 19.3965 75.8116 18.2693C76.6179 17.1634 76.9998 15.6321 76.9998 13.6968C74.5598 13.6968 72.735 14.037 71.5256 14.7176C70.3162 15.3982 69.7009 16.3552 69.7009 17.5675C69.7009 18.3331 69.9343 18.9286 70.4011 19.3327C70.8891 19.7581 71.5044 19.9495 72.2895 19.9495ZM78.8034 13.4203V12.7184C78.8034 9.65589 77.1059 8.12461 73.7323 8.12461C72.4592 8.12461 71.4195 8.33729 70.6557 8.78391C69.8918 9.20926 69.5099 9.8473 69.5099 10.6555C69.5099 11.6551 70.104 12.3782 71.271 12.8035C72.438 13.2289 74.3688 13.4415 77.0423 13.4415H78.8034V13.4203ZM86.5691 6.59333C87.2905 9.95363 87.7361 12.0591 87.7361 14.3135C87.7361 19.7581 84.1291 22.4591 81.498 22.4591C80.713 22.4591 80.0552 22.2038 79.546 21.7147C79.0368 21.2255 78.7821 20.4812 78.7821 19.5028V13.6968H77.2969C77.2969 14.8452 77.2969 15.9724 77.0847 16.972C76.8725 17.9503 76.4482 18.8223 76.0026 19.673C75.557 20.5237 74.9205 21.2043 74.1142 21.7147C73.3079 22.2251 72.3319 22.4803 71.2286 22.4803C69.9555 22.4803 68.8946 22.14 68.0883 21.4382C67.282 20.7576 66.8789 19.8431 66.8789 18.7159C66.8789 15.8448 69.4675 14.1434 74.6234 13.5904C72.438 13.4628 70.8042 13.1438 69.7221 12.6121C68.64 12.0804 68.1095 11.2297 68.1095 10.06C68.1095 8.67757 68.7036 7.59292 69.8706 6.78474C71.0376 5.97657 72.629 5.59375 74.6447 5.59375C76.8725 5.59375 78.6124 6.14671 79.843 7.2739C81.0949 8.40109 81.7102 10.1025 81.7102 12.3994V18.6096C81.7102 21.2893 83.2167 21.7572 84.6595 20.5024C85.9962 19.3114 85.7416 18.248 85.8053 17.0571C85.8265 16.7806 86.2084 15.5683 86.2084 15.5683C86.463 15.1855 86.9935 17.9716 87.1632 17.1209C87.333 16.2701 87.4178 15.228 87.4178 13.9945C87.4178 11.8039 86.9723 9.80476 86.2509 6.59333H86.5691Z" fill="#FFE8CF"/>
<path d="M30.7236 0H33.4395L40.6112 19.0984H40.6748L47.7616 0H50.4563L42.0964 21.9058H39.1259L30.7236 0Z" fill="#FFE8CF"/>
<path d="M62.6988 12.761C62.5927 11.6976 62.3169 10.8043 61.8501 10.0387C61.3833 9.27307 60.7892 8.72011 60.0253 8.31602C59.2827 7.9332 58.434 7.72052 57.4792 7.72052C56.5244 7.72052 55.6544 7.9332 54.8694 8.35855C54.0843 8.78391 53.4478 9.37941 52.9385 10.145C52.4505 10.9107 52.111 11.7827 51.9413 12.761H62.6988ZM53.7236 21.4169C52.4081 20.6726 51.3896 19.6517 50.647 18.3331C49.9044 17.0145 49.5225 15.5258 49.5225 13.8882C49.5225 12.2505 49.8619 10.8894 50.5409 9.63462C51.2199 8.37982 52.1747 7.38024 53.3841 6.65714C54.5935 5.93403 55.9727 5.59375 57.5216 5.59375C59.0705 5.59375 60.3648 5.9553 61.5106 6.65714C62.6563 7.35897 63.5475 8.35855 64.184 9.61335C64.8206 10.8894 65.1601 12.3144 65.1813 13.9094V14.3561C65.1813 14.5049 65.1813 14.6751 65.1601 14.8452H51.9625C52.0898 15.9511 52.4293 16.9082 53.0022 17.7376C53.5751 18.5671 54.2965 19.2051 55.2089 19.673C56.1 20.1409 57.1185 20.3748 58.2218 20.3748C59.41 20.3748 60.5133 20.0983 61.4894 19.5454C62.4654 18.9924 63.1868 18.2693 63.6112 17.3973L65.6269 18.2268C65.2874 19.0775 64.7569 19.8219 64.0355 20.4599C63.2929 21.0979 62.4229 21.6083 61.4257 21.9699C60.4072 22.3314 59.3464 22.5229 58.2006 22.5229C56.5244 22.5229 55.0391 22.14 53.7236 21.4169Z" fill="#FFE8CF"/>
<path d="M97.3263 6.33812C98.1962 6.82728 98.854 7.55038 99.2995 8.46489C99.7451 9.37941 99.9785 10.4853 99.9785 11.7614V21.9061H97.6233V11.9953C97.6233 10.6767 97.2626 9.61335 96.5412 8.82644C95.8198 8.03954 94.8226 7.65672 93.5707 7.65672C92.531 7.65672 91.6187 7.89066 90.7912 8.33729C89.9637 8.78391 89.3271 9.44321 88.8603 10.2726C88.3935 11.1021 88.1814 12.0166 88.1814 13.0375V21.9061H85.8262V6.21051H87.9692L88.1814 8.54996H88.2026C88.8816 7.57165 89.7303 6.84855 90.7063 6.33812C91.7035 5.84896 92.8705 5.59375 94.2072 5.59375C95.4167 5.59375 96.4563 5.84896 97.3263 6.33812Z" fill="#FFE8CF"/>
</g>
<defs>
<clipPath id="clip0_711_24527">
<rect width="100" height="22.5225" fill="white"/>
</clipPath>
</defs>
</svg>
